<svg width="75" height="40" viewBox="0 0 75 40" fill="none" xmlns="http://www.w3.org/2000/svg">
<path d="M37.0027 9.65747C53.5578 9.95938 61.6089 14.941 62.9172 22.6902C64.2255 30.4897 55.0674 37.2325 37.6569 37.2325C20.2967 37.2325 9.07544 30.4897 13.0507 18.5137C14.7112 13.4314 25.228 9.45619 37.0027 9.65747Z" fill="#E0D1B1"/>
<path d="M58.6904 25.5082C60.9045 27.0178 61.7096 30.3388 60.3006 32.6535C58.0866 31.144 57.3318 27.8229 58.6904 25.5082C59.3949 25.9611 58.2879 26.2126 58.6904 25.5082Z" fill="#EAE2D1"/>
<path d="M59.7471 27.1687C61.6089 28.7789 61.9611 31.8987 60.4515 33.8612C58.5897 32.251 58.2375 29.1312 59.7471 27.1687C60.3006 27.6719 59.2942 27.7725 59.7471 27.1687Z" fill="#EAE2D1"/>
<path d="M60.7032 27.5712C60.4013 30.1878 57.835 32.3515 55.2184 32.2005C55.5203 29.5839 58.0866 27.4202 60.7032 27.5712C60.6025 28.3763 59.8981 27.5209 60.7032 27.5712Z" fill="#EAE2D1"/>
<path d="M56.5266 30.2382C58.4891 31.4961 59.2439 34.3644 58.1369 36.4275C56.1241 35.1695 55.4196 32.3013 56.5266 30.2382C57.1305 30.6407 56.1744 30.8923 56.5266 30.2382Z" fill="#EAE2D1"/>
<path d="M58.6401 30.3891C57.3318 33.056 53.8597 34.314 51.1425 33.1566C52.4508 30.54 55.9731 29.282 58.6401 30.3891C58.2375 31.2445 57.8349 30.0368 58.6401 30.3891Z" fill="#EAE2D1"/>
<path d="M54.1113 30.6407C56.1744 32.1503 56.8286 35.3204 55.4699 37.4842C53.3565 36.0249 52.7527 32.8045 54.1113 30.6407C54.7655 31.1439 53.7088 31.3452 54.1113 30.6407Z" fill="#EAE2D1"/>
<path d="M54.061 31.4458C56.0235 33.4586 56.1241 37.0313 54.2623 39.1447C52.2495 37.1319 52.1489 33.5592 54.061 31.4458C54.6648 32.0496 53.4572 32.1 54.061 31.4458Z" fill="#EAE2D1"/>
<path d="M55.7719 33.6599C54.6648 36.1255 51.545 37.4338 49.0291 36.5281C50.1361 34.0624 53.2559 32.7541 55.7719 33.6599C55.4196 34.4147 54.9668 33.4083 55.7719 33.6599Z" fill="#EAE2D1"/>
<path d="M50.3877 29.9866C52.4004 31.949 52.5011 35.4714 50.6393 37.5848C48.6768 35.6223 48.5762 32.1 50.3877 29.9866C51.0418 30.5904 49.8342 30.6407 50.3877 29.9866Z" fill="#EAE2D1"/>
<path d="M47.8717 32.1C50.5387 33.2573 52.0482 36.6287 51.0418 39.3963C48.3749 38.2389 46.9157 34.8675 47.8717 32.1C48.7272 32.4522 47.5698 32.9554 47.8717 32.1Z" fill="#EAE2D1"/>
<path d="M47.9723 31.7477C49.3813 33.7605 48.9787 36.8299 47.0666 38.3395C45.6576 36.3771 46.0602 33.3076 47.9723 31.7477C48.4252 32.4018 47.3685 32.2509 47.9723 31.7477Z" fill="#EAE2D1"/>
<path d="M44.3997 31.3955C46.6641 32.8548 47.4692 36.1758 46.1609 38.5408C43.8462 37.0816 43.0411 33.7605 44.3997 31.3955C45.1042 31.8484 43.9971 32.1 44.3997 31.3955Z" fill="#EAE2D1"/>
<path d="M44.0977 32.0497C46.1608 34.0625 46.3621 37.7358 44.5003 39.9498C42.4372 37.9371 42.2359 34.2637 44.0977 32.0497C44.7519 32.7038 43.5442 32.7542 44.0977 32.0497Z" fill="#EAE2D1"/>
<path d="M43.3429 31.6471C44.3493 33.9115 43.2926 36.83 41.0786 37.937C40.1225 35.723 41.1792 32.7541 43.3429 31.6471C43.6448 32.3516 42.6888 31.9993 43.3429 31.6471Z" fill="#EAE2D1"/>
<path d="M39.7703 31.6471C42.1856 32.8548 43.3933 36.0752 42.3366 38.5408C39.9212 37.3332 38.7639 34.1631 39.7703 31.6471C40.5251 32.0496 39.4684 32.4019 39.7703 31.6471Z" fill="#EAE2D1"/>
<path d="M43.0913 33.7605C42.4372 36.6287 39.3677 38.7421 36.4995 38.2389C37.1537 35.421 40.1728 33.3076 43.0913 33.7605C42.8901 34.6663 42.1856 33.6095 43.0913 33.7605Z" fill="#EAE2D1"/>
<path d="M36.0466 32.905C38.5123 33.1566 40.5754 35.4713 40.4747 37.937C38.0091 37.6854 35.9963 35.3707 36.0466 32.905C36.8014 32.9553 36.0466 33.6598 36.0466 32.905Z" fill="#EAE2D1"/>
<path d="M40.6257 36.9809C38.462 38.893 34.839 38.7924 32.7759 36.7293C34.9396 34.8172 38.6129 34.9681 40.6257 36.9809C40.0219 36.3771 39.9716 37.5847 40.6257 36.9809Z" fill="#EAE2D1"/>
<path d="M37.9085 37.3331C35.5938 37.9369 32.9772 36.4777 32.2727 34.2133C34.5874 33.6095 37.204 35.119 37.9085 37.3331C37.6569 36.6789 37.204 37.5344 37.9085 37.3331Z" fill="#EAE2D1"/>
<path d="M35.8957 36.9307C33.9332 38.3899 30.9141 38.0377 29.3542 36.1759C31.2663 34.7166 34.2855 35.0688 35.8957 36.9307C35.3925 36.3268 35.2919 37.3835 35.8957 36.9307Z" fill="#EAE2D1"/>
<path d="M33.3294 33.5089C33.6816 36.4778 31.4173 39.4969 28.4484 40.0001C28.1465 37.0313 30.4109 34.0121 33.3294 33.5089C33.4301 34.4147 32.4237 33.6599 33.3294 33.5089Z" fill="#EAE2D1"/>
<path d="M32.625 33.8107C31.4173 36.2764 28.1968 37.4841 25.6306 36.4274C26.8382 33.9617 30.109 32.754 32.625 33.8107C32.2727 34.5655 31.8702 33.4585 32.625 33.8107Z" fill="#EAE2D1"/>
<path d="M27.0395 31.7981C29.2032 33.358 29.807 36.7294 28.3478 38.9435C26.2344 37.3836 25.5802 34.0625 27.0395 31.7981C27.6936 32.3013 26.5866 32.5026 27.0395 31.7981Z" fill="#EAE2D1"/>
<path d="M30.0083 34.4147C29.1026 37.2829 25.8318 39.0944 22.9636 38.3899C23.8694 35.5217 27.1401 33.7102 30.0083 34.4147C29.7567 35.3204 29.1026 34.2134 30.0083 34.4147Z" fill="#EAE2D1"/>
<path d="M26.2343 31.2948C27.291 33.7604 26.184 36.9306 23.819 38.1886C22.712 35.7229 23.8693 32.5528 26.2343 31.2948C26.5866 32.0496 25.4796 31.6974 26.2343 31.2948Z" fill="#EAE2D1"/>
<path d="M23.7184 29.4833C25.2783 31.7476 24.6745 35.2197 22.4604 36.8802C20.9509 34.5655 21.5547 31.1438 23.7184 29.4833C24.2216 30.1877 23.0643 29.9865 23.7184 29.4833Z" fill="#EAE2D1"/>
<path d="M24.9261 34.9681C22.2088 35.5217 19.1897 33.7605 18.4349 31.0432C21.1521 30.4394 24.1713 32.3012 24.9261 34.9681C24.7248 34.1127 24.121 35.1191 24.9261 34.9681Z" fill="#EAE2D1"/>
<path d="M22.6114 29.0808C22.6114 31.8484 20.2967 34.3643 17.5291 34.5656C17.5291 31.8484 19.8438 29.2821 22.6114 29.0808C22.6114 29.9362 21.7559 29.1814 22.6114 29.0808Z" fill="#EAE2D1"/>
<path d="M21.0012 29.2318C20.2967 32.1503 17.1266 34.3141 14.1074 33.8109C14.8119 30.842 18.0323 28.7286 21.0012 29.2318C20.7999 30.1376 20.0954 29.0809 21.0012 29.2318Z" fill="#EAE2D1"/>
<path d="M19.4916 27.3197C19.0387 30.0369 16.2711 32.0497 13.5539 31.7478C14.0571 29.0808 16.8247 27.0177 19.4916 27.3197C19.3406 28.1751 18.6865 27.219 19.4916 27.3197Z" fill="#EAE2D1"/>
<path d="M19.089 28.4267C16.8749 30.0872 13.4029 29.7853 11.5914 27.7222C13.7552 26.0113 17.2272 26.3636 19.089 28.4267C18.4852 27.7725 18.3845 28.9299 19.089 28.4267Z" fill="#EAE2D1"/>
<path d="M16.3718 30.4394C14.0571 30.0871 12.1953 27.7725 12.3966 25.4578C14.7113 25.7597 16.5731 28.0744 16.3718 30.4394C16.4221 29.6846 15.6673 30.3387 16.3718 30.4394Z" fill="#EAE2D1"/>
<path d="M17.7807 28.2254C14.8622 28.6279 11.8934 26.4642 11.3398 23.596C14.208 23.2438 17.1769 25.4075 17.7807 28.2254C17.5794 27.3699 16.875 28.3763 17.7807 28.2254Z" fill="#EAE2D1"/>
<path d="M61.156 25.8604C59.5458 27.9738 56.2247 28.4267 54.0106 26.9171C55.6712 24.854 58.9922 24.3508 61.156 25.8604C60.6528 26.5145 60.5018 25.4075 61.156 25.8604Z" fill="#EAE2D1"/>
<path d="M56.6273 22.0362C55.7719 24.9547 52.5011 26.9675 49.4819 26.3636C50.287 23.3948 53.6081 21.382 56.6273 22.0362C56.3254 22.9419 55.6712 21.8349 56.6273 22.0362Z" fill="#EAE2D1"/>
<path d="M62.3134 31.4962C60.7031 33.8612 57.1808 34.6664 54.7151 33.2071C56.275 30.8421 59.8477 30.037 62.3134 31.4962C61.8102 32.2007 61.5083 31.0434 62.3134 31.4962Z" fill="#EAE2D1"/>
<path d="M54.7654 31.0936C57.6336 31.3955 60.049 34.1128 59.898 36.981C57.0298 36.7294 54.6648 33.9618 54.7654 31.0936C55.6712 31.1943 54.7654 31.9994 54.7654 31.0936Z" fill="#EAE2D1"/>
<path d="M53.8094 26.1623C51.6959 28.2758 47.922 28.3764 45.7079 26.4139C47.8214 24.3005 51.5953 24.1999 53.8094 26.1623C53.1552 26.8165 53.1552 25.5585 53.8094 26.1623Z" fill="#EAE2D1"/>
<path d="M52.954 25.8604C52.1488 28.3261 49.2806 29.9363 46.7646 29.2821C47.5698 26.8165 50.438 25.2063 52.954 25.8604C52.7024 26.6152 52.1488 25.6591 52.954 25.8604Z" fill="#EAE2D1"/>
<path d="M46.513 29.6344C48.4252 31.144 48.878 34.1128 47.4691 36.0753C45.6073 34.616 45.2047 31.5969 46.513 29.6344C47.1169 30.1376 46.1105 30.2886 46.513 29.6344Z" fill="#EAE2D1"/>
<path d="M53.5074 25.6592C54.1113 28.1751 52.501 30.993 50.0354 31.7478C49.4316 29.2822 51.0418 26.4643 53.5074 25.6592C53.7087 26.4643 52.7527 25.9108 53.5074 25.6592Z" fill="#EAE2D1"/>
<path d="M48.8781 24.8037C49.029 27.1687 47.1169 29.4834 44.7519 29.8356C44.6009 27.4706 46.5131 25.1056 48.8781 24.8037C48.9284 25.5585 48.1233 24.9043 48.8781 24.8037Z" fill="#EAE2D1"/>
<path d="M55.4196 22.5896C54.9164 25.1056 52.2998 26.9674 49.7335 26.6655C50.2367 24.1495 52.9036 22.2374 55.4196 22.5896C55.2686 23.3444 54.6145 22.489 55.4196 22.5896Z" fill="#EAE2D1"/>
<path d="M51.7966 22.3884C50.136 24.854 46.5131 25.7094 43.9468 24.2502C45.6073 21.7845 49.2303 20.9291 51.7966 22.3884C51.2934 23.1432 50.9915 21.9355 51.7966 22.3884Z" fill="#EAE2D1"/>
<path d="M49.6328 21.2813C48.6264 23.6967 45.6576 25.0553 43.192 24.2502C44.148 21.8348 47.1672 20.4762 49.6328 21.2813C49.3309 22.0361 48.878 21.0297 49.6328 21.2813Z" fill="#EAE2D1"/>
<path d="M45.406 18.2622C47.0163 20.7782 46.3621 24.5018 43.9971 26.3133C42.3365 23.7973 42.9907 20.0737 45.406 18.2622C45.9092 19.0673 44.6513 18.8157 45.406 18.2622Z" fill="#EAE2D1"/>
<path d="M46.2111 21.6336C45.7079 24.4012 42.8397 26.5649 40.0219 26.2127C40.525 23.4451 43.3932 21.2814 46.2111 21.6336C46.0602 22.489 45.3557 21.533 46.2111 21.6336Z" fill="#EAE2D1"/>
<path d="M41.0283 20.124C41.1289 23.0425 38.7136 25.8604 35.795 26.2127C35.6944 23.2438 38.1097 20.4763 41.0283 20.124C41.0283 21.0298 40.1225 20.2247 41.0283 20.124Z" fill="#EAE2D1"/>
<path d="M39.1161 21.7343C40.6257 23.8477 40.1728 27.1184 38.1601 28.779C36.6505 26.6656 37.1034 23.3445 39.1161 21.7343C39.569 22.3884 38.5123 22.2374 39.1161 21.7343Z" fill="#EAE2D1"/>
<path d="M43.0913 27.37C41.5314 29.3828 38.3613 29.9363 36.2479 28.5274C37.7575 26.5146 40.9276 25.9611 43.0913 27.37C42.5882 28.0242 42.4372 26.9171 43.0913 27.37Z" fill="#EAE2D1"/>
<path d="M39.5187 28.4771C42.4372 29.3325 44.3996 32.6032 43.7455 35.5721C40.827 34.767 38.8645 31.4459 39.5187 28.4771C40.4244 28.7286 39.3174 29.3828 39.5187 28.4771Z" fill="#EAE2D1"/>
<path d="M43.9467 32.3013C42.5378 34.7166 39.2167 35.723 36.7007 34.465C38.1097 32.0497 41.4811 31.0936 43.9467 32.3013C43.5442 33.0561 43.192 31.9491 43.9467 32.3013Z" fill="#EAE2D1"/>
<path d="M41.3805 30.993C39.9716 33.358 36.6002 34.3644 34.1345 33.1064C35.5435 30.6911 38.9149 29.735 41.3805 30.993C40.9276 31.6975 40.6257 30.5904 41.3805 30.993Z" fill="#EAE2D1"/>
<path d="M39.3677 34.1631C37.053 35.0689 34.1848 33.9116 33.1281 31.6472C35.4428 30.7414 38.311 31.9491 39.3677 34.1631C39.0155 33.4587 38.6633 34.4147 39.3677 34.1631Z" fill="#EAE2D1"/>
<path d="M38.6633 28.0242C41.6321 28.4267 44.0474 31.3453 43.8462 34.3644C40.827 33.9619 38.462 30.993 38.6633 28.0242C39.6193 28.1248 38.6129 28.9299 38.6633 28.0242Z" fill="#EAE2D1"/>
<path d="M45.8086 29.6343C43.3933 31.4962 39.569 31.1439 37.5562 28.8292C39.9715 26.9674 43.7958 27.37 45.8086 29.6343C45.2048 28.9299 45.0538 30.2382 45.8086 29.6343Z" fill="#EAE2D1"/>
<path d="M34.99 25.1056C33.732 27.7222 30.3102 29.0305 27.6433 27.9234C28.851 25.3572 32.2727 24.0489 34.99 25.1056C34.5874 25.9107 34.1345 24.7533 34.99 25.1056Z" fill="#EAE2D1"/>
<path d="M34.99 20.9795C37.5562 22.5394 38.5123 26.1624 37.1537 28.8293C34.5874 27.2694 33.6313 23.6464 34.99 20.9795C35.7951 21.4827 34.5874 21.8349 34.99 20.9795Z" fill="#EAE2D1"/>
<path d="M34.3358 19.9227C35.5938 21.8852 35.0906 24.8037 33.2287 26.2127C31.9204 24.2502 32.474 21.3317 34.3358 19.9227C34.7383 20.5266 33.7319 20.3756 34.3358 19.9227Z" fill="#EAE2D1"/>
<path d="M44.1984 19.6208C44.45 22.1368 42.4875 24.6528 40.0219 25.005C39.7703 22.4891 41.7327 20.0234 44.1984 19.6208C44.299 20.3756 43.4436 19.7215 44.1984 19.6208Z" fill="#EAE2D1"/>
<path d="M39.2167 16.501C40.7263 18.5138 40.4244 21.6335 38.5626 23.2438C37.053 21.2813 37.3549 18.1615 39.2167 16.501C39.6696 17.1551 38.6632 17.0545 39.2167 16.501Z" fill="#EAE2D1"/>
<path d="M34.3358 16.5514C37.2543 16.9539 39.6193 19.8221 39.418 22.7407C36.4995 22.3884 34.1345 19.4699 34.3358 16.5514C35.2415 16.7023 34.2854 17.4571 34.3358 16.5514Z" fill="#EAE2D1"/>
<path d="M34.688 15.092C36.1473 16.9539 35.8453 19.8724 34.1345 21.4323C32.6752 19.6208 32.9268 16.6519 34.688 15.092C35.1409 15.6456 34.1345 15.5952 34.688 15.092Z" fill="#EAE2D1"/>
<path d="M35.946 19.2183C37.5562 21.0298 37.4556 24.1496 35.7447 25.8604C34.1345 23.9986 34.2351 20.9291 35.946 19.2183C36.4492 19.7718 35.3924 19.7718 35.946 19.2183Z" fill="#EAE2D1"/>
<path d="M38.8142 23.747C37.6568 25.9107 34.7383 26.9674 32.4739 25.961C33.6313 23.7973 36.5498 22.7909 38.8142 23.747C38.4619 24.4514 38.1097 23.445 38.8142 23.747Z" fill="#EAE2D1"/>
<path d="M38.1098 23.5961C38.6633 26.5649 36.6002 29.8357 33.6816 30.5401C33.1281 27.5713 35.1912 24.3509 38.1098 23.5961C38.311 24.5521 37.204 23.8477 38.1098 23.5961Z" fill="#EAE2D1"/>
<path d="M29.6561 20.5266C29.1025 22.8413 26.5866 24.5018 24.2719 24.049C24.8254 21.7343 27.3414 20.124 29.6561 20.5266C29.5051 21.2311 28.9516 20.426 29.6561 20.5266Z" fill="#EAE2D1"/>
<path d="M31.4675 23.9482C32.1217 26.4139 30.6624 29.2821 28.2471 30.0872C27.5426 27.6216 29.0522 24.8037 31.4675 23.9482C31.6688 24.703 30.7128 24.1998 31.4675 23.9482Z" fill="#EAE2D1"/>
<path d="M25.6808 23.8477C27.8949 24.9044 29.0522 27.7222 28.1464 29.9866C25.9324 28.9802 24.8254 26.112 25.6808 23.8477C26.3853 24.1999 25.4292 24.5521 25.6808 23.8477Z" fill="#EAE2D1"/>
<path d="M34.2854 32.6032C32.6752 34.616 29.4548 35.0688 27.3414 33.5592C28.9516 31.5465 32.172 31.0936 34.2854 32.6032C33.7822 33.207 33.6313 32.1 34.2854 32.6032Z" fill="#EAE2D1"/>
<path d="M24.9763 26.8165C23.4668 28.6783 20.4979 29.0809 18.5355 27.7223C20.045 25.8604 23.0139 25.4579 24.9763 26.8165C24.4731 27.37 24.3725 26.414 24.9763 26.8165Z" fill="#EAE2D1"/>
<path d="M22.561 28.175C25.4292 28.6782 27.6433 31.5464 27.3414 34.465C24.4732 33.9618 22.3094 31.0433 22.561 28.175C23.4668 28.326 22.5107 29.0808 22.561 28.175Z" fill="#EAE2D1"/>
<path d="M28.1465 24.703C30.1592 26.1119 30.7631 29.1311 29.4548 31.2445C27.4923 29.8356 26.8382 26.7661 28.1465 24.703C28.7503 25.1056 27.7439 25.3068 28.1465 24.703Z" fill="#EAE2D1"/>
<path d="M17.6801 22.3884C20.0451 24.1999 20.6489 27.9236 18.9884 30.3892C16.6737 28.5777 16.0698 24.8541 17.6801 22.3884C18.4349 22.9419 17.1769 23.1432 17.6801 22.3884Z" fill="#EAE2D1"/>
<path d="M19.4412 21.3317C21.0514 23.1935 20.9508 26.3133 19.24 28.0241C17.5794 26.1623 17.7304 23.0928 19.4412 21.3317C19.9444 21.9355 18.8877 21.8852 19.4412 21.3317Z" fill="#EAE2D1"/>
<path d="M23.9196 20.8285C26.4356 22.0362 27.7439 25.3069 26.7375 27.8732C24.2215 26.7159 22.9133 23.4451 23.9196 20.8285C24.6744 21.231 23.5674 21.6336 23.9196 20.8285Z" fill="#EAE2D1"/>
<path d="M24.9763 18.5138C27.5426 20.0234 28.6496 23.6967 27.2407 26.3636C24.6744 24.854 23.6177 21.1807 24.9763 18.5138C25.7814 18.9667 24.5235 19.3189 24.9763 18.5138Z" fill="#EAE2D1"/>
<path d="M32.5746 16.9036C32.9268 19.8221 30.7631 22.8413 27.8446 23.3445C27.4923 20.4259 29.7064 17.4571 32.5746 16.9036C32.6753 17.8093 31.6689 17.0545 32.5746 16.9036Z" fill="#EAE2D1"/>
<path d="M24.5738 14.5889C26.4356 16.4004 26.6369 19.7214 24.9261 21.7342C23.0139 19.8724 22.863 16.5513 24.5738 14.5889C25.1776 15.1424 24.0706 15.1927 24.5738 14.5889Z" fill="#EAE2D1"/>
<path d="M27.6937 17.3565C26.4357 19.8724 23.1146 21.1807 20.498 20.124C21.7057 17.5577 25.077 16.2998 27.6937 17.3565C27.2911 18.1616 26.8382 17.0042 27.6937 17.3565Z" fill="#EAE2D1"/>
<path d="M24.2216 19.168C26.184 21.0801 26.3853 24.6025 24.5738 26.7159C22.561 24.8037 22.4101 21.2814 24.2216 19.168C24.8254 19.7215 23.6178 19.8221 24.2216 19.168Z" fill="#EAE2D1"/>
<path d="M21.303 17.8596C23.819 19.4195 24.8757 22.9922 23.5171 25.6591C20.9508 24.1495 19.8941 20.5265 21.303 17.8596C22.0578 18.3628 20.8501 18.715 21.303 17.8596Z" fill="#EAE2D1"/>
<path d="M19.5419 17.0043C21.2024 19.2183 20.7999 22.7407 18.6864 24.5019C17.0259 22.2878 17.3782 18.8158 19.5419 17.0043C20.0451 17.6584 18.8374 17.5578 19.5419 17.0043Z" fill="#EAE2D1"/>
<path d="M25.9827 27.8732C23.2152 29.0808 19.6425 27.8732 18.2336 25.2062C20.9508 23.9482 24.5738 25.2062 25.9827 27.8732C25.5299 27.068 25.1273 28.2757 25.9827 27.8732Z" fill="#EAE2D1"/>
<path d="M18.4852 25.0553C21.4037 25.4075 23.7687 28.2757 23.6177 31.1943C20.6992 30.842 18.3342 27.9738 18.4852 25.0553C19.3909 25.1559 18.4349 25.961 18.4852 25.0553Z" fill="#EAE2D1"/>
<path d="M59.6968 32.8548C58.6904 35.7733 55.2687 37.6855 52.2495 36.8803C53.2559 33.9115 56.6776 32.0497 59.6968 32.8548C59.3949 33.7605 58.7407 32.6032 59.6968 32.8548Z" fill="#FFFDFA"/>
<path d="M48.2743 28.6279C49.0794 30.691 48.073 33.3579 46.0099 34.314C45.2048 32.2509 46.2615 29.584 48.2743 28.6279C48.5259 29.2821 47.6201 28.9298 48.2743 28.6279Z" fill="#FFFDFA"/>
<path d="M49.4316 31.2446C46.7647 30.1376 45.2048 26.8165 46.1609 24.049C48.8278 25.156 50.3374 28.5274 49.4316 31.2446C49.7336 30.3892 48.5762 30.8924 49.4316 31.2446Z" fill="#FFFDFA"/>
<path d="M50.1361 26.7661C53.2559 26.4139 56.4764 28.8292 56.9796 31.9993C53.8598 32.3012 50.6393 29.8859 50.1361 26.7661C51.0922 26.6655 50.2871 27.7222 50.1361 26.7661Z" fill="#FFFDFA"/>
<path d="M47.9221 33.4586C49.0794 31.3452 51.9979 30.3388 54.212 31.3955C53.0546 33.509 50.1361 34.5153 47.9221 33.4586C48.5762 33.8109 48.2743 32.8045 47.9221 33.4586Z" fill="#FFFDFA"/>
<path d="M48.224 32.9052C46.3119 34.1128 43.494 33.6096 42.1354 31.7981C43.9972 30.5905 46.8654 31.0937 48.224 32.9052C47.7711 32.3013 47.6202 33.2574 48.224 32.9052Z" fill="#FFFDFA"/>
<path d="M43.3933 32.5025C46.1106 31.2445 49.7336 32.3516 51.1928 34.9179C48.4756 36.2765 44.9029 35.1191 43.3933 32.5025C44.2487 32.1 43.8462 33.358 43.3933 32.5025Z" fill="#FFFDFA"/>
<path d="M44.8526 29.0808C43.5443 31.3452 40.4245 32.3013 38.0594 31.1439C39.3678 28.8796 42.5379 27.9235 44.8526 29.0808C44.45 29.7853 44.1481 28.7286 44.8526 29.0808Z" fill="#FFFDFA"/>
<path d="M42.4373 26.4643C43.5946 24.1496 46.7144 23.0426 49.0794 24.0993C47.8718 26.4139 44.8023 27.521 42.4373 26.4643C43.1417 26.8165 42.7895 25.7598 42.4373 26.4643Z" fill="#FFFDFA"/>
<path d="M47.9724 26.8164C45.3558 26.6655 43.0914 24.3004 43.0411 21.6838C45.6577 21.7845 47.9724 24.1998 47.9724 26.8164C47.9724 26.0113 47.1673 26.7661 47.9724 26.8164Z" fill="#FFFDFA"/>
<path d="M45.6577 29.6344C43.2423 30.6911 40.0722 29.5337 38.8646 27.1687C41.2799 26.112 44.45 27.2693 45.6577 29.6344C45.3054 28.8796 44.9029 29.9363 45.6577 29.6344Z" fill="#FFFDFA"/>
<path d="M38.9652 32.4522C36.1473 33.1567 32.8766 31.3955 31.9708 28.6279C34.7887 27.8732 38.0595 29.6846 38.9652 32.4522C38.6633 31.5968 38.0595 32.6535 38.9652 32.4522Z" fill="#FFFDFA"/>
<path d="M31.8702 36.5785C31.7696 33.9618 33.883 31.5465 36.4493 31.2949C36.5499 33.8612 34.4365 36.2765 31.8702 36.5785C32.625 36.4778 31.8199 35.7733 31.8702 36.5785Z" fill="#FFFDFA"/>
<path d="M35.5938 35.2199C37.1034 32.7039 40.6761 31.6975 43.2927 33.0561C41.7831 35.5721 38.1601 36.5785 35.5938 35.2199C36.3989 35.6224 36.0467 34.4148 35.5938 35.2199Z" fill="#FFFDFA"/>
<path d="M43.2423 24.0992C42.9907 26.6655 40.5251 28.8292 37.9588 28.7286C38.1601 26.1623 40.6257 23.9986 43.2423 24.0992C43.1417 24.9043 42.4372 24.0489 43.2423 24.0992Z" fill="#FFFDFA"/>
<path d="M37.7576 17.6583C39.7704 19.9227 39.72 23.747 37.5563 25.9107C35.5435 23.6463 35.6442 19.8221 37.7576 17.6583C38.4117 18.3628 37.1034 18.3628 37.7576 17.6583Z" fill="#FFFDFA"/>
<path d="M30.5619 26.3133C29.958 23.2941 31.9708 20.0234 34.9396 19.2183C35.5435 22.2374 33.4804 25.5082 30.5619 26.3133C31.4676 26.0617 30.3606 25.3572 30.5619 26.3133Z" fill="#FFFDFA"/>
<path d="M29.3542 24.6527C31.9205 24.4012 34.4868 26.4139 34.8893 28.9299C32.323 29.1815 29.7567 27.1687 29.3542 24.6527C30.1593 24.6024 29.5051 25.4579 29.3542 24.6527Z" fill="#FFFDFA"/>
<path d="M32.7256 29.3324C30.6625 31.6471 26.7879 31.9993 24.3223 30.0872C26.3854 27.7725 30.3103 27.4203 32.7256 29.3324C32.1218 30.0369 31.9708 28.7286 32.7256 29.3324Z" fill="#FFFDFA"/>
<path d="M35.5435 37.2325C32.8766 38.2389 29.6058 36.8803 28.4485 34.314C31.1154 33.3076 34.3862 34.6663 35.5435 37.2325C35.1913 36.4274 34.7384 37.5345 35.5435 37.2325Z" fill="#FFFDFA"/>
<path d="M26.0834 34.0121C26.7879 31.7478 29.3542 30.1879 31.7192 30.7414C31.0147 33.0058 28.4484 34.5657 26.0834 34.0121C26.8382 34.2134 26.335 33.3077 26.0834 34.0121Z" fill="#FFFDFA"/>
<path d="M21.756 30.8924C22.0076 28.7287 24.121 26.9172 26.335 27.0178C26.0834 29.2318 23.97 31.0434 21.756 30.8924C22.4605 30.9427 21.8566 30.2382 21.756 30.8924Z" fill="#FFFDFA"/>
<path d="M28.0459 25.5082C25.8822 26.3637 23.165 25.3573 22.1586 23.2439C24.3223 22.3884 27.0396 23.4451 28.0459 25.5082C27.744 24.8541 27.3918 25.8101 28.0459 25.5082Z" fill="#FFFDFA"/>
<path d="M26.0834 19.822C27.4924 18.0105 30.3103 17.5577 32.1721 18.866C30.7631 20.6271 27.9453 21.08 26.0834 19.822C26.6873 20.2246 26.5363 19.2685 26.0834 19.822Z" fill="#FFFDFA"/>
<path d="M28.5994 22.3883C31.2664 21.1303 34.7887 22.2373 36.248 24.7533C33.5811 26.0616 30.0587 24.9546 28.5994 22.3883C29.4549 21.9857 29.0523 23.1934 28.5994 22.3883Z" fill="#FFFDFA"/>
<path d="M22.8127 26.8165C22.3598 24.5521 23.8694 21.9858 26.1338 21.382C26.637 23.6463 25.0771 26.2126 22.8127 26.8165C23.5172 26.6152 22.7121 26.112 22.8127 26.8165Z" fill="#FFFDFA"/>
<path d="M23.7184 30.8421C26.1841 28.9802 30.0587 29.3325 32.0715 31.6472C29.6561 33.509 25.7815 33.1567 23.7184 30.8421C24.4732 30.2382 24.3726 31.5465 23.7184 30.8421Z" fill="#FFFDFA"/>
<path d="M16.5731 26.0617C19.24 25.2566 22.4101 26.8668 23.3662 29.4834C20.6489 30.2885 17.5291 28.6783 16.5731 26.0617C17.3782 25.8101 16.875 26.8668 16.5731 26.0617Z" fill="#FFFDFA"/>
<path d="M19.9445 24.3005C19.8942 26.8165 17.7304 29.1312 15.2145 29.2822C15.2145 26.7662 17.4285 24.4515 19.9445 24.3005C19.9445 25.0553 19.1394 24.3509 19.9445 24.3005Z" fill="#FFFDFA"/>
<path d="M21.1522 24.854C18.6865 25.1056 16.1706 23.2438 15.768 20.7781C18.2337 20.5265 20.7496 22.4387 21.1522 24.854C21.0012 24.0992 20.3974 24.9546 21.1522 24.854Z" fill="#FFFDFA"/>
<path d="M22.9134 30.1878C20.8 28.175 20.5484 24.5521 22.4102 22.338C24.5236 24.3005 24.7249 27.9235 22.9134 30.1878C23.4669 29.4834 22.2592 29.5337 22.9134 30.1878Z" fill="#FFFDFA"/>
<path d="M17.9821 24.6527C19.8439 26.2629 20.1961 29.3827 18.7369 31.3452C16.8247 29.735 16.4725 26.6152 17.9821 24.6527C18.5356 25.1559 17.5292 25.2565 17.9821 24.6527Z" fill="#FFFDFA"/>
<path style="mix-blend-mode:screen" d="M10.5347 24.401C11.692 20.2245 20.045 18.9666 29.2032 21.5329C38.311 24.0488 44.8022 29.5336 43.6448 33.6598C42.4875 37.8363 34.1345 39.0943 24.9763 36.528C15.8182 33.9617 9.37731 28.5272 10.5347 24.401Z" fill="url(#paint0_radial_1_4089)"/>
<path style="mix-blend-mode:multiply" d="M0.974013 25.961C0.118583 23.2438 6.76074 18.715 15.8182 15.7965C24.8757 12.9283 32.8765 12.8277 33.7822 15.5449C34.6377 18.2622 27.9955 22.7909 18.938 25.6591C9.88055 28.5273 1.82944 28.6783 0.974013 25.961Z" fill="url(#paint1_radial_1_4089)"/>
<path style="mix-blend-mode:multiply" d="M15.1641 15.4442C15.3654 12.576 23.2152 10.8652 32.6752 11.5696C42.1353 12.2741 49.6329 15.1423 49.4316 18.0105C49.2303 20.8284 41.3805 22.5896 31.8701 21.8851C22.4101 21.1806 14.9125 18.2621 15.1641 15.4442Z" fill="url(#paint2_radial_1_4089)"/>
<path style="mix-blend-mode:multiply" d="M27.7439 12.3747C28.6497 9.65745 36.7008 9.85872 45.7079 12.8276C54.7151 15.7964 61.307 20.3755 60.4012 23.0927C59.5458 25.81 51.4947 25.6087 42.4875 22.6398C33.4803 19.671 26.8885 15.0416 27.7439 12.3747Z" fill="url(#paint3_radial_1_4089)"/>
<path style="mix-blend-mode:multiply" d="M35.1912 14.5385C36.4492 11.9219 44.3997 13.1799 52.954 17.2558C61.5083 21.3316 67.4963 26.7158 66.2383 29.3324C65.0306 31.8987 57.0802 30.6407 48.4755 26.5648C39.9212 22.489 33.9835 17.1048 35.1912 14.5385Z" fill="url(#paint4_radial_1_4089)"/>
<path d="M35.5434 8.29879C21.1017 8.29879 7.96838 15.3938 0.26952 24.3004C-2.49805 18.6143 16.5227 3.46814 35.5434 3.46814C52.4507 3.46814 58.64 11.167 66.1879 17.7085C73.7358 24.25 75.8995 23.9481 73.5849 25.9106C73.0817 26.3634 72.6791 26.917 72.3772 27.4705C62.9674 21.6837 54.0609 8.29879 35.5434 8.29879Z" fill="#FA783C"/>
<path d="M72.3772 27.4705C71.2701 29.5839 70.9179 32.2005 68.5026 32.3012C62.6152 32.6031 52.6017 22.2876 43.2423 19.3691C33.8829 16.4002 22.561 17.0544 14.5602 23.445C6.50911 29.8355 2.48358 28.8291 0.269531 24.3004C7.96839 15.3939 21.1017 8.29883 35.5434 8.29883C54.0609 8.29883 62.9675 21.6838 72.3772 27.4705Z" fill="#ED6239"/>
<g style="mix-blend-mode:screen">
<path d="M72.3269 27.5711C71.5218 27.1182 70.6663 26.615 69.8612 26.1118C69.2574 26.4137 68.7039 26.615 68.1 26.8163C67.4626 27.0176 66.8253 27.1685 66.1879 27.2692C64.8796 27.504 63.5881 27.5711 62.3133 27.4704H62.263C61.8604 27.4201 61.3572 27.4704 60.9044 27.6214C60.4515 27.7724 60.0992 28.1749 59.9483 28.6278C59.9483 28.1246 60.3005 27.6214 60.7534 27.3195C61.2063 27.0176 61.7598 26.8666 62.3133 26.8666C63.5713 26.766 64.7789 26.615 65.9866 26.3634C66.624 26.2292 67.2278 26.0783 67.7981 25.9105C68.2007 25.7763 68.5864 25.6422 68.9555 25.508C67.1943 24.25 65.5337 22.9417 63.8732 21.6334C63.7055 21.5327 63.5713 21.4321 63.4706 21.3315C62.7326 21.5999 61.9946 21.8179 61.2566 21.9856C60.3509 22.1869 59.4451 22.3379 58.489 22.3882C56.6775 22.5895 54.8157 22.4888 53.0042 22.0863C52.8533 22.036 52.652 22.036 52.5513 22.0863C52.4507 22.1366 52.4004 22.3379 52.3501 22.4888C52.3501 22.8411 52.4507 23.2436 52.6017 23.5959C52.4004 23.2939 52.1991 22.9417 52.1488 22.4888C52.1488 22.2875 52.1991 22.0359 52.4004 21.885C52.6017 21.734 52.8533 21.734 53.1049 21.734H53.0545C54.866 21.8347 56.6272 21.734 58.3884 21.4824C59.2941 21.3818 60.1496 21.2308 61.005 21.0296C61.5417 20.8954 62.0617 20.7612 62.5649 20.627C60.6528 19.1174 58.6903 17.6582 56.7279 16.2492C55.0505 16.9872 53.3397 17.5743 51.5953 18.0104C50.5889 18.3123 49.5825 18.5136 48.5258 18.6645C48.2742 18.6645 47.9723 18.6646 47.771 18.7149C47.5697 18.8155 47.3684 18.9162 47.2175 19.0671C46.8652 19.4193 46.9659 20.0232 47.1672 20.476C46.8653 20.0735 46.664 19.4697 46.9659 18.9161C47.3181 18.413 47.9723 18.262 48.4252 18.1614C49.4315 17.893 50.4211 17.5911 51.394 17.2556C52.8532 16.7524 54.3125 16.1989 55.7718 15.5951C55.7382 15.5615 55.7047 15.5448 55.6711 15.5448C53.9267 14.4042 52.132 13.3642 50.287 12.4249C48.878 13.5991 47.3517 14.6222 45.7079 15.4944C44.8022 15.9473 43.8461 16.3499 42.8397 16.6014C42.2862 16.7524 41.8333 16.8027 41.4308 17.0543C41.0282 17.3059 40.7263 17.7588 40.7263 18.262C40.5753 17.7588 40.8269 17.2053 41.2798 16.853C41.6824 16.5008 42.2359 16.2995 42.6384 16.1486C43.5945 15.746 44.4499 15.2932 45.3557 14.7396C46.7143 13.9345 48.0729 12.9785 49.3309 11.9721C48.4922 11.5695 47.62 11.2005 46.7143 10.865C45.5569 10.4625 44.3493 10.1103 43.1416 9.75803C42.5378 10.2612 41.9172 10.7476 41.2798 11.2173C40.5082 11.7876 39.7367 12.3243 38.9651 12.8275C38.16 13.3307 37.3046 13.7836 36.4995 14.2364C35.644 14.639 34.7886 15.0416 33.8325 15.2428C33.4803 15.4441 33.0778 15.6957 32.8262 15.9976C32.5746 16.2995 32.4236 16.8027 32.6249 17.2053C32.3733 16.8531 32.3733 16.2995 32.6752 15.897C32.9268 15.4944 33.279 15.1422 33.6816 14.9409L33.7319 14.8906C34.5706 14.5551 35.3757 14.1358 36.1472 13.6326C36.9523 13.1797 37.7071 12.6262 38.4619 12.123C39.6696 11.2676 40.8269 10.4122 41.9339 9.45611C40.2566 9.12065 38.5626 8.88582 36.8517 8.75164C35.5434 8.651 34.1848 8.65099 32.8262 8.65099C31.8198 10.2277 30.696 11.6702 29.4548 12.9785C28.1464 14.3874 26.7375 15.6454 25.1273 16.6014C25.0266 16.8027 24.926 17.1046 24.9763 17.3562C25.0266 17.6582 25.1776 17.9098 25.3789 18.1614C25.1776 17.9601 24.926 17.7085 24.8254 17.4066C24.7247 17.1046 24.7247 16.7524 24.8757 16.4505L24.926 16.4002C26.335 15.1925 27.5929 13.8339 28.8006 12.4249C29.807 11.2676 30.7127 10.0096 31.6185 8.70132C29.9412 8.8355 28.2974 9.07032 26.6872 9.40579C26.0498 9.57352 25.4292 9.74125 24.8254 9.90898C23.9196 11.5695 22.8629 13.0791 21.7056 14.5384C21.1353 15.2764 20.5147 15.9641 19.8437 16.6014C19.1896 17.2556 18.5354 17.8594 17.831 18.4633C17.6297 18.8658 17.4787 19.3187 17.4284 19.8219C17.4284 20.0735 17.4284 20.2748 17.5291 20.5264C17.6297 20.7276 17.831 20.9289 18.0826 20.9792C17.831 20.9792 17.5794 20.8283 17.4284 20.5767C17.2775 20.3251 17.2271 20.0735 17.2271 19.8219C17.1768 19.2684 17.2775 18.7652 17.4284 18.262V18.2117L17.4787 18.1614C18.1329 17.5072 18.7367 16.8531 19.3405 16.1486C19.8941 15.4441 20.4476 14.7396 21.0011 13.9849C21.8733 12.8107 22.6784 11.5863 23.4164 10.3115C21.2527 11.016 19.1393 11.9218 17.0762 12.8778C16.6736 13.0791 16.2711 13.2804 15.8685 13.4817C14.7615 15.3435 13.6041 17.1046 12.2958 18.8658C10.9372 20.6773 9.42764 22.4385 7.71678 23.9984C7.7671 24.25 7.81741 24.5016 7.86773 24.7532C7.96837 25.0216 8.10255 25.2732 8.27028 25.508C8.62251 26.0112 9.07539 26.4137 9.62891 26.7156C9.02507 26.5144 8.47157 26.1621 8.06902 25.6589C7.86774 25.4241 7.70001 25.1558 7.56582 24.8538C7.41487 24.6022 7.31422 24.3003 7.21358 23.9481V23.8475L7.31423 23.7468C8.87413 22.0863 10.2327 20.1741 11.541 18.3123C12.4468 17.004 13.3358 15.6789 14.208 14.3371C9.17605 17.004 4.49633 20.3251 0.319822 24.3506L0.219177 24.25C2.28227 21.4824 4.79826 19.0168 7.56582 16.9034C9.327 15.5447 11.1888 14.3371 13.1513 13.3307C12.0946 13.381 11.0379 13.532 9.98115 13.7836C9.0754 13.9849 8.11932 14.3371 7.26389 14.6893C6.35814 15.0919 5.50271 15.5951 4.74792 16.2492C5.40207 15.4441 6.2072 14.8906 7.06263 14.3371C7.91806 13.8339 8.87413 13.4817 9.8302 13.1294C11.5411 12.5759 13.3525 12.3746 15.164 12.3243C15.6169 12.123 16.1201 11.8714 16.573 11.6702C18.5857 10.865 20.6992 10.2612 22.8126 9.75803C21.5546 9.45611 20.2966 9.25483 18.9883 9.20451C17.1768 9.20451 15.3653 9.35547 13.5538 9.75803C14.4092 9.35547 15.315 9.10387 16.2208 8.90259C17.1265 8.70131 18.0323 8.60067 18.9883 8.55035C20.8501 8.39939 22.712 8.651 24.5235 9.20451L24.7751 9.30514C25.3789 9.17096 25.9827 9.03678 26.5865 8.90259C28.1297 8.63422 29.6728 8.41618 31.2159 8.24845C29.9747 7.74525 28.6832 7.34269 27.3413 7.04077C25.6305 6.68853 23.8693 6.43694 22.1081 6.3363C22.9635 6.18534 23.8693 6.13503 24.7751 6.13503C25.6808 6.13503 26.5865 6.20212 27.4923 6.3363C29.3038 6.5879 31.065 7.04077 32.7255 7.84588L33.1784 8.04716C34.4196 7.94652 35.6608 7.8962 36.902 7.8962C38.3613 7.84589 39.8205 7.94652 41.2798 8.09748C40.2231 7.34269 39.0658 6.73886 37.8581 6.13503C36.0466 5.2796 34.0841 4.57512 32.1217 4.02161C33.1784 4.07193 34.1848 4.32352 35.1911 4.5248C36.1975 4.79317 37.1872 5.11187 38.16 5.48088C39.9212 6.13503 41.6824 7.09109 43.1416 8.3994C45.3054 8.85227 47.4188 9.4561 49.4819 10.3115C49.0793 9.40578 48.5761 8.55036 47.9723 7.74525C47.0665 6.53759 45.9595 5.38024 44.7518 4.37385C45.4563 4.72608 46.1104 5.17896 46.7646 5.68216C47.402 6.18535 47.989 6.73886 48.5258 7.34269C49.4315 8.34908 50.2366 9.55674 50.7398 10.865C52.7526 11.7708 54.7151 12.8275 56.5266 14.0855C56.2582 13.2468 55.9563 12.4249 55.6208 11.6198C55.0841 10.3115 54.4802 9.03677 53.8093 7.79556C54.3125 8.34907 54.7151 8.9026 55.1176 9.50643C55.5202 10.0599 55.9227 10.7141 56.275 11.3179C56.8788 12.4753 57.382 13.6829 57.6839 14.9409C59.4954 16.2492 61.156 17.6582 62.8165 19.0671C62.6488 18.4297 62.4643 17.7923 62.263 17.155C62.0617 16.5511 61.8604 15.9473 61.6591 15.3435C61.4579 14.7396 61.156 14.1358 61.005 13.532C61.3069 14.0855 61.6591 14.639 61.9611 15.1925C62.3133 15.746 62.5649 16.3499 62.8668 16.9537C63.3197 18.0104 63.6719 19.0671 64.0242 20.1741C64.2254 20.3419 64.4267 20.5264 64.628 20.7276C66.0872 21.9856 67.4962 23.2939 68.9051 24.5519C68.7374 23.9145 68.6032 23.2772 68.5026 22.6398C68.3516 21.5831 68.251 20.5264 68.251 19.4193C68.5529 20.4593 68.8548 21.4824 69.1567 22.4888C69.4586 23.5455 69.7606 24.5519 70.1631 25.508L70.2637 25.7093C70.9682 26.3131 71.6895 26.8834 72.4275 27.4201L72.3269 27.5711Z" fill="#6E3921"/>
</g>
<path style="mix-blend-mode:screen" d="M26.8381 20.2245C17.5291 22.8411 9.57859 23.4449 9.02507 21.5328C8.47156 19.5704 15.5163 15.897 24.8254 13.2301C34.1345 10.5632 42.0849 10.0097 42.6384 11.9218C43.192 13.8339 36.0969 17.5576 26.8381 20.2245Z" fill="url(#paint5_radial_1_4089)"/>
<path style="mix-blend-mode:screen" d="M37.8077 18.9665C29.9579 18.1614 23.668 16.2995 23.8189 14.8403C23.9699 13.3307 30.4611 12.7772 38.3613 13.532C46.2111 14.2868 52.4507 16.1486 52.35 17.6582C52.1991 19.1174 45.7079 19.7213 37.8077 18.9665Z" fill="url(#paint6_radial_1_4089)"/>
<path style="mix-blend-mode:screen" d="M47.2678 22.036C40.2734 18.3627 35.1408 14.2868 35.8453 12.9785C36.5498 11.6199 42.7894 13.532 49.8341 17.2053C56.8285 20.8787 61.9611 24.9042 61.2566 26.2628C60.5521 27.5711 54.3125 25.659 47.2678 22.036Z" fill="url(#paint7_radial_1_4089)"/>
<path style="mix-blend-mode:screen" d="M57.382 28.2253C50.6392 24.0991 45.8085 19.671 46.5633 18.413C47.3684 17.155 53.4571 19.4194 60.1999 23.5959C66.993 27.7221 71.7733 32.0999 71.0185 33.3579C70.2134 34.6662 64.1248 32.3515 57.382 28.2253Z" fill="url(#paint8_radial_1_4089)"/>
<path style="mix-blend-mode:screen" d="M20.3469 9.70769C10.9372 11.9721 3.0371 12.5759 2.63455 11.016C2.28231 9.4561 9.57862 6.38661 18.9883 4.12224C28.3477 1.85787 36.2982 1.25403 36.6504 2.81393C37.0027 4.32352 29.7063 7.44332 20.3469 9.70769Z" fill="url(#paint9_radial_1_4089)"/>
<path style="mix-blend-mode:screen" d="M45.0538 7.79556C35.6441 5.63183 28.3477 2.61267 28.7 1.05277C29.0522 -0.507132 36.9523 -0.0039326 46.3621 2.1598C55.7718 4.37385 63.1184 7.39301 62.7662 8.90259C62.414 10.4625 54.4635 9.95929 45.0538 7.79556Z" fill="url(#paint10_radial_1_4089)"/>
<path style="mix-blend-mode:screen" d="M56.0737 12.1734C47.9219 6.94018 42.0346 1.65665 42.89 0.298023C43.7454 -1.01028 51.0417 2.10952 59.1432 7.29241C67.2949 12.5256 73.1823 17.8092 72.3268 19.1678C71.4714 20.5264 64.1751 17.3563 56.0737 12.1734Z" fill="url(#paint11_radial_1_4089)"/>
<path d="M36.5499 7.14147C37.3885 6.67182 38.2607 6.21894 39.1665 5.78284C40.1729 5.27964 41.196 4.81 42.2359 4.3739C41.196 4.91064 40.1729 5.46415 39.1665 6.03443C38.3949 6.47054 37.6234 6.94019 36.8518 7.44339C36.6841 7.54402 36.5163 7.66143 36.3486 7.79561C36.0467 7.99689 35.7447 8.21495 35.4428 8.44977C35.0738 8.6846 34.7216 8.93619 34.3861 9.20456C34.1178 9.40584 33.8662 9.60711 33.6313 9.80839C32.7256 10.5129 31.8702 11.2173 31.1154 11.9721L29.5555 11.7205C30.4612 10.9657 32.0714 10.0097 33.0275 9.35552C33.2959 9.15424 33.5643 8.96973 33.8326 8.802C34.2016 8.53363 34.5874 8.28203 34.99 8.04721C35.3254 7.84593 35.6609 7.64466 35.9964 7.44339C36.1641 7.34275 36.3486 7.24211 36.5499 7.14147Z" fill="#488C1C"/>
<path d="M33.5307 8.5504C29.3038 7.59433 28.3981 4.87709 29.6561 5.07837C29.6561 5.07837 28.0459 2.66305 28.9013 1.95858C29.7567 1.25411 30.3605 2.26049 30.4109 2.36113C30.4612 2.21017 30.6625 0.750902 31.8198 0.549625C33.0275 0.298028 33.0275 2.71337 33.0275 2.71337C33.0275 2.71337 35.6944 1.05282 35.4428 4.1223C35.0906 4.77645 34.839 5.78284 34.8893 7.04082L33.5307 8.5504Z" fill="#488C1C"/>
<path d="M37.5562 8.90271C38.311 9.05367 39.1665 9.20463 39.8206 9.20463C43.6449 9.40591 40.4244 10.7142 40.4244 10.7142C40.4244 10.7142 44.5506 11.9219 43.2927 12.576C41.9843 13.2302 39.9212 12.576 39.9212 12.576C39.9212 12.576 41.0283 13.5321 40.2232 13.8843C39.4684 14.2366 37.7072 12.7773 37.7072 12.7773C37.7575 14.2366 34.3861 11.9722 34.688 9.55686L37.5562 8.90271Z" fill="#488C1C"/>
<path d="M37.6065 3.6694C37.6065 3.6694 38.9652 2.36109 40.1225 2.1095L40.3238 2.46174C38.6632 4.1726 39.1664 5.78281 39.1664 5.78281C38.2607 6.21891 37.3885 6.67179 36.5498 7.14143C36.3485 7.24207 36.164 7.34271 35.9963 7.44335C35.6609 7.64463 35.3254 7.8459 34.9899 8.04718C34.9564 7.67817 34.9228 7.34271 34.8893 7.04079C34.839 5.78281 35.0906 4.77642 35.4428 4.12227C36.2479 2.61269 37.5059 2.46174 37.6065 3.6694Z" fill="#63AA35"/>
<path d="M36.8518 7.44342C37.6233 6.94023 38.3949 6.47057 39.1665 6.03447C40.1728 5.46418 41.196 4.91068 42.2359 4.37394C41.196 4.81004 40.1728 5.27968 39.1665 5.78287C39.1665 5.78287 38.6633 4.17267 40.3238 2.46181L40.1225 2.10957C40.676 1.95861 41.2295 2.05925 41.5818 2.66308C41.5818 2.66308 44.9532 2.00893 45.6073 2.965C46.0099 4.02171 43.7455 5.22937 43.7455 5.22937C47.4691 6.94023 40.5754 7.69502 40.5754 7.69502C41.5818 8.90268 40.9779 9.2046 39.8206 9.2046C39.1664 9.2046 38.311 9.05364 37.5562 8.90268C36.3989 8.7014 35.4428 8.44981 35.4428 8.44981C35.7447 8.21499 36.0467 7.99693 36.3486 7.79565C36.5163 7.66146 36.684 7.54406 36.8518 7.44342Z" fill="#63AA35"/>
<path d="M31.8198 0.54958C31.9708 0.499261 32.1217 0.499261 32.2727 0.54958C32.3733 0.5999 32.5243 0.700538 32.5746 0.801177C32.7759 1.00245 32.8262 1.20374 32.9268 1.40502C33.0275 1.85789 33.0778 2.31077 33.1281 2.71332H33.0275C33.3294 2.51205 33.6313 2.36108 33.9836 2.31076C34.3358 2.21012 34.7887 2.21013 35.0906 2.46173C35.3925 2.663 35.4428 3.01523 35.4931 3.26682C35.5435 3.56874 35.5435 3.87066 35.4931 4.12226C35.3925 3.82034 35.3925 3.56874 35.2415 3.26682C35.1912 3.01523 35.0403 2.76364 34.839 2.61268C34.688 2.51204 34.4364 2.51204 34.1345 2.61268C33.8829 2.663 33.581 2.81396 33.3294 2.9146L32.6752 3.26682V2.71332C32.6752 2.31077 32.6752 1.85789 32.6249 1.45534C32.5746 1.25406 32.5243 1.05278 32.4236 0.901822C32.323 0.700545 32.1217 0.54958 31.8701 0.54958H31.8198Z" fill="#5CB523"/>
<path d="M33.5306 8.55034C32.4236 8.29874 31.3166 7.8962 30.4612 7.24205C30.0083 6.94013 29.6057 6.53757 29.3541 6.13501C29.2535 5.93374 29.1529 5.68215 29.1529 5.48087C29.1529 5.38023 29.1529 5.22927 29.2535 5.17895C29.3541 5.07831 29.5051 5.02798 29.656 5.0783C29.4212 4.7093 29.2032 4.3403 29.0019 3.97129C28.8509 3.56873 28.7 3.16616 28.6497 2.76361C28.6497 2.56233 28.6497 2.36107 28.7503 2.21011C28.8509 2.00883 29.0522 1.85786 29.2535 1.75722C29.5051 1.65658 29.807 1.70691 30.0083 1.85787C30.2096 2.0256 30.3605 2.21011 30.4612 2.41138H30.4108C30.4779 2.00883 30.6121 1.63981 30.8134 1.30435C31.0147 0.952116 31.3166 0.650199 31.8198 0.549561H31.8701C31.3669 0.700519 31.065 1.00244 30.914 1.35467C30.7631 1.65659 30.6624 2.05915 30.6121 2.41138L30.5618 2.86425L30.3102 2.41138C30.2096 2.26043 30.0586 2.10946 29.8573 2.00882C29.6896 1.87463 29.5219 1.8411 29.3541 1.90819C29.3038 1.95851 29.2535 2.00882 29.1529 2.05914C29.0858 2.12623 29.0354 2.19332 29.0019 2.26042C28.9348 2.42815 28.918 2.59588 28.9516 2.76361C29.0019 3.16616 29.1026 3.51841 29.3038 3.92096C29.4716 4.28997 29.6728 4.65897 29.9076 5.02798L30.1089 5.3299L29.656 5.27958C29.5554 5.22926 29.5051 5.27958 29.4548 5.27958C29.4548 5.3299 29.4044 5.38023 29.4044 5.48087C29.4044 5.68215 29.5051 5.88341 29.6057 6.08469C29.8573 6.43693 30.1593 6.83949 30.5618 7.1414C31.4172 7.74523 32.4236 8.24842 33.5306 8.55034Z" fill="#36661C"/>
<path d="M34.9396 7.09109C34.5035 7.59429 34.0338 8.08071 33.5306 8.55035C33.581 8.39939 33.6313 8.24844 33.7319 8.09748C33.8326 7.94652 33.9332 7.84589 34.0338 7.69493C34.1848 7.59429 34.2854 7.44333 34.4364 7.34269C34.5706 7.24205 34.7383 7.14141 34.9396 7.04077V7.09109Z" fill="#5CB523"/>
<path d="M39.1161 5.88342C39.8709 6.03438 40.676 6.13503 41.4811 6.23566C42.2862 6.28598 43.0913 6.28598 43.8461 6.18534C43.0913 6.3363 42.2862 6.38662 41.4811 6.38662C40.676 6.35307 39.8541 6.28598 39.0154 6.18534L39.1161 5.88342Z" fill="#488C1C"/>
<path d="M39.0155 5.88346C38.9651 5.58154 38.9651 5.27963 39.0155 4.97772C39.0658 4.6758 39.1664 4.37388 39.2671 4.07196C39.5187 3.51845 39.9212 3.01525 40.3741 2.56238C39.9715 3.06557 39.6193 3.56877 39.4683 4.1726C39.3677 4.44097 39.3174 4.72611 39.3174 5.02802C39.3174 5.27962 39.3174 5.58154 39.418 5.83314L39.0155 5.88346Z" fill="#488C1C"/>
<path d="M36.9524 7.29236C37.1536 7.44332 37.4052 7.54396 37.6568 7.6446C37.8917 7.74524 38.1433 7.8291 38.4116 7.8962C38.9484 8.06393 39.5019 8.18135 40.0722 8.24844C39.5019 8.21489 38.9316 8.14779 38.3613 8.04715C38.093 7.98006 37.8246 7.91297 37.5562 7.84587C37.2543 7.79556 37.0027 7.69492 36.7511 7.59428L36.9524 7.29236Z" fill="#488C1C"/>
<path d="M36.3988 7.24213C36.2647 6.6383 36.2311 6.05124 36.2982 5.48095C36.3485 4.92744 36.5498 4.3236 37.0027 3.87073C36.6504 4.37392 36.4995 4.92744 36.4995 5.48095C36.4995 6.08479 36.6001 6.6383 36.8014 7.19181L36.3988 7.24213Z" fill="#488C1C"/>
<path d="M34.7383 9.55676C34.7383 10.0096 34.7886 10.4122 34.9899 10.8147C35.1576 11.2173 35.3924 11.6031 35.6944 11.9721C35.9963 12.274 36.3485 12.6262 36.7511 12.8778C36.9524 12.9785 37.204 13.0791 37.3549 13.0791C37.4052 13.0791 37.4555 13.0791 37.4555 13.0288C37.5059 12.9282 37.5059 12.8779 37.5059 12.7772V12.3243L37.9084 12.6766C38.2103 12.8778 38.5122 13.0791 38.8142 13.2804C39.1161 13.4817 39.4683 13.683 39.8206 13.7333C39.9715 13.7836 40.0721 13.7836 40.2231 13.7333C40.3237 13.6662 40.3573 13.5655 40.3237 13.4314C40.2734 13.1798 40.0721 12.9282 39.8206 12.6766L39.418 12.274L40.0218 12.4753C40.525 12.6263 41.1289 12.7269 41.6824 12.7772C42.2359 12.8275 42.7894 12.7772 43.2926 12.5759C42.8397 12.8275 42.2359 12.9282 41.6824 12.8778C41.0785 12.8443 40.5082 12.7604 39.9715 12.6262V12.5759C40.2231 12.8275 40.4747 13.1294 40.5753 13.4314C40.5753 13.5823 40.525 13.7836 40.3741 13.8842C40.1728 13.9849 39.9715 13.9849 39.7702 13.9346C39.3174 13.8339 38.9651 13.6326 38.6632 13.4817C38.3277 13.2469 38.009 13.012 37.7071 12.7772H37.7575C37.791 12.8779 37.7742 12.9785 37.7071 13.0791C37.6568 13.1798 37.5059 13.2804 37.3549 13.2804C37.053 13.2804 36.8014 13.1295 36.6001 13.0288C36.1473 12.7269 35.795 12.3747 35.4931 12.0224C34.9396 11.2676 34.5873 10.4122 34.7383 9.55676Z" fill="#36661C"/>
<path d="M43.2926 12.576C43.3933 12.4753 43.4939 12.3244 43.4436 12.2741C43.3932 12.1734 43.2423 12.0728 43.1417 12.0225C42.8901 11.8715 42.5378 11.7206 42.2359 11.6199C41.934 11.5193 41.6321 11.3683 41.2798 11.2677C40.9779 11.167 40.6257 11.1167 40.3238 11.0161L39.569 10.7645L40.2735 10.5129C40.5251 10.4123 40.827 10.2613 41.0282 10.1103C41.2798 10.0097 41.4811 9.75811 41.4811 9.75811C41.4811 9.70779 41.3805 9.65746 41.2798 9.60714C41.1457 9.54005 40.9947 9.48973 40.827 9.45619C40.525 9.35555 40.1728 9.30523 39.8206 9.25491V9.20459C40.1728 9.25491 40.525 9.2549 40.827 9.30522C40.9947 9.33877 41.1624 9.37232 41.3301 9.40586C41.4811 9.45618 41.6824 9.55682 41.7327 9.65746C41.8333 9.80842 41.7327 9.95937 41.6321 10.06C41.5314 10.1606 41.3805 10.2613 41.2798 10.3116C41.0115 10.4793 40.7263 10.6303 40.4244 10.7645V10.7142C41.0953 10.9154 41.7495 11.1503 42.3869 11.4186C42.6888 11.5696 42.9907 11.7206 43.2926 11.8715C43.3933 11.9721 43.5442 12.1231 43.5442 12.2238C43.5945 12.3747 43.4436 12.5257 43.2926 12.576Z" fill="#5CB523"/>
<path d="M37.5562 8.95288C37.3549 9.05352 37.1537 9.15416 36.9524 9.2548C36.7008 9.30512 36.4492 9.35543 36.2479 9.40575C35.9963 9.45607 35.7447 9.50638 35.4931 9.5567C35.2919 9.5567 34.9899 9.60702 34.7383 9.5567C35.6776 9.32188 36.6169 9.12061 37.5562 8.95288Z" fill="#5CB523"/>
<path d="M31.1153 12.0224L30.3605 11.9217L29.6057 11.7708V11.7205C29.7567 11.6198 29.9076 11.5695 30.0586 11.5192C30.2096 11.4689 30.3102 11.4689 30.4611 11.5192C30.5618 11.5192 30.7128 11.5695 30.8134 11.6198C30.9643 11.7205 31.065 11.8211 31.1656 11.9721L31.1153 12.0224Z" fill="#36661C"/>
<path d="M34.6377 9.15417C34.7886 9.30513 35.0402 9.55673 35.2918 9.70769C35.5602 9.87542 35.8286 10.0432 36.0969 10.2109C36.7008 10.5128 37.3213 10.7812 37.9587 11.016C39.2167 11.4689 40.525 11.8211 41.8333 12.123C40.4747 11.9217 39.1664 11.6198 37.8581 11.2173C37.1872 11.016 36.533 10.7644 35.8956 10.4625C35.5937 10.3283 35.2918 10.1606 34.9899 9.95929C34.688 9.80833 34.3861 9.60704 34.1345 9.30513L34.6377 9.15417Z" fill="#36661C"/>
<path d="M33.6816 8.95293C33.1281 8.55038 32.7759 8.04718 32.5243 7.54398C32.2727 7.04079 32.0714 6.48729 31.9708 5.98409C31.7192 4.92739 31.7695 3.87067 31.9708 2.81396C31.8701 3.87067 31.9204 4.92738 32.2224 5.93377C32.3733 6.43697 32.6249 6.94016 32.8765 7.44335C33.1784 7.89623 33.581 8.3491 34.0338 8.65102L33.6816 8.95293Z" fill="#36661C"/>
<path d="M32.2224 6.63829C32.7255 6.08478 33.1784 5.53127 33.581 4.97776C33.95 4.40747 34.2687 3.80364 34.537 3.16626C34.3358 3.80364 34.0506 4.42423 33.6816 5.02807C33.3461 5.6319 32.9268 6.2022 32.4236 6.73894L32.2224 6.63829Z" fill="#36661C"/>
<path d="M31.8701 5.27965C31.3333 4.8771 30.8637 4.45777 30.4611 4.02167C30.0083 3.56879 29.7064 3.01528 29.6057 2.51208C29.7064 3.01528 30.1089 3.51848 30.5618 3.92104C30.9979 4.35714 31.4843 4.75969 32.021 5.1287L31.8701 5.27965Z" fill="#36661C"/>
<path d="M32.6752 7.64464C32.1049 7.40982 31.585 7.12467 31.1153 6.7892C30.6122 6.43697 30.2096 6.03442 29.958 5.58154C30.2599 6.03442 30.7128 6.38666 31.1657 6.68858C31.6688 7.04081 32.2224 7.29241 32.7759 7.44337L32.6752 7.64464Z" fill="#36661C"/>
<path d="M37.1536 10.7645C37.7071 10.6135 38.2103 10.5129 38.8142 10.3619C39.3174 10.2613 39.9212 10.1606 40.4747 10.1606C39.9212 10.211 39.3677 10.3619 38.8142 10.4626C38.2774 10.6303 37.7575 10.798 37.2543 10.9658L37.1536 10.7645Z" fill="#36661C"/>
<path d="M38.2103 11.1167C38.5123 11.9218 38.9651 12.6766 39.569 13.3307C39.2335 13.0288 38.9316 12.6934 38.6632 12.3244C38.3949 11.9554 38.16 11.5696 37.9587 11.167L38.2103 11.1167Z" fill="#36661C"/>
<path d="M36.2479 10.4121C36.2143 10.7811 36.2479 11.1502 36.3485 11.5192C36.4492 11.9217 36.6001 12.274 36.902 12.6262C36.5498 12.3243 36.3485 11.9217 36.1975 11.5695C36.0634 11.1669 35.9963 10.7644 35.9963 10.3618L36.2479 10.4121Z" fill="#36661C"/>
<g style="mix-blend-mode:multiply">
<path d="M35.4931 4.32352C35.426 4.42416 35.3757 4.54157 35.3421 4.67576C35.0905 5.38023 34.9899 6.13502 34.9899 6.88981L34.688 7.34268C34.5873 7.00722 34.5035 6.67175 34.4364 6.33629C34.386 5.73246 34.3861 5.07832 34.4867 4.47448C34.6377 3.92097 34.8389 3.36745 35.3421 2.86426L35.4931 4.32352Z" fill="#A9C994"/>
</g>
<path d="M45.6073 3.01518C45.406 2.76358 45.0538 2.71327 44.7016 2.66295C44.3996 2.61263 44.0474 2.61263 43.6952 2.66295C43.041 2.71327 42.3365 2.81391 41.6824 2.96487L41.4308 3.01518L41.2798 2.76358C41.1792 2.62939 41.0786 2.52877 40.9779 2.46168C40.8773 2.41136 40.7766 2.36103 40.676 2.36103C40.3741 2.36103 40.0218 2.51199 39.7199 2.66295C39.418 2.83068 39.1329 3.01519 38.8645 3.21647C38.5626 3.46806 38.311 3.66934 38.0594 3.92093L37.2543 4.6254L37.1537 3.66934C37.1537 3.53515 37.1369 3.43451 37.1033 3.36742C37.053 3.26678 37.0027 3.21647 37.0027 3.21647C37.053 3.21647 36.9524 3.21645 36.8517 3.26677C36.7511 3.30032 36.6505 3.35065 36.5498 3.41774C36.1473 3.76998 35.8453 4.27316 35.6441 4.77635C35.3925 5.27955 35.2918 5.83307 35.1912 6.38658C35.0905 6.94009 35.0906 7.4936 35.0402 8.04711H34.9899C34.839 6.94009 34.839 5.78275 35.2415 4.67572C35.3925 4.12221 35.6944 3.5687 36.1976 3.16614C36.2982 3.06551 36.4492 2.98164 36.6505 2.91455C36.8014 2.86423 37.0027 2.81391 37.204 2.86422C37.4052 2.96486 37.5059 3.11583 37.6065 3.21647C37.6736 3.3842 37.7072 3.53515 37.7072 3.66934L37.6065 3.61902C38.1601 3.16614 38.7639 2.66294 39.4683 2.31071C39.8206 2.15975 40.1728 2.00879 40.676 2.00879C40.8773 2.00879 41.0786 2.10944 41.2798 2.21008C41.4308 2.36104 41.5314 2.51199 41.6321 2.66295H41.5818C42.2862 2.51199 42.9907 2.46168 43.6952 2.46168C44.0474 2.46168 44.3996 2.46166 44.7519 2.51198C45.1041 2.61262 45.4564 2.71327 45.6576 2.96487L45.6073 3.01518Z" fill="#7DC435"/>
<g style="mix-blend-mode:multiply">
<path d="M37.6065 8.90259C38.1097 9.00323 38.6297 9.08709 39.1664 9.15418C39.3677 9.15418 39.6193 9.15418 39.8206 9.15418C39.8206 9.15418 40.7263 9.25482 40.9779 9.30514C41.1792 9.35546 41.5314 9.45611 41.5314 9.50643C41.5314 9.7077 40.676 9.85865 40.1728 9.80833C39.7703 9.80833 39.418 9.75802 39.1161 9.7077C38.4116 9.60706 37.8078 9.40578 37.204 9.20451C37.0698 9.17096 36.9524 9.12063 36.8517 9.05354L37.6065 8.90259Z" fill="#C3DAB4"/>
</g>
<path d="M35.4931 8.44976C36.0969 8.5504 36.7175 8.65104 37.3549 8.75168C37.9587 8.85232 38.5626 8.95296 39.1664 9.00328C39.4683 9.03682 39.7535 9.03682 40.0218 9.00328C40.3237 9.00328 40.5753 8.95295 40.7263 8.85231C40.8269 8.78522 40.8269 8.65104 40.7263 8.44976C40.6256 8.24848 40.4747 8.0472 40.3237 7.84592L40.0218 7.544L40.525 7.44337C41.0785 7.39305 41.6321 7.29241 42.1352 7.19178C42.672 7.09114 43.1919 6.97372 43.6951 6.83953C43.93 6.7389 44.148 6.63825 44.3493 6.53761C44.5002 6.43698 44.6009 6.28603 44.6009 6.18539C44.6009 6.08475 44.4499 5.93378 44.299 5.78282C44.0977 5.63187 43.8964 5.53123 43.6448 5.38028L43.2926 5.22932L43.6448 5.07836C44.0977 4.82676 44.5506 4.52485 44.9531 4.22294C45.1544 4.0552 45.3221 3.8707 45.4563 3.66942C45.6073 3.46814 45.6576 3.21654 45.6073 3.01526H45.6576C45.7582 3.21654 45.7079 3.51846 45.557 3.71974C45.4563 3.92102 45.3054 4.12229 45.1041 4.32357C44.7518 4.6758 44.299 4.97773 43.7958 5.22932C44.0306 5.32996 44.2654 5.46414 44.5002 5.63187C44.7015 5.78283 44.9028 5.93379 44.9531 6.18539C44.9531 6.43699 44.7519 6.63827 44.5506 6.7389C44.3493 6.88986 44.0977 6.99049 43.8461 7.09113C42.8397 7.44337 41.7327 7.59433 40.5753 7.74529L40.6257 7.69497C40.8269 7.89625 40.9779 8.14784 41.0785 8.34912C41.1792 8.60071 41.1792 8.85231 40.9276 9.05358C40.7263 9.20454 40.3741 9.25487 40.0721 9.25487C39.7702 9.25487 39.4683 9.2381 39.1664 9.20455C37.9084 9.05359 36.7007 8.802 35.4427 8.44976H35.4931Z" fill="#488C1C"/>
<g style="mix-blend-mode:multiply">
<path d="M35.3925 8.44974C35.7279 8.21492 36.0466 7.99686 36.3485 7.79558C38.2104 6.5376 40.2231 5.38026 42.2862 4.42419C41.8333 4.72611 41.3302 5.02802 40.8773 5.27961C40.4244 5.58153 39.9212 5.88346 39.4683 6.18537C38.5122 6.7892 37.5562 7.39304 36.6504 7.99687C36.3821 8.19815 36.1137 8.38264 35.8453 8.55037L35.3925 8.44974Z" fill="#A9C994"/>
</g>
<path d="M42.2862 4.42419C40.2231 5.43058 38.2606 6.5376 36.3988 7.79558C35.4931 8.44974 34.537 9.10389 33.6816 9.80836C32.7758 10.5128 31.9204 11.2173 31.1656 11.9721H31.1153C31.4843 11.5695 31.8701 11.1838 32.2726 10.8147C32.6752 10.4122 33.0945 10.0432 33.5306 9.70773C34.386 8.95294 35.2918 8.29878 36.2479 7.64463C37.1536 7.0408 38.16 6.43697 39.1664 5.88345C39.6696 5.61508 40.1728 5.34671 40.676 5.07834C41.2127 4.84352 41.7495 4.62547 42.2862 4.42419Z" fill="#4D9E35"/>
<path d="M29.6057 11.7708C30.5115 10.9657 31.5682 10.3116 32.5746 9.60708C33.6313 8.95293 34.6376 8.24846 35.6943 7.64463C37.8078 6.43697 39.9715 5.32994 42.2862 4.42419C41.7495 4.69256 41.2127 4.96094 40.676 5.22931C40.1057 5.49768 39.5522 5.76604 39.0154 6.03441C37.9587 6.58792 36.902 7.19175 35.8453 7.79558C34.7886 8.44974 33.7822 9.1039 32.7758 9.75805L31.1656 10.7644C30.6289 11.0664 30.1089 11.4018 29.6057 11.7708Z" fill="#7DC435"/>
<path d="M39.1664 6.38664C39.1664 7.94654 37.9084 9.20453 36.3485 9.20453C34.7383 9.20453 33.4803 7.94654 33.4803 6.38664C33.4803 4.77642 34.7383 3.51843 36.3485 3.51843C37.9084 3.51843 39.1664 4.77642 39.1664 6.38664Z" fill="#CF3D12"/>
<path style="mix-blend-mode:screen" d="M34.2351 7.64465C33.6816 6.83954 33.6816 5.68219 34.2854 4.82676C35.1408 3.71974 36.7007 3.51846 37.8078 4.32357C37.9755 4.45776 38.1265 4.60871 38.2607 4.77644C36.2479 4.37389 34.688 5.88347 34.2351 7.64465Z" fill="url(#paint12_linear_1_4089)"/>
<path style="mix-blend-mode:screen" d="M38.8141 10.6637C36.6001 11.6701 34.2854 11.3682 33.6313 10.0096C32.9771 8.65097 34.2854 6.6885 36.4995 5.6318C38.7135 4.62541 41.0282 4.877 41.6824 6.28594C42.3365 7.64457 41.0282 9.60703 38.8141 10.6637Z" fill="url(#paint13_radial_1_4089)"/>
<defs>
<radialGradient id="paint0_radial_1_4089" cx="0" cy="0" r="1" gradientUnits="userSpaceOnUse" gradientTransform="translate(27.0897 29.0304) scale(16.2029 16.2028)">
<stop stop-color="white"/>
<stop offset="0.1" stop-color="#EFEFEF"/>
<stop offset="0.3" stop-color="#C3C3C3"/>
<stop offset="0.6" stop-color="#878787"/>
<stop offset="1"/>
</radialGradient>
<radialGradient id="paint1_radial_1_4089" cx="0" cy="0" r="1" gradientUnits="userSpaceOnUse" gradientTransform="translate(17.3781 20.7278) scale(16.4041 16.4041)">
<stop stop-color="#AB7761"/>
<stop offset="0.1" stop-color="#B1816C"/>
<stop offset="0.2" stop-color="#B78B78"/>
<stop offset="0.5" stop-color="#D4BBB0"/>
<stop offset="0.7" stop-color="#E8DBD5"/>
<stop offset="0.9" stop-color="#F8F4F2"/>
<stop offset="1" stop-color="white"/>
</radialGradient>
<radialGradient id="paint2_radial_1_4089" cx="0" cy="0" r="1" gradientUnits="userSpaceOnUse" gradientTransform="translate(32.2727 16.7022) scale(16.9576 16.9576)">
<stop stop-color="#AB7761"/>
<stop offset="0.1" stop-color="#B1816C"/>
<stop offset="0.2" stop-color="#B78B78"/>
<stop offset="0.5" stop-color="#D4BBB0"/>
<stop offset="0.7" stop-color="#E8DBD5"/>
<stop offset="0.9" stop-color="#F8F4F2"/>
<stop offset="1" stop-color="white"/>
</radialGradient>
<radialGradient id="paint3_radial_1_4089" cx="0" cy="0" r="1" gradientUnits="userSpaceOnUse" gradientTransform="translate(44.0977 17.7589) scale(16.3538)">
<stop stop-color="#AB7761"/>
<stop offset="0.1" stop-color="#B1816C"/>
<stop offset="0.2" stop-color="#B78B78"/>
<stop offset="0.5" stop-color="#D4BBB0"/>
<stop offset="0.7" stop-color="#E8DBD5"/>
<stop offset="0.9" stop-color="#F8F4F2"/>
<stop offset="1" stop-color="white"/>
</radialGradient>
<radialGradient id="paint4_radial_1_4089" cx="0" cy="0" r="1" gradientUnits="userSpaceOnUse" gradientTransform="translate(50.7399 21.8851) scale(16.1022 16.1022)">
<stop stop-color="#AB7761"/>
<stop offset="0.1" stop-color="#B1816C"/>
<stop offset="0.2" stop-color="#B78B78"/>
<stop offset="0.5" stop-color="#D4BBB0"/>
<stop offset="0.7" stop-color="#E8DBD5"/>
<stop offset="0.9" stop-color="#F8F4F2"/>
<stop offset="1" stop-color="white"/>
</radialGradient>
<radialGradient id="paint5_radial_1_4089" cx="0" cy="0" r="1" gradientUnits="userSpaceOnUse" gradientTransform="translate(25.8318 16.7021) scale(3.22044 3.22044)">
<stop stop-color="#DF7548"/>
<stop offset="0.4" stop-color="#83452A"/>
<stop offset="0.6" stop-color="#4D2819"/>
<stop offset="0.8" stop-color="#1D0F09"/>
<stop offset="1"/>
</radialGradient>
<radialGradient id="paint6_radial_1_4089" cx="0" cy="0" r="1" gradientUnits="userSpaceOnUse" gradientTransform="translate(38.1097 16.2492) scale(2.36501 2.36501)">
<stop stop-color="#DF7548"/>
<stop offset="0.4" stop-color="#83452A"/>
<stop offset="0.6" stop-color="#4D2819"/>
<stop offset="0.8" stop-color="#1D0F09"/>
<stop offset="1"/>
</radialGradient>
<radialGradient id="paint7_radial_1_4089" cx="0" cy="0" r="1" gradientUnits="userSpaceOnUse" gradientTransform="translate(48.5258 19.6207) scale(2.41533)">
<stop stop-color="#DF7548"/>
<stop offset="0.4" stop-color="#83452A"/>
<stop offset="0.6" stop-color="#4D2819"/>
<stop offset="0.8" stop-color="#1D0F09"/>
<stop offset="1"/>
</radialGradient>
<radialGradient id="paint8_radial_1_4089" cx="0" cy="0" r="1" gradientUnits="userSpaceOnUse" gradientTransform="translate(58.7909 25.9106) scale(2.41533 2.41533)">
<stop stop-color="#DF7548"/>
<stop offset="0.4" stop-color="#83452A"/>
<stop offset="0.6" stop-color="#4D2819"/>
<stop offset="0.8" stop-color="#1D0F09"/>
<stop offset="1"/>
</radialGradient>
<radialGradient id="paint9_radial_1_4089" cx="0" cy="0" r="1" gradientUnits="userSpaceOnUse" gradientTransform="translate(19.6425 6.88981) scale(2.51597 2.51597)">
<stop stop-color="#FF8652"/>
<stop offset="0.2" stop-color="#DF7548"/>
<stop offset="0.4" stop-color="#83452A"/>
<stop offset="0.6" stop-color="#4D2819"/>
<stop offset="0.8" stop-color="#1D0F09"/>
<stop offset="1"/>
</radialGradient>
<radialGradient id="paint10_radial_1_4089" cx="0" cy="0" r="1" gradientUnits="userSpaceOnUse" gradientTransform="translate(45.7079 4.97768) scale(2.51597)">
<stop stop-color="#FF8652"/>
<stop offset="0.2" stop-color="#DF7548"/>
<stop offset="0.4" stop-color="#83452A"/>
<stop offset="0.6" stop-color="#4D2819"/>
<stop offset="0.8" stop-color="#1D0F09"/>
<stop offset="1"/>
</radialGradient>
<radialGradient id="paint11_radial_1_4089" cx="0" cy="0" r="1" gradientUnits="userSpaceOnUse" gradientTransform="translate(57.5833 9.70775) scale(2.61661)">
<stop stop-color="#FF8652"/>
<stop offset="0.2" stop-color="#DF7548"/>
<stop offset="0.4" stop-color="#83452A"/>
<stop offset="0.6" stop-color="#4D2819"/>
<stop offset="0.8" stop-color="#1D0F09"/>
<stop offset="1"/>
</radialGradient>
<linearGradient id="paint12_linear_1_4089" x1="54.061" y1="4.67581" x2="53.2055" y2="10.3116" gradientUnits="userSpaceOnUse">
<stop stop-color="white"/>
<stop offset="1"/>
</linearGradient>
<radialGradient id="paint13_radial_1_4089" cx="0" cy="0" r="1" gradientUnits="userSpaceOnUse" gradientTransform="translate(37.6568 8.14777) scale(2.41533 2.41533)">
<stop stop-color="#FF8957"/>
<stop offset="0.2" stop-color="#A05434"/>
<stop offset="0.3" stop-color="#713B25"/>
<stop offset="0.5" stop-color="#4A2718"/>
<stop offset="0.6" stop-color="#2E180F"/>
<stop offset="0.8" stop-color="#130A06"/>
<stop offset="1"/>
</radialGradient>
</defs>
</svg>
