<svg width="48" height="40" viewBox="0 0 48 40" fill="none" xmlns="http://www.w3.org/2000/svg">
<path d="M22.9639 3.83342C23.6781 5.70144 28.6229 7.89911 33.1281 11.8C36.5345 14.6569 36.4246 16.0854 35.4906 17.6238C34.7763 18.9424 33.4577 20.3709 33.183 22.7883C32.5237 28.1726 41.5342 28.9418 38.5673 35.1502C35.6005 35.1502 34.2269 35.2601 34.2269 35.2601C33.2929 27.3485 19.063 28.722 21.0959 24.3816C23.1287 20.0962 32.7984 19.4369 30.2162 14.7119C27.6889 10.0418 20.5464 7.45958 20.5464 2.89942C20.5464 2.07529 20.8761 1.416 21.3156 0.921522C21.3522 0.884895 21.4072 0.84826 21.4805 0.811632C22.9089 -0.452026 25.7659 -0.232256 27.4142 1.41599C23.2935 0.0424523 22.2496 1.91047 22.9639 3.83342Z" fill="#8FB81F"/>
<path d="M19.3377 10.3165C21.4805 15.2612 18.129 17.0194 14.7776 22.4037C11.4261 27.733 23.4034 33.6667 18.4037 39.8751C14.5029 38.5016 12.0854 34.326 12.0854 34.326C12.3601 27.3484 2.03112 24.8211 8.45929 19.5467C14.4479 14.7118 19.0081 12.4043 18.6784 8.44849H18.7334C18.8799 9.03453 19.0813 9.6572 19.3377 10.3165Z" fill="#8FB81F"/>
<path d="M35.4906 17.6238C43.567 19.5467 49.8304 26.9639 47.0283 31.6888C42.8528 38.7763 38.5673 35.1502 38.5673 35.1502C41.5342 28.9418 32.5237 28.1726 33.183 22.7883C33.4577 20.3709 34.7763 18.9424 35.4906 17.6238Z" fill="#BAD128"/>
<path d="M21.3156 0.921387C20.8761 1.41586 20.5464 2.07516 20.5464 2.89928C20.5464 7.45944 27.6888 10.0417 30.2162 14.7117C32.7984 19.4367 23.1287 20.096 21.0959 24.3815C19.063 28.7219 33.2929 27.3483 34.2269 35.2599C27.9635 41.1936 18.4037 39.875 18.4037 39.875C23.4034 33.6666 11.4261 27.7329 14.7776 22.4036C18.129 17.0193 21.4804 15.2612 19.3377 10.3164C19.0813 9.65711 18.8799 9.03444 18.7334 8.44839C18.6967 8.41177 18.6784 8.37514 18.6784 8.33851C17.7993 4.65742 19.5025 2.45975 21.3156 0.921387Z" fill="#BAD128"/>
<path d="M8.45928 19.5467C2.03111 24.8211 12.3601 27.3484 12.0854 34.326C2.69039 40.2597 -2.69389 31.3592 1.37179 25.4804C5.38254 19.5467 3.78925 19.9862 4.99796 15.7008C6.20668 11.3604 14.7776 13.1735 18.6784 8.44849C19.0081 12.4043 14.4479 14.7118 8.45928 19.5467Z" fill="#BAD128"/>
</svg>
