<svg width="60" height="40" viewBox="0 0 60 40" fill="none" xmlns="http://www.w3.org/2000/svg">
<path style="mix-blend-mode:multiply" d="M45.7161 29.1645C45.7161 32.1127 38.5179 34.4866 29.6733 34.4866C20.7905 34.4866 13.5923 32.1127 13.5923 29.1645C13.5923 26.1781 20.7905 23.8042 29.6733 23.8042C38.5179 23.8042 45.7161 26.1781 45.7161 29.1645Z" fill="url(#paint0_radial_1_651)"/>
<path d="M37.331 10.9775C39.6666 13.5045 43.9931 10.7861 41.2747 5.23427H41.313C45.6778 11.2838 44.2611 21.3153 36.9098 24.6847C33.8085 26.063 29.6733 26.2162 26.304 25.5653C24.2747 25.1824 22.2837 24.0721 21.0968 22.3874C19.6801 20.3964 17.9571 18.2905 16.8851 16.0698C14.6644 11.3604 16.8851 7.03381 19.1824 4.46851C18.8761 9.36939 24.3513 9.17795 25.8445 8.02931C27.2995 6.84237 30.8986 5.88517 31.09 8.68021C31.2432 11.5135 33.5787 14.5766 34.4594 11.8581C35.3783 9.17795 36.2972 9.82885 37.331 10.9775Z" fill="#E0D1B1"/>
<path d="M37.331 10.9775C39.6666 13.5045 43.9931 10.7861 41.2747 5.23427H41.313C45.6778 11.2838 44.2611 21.3153 36.9098 24.6847C33.8085 26.063 29.6733 26.2162 26.304 25.5653C24.2747 25.1824 22.2837 24.0721 21.0968 22.3874C19.6801 20.3964 17.9571 18.2905 16.8851 16.0698C14.6644 11.3604 16.8851 7.03381 19.1824 4.46851C18.8761 9.36939 24.3513 9.17795 25.8445 8.02931C27.2995 6.84237 30.8986 5.88517 31.09 8.68021C31.2432 11.5135 33.5787 14.5766 34.4594 11.8581C35.3783 9.17795 36.2972 9.82885 37.331 10.9775Z" fill="#E0D1B1"/>
<path d="M17.6891 9.79071C16.9617 8.18261 17.6508 6.07676 19.2207 5.27271C19.9481 6.88081 19.2207 8.94837 17.6891 9.79071C18.1486 9.52269 17.4594 9.29296 17.6891 9.79071Z" fill="#EAE2D1"/>
<path d="M19.3355 2.93701C19.9482 4.73656 18.9909 6.8807 17.268 7.60817C16.6554 5.84691 17.6126 3.66449 19.3355 2.93701C19.527 3.51133 18.7995 3.16674 19.3355 2.93701Z" fill="#EAE2D1"/>
<path d="M20.0247 5.92349C19.2207 7.99106 16.6936 9.25457 14.5878 8.60367C15.3535 6.49782 17.8806 5.27259 20.0247 5.92349C19.795 6.57439 19.3738 5.73205 20.0247 5.92349Z" fill="#EAE2D1"/>
<path d="M18.608 11.5135C17.3445 12.7004 15.1621 12.7004 13.8986 11.5135C15.1621 10.3266 17.3445 10.3266 18.608 11.5135C18.2252 11.8964 18.2252 11.1306 18.608 11.5135Z" fill="#EAE2D1"/>
<path d="M18.5315 14.3469C17.2297 15.6104 14.9324 15.6487 13.5923 14.4235C14.8941 13.16 17.1914 13.1217 18.5315 14.3469C18.1103 14.7298 18.1103 13.964 18.5315 14.3469Z" fill="#EAE2D1"/>
<path d="M17.8806 12.7004C19.1058 14.5383 18.6464 17.3333 16.8851 18.6734C15.6599 16.8356 16.1193 14.0405 17.8806 12.7004C18.2635 13.2748 17.3446 13.1216 17.8806 12.7004Z" fill="#EAE2D1"/>
<path d="M17.4594 18.5202C18.0337 16.7972 20.1013 15.6486 21.9009 16.108C21.3265 17.8693 19.259 18.9797 17.4594 18.5202C18.0337 18.6734 17.6509 17.9842 17.4594 18.5202Z" fill="#EAE2D1"/>
<path d="M18.5315 23.1148C17.8423 21.3536 18.7229 19.1329 20.4459 18.2905C21.1351 20.0518 20.2545 22.3108 18.5315 23.1148C19.0675 22.8851 18.3401 22.5788 18.5315 23.1148Z" fill="#EAE2D1"/>
<path d="M20.063 20.8943C21.4797 19.9371 23.6238 20.2817 24.6576 21.6217C23.2409 22.579 21.0968 22.2344 20.063 20.8943C20.4842 20.588 20.3693 21.3154 20.063 20.8943Z" fill="#EAE2D1"/>
<path d="M20.9819 25.6801C21.6328 23.9954 23.6621 22.9999 25.3851 23.536C24.7724 25.2206 22.7049 26.2161 20.9819 25.6801C21.518 25.8333 21.1734 25.1441 20.9819 25.6801Z" fill="#EAE2D1"/>
<path d="M25.3468 21.2388C27.1463 21.5834 28.5247 23.4212 28.295 25.2207C26.4954 24.8761 25.1553 23.0383 25.3468 21.2388C25.9211 21.3536 25.2702 21.8131 25.3468 21.2388Z" fill="#EAE2D1"/>
<path d="M27.4526 22.5405C29.367 23.4977 30.286 26.0248 29.4819 27.9774C27.5675 27.0202 26.6103 24.5315 27.4526 22.5405C28.027 22.8468 27.1846 23.1531 27.4526 22.5405Z" fill="#EAE2D1"/>
<path d="M29.2139 22.0045C31.09 21.5833 33.1959 22.732 33.7702 24.5698C31.8941 25.0292 29.7882 23.8423 29.2139 22.0045C29.7882 21.8896 29.4053 22.5788 29.2139 22.0045Z" fill="#EAE2D1"/>
<path d="M30.822 21.8897C32.813 21.0091 35.4166 21.9663 36.3738 23.919C34.3828 24.7996 31.7792 23.8424 30.822 21.8897C31.4346 21.6217 31.1283 22.464 30.822 21.8897Z" fill="#EAE2D1"/>
<path d="M37.8287 21.8513C37.7139 23.6126 36.1058 25.1058 34.3445 25.1058C34.4594 23.3446 36.1058 21.8513 37.8287 21.8513C37.7904 22.3874 37.2927 21.8513 37.8287 21.8513Z" fill="#EAE2D1"/>
<path d="M36.795 20.5496C37.867 22.2342 37.3693 24.723 35.7612 25.9099C34.6891 24.1869 35.1869 21.6982 36.795 20.5496C37.1396 21.0856 36.2972 20.8942 36.795 20.5496Z" fill="#EAE2D1"/>
<path d="M37.063 23.3828C35.9909 21.4684 36.6418 18.7882 38.4796 17.563C39.5517 19.4774 38.9008 22.1576 37.063 23.3828C37.6373 22.9999 36.7184 22.8085 37.063 23.3828Z" fill="#EAE2D1"/>
<path d="M36.7949 18.6352C38.403 17.678 40.7003 18.1758 41.7341 19.7073C40.126 20.6645 37.8287 20.1667 36.7949 18.6352C37.2927 18.3289 37.1395 19.0947 36.7949 18.6352Z" fill="#EAE2D1"/>
<path d="M41.581 17.5249C43.4188 18.7118 44.0697 21.392 42.9976 23.3064C41.1598 22.1195 40.5089 19.4393 41.581 17.5249C42.1553 17.9078 41.2364 18.1375 41.581 17.5249Z" fill="#EAE2D1"/>
<path d="M43.1125 17.2567C41.3512 18.3671 38.7477 17.9076 37.5224 16.223C39.2837 15.0743 41.849 15.572 43.1125 17.2567C42.7296 16.759 42.5382 17.6013 43.1125 17.2567Z" fill="#EAE2D1"/>
<path d="M44.7972 14.0024C43.9548 15.5339 41.849 16.2614 40.2409 15.4956C41.0832 13.9641 43.1891 13.2366 44.7972 14.0024C44.5292 14.4618 44.2994 13.7727 44.7972 14.0024Z" fill="#EAE2D1"/>
<path d="M40.4706 12.4707C42.4999 11.6284 45.1418 12.5856 46.1373 14.5383C44.108 15.4189 41.4661 14.4617 40.4706 12.4707C41.1215 12.2027 40.7769 13.0834 40.4706 12.4707Z" fill="#EAE2D1"/>
<path d="M38.7094 13.6194C39.4751 11.5518 41.9638 10.2883 44.0697 10.9009C43.3039 12.9685 40.8152 14.232 38.7094 13.6194C39.3602 13.8108 38.9391 12.9685 38.7094 13.6194Z" fill="#EAE2D1"/>
<path d="M42.7296 11.3222C41.3895 10.097 41.1981 7.79968 42.3085 6.34473C43.6868 7.56995 43.8783 9.86724 42.7296 11.3222C43.0742 10.8627 42.3084 10.9393 42.7296 11.3222Z" fill="#EAE2D1"/>
<path d="M43.572 16.8741C42.4233 18.2142 40.2409 18.5205 38.8242 17.4867C39.9346 16.1083 42.117 15.8403 43.572 16.8741C43.2274 17.2953 43.1125 16.5678 43.572 16.8741Z" fill="#EAE2D1"/>
<path d="M42.1936 17.2568C42.9976 18.7501 42.4616 20.8176 41.0066 21.7366C40.2026 20.2433 40.7769 18.1758 42.1936 17.2568C42.4616 17.7163 41.7724 17.5249 42.1936 17.2568Z" fill="#EAE2D1"/>
<path d="M41.6959 17.9844C42.6531 19.7456 42.0404 22.2344 40.3175 23.3064C39.3603 21.5452 40.0112 19.0564 41.6959 17.9844C42.0022 18.5204 41.1598 18.2907 41.6959 17.9844Z" fill="#EAE2D1"/>
<path d="M32.8513 23.8424C34.2296 22.7703 36.4121 22.9235 37.599 24.187C36.2589 25.2973 34.0382 25.1442 32.8513 23.8424C33.2724 23.5361 33.2341 24.2636 32.8513 23.8424Z" fill="#EAE2D1"/>
<path d="M37.7521 15.802C37.7139 17.5633 36.1823 19.1331 34.4594 19.1714C34.4977 17.4484 36.0292 15.8786 37.7521 15.802C37.7521 16.338 37.2161 15.8403 37.7521 15.802Z" fill="#EAE2D1"/>
<path d="M32.813 16.491C32.5832 14.5 34.1148 12.4708 36.1058 12.0879C36.3355 14.1172 34.804 16.1464 32.813 16.491C33.4256 16.4145 32.7364 15.8784 32.813 16.491Z" fill="#EAE2D1"/>
<path d="M31.8941 12.7007C32.3918 10.8245 34.4594 9.52273 36.3355 9.90562C35.8378 11.7434 33.8085 13.0452 31.8941 12.7007C32.5067 12.8155 32.0472 12.1263 31.8941 12.7007Z" fill="#EAE2D1"/>
<path d="M39.2454 9.48438C40.7386 10.633 41.1215 13.0069 40.0877 14.5384C38.5562 13.3898 38.2116 11.0542 39.2454 9.48438C39.7049 9.82897 38.9391 9.94383 39.2454 9.48438Z" fill="#EAE2D1"/>
<path d="M32.3535 8.75695C34.5742 8.68037 36.6801 10.5182 36.9098 12.7006C34.6891 12.8155 32.5832 10.9394 32.3535 8.75695C33.0427 8.75695 32.4301 9.44614 32.3535 8.75695Z" fill="#EAE2D1"/>
<path d="M33.1193 12.4326C35.2634 12.7006 37.0247 14.8065 36.9098 16.9889C34.7274 16.7209 33.0044 14.615 33.1193 12.4326C33.8085 12.5092 33.081 13.1218 33.1193 12.4326Z" fill="#EAE2D1"/>
<path d="M36.1058 14.3853C35.9526 16.338 34.1531 18.0226 32.1621 17.9843C32.3152 16.0699 34.1531 14.3853 36.1058 14.3853C36.0292 14.9979 35.4931 14.3853 36.1058 14.3853Z" fill="#EAE2D1"/>
<path d="M34.4211 20.473C32.4301 20.8559 30.286 19.5158 29.7882 17.5631C31.7792 17.1802 33.8851 18.5586 34.4211 20.473C34.2679 19.8987 33.8085 20.5879 34.4211 20.473Z" fill="#EAE2D1"/>
<path d="M30.2859 23.4978C31.09 24.991 30.554 27.0586 29.099 27.9775C28.295 26.4843 28.831 24.3784 30.2859 23.4978C30.554 23.9573 29.8265 23.7658 30.2859 23.4978Z" fill="#EAE2D1"/>
<path d="M22.1306 14.6533C23.4324 15.8403 23.6238 18.061 22.5517 19.4393C21.2499 18.2524 21.0585 16.0317 22.1306 14.6533C22.5517 15.0362 21.786 15.0745 22.1306 14.6533Z" fill="#EAE2D1"/>
<path d="M30.3242 20.0902C28.5247 18.9033 27.9504 16.2614 29.0224 14.3853C30.822 15.6105 31.3963 18.2524 30.3242 20.0902C30.6305 19.5159 29.7499 19.7456 30.3242 20.0902Z" fill="#EAE2D1"/>
<path d="M28.6013 18.2907C27.6441 16.3763 28.3716 13.7727 30.2094 12.6624C31.2049 14.5768 30.4391 17.1804 28.6013 18.2907C29.1756 17.9461 28.295 17.6781 28.6013 18.2907Z" fill="#EAE2D1"/>
<path d="M22.7049 14.7298C21.5562 12.9686 21.9774 10.3267 23.7004 9.0249C24.849 10.8244 24.3896 13.4663 22.7049 14.7298C23.2409 14.347 22.3603 14.1938 22.7049 14.7298Z" fill="#EAE2D1"/>
<path d="M27.6824 7.03394C29.3288 8.52718 29.5968 11.3222 28.2184 13.0835C26.5337 11.5902 26.304 8.79519 27.6824 7.03394C28.1801 7.49339 27.2612 7.56997 27.6824 7.03394Z" fill="#EAE2D1"/>
<path d="M26.9932 6.53613C28.9076 6.76586 30.4774 8.60369 30.3625 10.5564C28.4481 10.3267 26.8783 8.45054 26.9932 6.53613C27.5675 6.61271 26.9549 7.14874 26.9932 6.53613Z" fill="#EAE2D1"/>
<path d="M28.027 14.1172C27.4909 12.1645 28.7161 9.90554 30.6305 9.25464C31.1283 11.2073 29.9414 13.4663 28.027 14.1172C28.6396 13.9258 27.8738 13.5046 28.027 14.1172Z" fill="#EAE2D1"/>
<path d="M30.6688 13.5046C29.0607 14.2704 26.9166 13.5812 26.036 11.9731C27.6824 11.2456 29.8265 11.9348 30.6688 13.5046C30.4008 13.0069 30.1711 13.7343 30.6688 13.5046Z" fill="#EAE2D1"/>
<path d="M30.1328 14.4235C29.0224 16.0316 26.6103 16.5676 24.9639 15.5721C26.036 13.964 28.4481 13.428 30.1328 14.4235C29.7882 14.9212 29.6351 14.1172 30.1328 14.4235Z" fill="#EAE2D1"/>
<path d="M24.1981 17.4484C25.9594 16.338 28.5247 16.8358 29.7499 18.5204C27.9887 19.6308 25.4234 19.133 24.1981 17.4484C24.7342 17.1038 24.581 17.9844 24.1981 17.4484Z" fill="#EAE2D1"/>
<path d="M24.3896 15.3809C24.8873 17.4101 23.5855 19.7074 21.5945 20.32C21.0968 18.2908 22.3986 15.9935 24.3896 15.3809C24.5427 16.0318 23.777 15.5723 24.3896 15.3809Z" fill="#EAE2D1"/>
<path d="M20.9819 18.061C19.3355 18.98 17.0382 18.4056 16.0428 16.7975C17.6891 15.9169 19.9864 16.4912 20.9819 18.061C20.6756 17.5633 20.4842 18.3291 20.9819 18.061Z" fill="#EAE2D1"/>
<path d="M16.6171 16.6443C15.7747 14.6533 16.7319 12.0497 18.6464 11.0925C19.527 13.0835 18.5698 15.6871 16.6171 16.6443C17.2297 16.338 16.3491 16.0317 16.6171 16.6443Z" fill="#EAE2D1"/>
<path d="M16.8085 12.6624C18.4549 11.552 20.9436 12.0115 22.1306 13.6196C20.4459 14.6916 17.9955 14.2322 16.8085 12.6624C17.3063 12.3178 17.1531 13.1601 16.8085 12.6624Z" fill="#EAE2D1"/>
<path d="M20.9053 9.29297C22.59 10.0587 23.509 12.2412 22.8581 14.0024C21.1351 13.2367 20.2162 11.0542 20.9053 9.29297C21.4414 9.5227 20.6756 9.829 20.9053 9.29297Z" fill="#EAE2D1"/>
<path d="M17.2297 10.8627C15.8513 9.6375 15.6599 7.34021 16.8085 5.88525C18.1869 7.11048 18.3783 9.44606 17.2297 10.8627C17.5743 10.4415 16.8085 10.4798 17.2297 10.8627Z" fill="#EAE2D1"/>
<path d="M20.063 5.69385C21.7477 7.07222 22.1306 9.79068 20.8671 11.5519C19.1824 10.1736 18.7995 7.4551 20.063 5.69385C20.5991 6.11502 19.6801 6.22988 20.063 5.69385Z" fill="#EAE2D1"/>
<path d="M23.0878 11.4754C22.6666 13.2749 20.7522 14.5767 18.9144 14.3087C19.3355 12.4709 21.2499 11.1691 23.0878 11.4754C22.9729 12.0497 22.5134 11.3988 23.0878 11.4754Z" fill="#EAE2D1"/>
<path d="M37.599 13.6577C39.858 14.3086 41.3895 16.8356 40.8918 19.1329C38.6711 18.5203 37.1395 15.955 37.599 13.6577C38.3265 13.8874 37.4458 14.3852 37.599 13.6577Z" fill="#FFFDFA"/>
<path d="M35.876 24.3402C34.804 22.4257 35.4549 19.7839 37.2544 18.5969C38.3265 20.473 37.6756 23.1532 35.876 24.3402C36.4504 23.9573 35.5314 23.7275 35.876 24.3402Z" fill="#FFFDFA"/>
<path d="M34.1913 15.0361C34.3445 17.142 32.6598 19.2478 30.554 19.5541C30.4008 17.4483 32.0472 15.3424 34.1913 15.0361C34.2296 15.687 33.5022 15.1127 34.1913 15.0361Z" fill="#FFFDFA"/>
<path d="M34.6508 12.5857C34.1914 14.4618 32.1621 15.7636 30.2859 15.419C30.7454 13.5812 32.7747 12.2411 34.6508 12.5857C34.4977 13.16 34.0765 12.4708 34.6508 12.5857Z" fill="#FFFDFA"/>
<path d="M38.9774 14.8449C37.1395 15.0363 35.2634 13.6579 34.9571 11.8201C36.7949 11.6287 38.6711 13.0453 38.9774 14.8449C38.8625 14.3088 38.403 14.9214 38.9774 14.8449Z" fill="#FFFDFA"/>
<path d="M32.5832 15.6105C31.9706 13.8875 32.8896 11.7433 34.5742 11.0159C35.2251 12.7388 34.2679 14.883 32.5832 15.6105C33.1193 15.3807 32.3918 15.0744 32.5832 15.6105Z" fill="#FFFDFA"/>
<path d="M35.4549 14.3853C36.7184 15.8785 36.6035 18.3289 35.2251 19.669C33.9616 18.1758 34.0765 15.7636 35.4549 14.3853C35.8377 14.8447 35.0337 14.8064 35.4549 14.3853Z" fill="#FFFDFA"/>
<path d="M33.2725 22.9235C31.3198 24.187 28.4098 23.651 26.9932 21.7748C28.9842 20.5113 31.8941 21.0474 33.2725 22.9235C32.8513 22.3492 32.6598 23.3447 33.2725 22.9235Z" fill="#FFFDFA"/>
<path d="M31.0517 16.4529C30.5157 18.5587 28.2184 20.0903 26.036 19.7074C26.572 17.6015 28.9076 16.07 31.0517 16.4529C30.8986 17.1038 30.3625 16.338 31.0517 16.4529Z" fill="#FFFDFA"/>
<path d="M34.9954 15.6872C33.3107 16.4913 31.0517 15.8021 30.1328 14.194C31.8175 13.3516 34.0765 14.0791 34.9954 15.6872C34.6891 15.1895 34.4594 15.9552 34.9954 15.6872Z" fill="#FFFDFA"/>
<path d="M30.9752 7.95288C31.7409 9.829 30.7837 12.2412 28.9459 13.1218C28.1801 11.2457 29.1373 8.83351 30.9752 7.95288C31.2049 8.5272 30.4008 8.2209 30.9752 7.95288Z" fill="#FFFDFA"/>
<path d="M25.2319 12.3176C26.8783 11.8582 28.7927 12.892 29.3288 14.5001C27.6824 14.9212 25.768 13.9257 25.2319 12.3176C25.7297 12.1645 25.3851 12.8154 25.2319 12.3176Z" fill="#FFFDFA"/>
<path d="M26.2657 19.5159C24.4661 18.9415 23.2792 16.874 23.7387 15.0361C25.5382 15.5722 26.7251 17.678 26.2657 19.5159C26.4188 18.9415 25.7296 19.3244 26.2657 19.5159Z" fill="#FFFDFA"/>
<path d="M23.8536 17.6016C25.1936 19.0565 25.1936 21.5835 23.8153 23.0002C22.4369 21.5452 22.4752 19.0182 23.8536 17.6016C24.2747 18.061 23.4324 18.0227 23.8536 17.6016Z" fill="#FFFDFA"/>
<path d="M17.1914 11.1309C19.2207 12.0881 20.2545 14.6917 19.4121 16.7975C17.4211 15.8403 16.3873 13.1984 17.1914 11.1309C17.804 11.4372 16.9234 11.7818 17.1914 11.1309Z" fill="#FFFDFA"/>
<path d="M22.9346 10.3649C21.4797 12.0496 18.6846 12.3559 16.8851 11.0158C18.34 9.33116 21.1734 9.02485 22.9346 10.3649C22.4752 10.901 22.3986 9.94377 22.9346 10.3649Z" fill="#FFFDFA"/>
<path d="M24.313 8.14429C25.6148 9.48437 25.6914 11.8582 24.4279 13.2366C23.1261 11.8965 23.0878 9.52266 24.313 8.14429C24.7342 8.56546 23.9301 8.56546 24.313 8.14429Z" fill="#FFFDFA"/>
<path d="M23.8918 11.6668C22.2072 12.3177 20.1013 11.4753 19.3355 9.82893C20.9819 9.17803 23.1261 10.0204 23.8918 11.6668C23.6621 11.1307 23.3558 11.8582 23.8918 11.6668Z" fill="#FFFDFA"/>
<path d="M20.9053 14.5001C19.4504 13.7726 18.7229 11.8582 19.3738 10.365C20.8288 11.0925 21.5562 13.0069 20.9053 14.5001C21.1351 14.0407 20.4842 14.3087 20.9053 14.5001Z" fill="#FFFDFA"/>
<path style="mix-blend-mode:multiply" d="M39.1305 24.187C38.135 26.0631 32.545 25.0676 26.6486 21.9279C20.7522 18.7883 16.8085 14.6915 17.804 12.8154C18.8378 10.901 24.4279 11.8964 30.3243 15.0361C36.2206 18.1757 40.1643 22.2725 39.1305 24.187Z" fill="url(#paint1_radial_1_651)"/>
<path style="mix-blend-mode:multiply" d="M44.8738 12.8536C46.1373 14.5765 42.0788 19.7071 35.7612 24.2252C29.4436 28.7815 23.3175 31.0787 22.054 29.3175C20.7905 27.5945 24.8873 22.4639 31.2049 17.9076C37.4842 13.3896 43.6486 11.0923 44.8738 12.8536Z" fill="url(#paint2_radial_1_651)"/>
<path style="mix-blend-mode:multiply" d="M26.1891 28.9347C24.5427 27.5563 26.6103 22.2725 30.8603 17.1419C35.072 11.973 39.858 8.90997 41.5427 10.2501C43.1891 11.6284 41.1215 16.9122 36.8715 22.0811C32.6598 27.2117 27.8738 30.3131 26.1891 28.9347Z" fill="url(#paint3_radial_1_651)"/>
<path d="M41.2747 5.23432C43.9931 10.7861 39.6666 13.5046 37.331 10.9776C36.2972 9.82891 35.3783 9.17801 34.4594 11.8582C33.5787 14.5766 31.2432 11.5136 31.09 8.68026C30.8986 5.88522 27.2995 6.84243 25.8445 8.02936C24.3513 9.17801 18.8761 9.36945 19.1824 4.46856C19.6035 3.97081 20.0247 3.58793 20.4459 3.20505C21.786 2.09469 25.7297 -0.0494466 26.7252 0.0271297C27.9121 0.141994 28.563 0.141994 29.8265 0.0271297C32.3918 -0.164311 35.2634 0.678029 37.5224 1.90325C39.054 2.74559 40.3175 3.89424 41.313 5.23432H41.2747Z" fill="#A02703"/>
<path style="mix-blend-mode:multiply" d="M41.2747 5.23432C43.9931 10.7861 39.6666 13.5046 37.331 10.9776C36.2972 9.82891 35.3783 9.17801 34.4594 11.8582C33.5787 14.5766 31.2432 11.5136 31.09 8.68026C30.8986 5.88522 27.2995 6.84243 25.8445 8.02936C24.3513 9.17801 18.8761 9.36945 19.1824 4.46856C19.6035 3.97081 20.0247 3.58793 20.4459 3.20505C21.786 2.09469 25.7297 -0.0494466 26.7252 0.0271297C27.9121 0.141994 28.563 0.141994 29.8265 0.0271297C32.3918 -0.164311 35.2634 0.678029 37.5224 1.90325C39.054 2.74559 40.3175 3.89424 41.313 5.23432H41.2747Z" fill="url(#paint4_radial_1_651)"/>
<path style="mix-blend-mode:screen" d="M30.2094 1.52034C31.5878 1.25232 33.4639 4.73655 34.3828 9.33113C35.34 13.9257 34.9571 17.8694 33.5787 18.1374C32.2386 18.4054 30.3625 14.9212 29.4053 10.3266C28.4864 5.77033 28.831 1.82665 30.2094 1.52034Z" fill="url(#paint5_radial_1_651)"/>
<path style="mix-blend-mode:screen" d="M33.5787 7.30174C34.3445 6.34453 36.8715 7.1103 39.2454 9.02471C41.581 10.9391 42.8828 13.2364 42.117 14.1936C41.3512 15.1508 38.8242 14.3851 36.4504 12.4706C34.1148 10.5562 32.813 8.25894 33.5787 7.30174Z" fill="url(#paint6_radial_1_651)"/>
<path d="M17.2297 22.2725C17.8806 20.2816 16.5788 25.7185 18.9909 27.2883C20.599 28.2838 21.5562 26.7906 21.8625 23.4595C22.1688 20.1284 27.6058 22.5023 26.6103 19.0181C26.036 16.8356 26.2274 16.2613 26.4571 16.1082C27.2995 16.7973 28.027 17.5631 28.5247 18.3289C30.0179 20.7793 29.6733 24.2252 29.0224 26.8288C28.0269 31.0023 25.1936 33.1081 21.3648 34.6013C16.5022 36.4775 11.2567 36.5158 7.15989 33.4527C3.98197 31.0405 1.72295 26.5608 2.14412 22.3874C2.41214 19.4009 3.82881 15.687 8.15538 13.428C5.4752 18.5203 8.80628 21.6982 10.4144 19.3244C11.9842 16.9505 13.286 16.9505 13.7455 20.2816C14.2432 23.6126 16.6171 24.2635 17.2297 22.2725Z" fill="#E0D1B1"/>
<path d="M7.84909 12.8918C7.92567 14.5765 6.5473 16.2229 4.86262 16.4144C4.78604 14.7297 6.16441 13.1216 7.84909 12.8918C7.84909 13.4279 7.31306 12.9684 7.84909 12.8918Z" fill="#EAE2D1"/>
<path d="M6.77701 15.5337C5.70494 16.9121 3.52251 17.295 2.10585 16.2995C3.13963 14.9211 5.32206 14.5765 6.77701 15.5337C6.43242 15.9932 6.31756 15.2657 6.77701 15.5337Z" fill="#EAE2D1"/>
<path d="M2.10585 17.4864C2.56531 16.1846 4.09684 15.4188 5.43693 15.7634C4.97747 17.0652 3.44594 17.8693 2.10585 17.4864C2.52702 17.6012 2.259 17.0652 2.10585 17.4864Z" fill="#EAE2D1"/>
<path d="M0.497742 19.4774C1.07206 17.831 2.98648 16.7973 4.67116 17.2184C4.09684 18.8648 2.18242 19.8986 0.497742 19.4774C1.03378 19.5923 0.689183 18.9797 0.497742 19.4774Z" fill="#EAE2D1"/>
<path d="M2.68017 17.6396C3.67566 18.8266 3.56079 20.8176 2.41215 21.8896C1.41665 20.6644 1.53152 18.7117 2.68017 17.6396C2.98647 18.0225 2.33558 17.9842 2.68017 17.6396Z" fill="#EAE2D1"/>
<path d="M0 20.626C1.68468 20.0134 3.79053 20.894 4.518 22.5404C2.83332 23.153 0.727476 22.2724 0 20.626C0.536035 20.4345 0.229729 21.1237 0 20.626Z" fill="#EAE2D1"/>
<path d="M0.459457 23.4595C1.45495 22.5406 3.17792 22.5023 4.17342 23.4595C3.17792 24.3784 1.45495 24.3784 0.459457 23.4595C0.765763 23.7275 0.765763 23.1532 0.459457 23.4595Z" fill="#EAE2D1"/>
<path d="M3.79054 23.4595C3.75225 25.0676 2.33557 26.5991 0.689178 26.6757C0.689178 25.0293 2.14414 23.536 3.79054 23.4595C3.79054 23.9572 3.2545 23.4595 3.79054 23.4595Z" fill="#EAE2D1"/>
<path d="M0.459451 24.1104C2.33557 24.3784 3.86709 26.2162 3.75223 28.0923C1.8761 27.8626 0.344587 26.0248 0.459451 24.1104C1.03377 24.1869 0.421163 24.723 0.459451 24.1104Z" fill="#EAE2D1"/>
<path d="M2.45046 26.2161C3.52252 27.2881 3.59909 29.2025 2.60359 30.3512C1.53152 29.2791 1.45496 27.3647 2.45046 26.2161C2.79505 26.5607 2.14415 26.5607 2.45046 26.2161Z" fill="#EAE2D1"/>
<path d="M5.43692 31.6531C4.02026 31.6531 2.71847 30.4278 2.64189 29.0495C4.05855 29.0112 5.36035 30.2364 5.43692 31.6531C5.39864 31.1936 5.01575 31.6531 5.43692 31.6531Z" fill="#EAE2D1"/>
<path d="M6.93016 34.2183C5.05403 34.0652 3.48423 32.3422 3.52252 30.4661C5.39864 30.6192 6.93016 32.3805 6.93016 34.2183C6.93016 33.644 6.35583 34.18 6.93016 34.2183Z" fill="#EAE2D1"/>
<path d="M5.5135 31.3467C7.12161 32.1507 7.92564 34.3332 7.19817 35.9796C5.55178 35.1755 4.78603 33.0314 5.5135 31.3467C6.01125 31.6147 5.28377 31.8827 5.5135 31.3467Z" fill="#EAE2D1"/>
<path d="M6.509 31.6531C8.19368 32.036 9.38061 33.8738 9.07431 35.5585C7.38963 35.1756 6.20269 33.3378 6.509 31.6531C7.00674 31.7679 6.39413 32.1891 6.509 31.6531Z" fill="#EAE2D1"/>
<path d="M11.2567 34.4099C10.223 35.5203 8.27025 35.6734 7.08331 34.6779C8.15538 33.5676 10.0698 33.4144 11.2567 34.4099C10.9504 34.7545 10.9121 34.1036 11.2567 34.4099Z" fill="#EAE2D1"/>
<path d="M8.99773 35.7881C9.76349 34.6011 11.5248 34.1417 12.7883 34.8309C11.9842 36.0561 10.2612 36.4773 8.99773 35.7881C9.38061 36.0178 9.22746 35.4052 8.99773 35.7881Z" fill="#EAE2D1"/>
<path d="M12.5968 37.7409C11.3716 36.7454 11.1036 34.7544 12.0225 33.4526C13.286 34.4481 13.5157 36.4774 12.5968 37.7409C12.8648 37.358 12.2139 37.4346 12.5968 37.7409Z" fill="#EAE2D1"/>
<path d="M13.9752 37.8556C12.75 37.0516 12.3288 35.252 13.0563 33.9885C14.2815 34.7926 14.7027 36.5921 13.9752 37.8556C14.2049 37.4728 13.5923 37.6259 13.9752 37.8556Z" fill="#EAE2D1"/>
<path d="M15.2004 33.8738C16.5788 34.7544 17.1531 36.7454 16.3491 38.2003C14.9707 37.358 14.4347 35.3287 15.2004 33.8738C15.6216 34.1418 14.9707 34.3332 15.2004 33.8738Z" fill="#EAE2D1"/>
<path d="M19.7567 35.2905C19.0292 36.554 17.268 37.09 15.9662 36.4391C16.6937 35.1756 18.4549 34.6396 19.7567 35.2905C19.527 35.6734 19.3738 35.099 19.7567 35.2905Z" fill="#EAE2D1"/>
<path d="M22.0157 36.0944C20.4459 36.4773 18.6463 35.4435 18.1869 33.8737C19.795 33.4908 21.5563 34.5628 22.0157 36.0944C21.8626 35.6349 21.518 36.2092 22.0157 36.0944Z" fill="#EAE2D1"/>
<path d="M19.7184 36.1328C20.4076 34.6013 22.3603 33.7973 23.8918 34.4099C23.2026 35.9031 21.2499 36.7072 19.7184 36.1328C20.1779 36.3243 19.9099 35.6351 19.7184 36.1328Z" fill="#EAE2D1"/>
<path d="M21.4031 33.5293C22.8198 32.8018 24.8108 33.4144 25.6148 34.7928C24.1599 35.5203 22.2072 34.9459 21.4031 33.5293C21.8243 33.2995 21.6328 33.9504 21.4031 33.5293Z" fill="#EAE2D1"/>
<path d="M23.7004 31.0405C25.1171 31.5383 25.9977 33.1847 25.6148 34.6396C24.1981 34.1419 23.3175 32.4955 23.7004 31.0405C24.1216 31.1937 23.5855 31.5 23.7004 31.0405Z" fill="#EAE2D1"/>
<path d="M26.6869 29.4707C27.5292 30.6193 27.3378 32.4189 26.2274 33.3761C25.3468 32.1892 25.5765 30.3896 26.6869 29.4707C26.9549 29.8153 26.3423 29.7387 26.6869 29.4707Z" fill="#EAE2D1"/>
<path d="M26.304 31.5381C25.9977 30.0065 26.9932 28.3218 28.5247 27.939C28.831 29.4322 27.7972 31.1169 26.304 31.5381C26.7635 31.4232 26.1891 31.0786 26.304 31.5381Z" fill="#EAE2D1"/>
<path d="M26.1508 26.867C27.9504 26.6372 29.8265 27.9773 30.1328 29.7769C28.3333 30.0066 26.4954 28.6282 26.1508 26.867C26.7252 26.7904 26.2657 27.403 26.1508 26.867Z" fill="#EAE2D1"/>
<path d="M31.09 29.0112C29.5202 29.2026 27.9121 28.054 27.6058 26.5225C29.1756 26.2927 30.7837 27.4414 31.09 29.0112C31.0134 28.5134 30.6306 29.0878 31.09 29.0112Z" fill="#EAE2D1"/>
<path d="M31.0134 27.2498C29.6734 27.5561 28.1418 26.7138 27.7589 25.412C29.0607 25.0674 30.5923 25.948 31.0134 27.2498C30.8603 26.8287 30.5923 27.3264 31.0134 27.2498Z" fill="#EAE2D1"/>
<path d="M32.1621 23.9572C31.3197 25.6801 29.0607 26.5608 27.2995 25.8333C28.1418 24.1103 30.3625 23.2297 32.1621 23.9572C31.8941 24.4932 31.5878 23.7274 32.1621 23.9572Z" fill="#EAE2D1"/>
<path d="M31.5112 24.9144C29.7882 24.5698 28.4481 22.7703 28.6779 21.009C30.4008 21.3536 31.7026 23.1532 31.5112 24.9144C31.5877 24.3401 30.9751 24.7996 31.5112 24.9144Z" fill="#EAE2D1"/>
<path d="M28.9076 19.0945C30.4774 19.8985 31.2815 21.9661 30.5923 23.5742C29.0225 22.8084 28.2567 20.7409 28.9076 19.0945C29.4053 19.3625 28.7161 19.5922 28.9076 19.0945Z" fill="#EAE2D1"/>
<path d="M30.822 19.2477C30.3243 20.7792 28.5247 21.7364 26.9932 21.3152C27.4909 19.7837 29.2905 18.8648 30.822 19.2477C30.6688 19.7454 30.3625 19.1328 30.822 19.2477Z" fill="#EAE2D1"/>
<path d="M29.3287 17.2566C30.1328 18.5967 29.6733 20.5494 28.3333 21.43C27.5675 20.0516 28.0269 18.0989 29.3287 17.2566C29.5968 17.6778 28.9459 17.5246 29.3287 17.2566Z" fill="#EAE2D1"/>
<path d="M26.5337 16.1846C28.1418 15.8017 29.9414 16.8738 30.4391 18.4436C28.831 18.7882 27.0315 17.7544 26.5337 16.1846C27.0315 16.0697 26.6869 16.6823 26.5337 16.1846Z" fill="#EAE2D1"/>
<path d="M26.4954 20.2813C25.9594 21.966 24.0067 23.0381 22.322 22.5786C22.858 20.9322 24.8107 19.8601 26.4954 20.2813C26.304 20.8173 25.9594 20.1664 26.4954 20.2813Z" fill="#EAE2D1"/>
<path d="M27.7589 25.2973C26.0743 24.5698 25.1936 22.4256 25.8445 20.741C27.4909 21.4684 28.3716 23.6126 27.7589 25.2973C27.9504 24.7612 27.2229 25.0675 27.7589 25.2973Z" fill="#EAE2D1"/>
<path d="M27.3378 23.7273C27.5675 25.4503 26.2657 27.2115 24.581 27.5561C24.3513 25.8331 25.6531 24.0336 27.3378 23.7273C27.4143 24.2633 26.8017 23.8422 27.3378 23.7273Z" fill="#EAE2D1"/>
<path d="M29.0607 30.6192C27.4909 31.385 25.4234 30.7724 24.5427 29.2791C26.0743 28.5134 28.1801 29.126 29.0607 30.6192C28.7927 30.1597 28.563 30.8489 29.0607 30.6192Z" fill="#EAE2D1"/>
<path d="M18.072 29.8152C19.6801 29.5854 21.3648 30.7341 21.7094 32.3422C20.1013 32.5719 18.4166 31.385 18.072 29.8152C18.5698 29.7386 18.1869 30.2746 18.072 29.8152Z" fill="#EAE2D1"/>
<path d="M19.3355 27.2881C20.7522 26.7138 22.59 27.3647 23.2409 28.7813C21.8243 29.3556 20.0247 28.6665 19.3355 27.2881C19.7567 27.0966 19.527 27.7093 19.3355 27.2881Z" fill="#EAE2D1"/>
<path d="M17.4594 26.1395C18.9527 25.2206 21.1351 25.6418 22.1306 27.0967C20.6373 28.0156 18.4932 27.5562 17.4594 26.1395C17.9189 25.8332 17.7657 26.599 17.4594 26.1395Z" fill="#EAE2D1"/>
<path d="M25.3468 27.5179C24.2364 28.5899 22.322 28.6282 21.1734 27.5944C22.2837 26.5224 24.1981 26.4841 25.3468 27.5179C25.0022 27.8242 25.0022 27.1733 25.3468 27.5179Z" fill="#EAE2D1"/>
<path d="M24.8107 24.876C23.1643 24.8377 21.6711 23.4211 21.5945 21.7747C23.2409 21.8129 24.7342 23.2296 24.8107 24.876C24.7724 24.34 24.313 24.8377 24.8107 24.876Z" fill="#EAE2D1"/>
<path d="M26.3806 29.4705C24.7342 28.9345 23.6238 26.9818 24.045 25.2971C25.7297 25.8332 26.8017 27.7476 26.3806 29.4705C26.5337 28.9345 25.8828 29.2791 26.3806 29.4705Z" fill="#EAE2D1"/>
<path d="M19.7567 27.135C21.1734 27.403 22.2454 28.8197 22.0923 30.2364C20.6756 30.0066 19.6035 28.5517 19.7567 27.135C20.2162 27.2116 19.7184 27.5562 19.7567 27.135Z" fill="#EAE2D1"/>
<path d="M20.599 31.0022C21.9391 30.2747 23.8153 30.8108 24.581 32.1126C23.2409 32.8017 21.4031 32.304 20.599 31.0022C21.0202 30.7725 20.8288 31.3851 20.599 31.0022Z" fill="#EAE2D1"/>
<path d="M20.4076 33.3377C18.9144 33.0697 17.7657 31.5382 17.9189 30.0449C19.4121 30.2747 20.599 31.8062 20.4076 33.3377C20.4842 32.8782 19.9481 33.2611 20.4076 33.3377Z" fill="#EAE2D1"/>
<path d="M19.259 35.0989C17.4977 35.7881 15.277 34.9075 14.4729 33.1845C16.2342 32.4953 18.4932 33.3759 19.259 35.0989C19.0292 34.5629 18.7229 35.3286 19.259 35.0989Z" fill="#EAE2D1"/>
<path d="M11.6779 29.7769C13.3243 30.466 14.2432 32.5336 13.6689 34.2183C12.0225 33.5291 11.1036 31.4615 11.6779 29.7769C12.2139 29.9683 11.5248 30.2746 11.6779 29.7769Z" fill="#EAE2D1"/>
<path d="M13.2094 30.6957C13.554 29.1642 15.2004 28.0538 16.7702 28.2836C16.4256 29.8151 14.7792 30.9637 13.2094 30.6957C13.7072 30.7723 13.3243 30.2363 13.2094 30.6957Z" fill="#EAE2D1"/>
<path d="M14.4346 29.0876C15.277 27.4412 17.4594 26.6372 19.1441 27.3263C18.34 29.011 16.1576 29.8151 14.4346 29.0876C14.9707 29.3173 14.7027 28.5898 14.4346 29.0876Z" fill="#EAE2D1"/>
<path d="M13.8603 25.1057C15.2387 25.144 16.5022 26.4075 16.5405 27.7859C15.1238 27.7476 13.8986 26.4841 13.8603 25.1057C14.2815 25.1057 13.8603 25.5269 13.8603 25.1057Z" fill="#EAE2D1"/>
<path d="M16.2725 23.4211C16.4639 24.9527 15.3153 26.5225 13.7837 26.7522C13.6306 25.259 14.7792 23.6892 16.2725 23.4211C16.3491 23.9189 15.813 23.4977 16.2725 23.4211Z" fill="#EAE2D1"/>
<path d="M22.0157 24.8761C21.786 26.6757 20.063 28.1689 18.2635 28.0923C18.4549 26.2928 20.2162 24.7995 22.0157 24.8761C21.9391 25.4504 21.4414 24.8761 22.0157 24.8761Z" fill="#EAE2D1"/>
<path d="M15.7747 28.8963C14.6644 27.4797 14.8558 25.259 16.1959 24.072C17.268 25.4887 17.0765 27.7094 15.7747 28.8963C16.1576 28.5135 15.4302 28.4752 15.7747 28.8963Z" fill="#EAE2D1"/>
<path d="M14.5495 30.1215C15.8513 29.5472 17.536 30.1598 18.1869 31.4233C16.8851 31.9593 15.2004 31.385 14.5495 30.1215C14.9707 29.9301 14.741 30.5044 14.5495 30.1215Z" fill="#EAE2D1"/>
<path d="M11.7928 30.466C13.1711 29.7002 15.0473 30.198 15.8896 31.5381C14.5495 32.2656 12.6351 31.7678 11.7928 30.466C12.2139 30.2363 12.0608 30.8489 11.7928 30.466Z" fill="#EAE2D1"/>
<path d="M9.7635 33.1844C9.4572 31.3849 10.7207 29.4705 12.5203 29.0493C12.8266 30.8489 11.563 32.7633 9.7635 33.1844C10.3378 33.0696 9.68692 32.6484 9.7635 33.1844Z" fill="#EAE2D1"/>
<path d="M9.22744 33.2228C8.0405 31.921 8.0788 29.6619 9.30402 28.3984C10.5292 29.7385 10.4527 31.9592 9.22744 33.2228C9.61032 32.8399 8.84456 32.8399 9.22744 33.2228Z" fill="#EAE2D1"/>
<path d="M7.42792 26.7139C9.22746 26.7139 10.9504 28.2837 11.0653 30.0832C9.22746 30.1215 7.54278 28.5517 7.42792 26.7139C8.00224 26.7139 7.46621 27.2882 7.42792 26.7139Z" fill="#EAE2D1"/>
<path d="M13.018 24.3782C13.0946 26.2543 11.5247 28.0921 9.64862 28.2836C9.57205 26.4074 11.1419 24.6079 13.018 24.3782C13.018 24.9525 12.4054 24.4548 13.018 24.3782Z" fill="#EAE2D1"/>
<path d="M13.9752 25.8714C12.6734 26.5606 10.9504 26.0629 10.2229 24.8376C11.4865 24.1867 13.2094 24.6845 13.9752 25.8714C13.7455 25.5268 13.554 26.1012 13.9752 25.8714Z" fill="#EAE2D1"/>
<path d="M13.0563 22.0427C13.7837 23.3828 13.3243 25.2589 12.0608 26.1013C11.295 24.7612 11.7545 22.8851 13.0563 22.0427C13.286 22.4639 12.6351 22.3107 13.0563 22.0427Z" fill="#EAE2D1"/>
<path d="M12.7883 20.4346C13.8986 21.5832 13.9752 23.6125 12.9031 24.7994C11.7545 23.6508 11.7162 21.6215 12.7883 20.4346C13.1329 20.7792 12.4437 20.7792 12.7883 20.4346Z" fill="#EAE2D1"/>
<path d="M8.53827 21.5067C9.68691 20.2432 11.8693 20.0517 13.2477 21.1621C12.0608 22.4256 9.87836 22.617 8.53827 21.5067C8.95944 21.8513 8.88286 21.1238 8.53827 21.5067Z" fill="#EAE2D1"/>
<path d="M14.6644 25.795C12.8648 25.259 11.6779 23.2297 12.0608 21.4302C13.8603 21.9662 15.0472 23.9572 14.6644 25.795C14.7792 25.2207 14.09 25.6036 14.6644 25.795Z" fill="#EAE2D1"/>
<path d="M12.0608 27.5563C11.6013 25.9865 12.5202 24.1869 14.0518 23.6509C14.4729 25.1824 13.554 26.982 12.0608 27.5563C12.5202 27.3648 11.9459 27.0585 12.0608 27.5563Z" fill="#EAE2D1"/>
<path d="M10.2612 22.7701C9.95492 24.3016 8.30852 25.4503 6.73871 25.2206C7.0833 23.6507 8.7297 22.5404 10.2612 22.7701C10.1847 23.2679 9.80177 22.6935 10.2612 22.7701Z" fill="#EAE2D1"/>
<path d="M12.9031 28.475C11.8311 30.0065 9.49546 30.5042 7.88736 29.5087C8.95943 27.9772 11.295 27.4795 12.9031 28.475C12.5585 28.9727 12.4054 28.1687 12.9031 28.475Z" fill="#EAE2D1"/>
<path d="M4.5563 27.3265C5.62837 26.1779 7.61935 26.063 8.80628 27.0585C7.73422 28.2072 5.74324 28.322 4.5563 27.3265C4.9009 27.6329 4.86261 26.982 4.5563 27.3265Z" fill="#EAE2D1"/>
<path d="M10.3761 31.8445C9.91664 33.5291 8.04052 34.6395 6.35583 34.2949C6.81529 32.6485 8.69141 31.4999 10.3761 31.8445C10.2612 32.3805 9.87835 31.7296 10.3761 31.8445Z" fill="#EAE2D1"/>
<path d="M3.33107 30.4277C4.78602 29.7385 6.777 30.3511 7.58105 31.7678C6.08781 32.4953 4.13512 31.8827 3.33107 30.4277C3.79053 30.2363 3.5608 30.8872 3.33107 30.4277Z" fill="#EAE2D1"/>
<path d="M4.63285 26.8286C5.85808 27.4795 6.39412 29.1642 5.8198 30.466C4.59458 29.7768 4.02024 28.0921 4.63285 26.8286C5.01574 27.0201 4.44141 27.2115 4.63285 26.8286Z" fill="#EAE2D1"/>
<path d="M7.19818 27.0968C6.27926 28.1306 4.55629 28.2837 3.48422 27.4031C4.40314 26.4076 6.12611 26.2545 7.19818 27.0968C6.89188 27.4031 6.85359 26.8288 7.19818 27.0968Z" fill="#EAE2D1"/>
<path d="M1.95269 23.0764C3.44593 23.421 4.518 25.0674 4.24998 26.5606C2.75674 26.216 1.68467 24.5697 1.95269 23.0764C2.41214 23.1913 1.87611 23.5359 1.95269 23.0764Z" fill="#EAE2D1"/>
<path d="M6.01125 21.2004C7.00675 22.6937 6.66215 24.9527 5.24549 26.063C4.21171 24.5698 4.59459 22.3108 6.01125 21.2004C6.31756 21.6599 5.55179 21.545 6.01125 21.2004Z" fill="#EAE2D1"/>
<path d="M5.43692 22.8083C6.66214 21.966 8.53826 22.1957 9.45718 23.3444C8.23196 24.225 6.39412 23.957 5.43692 22.8083C5.8198 22.5403 5.74323 23.1912 5.43692 22.8083Z" fill="#EAE2D1"/>
<path d="M6.54727 21.277C4.90088 21.4685 3.21621 20.2432 2.9482 18.5969C4.5563 18.4054 6.24097 19.6689 6.54727 21.277C6.4707 20.7793 6.04953 21.3536 6.54727 21.277Z" fill="#EAE2D1"/>
<path d="M2.41216 16.5292C3.94368 16.4909 5.39864 17.7544 5.55179 19.2859C4.02026 19.3242 2.56531 18.0607 2.41216 16.5292C2.87161 16.5292 2.45044 16.9886 2.41216 16.5292Z" fill="#EAE2D1"/>
<path d="M18.4549 31.6914C19.9864 31.9977 21.1734 33.6058 20.9819 35.2139C19.4121 34.9076 18.2635 33.2612 18.4549 31.6914C18.9144 31.8063 18.3783 32.1892 18.4549 31.6914Z" fill="#EAE2D1"/>
<path d="M8.15539 17.9841C8.99773 19.3242 8.65313 21.2769 7.38962 22.2341C6.50899 20.894 6.89188 18.903 8.15539 17.9841C8.4234 18.4053 7.7725 18.2904 8.15539 17.9841Z" fill="#EAE2D1"/>
<path d="M4.63287 18.6733C6.35584 19.1711 7.50449 21.1238 7.08332 22.885C5.36035 22.3873 4.24998 20.4346 4.63287 18.6733C5.1689 18.8265 4.518 19.2094 4.63287 18.6733Z" fill="#EAE2D1"/>
<path d="M0.995483 20.5494C2.33557 19.6305 4.32657 19.8985 5.36035 21.162C4.02026 22.0809 2.02926 21.8129 0.995483 20.5494C1.41665 20.2814 1.34008 20.9323 0.995483 20.5494Z" fill="#EAE2D1"/>
<path d="M24.2747 21.3536C25.0022 19.5158 27.2995 18.4437 29.1756 19.0564C28.4481 20.8942 26.1891 21.9663 24.2747 21.3536C24.8873 21.5451 24.5044 20.7793 24.2747 21.3536Z" fill="#FFFDFA"/>
<path d="M29.9414 20.1667C30.5923 21.4685 30.0563 23.2298 28.7927 23.919C28.1418 22.6172 28.7162 20.8942 29.9414 20.1667C30.1328 20.5496 29.5585 20.3965 29.9414 20.1667Z" fill="#FFFDFA"/>
<path d="M30.5157 26.1014C28.9842 27.2118 26.6103 26.9438 25.3851 25.4888C26.9166 24.3402 29.2905 24.6465 30.5157 26.1014C30.1328 25.642 30.0562 26.446 30.5157 26.1014Z" fill="#FFFDFA"/>
<path d="M30.018 25.7949C29.5202 27.7476 27.3761 29.126 25.3851 28.7814C25.8828 26.7904 28.027 25.4121 30.018 25.7949C29.8648 26.4076 29.4053 25.6801 30.018 25.7949Z" fill="#FFFDFA"/>
<path d="M23.4324 26.5992C24.5044 25.5654 26.3806 25.5271 27.4909 26.5226C26.4188 27.5564 24.5427 27.5947 23.4324 26.5992C23.777 26.9055 23.777 26.2929 23.4324 26.5992Z" fill="#FFFDFA"/>
<path d="M23.6621 24.1486C24.3513 22.4256 26.4571 21.3919 28.2567 21.9279C27.5675 23.6892 25.4616 24.7229 23.6621 24.1486C24.2364 24.3401 23.8918 23.6126 23.6621 24.1486Z" fill="#FFFDFA"/>
<path d="M24.2364 26.4075C22.8198 26.2927 21.5945 24.9909 21.5945 23.5742C23.0112 23.6891 24.2364 24.9909 24.2364 26.4075C24.2364 25.9481 23.8152 26.3693 24.2364 26.4075Z" fill="#FFFDFA"/>
<path d="M25.5765 31.8064C25.4616 29.9303 26.9549 28.0542 28.831 27.7861C28.9459 29.6623 27.4526 31.5384 25.5765 31.8064C26.1891 31.7298 25.5382 31.1938 25.5765 31.8064Z" fill="#FFFDFA"/>
<path d="M22.7049 27.7478C23.4324 29.6239 22.4752 31.9978 20.6373 32.8018C19.9099 30.9257 20.8671 28.5519 22.7049 27.7478C22.9346 28.3221 22.1306 27.9775 22.7049 27.7478Z" fill="#FFFDFA"/>
<path d="M21.9008 35.5968C21.4414 33.8739 22.5134 31.8446 24.2364 31.2703C24.6959 33.0315 23.6238 35.0225 21.9008 35.5968C22.4369 35.4054 21.7477 35.0608 21.9008 35.5968Z" fill="#FFFDFA"/>
<path d="M24.4279 33.6058C22.6283 33.5675 20.9819 31.9594 20.9053 30.1216C22.7432 30.1982 24.3513 31.8063 24.4279 33.6058C24.4279 33.0698 23.8535 33.6058 24.4279 33.6058Z" fill="#FFFDFA"/>
<path d="M16.6936 33.6442C18.0337 32.4189 20.331 32.4189 21.6328 33.6825C20.2927 34.9077 18.0337 34.9077 16.6936 33.6442C17.1148 34.027 17.1148 33.2613 16.6936 33.6442Z" fill="#FFFDFA"/>
<path d="M19.6418 26.0247C21.0968 26.3693 22.1689 28.0156 21.9009 29.5089C20.4076 29.1643 19.3738 27.5179 19.6418 26.0247C20.1013 26.1395 19.527 26.4841 19.6418 26.0247Z" fill="#FFFDFA"/>
<path d="M6.35583 14.9595C7.38961 16.3761 7.08331 18.5586 5.74322 19.6689C4.70944 18.2523 5.01574 16.0698 6.35583 14.9595C6.70042 15.4189 5.93466 15.3041 6.35583 14.9595Z" fill="#FFFDFA"/>
<path d="M17.3828 29.5473C15.8513 29.3941 14.5495 27.9009 14.6261 26.3694C16.1576 26.5225 17.4594 28.0158 17.3828 29.5473C17.4211 29.0878 16.9234 29.509 17.3828 29.5473Z" fill="#FFFDFA"/>
<path d="M21.4414 31.883C19.6801 32.955 17.1148 32.419 15.9279 30.7343C17.6891 29.6623 20.2544 30.1983 21.4414 31.883C21.0968 31.3469 20.9053 32.2276 21.4414 31.883Z" fill="#FFFDFA"/>
<path d="M16.8851 31.0789C16.9999 32.6104 15.7747 34.1036 14.2432 34.3334C14.1283 32.8018 15.3535 31.2703 16.8851 31.0789C16.9234 31.5383 16.3873 31.1171 16.8851 31.0789Z" fill="#FFFDFA"/>
<path d="M8.92114 33.9886C10.5675 32.8399 13.0946 33.1845 14.3581 34.7544C12.7117 35.903 10.1847 35.5584 8.92114 33.9886C9.41889 33.6057 9.30402 34.4481 8.92114 33.9886Z" fill="#FFFDFA"/>
<path d="M17.4211 31.5C16.2725 32.6487 14.2432 32.7635 12.9797 31.6915C14.1284 30.5428 16.1959 30.428 17.4211 31.5C17.0382 31.8446 17.0382 31.1554 17.4211 31.5Z" fill="#FFFDFA"/>
<path d="M11.1419 28.1688C12.5585 27.1733 14.741 27.5179 15.813 28.8963C14.3581 29.8918 12.2139 29.5472 11.1419 28.1688C11.563 27.8625 11.4482 28.59 11.1419 28.1688Z" fill="#FFFDFA"/>
<path d="M12.3288 26.1014C13.4774 25.0676 15.4301 25.1059 16.5405 26.1779C15.3919 27.2117 13.4392 27.1734 12.3288 26.1014C12.6734 25.7951 12.6351 26.446 12.3288 26.1014Z" fill="#FFFDFA"/>
<path d="M11.9076 24.8762C12.7117 23.3446 14.7792 22.5789 16.3873 23.2681C15.6216 24.8379 13.5157 25.5653 11.9076 24.8762C12.4054 25.1059 12.1756 24.4167 11.9076 24.8762Z" fill="#FFFDFA"/>
<path d="M10.3378 27.4414C10.3378 25.9864 11.563 24.608 13.018 24.4932C13.0563 25.9481 11.7928 27.3265 10.3378 27.4414C10.7973 27.4031 10.3378 26.9819 10.3378 27.4414Z" fill="#FFFDFA"/>
<path d="M12.3288 27.5181C13.3243 29.3176 12.6734 31.8446 10.9504 32.955C9.95491 31.1554 10.6058 28.6284 12.3288 27.5181C12.6351 28.0924 11.7928 27.8627 12.3288 27.5181Z" fill="#FFFDFA"/>
<path d="M9.80177 31.9978C7.92565 32.5721 5.74323 31.5 5.05405 29.6622C6.89188 29.0879 9.11258 30.1982 9.80177 31.9978C9.57204 31.4617 9.22745 32.1892 9.80177 31.9978Z" fill="#FFFDFA"/>
<path d="M4.44141 23.6509C5.97294 24.8761 6.35584 27.2883 5.24548 28.8964C3.71395 27.7094 3.33106 25.259 4.44141 23.6509C4.90087 24.0338 4.09682 24.1486 4.44141 23.6509Z" fill="#FFFDFA"/>
<path d="M9.49547 22.196C10.2995 23.6893 9.7252 25.7568 8.27024 26.6375C7.46619 25.1059 8.07881 23.0767 9.49547 22.196C9.76349 22.6555 9.0743 22.4641 9.49547 22.196Z" fill="#FFFDFA"/>
<path d="M5.28377 23.9956C4.09684 22.9235 3.98198 20.9708 4.97747 19.7456C6.12612 20.8177 6.24098 22.7704 5.28377 23.9956C5.59008 23.6127 4.90089 23.6893 5.28377 23.9956Z" fill="#FFFDFA"/>
<path d="M10.9504 19.0181C12.2139 19.8604 12.6351 21.6982 11.9076 23C10.6441 22.1577 10.2229 20.3199 10.9504 19.0181C11.3716 19.2861 10.7207 19.4392 10.9504 19.0181Z" fill="#FFFDFA"/>
<path d="M3.52251 15.4956C5.05404 16.7591 5.43692 19.2478 4.28828 20.856C2.71846 19.5924 2.37387 17.1037 3.52251 15.4956C4.02026 15.8785 3.17792 15.9934 3.52251 15.4956Z" fill="#FFFDFA"/>
<path d="M1.14865 20.741C2.52703 20.2815 4.21172 21.0473 4.74775 22.4257C3.33109 22.8851 1.68469 22.0811 1.14865 20.741C1.56982 20.5878 1.3018 21.1622 1.14865 20.741Z" fill="#FFFDFA"/>
<path style="mix-blend-mode:multiply" d="M26.2657 15.1126C30.4774 18.1373 30.9369 24.6846 27.3378 29.6621C23.7004 34.6778 17.3445 36.2477 13.1328 33.1846C8.95942 30.1598 8.46167 23.6126 12.0991 18.6351C15.7364 13.6193 22.054 12.0495 26.2657 15.1126Z" fill="url(#paint7_radial_1_651)"/>
<path style="mix-blend-mode:multiply" d="M30.0179 19.3242C32.2769 18.8648 34.9188 22.1193 35.876 26.6373C36.8332 31.1936 35.7612 35.2521 33.4639 35.7116C31.2049 36.2093 28.563 32.9165 27.6058 28.3985C26.6486 23.8805 27.7206 19.822 30.0179 19.3242Z" fill="url(#paint8_radial_1_651)"/>
<path d="M26.6103 19.018C27.6058 22.5022 22.1688 20.1283 21.8625 23.4594C21.5562 26.7905 20.599 28.2837 18.9909 27.2882C16.5788 25.7184 17.8806 20.2815 17.2297 22.2725C16.6171 24.2634 14.2432 23.6125 13.7455 20.2815C13.286 16.9504 11.9842 16.9504 10.4144 19.3243C8.80627 21.6981 5.47519 18.5202 8.15536 13.4279C9.95491 12.4707 12.2522 11.8198 15.1621 11.5135C17.9571 11.2455 20.4459 12.241 22.8197 13.6193C23.8535 14.2702 25.2702 15.1126 26.4571 16.1081C26.2274 16.2612 26.036 16.8355 26.6103 19.018Z" fill="#A02703"/>
<path style="mix-blend-mode:multiply" d="M26.6103 19.018C27.6058 22.5022 22.1688 20.1283 21.8625 23.4594C21.5562 26.7905 20.599 28.2837 18.9909 27.2882C16.5788 25.7184 17.8806 20.2815 17.2297 22.2725C16.6171 24.2634 14.2432 23.6125 13.7455 20.2815C13.286 16.9504 11.9842 16.9504 10.4144 19.3243C8.80627 21.6981 5.47519 18.5202 8.15536 13.4279C9.95491 12.4707 12.2522 11.8198 15.1621 11.5135C17.9571 11.2455 20.4459 12.241 22.8197 13.6193C23.8535 14.2702 25.2702 15.1126 26.4571 16.1081C26.2274 16.2612 26.036 16.8355 26.6103 19.018Z" fill="url(#paint9_radial_1_651)"/>
<path style="mix-blend-mode:screen" d="M7.69591 12.7005C8.30852 12.7005 8.80628 14.6532 8.768 17.1036C8.72971 19.5158 8.19366 21.4685 7.58105 21.4685C6.96844 21.4685 6.47069 19.4775 6.50898 17.0654C6.54727 14.6149 7.0833 12.6622 7.69591 12.7005Z" fill="url(#paint10_radial_1_651)"/>
<path style="mix-blend-mode:screen" d="M13.018 14.8064C13.7838 14.6915 14.8558 16.9888 15.4301 20.0136C16.0427 23.0383 15.9279 25.6036 15.2004 25.7568C14.4347 25.8717 13.3626 23.5744 12.7883 20.5496C12.1757 17.5248 12.2905 14.9595 13.018 14.8064Z" fill="url(#paint11_radial_1_651)"/>
<path style="mix-blend-mode:screen" d="M16.5405 20.3581C16.5405 16.5293 17.3063 13.428 18.2635 13.428C19.2207 13.428 20.0247 16.5293 20.0247 20.3581C20.0247 24.187 19.2589 27.2883 18.3017 27.2883C17.3445 27.2883 16.5405 24.187 16.5405 20.3581Z" fill="url(#paint12_radial_1_651)"/>
<path style="mix-blend-mode:screen" d="M24.6576 19.5542C27.0698 18.7119 29.2522 18.597 29.4819 19.2862C29.7116 19.9754 27.9504 21.2389 25.5382 22.0812C23.1644 22.9236 20.9819 23.0384 20.7522 22.3492C20.4842 21.6601 22.2454 20.3965 24.6576 19.5542Z" fill="url(#paint13_radial_1_651)"/>
<path style="mix-blend-mode:screen" d="M17.6126 17.9461C18.3783 17.8695 19.1441 20.3199 19.3355 23.383C19.527 26.4461 19.1058 28.9731 18.3783 29.0497C17.6126 29.0879 16.8468 26.6375 16.6554 23.5744C16.4256 20.5114 16.8851 17.9844 17.6126 17.9461Z" fill="url(#paint14_radial_1_651)"/>
<path d="M55.0967 17.946C56.4751 20.4731 56.7048 23.6127 56.6665 26.5992C56.5899 29.0496 55.2116 33.1465 52.9909 34.6014C51.3827 35.6352 49.3152 35.7501 47.4773 36.1329C44.9886 36.669 42.5765 37.3964 40.0111 37.0136C36.2206 36.4392 33.7319 33.9505 31.5495 31.3086C29.2139 28.5136 29.5968 25.9483 30.4391 22.6938C30.7454 21.6983 31.1666 20.5879 31.8175 19.4776C31.3197 22.6938 34.1531 23.1532 36.3355 20.6262C38.4796 18.1375 41.6193 20.8559 41.1215 22.2343C40.6621 23.651 37.9819 30.4663 40.3174 30.8109C42.653 31.1172 43.2657 28.973 42.653 26.1397C42.0021 23.3064 43.4954 19.9753 44.4909 21.9663C45.4864 23.9573 46.4818 26.4843 47.3242 23.9573C48.1665 21.4686 49.8129 21.392 50.8084 24.187C51.8039 26.9821 53.4886 23.0001 52.8377 19.4776C52.1485 15.9551 55.2116 21.5834 55.0967 17.946Z" fill="#E0D1B1"/>
<path d="M33.0427 18.7119C32.9278 20.4349 31.3963 21.9664 29.6733 21.9664C29.7499 20.2817 31.2814 18.7502 33.0427 18.7119C33.0044 19.2479 32.4684 18.7502 33.0427 18.7119Z" fill="#EAE2D1"/>
<path d="M32.813 21.0858C32.3535 22.6939 30.554 23.766 28.9459 23.4214C29.367 21.8133 31.2049 20.7412 32.813 21.0858C32.6598 21.5835 32.3152 20.9709 32.813 21.0858Z" fill="#EAE2D1"/>
<path d="M30.6306 21.0474C31.1283 23.0001 29.9414 25.2208 28.0652 25.8717C27.5292 23.919 28.7161 21.6983 30.6306 21.0474C30.7837 21.66 30.0179 21.2388 30.6306 21.0474Z" fill="#EAE2D1"/>
<path d="M28.0652 26.5609C28.5247 24.7997 30.5157 23.5362 32.3152 23.919C31.8558 25.6803 29.8648 26.9055 28.0652 26.5609C28.6396 26.6758 28.2184 26.0249 28.0652 26.5609Z" fill="#EAE2D1"/>
<path d="M32.1621 27.9776C30.2477 28.1691 28.295 26.6758 27.9887 24.7614C29.9031 24.57 31.8558 26.0632 32.1621 27.9776C32.0472 27.365 31.5495 28.0159 32.1621 27.9776Z" fill="#EAE2D1"/>
<path d="M27.9504 26.7908C29.8265 26.9822 31.3963 28.7818 31.3197 30.6579C29.4436 30.4664 27.9121 28.6669 27.9504 26.7908C28.5247 26.8673 27.9504 27.4034 27.9504 26.7908Z" fill="#EAE2D1"/>
<path d="M29.1373 30.6579C29.5968 29.1646 31.2814 28.1309 32.8513 28.5137C32.3918 30.007 30.6688 31.0025 29.1373 30.6579C29.5968 30.7727 29.2522 30.1984 29.1373 30.6579Z" fill="#EAE2D1"/>
<path d="M30.554 34.0272C30.286 31.998 31.7409 29.8921 33.7702 29.4709C34.0382 31.5002 32.545 33.6061 30.554 34.0272C31.2049 33.8741 30.4774 33.3763 30.554 34.0272Z" fill="#EAE2D1"/>
<path d="M35.9526 35.2141C34.1531 35.7501 31.9706 34.678 31.3197 32.9168C33.1576 32.3424 35.3017 33.4145 35.9526 35.2141C35.7612 34.6397 35.3783 35.3672 35.9526 35.2141Z" fill="#EAE2D1"/>
<path d="M33.5788 35.6352C34.804 34.2951 37.1396 34.1037 38.5562 35.2906C37.331 36.6307 34.9954 36.7838 33.5788 35.6352C33.9999 35.9798 33.9616 35.214 33.5788 35.6352Z" fill="#EAE2D1"/>
<path d="M37.2544 37.8559C36.3355 36.5541 36.6035 34.5248 37.867 33.5293C38.8242 34.8311 38.5179 36.8604 37.2544 37.8559C37.6756 37.5496 36.9864 37.473 37.2544 37.8559Z" fill="#EAE2D1"/>
<path d="M41.7724 38.0856C40.3175 38.8514 38.3648 38.3153 37.5224 36.937C38.9391 36.1712 40.9301 36.7072 41.7724 38.0856C41.5044 37.6644 41.313 38.3153 41.7724 38.0856Z" fill="#EAE2D1"/>
<path d="M40.5472 35.2141C42.5382 35.5204 44.1463 37.5114 43.9931 39.5024C41.9639 39.2344 40.3941 37.2434 40.5472 35.2141C41.1598 35.2907 40.5089 35.8267 40.5472 35.2141Z" fill="#EAE2D1"/>
<path d="M45.0652 40.0001C43.1508 39.5024 41.8107 37.3582 42.1936 35.4055C44.1463 35.9033 45.4481 38.0474 45.0652 40.0001C45.1801 39.3875 44.4909 39.8469 45.0652 40.0001Z" fill="#EAE2D1"/>
<path d="M43.3039 38.009C44.2229 36.4775 46.4053 35.9032 47.9368 36.7072C47.0179 38.2388 44.8738 38.8131 43.3039 38.009C43.8017 38.2388 43.6102 37.5113 43.3039 38.009Z" fill="#EAE2D1"/>
<path d="M46.4436 37.8559C46.2521 36.2095 47.5157 34.5248 49.162 34.2185C49.3152 35.8649 48.09 37.5496 46.4436 37.8559C46.9413 37.741 46.4053 37.3198 46.4436 37.8559Z" fill="#EAE2D1"/>
<path d="M50.1192 33.6826C51.153 35.061 50.9616 37.2051 49.6598 38.3538C48.626 36.9754 48.8174 34.8313 50.1192 33.6826C50.4256 34.1038 49.6981 34.0272 50.1192 33.6826Z" fill="#EAE2D1"/>
<path d="M50.9616 37.6645C50.2724 36.0946 50.9999 34.1037 52.5314 33.3379C53.1823 34.9077 52.4548 36.8987 50.9616 37.6645C51.421 37.4347 50.7318 37.1667 50.9616 37.6645Z" fill="#EAE2D1"/>
<path d="M55.8242 34.4099C54.1778 35.2522 51.9188 34.6396 50.9233 33.0698C52.5697 32.1892 54.8287 32.8018 55.8242 34.4099C55.5179 33.9122 55.3264 34.6779 55.8242 34.4099Z" fill="#EAE2D1"/>
<path d="M58.1215 31.9214C57.0494 33.6444 54.6372 34.2953 52.876 33.3381C53.9098 31.6534 56.3602 31.0025 58.1215 31.9214C57.7769 32.4574 57.5854 31.6534 58.1215 31.9214Z" fill="#EAE2D1"/>
<path d="M57.5854 33.3381C55.5562 32.9935 53.9863 30.8876 54.2161 28.8201C56.2453 29.1647 57.8152 31.2705 57.5854 33.3381C57.662 32.6872 56.9728 33.2232 57.5854 33.3381Z" fill="#EAE2D1"/>
<path d="M59.8062 28.7815C58.4278 30.0068 56.1305 30.0068 54.8287 28.7433C56.1688 27.518 58.4661 27.5563 59.8062 28.7815C59.385 29.1644 59.385 28.3987 59.8062 28.7815Z" fill="#EAE2D1"/>
<path d="M57.2791 29.1645C56.2453 27.5564 56.6665 25.1443 58.1981 23.9956C59.2318 25.6037 58.8107 27.9776 57.2791 29.1645C57.7769 28.7816 56.9728 28.6668 57.2791 29.1645Z" fill="#EAE2D1"/>
<path d="M59.4999 23.8809C58.5044 25.5655 56.1305 26.2547 54.3692 25.3741C55.3647 23.6894 57.7386 23.0002 59.4999 23.8809C59.1936 24.4169 58.9638 23.6128 59.4999 23.8809Z" fill="#EAE2D1"/>
<path d="M54.4841 21.5451C56.2453 21.4302 57.9683 22.8469 58.198 24.6082C56.4368 24.723 54.7138 23.3064 54.4841 21.5451C55.0584 21.5068 54.5607 22.0811 54.4841 21.5451Z" fill="#EAE2D1"/>
<path d="M53.144 19.9372C54.867 19.248 57.0111 20.0903 57.7769 21.775C56.0922 22.4259 53.948 21.5836 53.144 19.9372C53.68 19.7074 53.412 20.4349 53.144 19.9372Z" fill="#EAE2D1"/>
<path d="M54.3309 17.9844C56.0156 18.9416 56.7431 21.3154 55.8625 23.0384C54.1778 22.0812 53.4886 19.7456 54.3309 17.9844C54.867 18.2907 54.0629 18.5204 54.3309 17.9844Z" fill="#EAE2D1"/>
<path d="M54.599 31.4617C54.1395 29.8919 55.0967 28.0158 56.6283 27.4797C57.0877 29.0496 56.1305 30.8874 54.599 31.4617C55.0584 31.2703 54.4458 30.964 54.599 31.4617Z" fill="#EAE2D1"/>
<path d="M54.5989 31.1555C52.7228 30.7726 51.3062 28.8199 51.5742 26.9055C53.4503 27.2884 54.867 29.2411 54.5989 31.1555C54.6755 30.5812 54.0246 31.0406 54.5989 31.1555Z" fill="#EAE2D1"/>
<path d="M53.2972 23.3064C54.4075 24.9911 54.0246 27.5181 52.4165 28.7433C51.3062 27.0586 51.6891 24.5699 53.2972 23.3064C53.6418 23.8424 52.7994 23.6893 53.2972 23.3064Z" fill="#EAE2D1"/>
<path d="M54.2161 21.124C56.1305 21.6983 57.394 23.8808 56.9346 25.8335C55.0201 25.2591 53.7566 23.0767 54.2161 21.124C54.7904 21.2772 54.0629 21.6983 54.2161 21.124Z" fill="#EAE2D1"/>
<path d="M52.7611 21.928C54.3309 22.7703 55.0584 24.8762 54.331 26.5226C52.7611 25.6802 52.0336 23.5361 52.7611 21.928C53.2589 22.196 52.5314 22.4257 52.7611 21.928Z" fill="#EAE2D1"/>
<path d="M55.5179 25.9481C55.3264 27.5179 53.7949 28.7815 52.2251 28.7049C52.4165 27.1351 53.9481 25.8716 55.5179 25.9481C55.4413 26.4076 55.0201 25.9098 55.5179 25.9481Z" fill="#EAE2D1"/>
<path d="M49.5066 31.6915C49.0089 29.8537 50.1192 27.7095 51.9188 27.0969C52.4165 28.9348 51.3062 31.0406 49.5066 31.6915C50.0809 31.5001 49.3535 31.1172 49.5066 31.6915Z" fill="#EAE2D1"/>
<path d="M49.5832 29.0496C50.9233 30.6577 50.7701 33.2613 49.2769 34.6779C47.9368 33.1081 48.0899 30.5045 49.5832 29.0496C50.0044 29.5473 49.1237 29.509 49.5832 29.0496Z" fill="#EAE2D1"/>
<path d="M51.9954 32.9168C50.1958 33.9123 47.6688 33.2997 46.5584 31.5767C48.358 30.5429 50.885 31.1938 51.9954 32.9168C51.6508 32.3807 51.421 33.2231 51.9954 32.9168Z" fill="#EAE2D1"/>
<path d="M46.3287 29.5857C47.3242 27.8627 49.6981 27.0969 51.4976 27.9776C50.5404 29.7005 48.1282 30.4663 46.3287 29.5857C46.903 29.8537 46.635 29.0496 46.3287 29.5857Z" fill="#EAE2D1"/>
<path d="M50.0427 23.3828C51.3062 24.9526 51.153 27.5179 49.6981 28.8963C48.3963 27.3648 48.5494 24.7995 50.0427 23.3828C50.4256 23.8806 49.5832 23.8423 50.0427 23.3828Z" fill="#EAE2D1"/>
<path d="M50.885 22.5023C49.5066 23.919 46.9796 24.0721 45.4481 22.8086C46.8265 21.3537 49.3535 21.2005 50.885 22.5023C50.4638 22.9618 50.4256 22.0811 50.885 22.5023Z" fill="#EAE2D1"/>
<path d="M50.0427 25.2973C50.2724 23.4212 52.1102 21.928 53.9481 22.0811C53.7183 23.919 51.8805 25.4122 50.0427 25.2973C50.617 25.3356 50.1192 24.723 50.0427 25.2973Z" fill="#EAE2D1"/>
<path d="M48.7792 26.9819C49.6981 25.6035 51.7656 25.1058 53.1823 25.9098C52.3017 27.3265 50.2341 27.8242 48.7792 26.9819C49.2386 27.2499 49.0855 26.5607 48.7792 26.9819Z" fill="#EAE2D1"/>
<path d="M49.8512 28.2837C48.3963 28.9729 46.4819 28.3986 45.6778 27.0202C47.0945 26.2928 49.0472 26.9054 49.8512 28.2837C49.5832 27.8626 49.3918 28.5135 49.8512 28.2837Z" fill="#EAE2D1"/>
<path d="M49.7364 30.0068C48.9323 31.8446 46.635 32.8401 44.7589 32.151C45.563 30.3131 47.8603 29.3559 49.7364 30.0068C49.5066 30.5811 49.1621 29.8154 49.7364 30.0068Z" fill="#EAE2D1"/>
<path d="M47.3625 34.1802C45.7161 34.4865 43.9548 33.4144 43.4954 31.8063C45.1418 31.4617 46.903 32.5721 47.3625 34.1802C47.2093 33.6824 46.8648 34.2568 47.3625 34.1802Z" fill="#EAE2D1"/>
<path d="M45.4864 30.7725C44.7206 32.6104 42.4616 33.6441 40.6238 33.0315C41.3512 31.1937 43.6102 30.1599 45.4864 30.7725C45.2566 31.3468 44.912 30.5811 45.4864 30.7725Z" fill="#EAE2D1"/>
<path d="M40.3175 27.4414C41.9256 26.982 43.7634 27.9009 44.3377 29.4324C42.7679 29.8919 40.8918 28.973 40.3175 27.4414C40.8152 27.2883 40.5089 27.9392 40.3175 27.4414Z" fill="#EAE2D1"/>
<path d="M47.6688 27.786C45.7161 28.1306 43.6485 26.7905 43.1891 24.8761C45.1418 24.5315 47.2093 25.8716 47.6688 27.786C47.5156 27.2117 47.0562 27.9009 47.6688 27.786Z" fill="#EAE2D1"/>
<path d="M44.2229 23.6511C45.2949 22.3493 47.4391 22.0812 48.8174 23.0767C47.7454 24.3785 45.6012 24.6466 44.2229 23.6511C44.644 23.9574 44.5674 23.2682 44.2229 23.6511Z" fill="#EAE2D1"/>
<path d="M43.84 27.7095C44.4143 26.0632 46.367 25.0677 48.0517 25.5654C47.4391 27.1735 45.4864 28.169 43.84 27.7095C44.3377 27.8627 44.0314 27.1735 43.84 27.7095Z" fill="#EAE2D1"/>
<path d="M43.6485 31.3085C42.4616 29.8152 42.6913 27.3648 44.1463 26.063C45.3332 27.5945 45.1035 30.045 43.6485 31.3085C44.108 30.9256 43.3039 30.849 43.6485 31.3085Z" fill="#EAE2D1"/>
<path d="M45.1801 30.5428C44.9503 32.4189 43.1508 33.9504 41.313 33.8356C41.5044 31.9977 43.3039 30.4662 45.1801 30.5428C45.1035 31.1171 44.6057 30.5045 45.1801 30.5428Z" fill="#EAE2D1"/>
<path d="M38.4796 35.9032C37.9053 34.142 38.9008 32.0361 40.6621 31.3469C41.1981 33.1082 40.2026 35.2523 38.4796 35.9032C39.0157 35.7118 38.2882 35.3672 38.4796 35.9032Z" fill="#EAE2D1"/>
<path d="M38.7859 32.9932C38.8625 34.7927 37.331 36.554 35.5314 36.7454C35.4549 34.9076 36.9481 33.1846 38.7859 32.9932C38.7859 33.5292 38.2116 33.0315 38.7859 32.9932Z" fill="#EAE2D1"/>
<path d="M40.0494 31.3086C39.1305 32.6487 37.1012 33.0699 35.7229 32.1892C36.6418 30.8874 38.6711 30.4663 40.0494 31.3086C39.7431 31.7298 39.6283 31.0406 40.0494 31.3086Z" fill="#EAE2D1"/>
<path d="M40.9684 32.8018C39.322 31.6532 38.8242 29.2027 39.858 27.5181C41.5044 28.6667 42.0021 31.1172 40.9684 32.8018C41.2747 32.2658 40.4323 32.4572 40.9684 32.8018Z" fill="#EAE2D1"/>
<path d="M39.2071 26.7905C40.9684 26.1013 43.1508 26.9819 43.9548 28.7049C42.1936 29.3941 40.0112 28.4751 39.2071 26.7905C39.7432 26.5607 39.4369 27.3265 39.2071 26.7905Z" fill="#EAE2D1"/>
<path d="M37.331 25.7952C37.4841 23.9191 39.2454 22.2727 41.1598 22.311C41.0066 24.2254 39.2454 25.8335 37.331 25.7952C37.9053 25.8335 37.3693 25.2209 37.331 25.7952Z" fill="#EAE2D1"/>
<path d="M41.581 23.3446C39.7431 23 38.3265 21.0856 38.5179 19.2478C40.394 19.5541 41.8107 21.4685 41.581 23.3446C41.6575 22.7703 41.0066 23.2298 41.581 23.3446Z" fill="#EAE2D1"/>
<path d="M39.8197 20.5496C41.5044 20.5496 43.0742 21.9662 43.2274 23.6509C41.5427 23.6892 39.9729 22.2342 39.8197 20.5496C40.3558 20.5496 39.858 21.0856 39.8197 20.5496Z" fill="#EAE2D1"/>
<path d="M42.5382 23.1533C41.581 24.9911 39.1305 25.8335 37.2544 24.9911C38.2116 23.1916 40.6621 22.3492 42.5382 23.1533C42.2319 23.7276 41.9639 22.9236 42.5382 23.1533Z" fill="#EAE2D1"/>
<path d="M35.6846 26.4459C37.1013 25.4504 39.2837 25.6801 40.4323 27.0202C39.0157 28.0922 36.8332 27.7859 35.6846 26.4459C36.1441 26.1396 36.0292 26.867 35.6846 26.4459Z" fill="#EAE2D1"/>
<path d="M35.3783 28.858C37.3693 28.7815 39.322 30.4279 39.5517 32.4188C37.5224 32.5337 35.608 30.849 35.3783 28.858C35.9909 28.858 35.4549 29.5089 35.3783 28.858Z" fill="#EAE2D1"/>
<path d="M32.2769 31.6531C32.3918 29.6621 34.1914 27.9008 36.1823 27.8625C36.1058 29.8535 34.2679 31.6148 32.2769 31.6531C32.9278 31.6148 32.3152 31.0022 32.2769 31.6531Z" fill="#EAE2D1"/>
<path d="M32.6598 25.3739C34.2679 25.2208 35.876 26.4077 36.1441 27.9775C34.5742 28.1689 32.9278 26.9437 32.6598 25.3739C33.1576 25.3356 32.7747 25.8717 32.6598 25.3739Z" fill="#EAE2D1"/>
<path d="M31.626 23C32.9661 21.6982 35.34 21.6982 36.7567 22.9617C35.3783 24.2635 33.0044 24.3018 31.626 23C32.0472 23.4212 32.0472 22.6171 31.626 23Z" fill="#EAE2D1"/>
<path d="M32.3535 21.9662C32.7364 20.3963 34.4594 19.3243 36.0292 19.6689C35.608 21.2004 33.885 22.2725 32.3535 21.9662C32.813 22.0427 32.4684 21.4684 32.3535 21.9662Z" fill="#EAE2D1"/>
<path d="M40.4706 22.5405C39.4368 24.3401 36.9864 25.1058 35.1486 24.2252C36.1441 22.4257 38.5945 21.6599 40.4706 22.5405C40.1643 23.1149 39.8963 22.2725 40.4706 22.5405Z" fill="#EAE2D1"/>
<path d="M33.1193 25.5654C32.3918 23.6893 33.349 21.3154 35.1869 20.4348C35.9526 22.3492 34.9571 24.7231 33.1193 25.5654C33.6936 25.2974 32.8896 24.9911 33.1193 25.5654Z" fill="#EAE2D1"/>
<path d="M29.6351 25.4888C30.0945 23.9572 31.8558 22.9618 33.4256 23.3446C32.9278 24.8379 31.2049 25.8334 29.6351 25.4888C30.1328 25.6036 29.7882 24.991 29.6351 25.4888Z" fill="#EAE2D1"/>
<g style="mix-blend-mode:screen">
<path d="M57.5089 30.0068C56.2454 31.3086 53.9864 31.4235 52.608 30.2748C53.8332 28.973 56.1305 28.8582 57.5089 30.0068C57.126 30.428 57.0877 29.6622 57.5089 30.0068Z" fill="#FFFDFA"/>
<path d="M54.0629 30.964C53.9481 32.4955 52.4931 33.759 50.9999 33.7207C51.1147 32.2275 52.5314 30.9257 54.0629 30.964C54.0246 31.4234 53.6035 30.964 54.0629 30.964Z" fill="#FFFDFA"/>
<path d="M50.8084 27.9009C50.5787 29.3176 49.162 30.4662 47.7071 30.3131C47.9368 28.8964 49.3918 27.7478 50.8084 27.9009C50.7319 28.3604 50.3873 27.8627 50.8084 27.9009Z" fill="#FFFDFA"/>
<path d="M55.135 23.6128C55.7859 25.106 55.135 27.0204 53.7183 27.7862C53.0674 26.293 53.7183 24.3786 55.135 23.6128C55.3647 24.0723 54.7138 23.8425 55.135 23.6128Z" fill="#FFFDFA"/>
<path d="M52.7228 25.8333C50.9233 24.991 49.9661 22.6171 50.6936 20.7793C52.5314 21.6216 53.4503 23.9572 52.7228 25.8333C52.9526 25.2207 52.1485 25.5653 52.7228 25.8333Z" fill="#FFFDFA"/>
<path d="M49.6215 25.2208C50.5021 23.4212 52.876 22.5406 54.7521 23.3064C53.8332 25.1059 51.4593 25.9865 49.6215 25.2208C50.1958 25.4505 49.8895 24.6464 49.6215 25.2208Z" fill="#FFFDFA"/>
<path d="M52.876 25.7952C54.2926 26.5992 54.9053 28.5902 54.1778 30.0834C52.7611 29.2794 52.1485 27.2884 52.876 25.7952C53.2971 26.0632 52.6462 26.2546 52.876 25.7952Z" fill="#FFFDFA"/>
<path d="M51.1913 26.7524C52.0337 28.2457 51.4976 30.3515 50.0809 31.3087C49.2386 29.8155 49.7364 27.6714 51.1913 26.7524C51.4593 27.2119 50.7319 27.0205 51.1913 26.7524Z" fill="#FFFDFA"/>
<path d="M46.7499 27.4797C47.9751 28.5135 48.2048 30.5428 47.2093 31.8446C45.9841 30.7725 45.7544 28.7432 46.7499 27.4797C47.1328 27.786 46.4436 27.8626 46.7499 27.4797Z" fill="#FFFDFA"/>
<path d="M48.9323 32.3042C50.3873 33.0317 51.1147 34.9461 50.4638 36.4393C49.0089 35.7118 48.3197 33.7974 48.9323 32.3042C49.3918 32.5339 48.7409 32.7637 48.9323 32.3042Z" fill="#FFFDFA"/>
<path d="M46.3287 31.3469C47.9368 32.8019 48.1665 35.5203 46.8265 37.2433C45.2184 35.7884 44.9886 33.0316 46.3287 31.3469C46.8265 31.8064 45.9075 31.883 46.3287 31.3469Z" fill="#FFFDFA"/>
<path d="M48.2431 29.509C47.7454 31.4617 45.6395 32.8401 43.6868 32.4572C44.1846 30.5428 46.2904 29.1644 48.2431 29.509C48.09 30.1216 47.6305 29.4324 48.2431 29.509Z" fill="#FFFDFA"/>
<path d="M47.4008 29.241C45.6778 29.9302 43.4954 29.0113 42.6913 27.3266C44.4526 26.6757 46.635 27.5563 47.4008 29.241C47.171 28.7433 46.8647 29.4708 47.4008 29.241Z" fill="#FFFDFA"/>
<path d="M45.4481 27.8245C46.0224 25.9867 48.1666 24.7998 50.0427 25.2592C49.4301 27.097 47.3242 28.284 45.4481 27.8245C46.0224 27.9394 45.6395 27.2502 45.4481 27.8245Z" fill="#FFFDFA"/>
<path d="M50.9616 23.7658C49.8512 24.9144 47.822 25.0293 46.5967 23.9955C47.7071 22.8469 49.7364 22.732 50.9616 23.7658C50.617 24.1104 50.5787 23.4212 50.9616 23.7658Z" fill="#FFFDFA"/>
<path d="M44.7206 21.3921C46.5584 22.4642 47.3242 25.0678 46.3287 26.9822C44.5292 25.8718 43.7634 23.3065 44.7206 21.3921C45.2949 21.7367 44.4143 21.9664 44.7206 21.3921Z" fill="#FFFDFA"/>
<path d="M41.6958 26.2547C42.7679 24.6083 45.1418 24.0339 46.8264 24.9911C45.7927 26.6375 43.3805 27.2119 41.6958 26.2547C42.2319 26.5227 42.0404 25.7569 41.6958 26.2547Z" fill="#FFFDFA"/>
<path d="M41.7724 24.9529C43.0742 25.6038 43.7251 27.3267 43.1508 28.7051C41.849 28.0542 41.1981 26.293 41.7724 24.9529C42.1553 25.1443 41.581 25.3741 41.7724 24.9529Z" fill="#FFFDFA"/>
<path d="M45.6395 29.3943C45.0269 30.8876 43.1508 31.7299 41.6193 31.1939C42.2319 29.7006 44.108 28.8583 45.6395 29.3943C45.4481 29.8538 45.1801 29.2029 45.6395 29.3943Z" fill="#FFFDFA"/>
<path d="M44.1463 31.6914C45.4481 32.4955 45.9841 34.3716 45.2566 35.75C43.9166 34.9459 43.4188 33.0698 44.1463 31.6914C44.5292 31.9211 43.9165 32.1126 44.1463 31.6914Z" fill="#FFFDFA"/>
<path d="M42.2319 34.1036C40.394 34.6396 38.1733 33.5676 37.5224 31.7297C39.3603 31.1937 41.5427 32.2658 42.2319 34.1036C42.0404 33.5293 41.6575 34.2568 42.2319 34.1036Z" fill="#FFFDFA"/>
<path d="M36.9481 35.9415C35.8378 34.678 35.8761 32.4955 37.1013 31.3086C38.2499 32.5721 38.1733 34.7545 36.9481 35.9415C37.331 35.5969 36.6035 35.5586 36.9481 35.9415Z" fill="#FFFDFA"/>
<path d="M39.0157 28.3987C40.8152 29.0496 41.9638 31.1937 41.4661 33.0698C39.6283 32.4189 38.4796 30.2365 39.0157 28.3987C39.59 28.5901 38.8242 28.973 39.0157 28.3987Z" fill="#FFFDFA"/>
<path d="M34.9188 27.6329C35.1869 26.063 36.795 24.8378 38.3648 24.991C38.0968 26.5608 36.4887 27.786 34.9188 27.6329C35.4166 27.6711 34.9954 27.1351 34.9188 27.6329Z" fill="#FFFDFA"/>
<path d="M39.8963 22.2344C39.9729 23.7659 38.7477 25.2974 37.2161 25.4889C37.1013 23.9573 38.3648 22.4258 39.8963 22.2344C39.9346 22.7321 39.3986 22.311 39.8963 22.2344Z" fill="#FFFDFA"/>
<path d="M41.7724 21.8131C40.6238 23.1914 38.3648 23.4594 36.9098 22.3874C38.0585 21.009 40.3557 20.741 41.7724 21.8131C41.4278 22.2342 41.3512 21.5067 41.7724 21.8131Z" fill="#FFFDFA"/>
<path d="M42.2319 26.9437C40.5855 27.9775 38.0968 27.518 36.9481 25.9099C38.6328 24.8761 41.0832 25.3356 42.2319 26.9437C41.8873 26.4459 41.7341 27.2883 42.2319 26.9437Z" fill="#FFFDFA"/>
<path d="M40.2792 29.624C39.0922 30.5812 37.1778 30.4663 36.1058 29.3559C37.2927 28.3604 39.2454 28.5136 40.2792 29.624C39.9346 29.2794 39.8963 29.9303 40.2792 29.624Z" fill="#FFFDFA"/>
<path d="M38.135 33.2613C35.9909 33.4527 33.8468 31.7297 33.5405 29.5856C35.6846 29.4324 37.8287 31.1171 38.135 33.2613C38.0202 32.6104 37.4841 33.3378 38.135 33.2613Z" fill="#FFFDFA"/>
<path d="M30.3242 30.2749C31.6643 29.1646 33.8468 29.2794 35.0337 30.5429C33.6936 31.6533 31.5112 31.5384 30.3242 30.2749C30.7454 29.9303 30.7071 30.6578 30.3242 30.2749Z" fill="#FFFDFA"/>
<path d="M30.8603 26.5609C32.2004 25.9483 33.9616 26.5609 34.6508 27.8627C33.2724 28.4753 31.5495 27.8627 30.8603 26.5609C31.2814 26.3695 31.0517 26.9438 30.8603 26.5609Z" fill="#FFFDFA"/>
<path d="M32.4684 24.5317C33.4256 23.1916 35.4166 22.7321 36.8332 23.5744C35.9143 24.9145 33.885 25.374 32.4684 24.5317C32.9278 24.7997 32.7747 24.1105 32.4684 24.5317Z" fill="#FFFDFA"/>
<path d="M34.1913 20.3965C35.9909 20.2816 37.7139 21.7366 37.9436 23.4978C36.144 23.6127 34.4211 22.1578 34.1913 20.3965C34.7274 20.3582 34.2679 20.9325 34.1913 20.3965Z" fill="#FFFDFA"/>
<path d="M34.3062 21.5452C34.6125 23.5362 33.1576 25.6037 31.2049 26.0632C30.8986 24.0722 32.3535 21.9663 34.3062 21.5452C34.4211 22.1578 33.6936 21.66 34.3062 21.5452Z" fill="#FFFDFA"/>
<path d="M31.626 25.9099C33.2341 25.7185 34.8423 26.9054 35.1103 28.4752C33.5405 28.6667 31.9323 27.4415 31.626 25.9099C32.1238 25.8334 31.7409 26.3694 31.626 25.9099Z" fill="#FFFDFA"/>
</g>
<path style="mix-blend-mode:multiply" d="M51.5742 14.5384C54.2544 14.1172 57.0494 17.6014 57.8152 22.3875C58.5809 27.1352 57.0494 31.3469 54.3692 31.7681C51.6891 32.2275 48.894 28.705 48.1283 23.919C47.3625 19.1713 48.894 14.9596 51.5742 14.5384Z" fill="url(#paint15_radial_1_651)"/>
<path d="M44.4909 21.9663C43.4954 19.9754 42.0022 23.3064 42.6531 26.1398C43.2657 28.9731 42.653 31.1172 40.3175 30.8109C37.9819 30.4663 40.6621 23.651 41.1215 22.2344C41.6193 20.856 38.4796 18.1375 36.3355 20.6263C34.1531 23.1533 31.3197 22.6938 31.8175 19.4776C33.0044 17.4101 34.8806 15.3042 37.4842 13.7344C40.6238 11.8583 49.1237 12.5092 52.4931 14.9596C53.6418 15.7637 54.4841 16.7974 55.0967 17.9461C55.2116 21.5835 52.1485 15.9551 52.8377 19.4776C53.4886 23.0001 51.8039 26.9821 50.8084 24.1871C49.8129 21.392 48.1665 21.4686 47.3242 23.9573C46.4819 26.4844 45.4864 23.9573 44.4909 21.9663Z" fill="#A02703"/>
<path style="mix-blend-mode:multiply" d="M44.4909 21.9663C43.4954 19.9754 42.0022 23.3064 42.6531 26.1398C43.2657 28.9731 42.653 31.1172 40.3175 30.8109C37.9819 30.4663 40.6621 23.651 41.1215 22.2344C41.6193 20.856 38.4796 18.1375 36.3355 20.6263C34.1531 23.1533 31.3197 22.6938 31.8175 19.4776C33.0044 17.4101 34.8806 15.3042 37.4842 13.7344C40.6238 11.8583 49.1237 12.5092 52.4931 14.9596C53.6418 15.7637 54.4841 16.7974 55.0967 17.9461C55.2116 21.5835 52.1485 15.9551 52.8377 19.4776C53.4886 23.0001 51.8039 26.9821 50.8084 24.1871C49.8129 21.392 48.1665 21.4686 47.3242 23.9573C46.4819 26.4844 45.4864 23.9573 44.4909 21.9663Z" fill="url(#paint16_radial_1_651)"/>
<path style="mix-blend-mode:screen" d="M33.4639 15.7252C34.6508 15.9932 35.1868 18.1757 34.6508 20.5878C34.0765 23 32.6598 24.7229 31.4729 24.4549C30.2859 24.1869 29.7499 22.0045 30.3242 19.5923C30.8603 17.1802 32.2769 15.4572 33.4639 15.7252Z" fill="url(#paint17_radial_1_651)"/>
<path style="mix-blend-mode:screen" d="M47.822 28.2073C46.9031 28.5901 45.0652 26.5609 43.7634 23.5744C42.4616 20.6262 42.117 17.9077 43.036 17.4866C43.9549 17.0654 45.7927 19.133 47.0945 22.1194C48.3963 25.0676 48.7409 27.7861 47.822 28.2073Z" fill="url(#paint18_radial_1_651)"/>
<path style="mix-blend-mode:screen" d="M52.1102 28.3221C51.1147 28.5518 49.8129 26.5991 49.2003 23.9189C48.5494 21.277 48.8557 18.9414 49.8129 18.7117C50.8084 18.482 52.1102 20.4347 52.7228 23.0766C53.3737 25.7567 53.0674 28.0923 52.1102 28.3221Z" fill="url(#paint19_radial_1_651)"/>
<path style="mix-blend-mode:screen" d="M56.1688 19.9753C55.7476 20.5496 54.1012 20.0135 52.5697 18.8266C51.0381 17.6014 50.1192 16.1847 50.5787 15.6104C50.9998 15.0361 52.6462 15.5338 54.1778 16.7591C55.7093 17.946 56.6282 19.4009 56.1688 19.9753Z" fill="url(#paint20_radial_1_651)"/>
<path style="mix-blend-mode:screen" d="M40.3175 24.4933C41.2364 24.5316 41.849 26.5992 41.6958 29.0496C41.581 31.5384 40.7004 33.4911 39.7814 33.4528C38.8625 33.3762 38.2499 31.3469 38.403 28.8582C38.5562 26.4078 39.3985 24.4168 40.3175 24.4933Z" fill="url(#paint21_radial_1_651)"/>
<path style="mix-blend-mode:screen" d="M41.9256 19.2861C42.5765 19.4393 42.4616 22.5406 41.6193 26.2163C40.8152 29.892 39.6283 32.7636 38.9774 32.6487C38.3265 32.4956 38.4413 29.3942 39.2837 25.6803C40.0877 22.0046 41.2747 19.133 41.9256 19.2861Z" fill="url(#paint22_radial_1_651)"/>
<defs>
<radialGradient id="paint0_radial_1_651" cx="0" cy="0" r="1" gradientUnits="userSpaceOnUse" gradientTransform="translate(29.6733 29.1645) scale(16.0428 16.0428)">
<stop stop-color="#A3805F"/>
<stop offset="0.2" stop-color="#AF9073"/>
<stop offset="0.4" stop-color="#BFA790"/>
<stop offset="0.5" stop-color="#D5C5B6"/>
<stop offset="0.6" stop-color="#E4D9CF"/>
<stop offset="0.7" stop-color="#F0E9E4"/>
<stop offset="0.9" stop-color="#F9F6F4"/>
<stop offset="1" stop-color="white"/>
</radialGradient>
<radialGradient id="paint1_radial_1_651" cx="0" cy="0" r="1" gradientUnits="userSpaceOnUse" gradientTransform="translate(28.4864 18.482) scale(11.1802 11.1802)">
<stop stop-color="#AB7761"/>
<stop offset="0.1" stop-color="#B1816C"/>
<stop offset="0.2" stop-color="#B78B78"/>
<stop offset="0.5" stop-color="#D4BBB0"/>
<stop offset="0.7" stop-color="#E8DBD5"/>
<stop offset="0.9" stop-color="#F8F4F2"/>
<stop offset="1" stop-color="white"/>
</radialGradient>
<radialGradient id="paint2_radial_1_651" cx="0" cy="0" r="1" gradientUnits="userSpaceOnUse" gradientTransform="translate(33.4639 21.0855) scale(12.9414 12.9414)">
<stop stop-color="#AB7761"/>
<stop offset="0.1" stop-color="#B1816C"/>
<stop offset="0.2" stop-color="#B78B78"/>
<stop offset="0.5" stop-color="#D4BBB0"/>
<stop offset="0.7" stop-color="#E8DBD5"/>
<stop offset="0.9" stop-color="#F8F4F2"/>
<stop offset="1" stop-color="white"/>
</radialGradient>
<radialGradient id="paint3_radial_1_651" cx="0" cy="0" r="1" gradientUnits="userSpaceOnUse" gradientTransform="translate(33.8468 19.5924) scale(10.9121 10.9121)">
<stop stop-color="#AB7761"/>
<stop offset="0.1" stop-color="#B1816C"/>
<stop offset="0.2" stop-color="#B78B78"/>
<stop offset="0.5" stop-color="#D4BBB0"/>
<stop offset="0.7" stop-color="#E8DBD5"/>
<stop offset="0.9" stop-color="#F8F4F2"/>
<stop offset="1" stop-color="white"/>
</radialGradient>
<radialGradient id="paint4_radial_1_651" cx="0" cy="0" r="1" gradientUnits="userSpaceOnUse" gradientTransform="translate(29.1756 11.3604) scale(11.8693 11.8693)">
<stop stop-color="#692508"/>
<stop offset="1" stop-color="white"/>
</radialGradient>
<radialGradient id="paint5_radial_1_651" cx="0" cy="0" r="1" gradientUnits="userSpaceOnUse" gradientTransform="translate(31.894 9.82888) scale(8.23196 8.23196)">
<stop stop-color="#FFD7A8"/>
<stop offset="0.1" stop-color="#947C62"/>
<stop offset="0.3" stop-color="#655543"/>
<stop offset="0.4" stop-color="#453A2E"/>
<stop offset="0.6" stop-color="#27211A"/>
<stop offset="0.8" stop-color="#120F0C"/>
<stop offset="1"/>
</radialGradient>
<radialGradient id="paint6_radial_1_651" cx="0" cy="0" r="1" gradientUnits="userSpaceOnUse" gradientTransform="translate(37.8287 10.7477) scale(4.90089 4.90089)">
<stop stop-color="#FFD7A8"/>
<stop offset="0.1" stop-color="#947C62"/>
<stop offset="0.3" stop-color="#655543"/>
<stop offset="0.4" stop-color="#453A2E"/>
<stop offset="0.6" stop-color="#27211A"/>
<stop offset="0.8" stop-color="#120F0C"/>
<stop offset="1"/>
</radialGradient>
<radialGradient id="paint7_radial_1_651" cx="0" cy="0" r="1" gradientUnits="userSpaceOnUse" gradientTransform="translate(19.7184 24.1486) scale(9.80178 9.80178)">
<stop stop-color="#C2A58A"/>
<stop offset="0.3" stop-color="#DBC8B9"/>
<stop offset="0.5" stop-color="#EBE0D8"/>
<stop offset="0.8" stop-color="#F8F4F1"/>
<stop offset="1" stop-color="white"/>
</radialGradient>
<radialGradient id="paint8_radial_1_651" cx="0" cy="0" r="1" gradientUnits="userSpaceOnUse" gradientTransform="translate(31.7409 27.5179) scale(7.96395 7.96394)">
<stop stop-color="#AB7761"/>
<stop offset="0.1" stop-color="#B1816C"/>
<stop offset="0.2" stop-color="#B78B78"/>
<stop offset="0.5" stop-color="#D4BBB0"/>
<stop offset="0.7" stop-color="#E8DBD5"/>
<stop offset="0.9" stop-color="#F8F4F2"/>
<stop offset="1" stop-color="white"/>
</radialGradient>
<radialGradient id="paint9_radial_1_651" cx="0" cy="0" r="1" gradientUnits="userSpaceOnUse" gradientTransform="translate(15.2387 25.1824) scale(9.91664)">
<stop stop-color="#692508"/>
<stop offset="1" stop-color="white"/>
</radialGradient>
<radialGradient id="paint10_radial_1_651" cx="0" cy="0" r="1" gradientUnits="userSpaceOnUse" gradientTransform="translate(7.65763 17.0654) scale(4.36487 4.36485)">
<stop stop-color="#FFD7A8"/>
<stop offset="0.1" stop-color="#947C62"/>
<stop offset="0.3" stop-color="#655543"/>
<stop offset="0.4" stop-color="#453A2E"/>
<stop offset="0.6" stop-color="#27211A"/>
<stop offset="0.8" stop-color="#120F0C"/>
<stop offset="1"/>
</radialGradient>
<radialGradient id="paint11_radial_1_651" cx="0" cy="0" r="1" gradientUnits="userSpaceOnUse" gradientTransform="translate(14.1283 20.2816) scale(5.43691 5.43692)">
<stop stop-color="#FFD7A8"/>
<stop offset="0.1" stop-color="#947C62"/>
<stop offset="0.3" stop-color="#655543"/>
<stop offset="0.4" stop-color="#453A2E"/>
<stop offset="0.6" stop-color="#27211A"/>
<stop offset="0.8" stop-color="#120F0C"/>
<stop offset="1"/>
</radialGradient>
<radialGradient id="paint12_radial_1_651" cx="0" cy="0" r="1" gradientUnits="userSpaceOnUse" gradientTransform="translate(18.2635 20.3581) scale(1.72296 1.72297)">
<stop stop-color="#947C62"/>
<stop offset="0.2" stop-color="#655543"/>
<stop offset="0.4" stop-color="#453A2E"/>
<stop offset="0.5" stop-color="#27211A"/>
<stop offset="0.7" stop-color="#120F0C"/>
<stop offset="1"/>
</radialGradient>
<radialGradient id="paint13_radial_1_651" cx="0" cy="0" r="1" gradientUnits="userSpaceOnUse" gradientTransform="translate(25.117 20.8177) scale(1.18693)">
<stop stop-color="#947C62"/>
<stop offset="0.2" stop-color="#655543"/>
<stop offset="0.4" stop-color="#453A2E"/>
<stop offset="0.5" stop-color="#27211A"/>
<stop offset="0.7" stop-color="#120F0C"/>
<stop offset="1"/>
</radialGradient>
<radialGradient id="paint14_radial_1_651" cx="0" cy="0" r="1" gradientUnits="userSpaceOnUse" gradientTransform="translate(17.9955 23.4596) scale(5.5135)">
<stop stop-color="#FFD7A8"/>
<stop offset="0.1" stop-color="#947C62"/>
<stop offset="0.3" stop-color="#655543"/>
<stop offset="0.4" stop-color="#453A2E"/>
<stop offset="0.6" stop-color="#27211A"/>
<stop offset="0.8" stop-color="#120F0C"/>
<stop offset="1"/>
</radialGradient>
<radialGradient id="paint15_radial_1_651" cx="0" cy="0" r="1" gradientUnits="userSpaceOnUse" gradientTransform="translate(52.9526 23.1532) scale(8.34682 8.34682)">
<stop offset="0.2" stop-color="#DBC8B9"/>
<stop offset="0.5" stop-color="#EBE0D8"/>
<stop offset="0.8" stop-color="#F8F4F1"/>
<stop offset="1" stop-color="white"/>
</radialGradient>
<radialGradient id="paint16_radial_1_651" cx="0" cy="0" r="1" gradientUnits="userSpaceOnUse" gradientTransform="translate(43.3805 30.2749) scale(17.8423 17.8423)">
<stop stop-color="#692508"/>
<stop offset="1" stop-color="white"/>
</radialGradient>
<radialGradient id="paint17_radial_1_651" cx="0" cy="0" r="1" gradientUnits="userSpaceOnUse" gradientTransform="translate(32.4684 20.0901) scale(4.24999 4.24999)">
<stop stop-color="#FFD7A8"/>
<stop offset="0.1" stop-color="#947C62"/>
<stop offset="0.3" stop-color="#655543"/>
<stop offset="0.4" stop-color="#453A2E"/>
<stop offset="0.6" stop-color="#27211A"/>
<stop offset="0.8" stop-color="#120F0C"/>
<stop offset="1"/>
</radialGradient>
<radialGradient id="paint18_radial_1_651" cx="0" cy="0" r="1" gradientUnits="userSpaceOnUse" gradientTransform="translate(45.4481 22.8469) scale(5.47521 5.47521)">
<stop stop-color="#FFD7A8"/>
<stop offset="0.1" stop-color="#947C62"/>
<stop offset="0.3" stop-color="#655543"/>
<stop offset="0.4" stop-color="#453A2E"/>
<stop offset="0.6" stop-color="#27211A"/>
<stop offset="0.8" stop-color="#120F0C"/>
<stop offset="1"/>
</radialGradient>
<radialGradient id="paint19_radial_1_651" cx="0" cy="0" r="1" gradientUnits="userSpaceOnUse" gradientTransform="translate(50.9616 23.4977) scale(4.70945 4.70945)">
<stop stop-color="#FFD7A8"/>
<stop offset="0.1" stop-color="#947C62"/>
<stop offset="0.3" stop-color="#655543"/>
<stop offset="0.4" stop-color="#453A2E"/>
<stop offset="0.6" stop-color="#27211A"/>
<stop offset="0.8" stop-color="#120F0C"/>
<stop offset="1"/>
</radialGradient>
<radialGradient id="paint20_radial_1_651" cx="0" cy="0" r="1" gradientUnits="userSpaceOnUse" gradientTransform="translate(53.3737 17.7928) scale(3.17793 3.17792)">
<stop stop-color="#FFD7A8"/>
<stop offset="0.1" stop-color="#947C62"/>
<stop offset="0.3" stop-color="#655543"/>
<stop offset="0.4" stop-color="#453A2E"/>
<stop offset="0.6" stop-color="#27211A"/>
<stop offset="0.8" stop-color="#120F0C"/>
<stop offset="1"/>
</radialGradient>
<radialGradient id="paint21_radial_1_651" cx="0" cy="0" r="1" gradientUnits="userSpaceOnUse" gradientTransform="translate(40.0494 28.9731) scale(4.44145 4.44143)">
<stop stop-color="#FFD7A8"/>
<stop offset="0.1" stop-color="#947C62"/>
<stop offset="0.3" stop-color="#655543"/>
<stop offset="0.4" stop-color="#453A2E"/>
<stop offset="0.6" stop-color="#27211A"/>
<stop offset="0.8" stop-color="#120F0C"/>
<stop offset="1"/>
</radialGradient>
<radialGradient id="paint22_radial_1_651" cx="0" cy="0" r="1" gradientUnits="userSpaceOnUse" gradientTransform="translate(40.4706 25.9483) scale(6.70045 6.70043)">
<stop offset="0.1" stop-color="#947C62"/>
<stop offset="0.2" stop-color="#655543"/>
<stop offset="0.4" stop-color="#453A2E"/>
<stop offset="0.6" stop-color="#27211A"/>
<stop offset="0.8" stop-color="#120F0C"/>
<stop offset="1"/>
</radialGradient>
</defs>
</svg>
