<svg width="26" height="40" viewBox="0 0 26 40" fill="none" xmlns="http://www.w3.org/2000/svg">
<path d="M19.2051 0.935017C20.2314 1.43673 19.7981 2.28051 19.5244 2.48576L19.5472 2.50855C19.4256 2.63018 19.2355 2.75182 18.9771 2.87344C17.8368 3.42076 15.3739 3.80844 12.5233 3.80844C9.69544 3.80844 7.2325 3.42076 6.06944 2.87344C5.81859 2.75942 5.63616 2.62258 5.52213 2.50855V2.48576C5.24847 2.28051 4.79237 1.39111 5.93262 0.889404C5.65896 1.04144 5.52213 1.19347 5.52213 1.3455C5.52213 2.12088 8.64641 2.71381 12.5233 2.71381C16.4001 2.71381 19.5472 2.12088 19.5472 1.3455C19.5472 1.20867 19.4332 1.07185 19.2051 0.935017Z" fill="#67A2A3"/>
<path fill-rule="evenodd" clip-rule="evenodd" d="M19.2051 0.935014C19.4332 1.07184 19.5472 1.20867 19.5472 1.3455C19.5472 2.12087 16.4001 2.7138 12.5233 2.7138C8.6464 2.7138 5.52213 2.12087 5.52213 1.3455C5.52213 1.19347 5.65895 1.04143 5.93261 0.889401C5.94782 0.874198 5.96302 0.866602 5.97823 0.866602C7.00445 0.364891 9.5358 0 12.5233 0C15.6475 0 18.2701 0.387694 19.2051 0.935014ZM12.5233 1.93843C15.83 1.93843 18.4982 1.57355 18.4982 1.11745C18.4982 0.661351 15.83 0.273663 12.5233 0.273663C9.23933 0.273663 6.54835 0.661351 6.54835 1.11745C6.54835 1.57355 9.23933 1.93843 12.5233 1.93843Z" fill="#8DC6C6"/>
<path d="M18.4982 1.11747C18.4982 1.57357 15.83 1.93844 12.5232 1.93844C9.23932 1.93844 6.54834 1.57357 6.54834 1.11747C6.54834 0.66137 9.23932 0.273682 12.5232 0.273682C15.83 0.273682 18.4982 0.66137 18.4982 1.11747Z" fill="#18686E"/>
<path d="M18.4982 1.11747C18.4982 1.57357 15.83 1.93844 12.5232 1.93844C9.23932 1.93844 6.54834 1.57357 6.54834 1.11747C6.54834 0.66137 9.23932 0.273682 12.5232 0.273682C15.83 0.273682 18.4982 0.66137 18.4982 1.11747Z" fill="url(#paint0_linear_1_639)"/>
<path d="M12.5233 38.6545C13.5495 38.6545 14.5301 38.5633 15.3739 38.3808C16.5598 38.1072 17.8597 37.7651 19.0911 37.2178C18.9315 38.7685 16.058 40 12.5233 40C8.98849 40 6.11507 38.7685 5.97824 37.2178C7.20971 37.7651 8.48679 38.1072 9.69546 38.3808C10.5392 38.5633 11.497 38.6545 12.5233 38.6545Z" fill="#093C3D"/>
<path d="M12.5233 38.6545C13.5495 38.6545 14.5301 38.5633 15.3739 38.3808C16.5598 38.1072 17.8597 37.7651 19.0911 37.2178C18.9315 38.7685 16.058 40 12.5233 40C8.98849 40 6.11507 38.7685 5.97824 37.2178C7.20971 37.7651 8.48679 38.1072 9.69546 38.3808C10.5392 38.5633 11.497 38.6545 12.5233 38.6545Z" fill="url(#paint1_linear_1_639)"/>
<path d="M19.0911 37.2179C17.8596 37.7652 16.5597 38.1073 15.3739 38.3809C14.5301 38.5634 13.5495 38.6546 12.5233 38.6546C11.497 38.6546 10.5392 38.5634 9.69544 38.3809C8.48677 38.1073 7.2097 37.7652 5.97822 37.2179C2.73991 35.7812 -0.110717 32.9533 0.00330774 26.5451C0.185748 17.674 7.00445 16.3057 7.00445 11.471C7.00445 9.55541 7.07286 4.88038 6.06944 2.87354C7.23249 3.42086 9.69543 3.80854 12.5233 3.80854C15.3739 3.80854 17.8368 3.42086 18.9771 2.87354C17.9737 4.90318 18.0649 9.55541 18.0649 11.471C18.0649 16.3057 24.8608 17.674 25.0432 26.5451C25.18 32.9533 22.3066 35.7812 19.0911 37.2179Z" fill="#18686E"/>
<path d="M19.0227 14.4584C20.8927 17.3547 24.9064 19.772 25.0432 26.5451C25.18 32.9533 22.3066 35.7811 19.0911 37.2178C17.8596 37.7651 16.5597 38.1072 15.3739 38.3809C14.5301 38.5633 13.5495 38.6545 12.5233 38.6545C11.497 38.6545 10.5392 38.5633 9.69544 38.3809C8.48677 38.1072 7.2097 37.7651 5.97822 37.2178C2.73991 35.7811 -0.110717 32.9533 0.00330774 26.5451C0.140138 19.6124 4.33626 17.2634 6.16066 14.2532C10.0147 16.4197 14.9406 16.2372 19.0227 14.4584Z" fill="url(#paint2_radial_1_639)"/>
<path style="mix-blend-mode:multiply" d="M6.16065 14.2532C6.68517 13.4094 7.00444 12.5201 7.00444 11.471C7.00444 9.55541 7.07285 4.88038 6.06943 2.87354C7.23248 3.42086 9.69542 3.80854 12.5232 3.80854C15.3739 3.80854 17.8368 3.42086 18.9771 2.87354C17.9737 4.90318 18.0649 9.55541 18.0649 11.471C18.0649 12.6113 18.4297 13.5463 19.0227 14.4585C14.9406 16.2373 10.0147 16.4197 6.16065 14.2532Z" fill="url(#paint3_linear_1_639)"/>
<path style="mix-blend-mode:screen" d="M11.0637 13.2496C10.9497 14.139 9.0341 14.3214 8.1447 13.1584C7.98506 12.9531 8.28152 6.38529 7.36932 4.53809C8.82884 5.01699 8.94288 5.0626 10.8813 5.17662C11.3374 8.14128 11.269 11.3112 11.0637 13.2496Z" fill="url(#paint4_linear_1_639)"/>
<path style="mix-blend-mode:screen" d="M14.188 37.2861C13.6711 37.3621 13.1162 37.4001 12.5233 37.4001C11.5882 37.4001 10.7217 37.3089 9.94629 37.1265C8.85165 36.8984 7.7114 36.5107 6.54835 36.0775C2.26101 34.4583 -2.57367 24.6521 6.63956 16.2371C7.68859 15.2793 10.5164 16.2827 9.67262 17.423C5.04321 23.8996 1.12076 33.6373 14.188 37.2861Z" fill="url(#paint5_linear_1_639)"/>
<defs>
<linearGradient id="paint0_linear_1_639" x1="-0.635235" y1="6.13456" x2="-0.863284" y2="-3.28389" gradientUnits="userSpaceOnUse">
<stop stop-color="#41D1B7"/>
<stop offset="0.4" stop-color="#66A096"/>
<stop offset="0.6" stop-color="#748E8A"/>
<stop offset="0.8" stop-color="#7B8684"/>
<stop offset="1" stop-color="#808080"/>
</linearGradient>
<linearGradient id="paint1_linear_1_639" x1="-1.31936" y1="41.5735" x2="-1.31936" y2="36.6476" gradientUnits="userSpaceOnUse">
<stop stop-color="#41D1B7"/>
<stop offset="0.4" stop-color="#66A096"/>
<stop offset="0.6" stop-color="#748E8A"/>
<stop offset="0.8" stop-color="#7B8684"/>
<stop offset="1" stop-color="#808080"/>
</linearGradient>
<radialGradient id="paint2_radial_1_639" cx="0" cy="0" r="1" gradientUnits="userSpaceOnUse" gradientTransform="translate(12.9566 45.2224) scale(28.0274 28.0274)">
<stop stop-color="#41D1B7"/>
<stop offset="0.4" stop-color="#66A096"/>
<stop offset="0.6" stop-color="#748E8A"/>
<stop offset="0.8" stop-color="#7B8684"/>
<stop offset="1" stop-color="#808080"/>
</radialGradient>
<linearGradient id="paint3_linear_1_639" x1="25.887" y1="-2.12076" x2="27.3693" y2="15.3479" gradientUnits="userSpaceOnUse">
<stop stop-color="#2C7282"/>
<stop offset="1" stop-color="white"/>
</linearGradient>
<linearGradient id="paint4_linear_1_639" x1="2.261" y1="-9.87468" x2="20.1173" y2="3.28383" gradientUnits="userSpaceOnUse">
<stop stop-color="white"/>
<stop offset="1"/>
</linearGradient>
<linearGradient id="paint5_linear_1_639" x1="-5.0138" y1="3.73995" x2="14.2108" y2="9.55523" gradientUnits="userSpaceOnUse">
<stop stop-color="white"/>
<stop offset="1"/>
</linearGradient>
</defs>
</svg>
