<svg width="40" height="40" viewBox="0 0 40 40" fill="none" xmlns="http://www.w3.org/2000/svg">
<path d="M35.625 27.4999L34.775 27.6124C34.3863 27.6643 34.0122 27.7947 33.6755 27.9956C33.3387 28.1965 33.0463 28.4638 32.816 28.7812C32.5857 29.0986 32.4223 29.4595 32.3358 29.8419C32.2492 30.2244 32.2413 30.6205 32.3125 31.0061L32.5 31.8311C32.5999 32.3671 32.546 32.9204 32.3445 33.4271C32.1431 33.9337 31.8023 34.373 31.3616 34.694C30.9209 35.0151 30.3983 35.2048 29.8543 35.2412C29.3103 35.2776 28.7671 35.1593 28.2875 34.8999L27.3875 34.4124C27.0552 34.2307 26.6903 34.1163 26.3137 34.0757C25.9371 34.0352 25.5562 34.0693 25.1928 34.1761C24.8294 34.2829 24.4906 34.4604 24.1959 34.6982C23.9011 34.9361 23.6562 35.2297 23.475 35.5624L22.5 37.2436C22.2519 37.6974 21.8863 38.076 21.4415 38.3398C20.9967 38.6036 20.489 38.7428 19.9719 38.7428C19.4547 38.7428 18.9471 38.6036 18.5023 38.3398C18.0575 38.076 17.6918 37.6974 17.4438 37.2436L16.55 35.5624C16.3688 35.2297 16.1239 34.9361 15.8291 34.6982C15.5344 34.4604 15.1956 34.2829 14.8322 34.1761C14.4688 34.0693 14.0879 34.0352 13.7113 34.0757C13.3347 34.1163 12.9698 34.2307 12.6375 34.4124L11.7375 34.8999C11.2573 35.1665 10.711 35.2907 10.1627 35.2578C9.61448 35.2249 9.08696 35.0363 8.6421 34.7141C8.19725 34.3919 7.8535 33.9496 7.65121 33.4389C7.44891 32.9283 7.39646 32.3705 7.5 31.8311L7.65625 30.9874C7.72746 30.6017 7.71955 30.2057 7.633 29.8232C7.54644 29.4407 7.38306 29.0798 7.15276 28.7624C6.92245 28.445 6.63005 28.1778 6.29329 27.9768C5.95653 27.7759 5.58244 27.6455 5.19375 27.5936L4.375 27.4999C3.82651 27.4332 3.30858 27.2109 2.88241 26.8593C2.45624 26.5076 2.13965 26.0413 1.97006 25.5154C1.80048 24.9896 1.78498 24.4262 1.9254 23.8918C2.06583 23.3574 2.35631 22.8744 2.7625 22.4999L3.3875 21.9124C3.6719 21.6415 3.89831 21.3157 4.05302 20.9547C4.20773 20.5937 4.2875 20.2051 4.2875 19.8124C4.2875 19.4196 4.20773 19.031 4.05302 18.67C3.89831 18.309 3.6719 17.9832 3.3875 17.7124L2.7625 17.1249C2.35646 16.7507 2.06593 16.2682 1.92521 15.7343C1.78449 15.2004 1.79945 14.6374 1.96833 14.1117C2.1372 13.5861 2.45294 13.1197 2.87827 12.7676C3.3036 12.4156 3.82078 12.1925 4.36875 12.1249L5.21875 12.0186C5.60744 11.9667 5.98153 11.8363 6.31829 11.6354C6.65505 11.4345 6.94745 11.1672 7.17775 10.8498C7.40806 10.5324 7.57144 10.1715 7.658 9.78904C7.74455 9.40656 7.75246 9.01049 7.68125 8.62486L7.5 7.81861C7.39646 7.2792 7.44891 6.72145 7.65121 6.2108C7.8535 5.70015 8.19725 5.25779 8.6421 4.93563C9.08696 4.61347 9.61448 4.42487 10.1627 4.39197C10.711 4.35907 11.2573 4.48322 11.7375 4.74986L12.7313 5.29361C13.3865 5.6502 14.1546 5.73872 14.8738 5.54056C15.593 5.3424 16.2073 4.87299 16.5875 4.23111L17.5 2.66236C17.7551 2.2323 18.1177 1.87603 18.5522 1.62856C18.9867 1.3811 19.4781 1.25098 19.9781 1.25098C20.4781 1.25098 20.9696 1.3811 21.4041 1.62856C21.8386 1.87603 22.2012 2.2323 22.4563 2.66236L23.3875 4.23111C23.7677 4.87299 24.382 5.3424 25.1012 5.54056C25.8204 5.73872 26.5885 5.6502 27.2437 5.29361L28.2375 4.74986C28.7183 4.47584 29.2676 4.34574 29.8202 4.37504C30.3728 4.40433 30.9053 4.5918 31.3544 4.91512C31.8035 5.23843 32.1503 5.68399 32.3533 6.19874C32.5564 6.71349 32.6073 7.27576 32.5 7.81861L32.3438 8.66861C32.2725 9.05424 32.2805 9.45031 32.367 9.83279C32.4536 10.2153 32.6169 10.5762 32.8472 10.8935C33.0775 11.2109 33.37 11.4782 33.7067 11.6791C34.0435 11.8801 34.4176 12.0104 34.8062 12.0624L35.6562 12.1686C36.2042 12.2363 36.7214 12.4593 37.1467 12.8114C37.5721 13.1634 37.8878 13.6298 38.0567 14.1555C38.2255 14.6812 38.2405 15.2442 38.0998 15.7781C37.9591 16.312 37.6685 16.7945 37.2625 17.1686L36.6375 17.7561C36.3531 18.027 36.1267 18.3528 35.972 18.7137C35.8173 19.0747 35.7375 19.4634 35.7375 19.8561C35.7375 20.2489 35.8173 20.6375 35.972 20.9985C36.1267 21.3595 36.3531 21.6853 36.6375 21.9561L37.2625 22.5436C37.6559 22.9219 37.9344 23.4037 38.0657 23.9334C38.197 24.4631 38.1758 25.0192 38.0046 25.5374C37.8334 26.0556 37.5191 26.5149 37.098 26.8621C36.677 27.2094 36.1663 27.4304 35.625 27.4999Z" fill="#1D1D1D"/>
<path d="M37.5 21.0187C37.3369 20.8656 37.2069 20.6807 37.1181 20.4754C37.0292 20.27 36.9834 20.0487 36.9834 19.825C36.9834 19.6013 37.0292 19.3799 37.1181 19.1746C37.2069 18.9693 37.3369 18.7844 37.5 18.6312L38.125 18.0437C38.6921 17.5053 39.0953 16.8173 39.2879 16.0594C39.4805 15.3015 39.4547 14.5045 39.2135 13.7606C38.9723 13.0167 38.5255 12.3563 37.9248 11.8556C37.3241 11.3549 36.5939 11.0345 35.8188 10.9312L34.9688 10.8187C34.7479 10.7903 34.5353 10.717 34.3439 10.6032C34.1525 10.4895 33.9864 10.3378 33.8558 10.1575C33.7252 9.97715 33.633 9.772 33.5847 9.55466C33.5364 9.33732 33.5331 9.11239 33.575 8.89373L33.7313 8.04373C33.8704 7.27633 33.7897 6.48523 33.4987 5.76166C33.2076 5.03809 32.718 4.41152 32.0862 3.9542C31.4545 3.49688 30.7063 3.22743 29.928 3.17692C29.1498 3.12641 28.3731 3.2969 27.6875 3.66873L26.6938 4.21248C26.3205 4.41339 25.8835 4.46049 25.476 4.34372C25.0685 4.22696 24.7227 3.95558 24.5125 3.58748L23.55 2.02498C23.1842 1.40839 22.6643 0.897599 22.0413 0.542813C21.4184 0.188028 20.7138 0.00146484 19.9969 0.00146484C19.28 0.00146484 18.5754 0.188028 17.9524 0.542813C17.3294 0.897599 16.8095 1.40839 16.4437 2.02498L15.5125 3.59373C15.3023 3.96183 14.9565 4.23321 14.549 4.34997C14.1415 4.46674 13.7045 4.41964 13.3312 4.21873L12.3375 3.67498C11.6519 3.30315 10.8752 3.13266 10.097 3.18317C9.31868 3.23368 8.57052 3.50313 7.93876 3.96045C7.307 4.41777 6.81737 5.04434 6.52631 5.76791C6.23526 6.49148 6.15464 7.28258 6.29375 8.04998L6.45 8.89998C6.49191 9.11864 6.48863 9.34357 6.44034 9.56091C6.39205 9.77825 6.29978 9.9834 6.16921 10.1637C6.03864 10.3441 5.87254 10.4958 5.68113 10.6095C5.48973 10.7232 5.27707 10.7965 5.05625 10.825L4.20625 10.9375C3.43032 11.0377 2.6986 11.3555 2.09575 11.8542C1.49291 12.3529 1.04355 13.0121 0.799677 13.7555C0.555801 14.4988 0.527367 15.2961 0.717663 16.055C0.907959 16.8139 1.30921 17.5034 1.875 18.0437L2.5 18.6312C2.66147 18.7853 2.79001 18.9705 2.87783 19.1757C2.96566 19.3809 3.01094 19.6018 3.01094 19.825C3.01094 20.0482 2.96566 20.269 2.87783 20.4742C2.79001 20.6794 2.66147 20.8647 2.5 21.0187L1.875 21.6062C1.29776 22.1448 0.88639 22.8371 0.689316 23.6016C0.492241 24.3661 0.517662 25.171 0.762587 25.9215C1.00751 26.672 1.46175 27.337 2.07182 27.8381C2.6819 28.3392 3.42243 28.6556 4.20625 28.75L5.05625 28.8625C5.27669 28.8918 5.48885 28.9657 5.6798 29.0796C5.87075 29.1936 6.03648 29.3453 6.1669 29.5254C6.29731 29.7055 6.38967 29.9103 6.43834 30.1273C6.48701 30.3443 6.49098 30.5689 6.45 30.7875L6.29375 31.6375C6.15464 32.4049 6.23526 33.196 6.52631 33.9196C6.81737 34.6431 7.307 35.2697 7.93876 35.727C8.57052 36.1843 9.31868 36.4538 10.097 36.5043C10.8752 36.5548 11.6519 36.3843 12.3375 36.0125L13.2375 35.5187C13.6141 35.3097 14.0581 35.2581 14.4726 35.3752C14.8871 35.4923 15.2384 35.7686 15.45 36.1437L16.3687 37.825C16.7239 38.4772 17.2484 39.0216 17.8868 39.4009C18.5253 39.7802 19.2542 39.9804 19.9969 39.9804C20.7395 39.9804 21.4684 39.7802 22.1069 39.4009C22.7454 39.0216 23.2698 38.4772 23.625 37.825L24.5438 36.1437C24.7553 35.7686 25.1067 35.4923 25.5212 35.3752C25.9357 35.2581 26.3797 35.3097 26.7563 35.5187L27.6562 36.0125C28.3418 36.3843 29.1185 36.5548 29.8968 36.5043C30.6751 36.4538 31.4232 36.1843 32.055 35.727C32.6867 35.2697 33.1764 34.6431 33.4674 33.9196C33.7585 33.196 33.8391 32.4049 33.7 31.6375L33.5438 30.7875C33.5018 30.5688 33.5051 30.3439 33.5534 30.1266C33.6017 29.9092 33.694 29.7041 33.8245 29.5237C33.9551 29.3434 34.1212 29.1917 34.3126 29.078C34.504 28.9643 34.7167 28.8909 34.9375 28.8625L35.7875 28.75C36.5718 28.6566 37.3131 28.3409 37.924 27.8402C38.535 27.3395 38.99 26.6747 39.2357 25.924C39.4813 25.1733 39.5073 24.368 39.3105 23.603C39.1137 22.838 38.7024 22.1452 38.125 21.6062L37.5 21.0187ZM36.8 25.125C36.4313 26.2562 35.4438 26.2437 34.6125 26.375C34.0552 26.4487 33.5187 26.635 33.0357 26.9226C32.5526 27.2103 32.1332 27.5932 31.8029 28.048C31.4725 28.5029 31.2382 29.0203 31.1141 29.5686C30.9901 30.1169 30.9789 30.6847 31.0812 31.2375C31.2563 32.1625 31.5312 33.0312 30.5875 33.7375C29.6437 34.4437 28.825 33.8312 27.95 33.3562C27.4725 33.0942 26.9481 32.9291 26.4066 32.8702C25.8652 32.8113 25.3175 32.8599 24.7949 33.0132C24.2723 33.1665 23.7851 33.4215 23.3613 33.7635C22.9374 34.1055 22.5853 34.5278 22.325 35.0062L21.4062 36.6875C21.2663 36.9459 21.0591 37.1617 20.8066 37.3121C20.5542 37.4625 20.2657 37.5419 19.9719 37.5419C19.678 37.5419 19.3896 37.4625 19.1371 37.3121C18.8846 37.1617 18.6775 36.9459 18.5375 36.6875L17.6187 35.0062C17.2626 34.3546 16.7374 33.811 16.0984 33.4326C15.4593 33.0543 14.7301 32.8551 13.9875 32.8562C12.775 32.8562 12.1125 33.3062 11.1125 33.85C10.8374 33.9941 10.527 34.0571 10.2175 34.0315C9.90794 34.0059 9.61208 33.8928 9.36441 33.7054C9.11674 33.518 8.92746 33.2641 8.81867 32.9732C8.70988 32.6823 8.68607 32.3664 8.75 32.0625C8.95625 30.9437 9.3125 29.5625 8.1875 28.0187C7.0625 26.475 5.75 26.4 4.53125 26.25C4.22454 26.2069 3.93615 26.0784 3.69905 25.8791C3.46196 25.6799 3.28573 25.4179 3.19054 25.1232C3.09534 24.8285 3.08501 24.5129 3.16074 24.2126C3.23647 23.9123 3.39519 23.6393 3.61875 23.425C4.58125 22.5 5.53125 21.675 5.53125 19.825C5.53125 17.975 4.5125 17.075 3.61875 16.25C3.39463 16.0364 3.23538 15.7639 3.15933 15.4638C3.08327 15.1637 3.09351 14.8483 3.18885 14.5537C3.2842 14.2592 3.46078 13.9976 3.69827 13.799C3.93576 13.6004 4.2245 13.4729 4.53125 13.4312C5.85625 13.2562 7.1125 13.125 8.1875 11.65C9.2625 10.175 8.96875 8.78123 8.75 7.60623C8.69155 7.30209 8.72089 6.98759 8.83459 6.69951C8.94829 6.41142 9.14165 6.16166 9.39207 5.97942C9.64249 5.79718 9.93961 5.68999 10.2487 5.67039C10.5578 5.65079 10.8661 5.71959 11.1375 5.86873L12.1312 6.40623C13.0713 6.92068 14.1748 7.04853 15.2075 6.76263C16.2402 6.47673 17.1209 5.7996 17.6625 4.87498C18.5 3.45623 18.825 2.49998 20 2.49998C20.2846 2.49502 20.5653 2.56666 20.8127 2.7074C21.0601 2.84814 21.2651 3.05282 21.4062 3.29998L22.3312 4.87498C22.8771 5.79519 23.7591 6.46734 24.7911 6.74954C25.8231 7.03174 26.9244 6.90192 27.8625 6.38748L28.8562 5.84998C29.1278 5.69901 29.4369 5.62875 29.747 5.64747C30.0572 5.66618 30.3556 5.77309 30.607 5.95561C30.8585 6.13813 31.0526 6.38868 31.1665 6.67778C31.2804 6.96687 31.3094 7.28249 31.25 7.58748C31.0562 8.65623 30.6812 10.0875 31.8188 11.6312C32.9562 13.175 34.2562 13.25 35.475 13.4125C35.7856 13.4519 36.0784 13.5795 36.3186 13.7803C36.5589 13.981 36.7366 14.2464 36.8306 14.545C36.9247 14.8436 36.9312 15.1629 36.8493 15.4651C36.7674 15.7673 36.6007 16.0397 36.3688 16.25C35.4 17.175 34.4938 18.0062 34.4938 19.8437C34.4625 23.125 37.5 23.075 36.8 25.125Z" fill="#F76D1F"/>
<path d="M13.7937 19.2499C13.7156 19.1006 13.6081 18.9685 13.4776 18.8618C13.3471 18.7551 13.1963 18.6758 13.0344 18.6288C12.8725 18.5819 12.7028 18.5681 12.5354 18.5885C12.3681 18.6088 12.2065 18.6628 12.0606 18.7471C11.9146 18.8315 11.7872 18.9445 11.6861 19.0794C11.585 19.2143 11.5121 19.3682 11.472 19.532C11.4319 19.6957 11.4254 19.8659 11.4527 20.0322C11.4801 20.1986 11.5408 20.3577 11.6312 20.4999L13.3187 23.4249L8.9375 21.2499C8.69717 21.1311 8.42501 21.0928 8.16119 21.1404C7.89738 21.1881 7.65589 21.3194 7.47237 21.5148C7.28885 21.7103 7.17302 21.9595 7.14198 22.2258C7.11094 22.4921 7.16634 22.7613 7.3 22.9937L11.05 29.4937C11.1281 29.6431 11.2357 29.7751 11.3662 29.8818C11.4967 29.9886 11.6474 30.0678 11.8093 30.1148C11.9712 30.1618 12.141 30.1755 12.3083 30.1552C12.4757 30.1348 12.6372 30.0809 12.7832 29.9965C12.9291 29.9121 13.0565 29.7991 13.1576 29.6642C13.2588 29.5294 13.3316 29.3754 13.3717 29.2117C13.4118 29.0479 13.4184 28.8778 13.391 28.7114C13.3637 28.5451 13.3029 28.386 13.2125 28.2437L11.5312 25.3187L15.9062 27.4874C16.1466 27.6062 16.4187 27.6446 16.6826 27.5969C16.9464 27.5492 17.1879 27.418 17.3714 27.2226C17.5549 27.0271 17.6707 26.7779 17.7018 26.5116C17.7328 26.2453 17.6774 25.9761 17.5437 25.7437L13.7937 19.2499Z" fill="#F76D1F"/>
<path d="M23.4125 20.9124L20.1687 22.7874L19.5437 21.7062L21.7062 20.4562C21.9783 20.2832 22.1731 20.0118 22.2498 19.6987C22.3265 19.3855 22.2792 19.0549 22.1179 18.7757C21.9565 18.4966 21.6936 18.2906 21.3839 18.2008C21.0743 18.111 20.7419 18.1442 20.4562 18.2937L18.2937 19.5437L17.6687 18.4624L20.9125 16.5874C21.0549 16.5054 21.1797 16.396 21.2799 16.2657C21.38 16.1354 21.4536 15.9866 21.4962 15.8279C21.5389 15.6692 21.5498 15.5036 21.5285 15.3406C21.5072 15.1776 21.4539 15.0205 21.3719 14.8781C21.2898 14.7357 21.1805 14.6108 21.0502 14.5107C20.9198 14.4105 20.7711 14.337 20.6123 14.2944C20.4536 14.2517 20.288 14.2407 20.125 14.2621C19.9621 14.2834 19.8049 14.3366 19.6625 14.4187L15.3375 16.9187C15.1951 17.0003 15.0702 17.1093 14.9699 17.2392C14.8695 17.3691 14.7958 17.5176 14.7529 17.676C14.7099 17.8345 14.6986 17.9998 14.7195 18.1626C14.7405 18.3254 14.7933 18.4825 14.875 18.6249C18.8625 25.4999 18.7 25.4999 19.3875 25.7062C20.075 25.9124 20.0125 25.7749 24.6625 23.0812C24.9501 22.9154 25.1601 22.6422 25.2462 22.3216C25.3324 22.0011 25.2876 21.6594 25.1219 21.3718C24.9561 21.0842 24.6829 20.8742 24.3623 20.7881C24.0418 20.702 23.7001 20.7467 23.4125 20.9124Z" fill="#F76D1F"/>
<path d="M28.95 10.4999C28.8719 10.3506 28.7643 10.2185 28.6338 10.1118C28.5033 10.0051 28.3526 9.92582 28.1907 9.87884C28.0288 9.83187 27.859 9.81814 27.6917 9.83847C27.5243 9.8588 27.3628 9.91277 27.2168 9.99713C27.0709 10.0815 26.9435 10.1945 26.8424 10.3294C26.7412 10.4643 26.6684 10.6182 26.6283 10.782C26.5882 10.9457 26.5816 11.1159 26.609 11.2822C26.6363 11.4486 26.6971 11.6077 26.7875 11.7499L29.2875 16.0812L28.6625 16.0062C28.3948 15.975 28.1242 16.0312 27.8911 16.1664C27.658 16.3015 27.4747 16.5084 27.3687 16.7562L27.1187 17.3312L24.6187 12.9999C24.5406 12.8506 24.433 12.7185 24.3026 12.6118C24.1721 12.5051 24.0213 12.4258 23.8594 12.3788C23.6975 12.3319 23.5278 12.3181 23.3604 12.3385C23.1931 12.3588 23.0315 12.4128 22.8856 12.4971C22.7396 12.5815 22.6122 12.6945 22.5111 12.8294C22.41 12.9643 22.3371 13.1182 22.297 13.282C22.2569 13.4457 22.2504 13.6159 22.2777 13.7822C22.3051 13.9486 22.3658 14.1077 22.4562 14.2499L26.2062 20.7499C26.3216 20.9511 26.4907 21.1162 26.6945 21.2267C26.8983 21.3373 27.1289 21.389 27.3604 21.376C27.592 21.3631 27.8153 21.2859 28.0055 21.1533C28.1957 21.0207 28.3453 20.8377 28.4375 20.6249L29.2937 18.6124L31.4687 18.8749C31.7019 18.9078 31.9397 18.8742 32.1546 18.7779C32.3695 18.6816 32.5528 18.5265 32.6834 18.3306C32.8141 18.1346 32.8867 17.9058 32.8929 17.6703C32.8992 17.4349 32.8388 17.2025 32.7187 16.9999L28.95 10.4999Z" fill="#F76D1F"/>
</svg>
