<svg width="48" height="40" viewBox="0 0 48 40" fill="none" xmlns="http://www.w3.org/2000/svg">
<path d="M25.7664 36.1283C28.9154 32.1533 29.2251 14.0335 25.4566 9.80034C25.1469 9.45618 24.8199 9.21527 24.4758 9.07761C19.4167 7.01268 9.71148 5.82534 6.09784 7.52891C6.25271 7.42566 7.69817 6.54807 13.5832 6.03183C20.9138 5.82534 26.5923 5.77372 28.7605 9.38736C29.0014 9.73151 29.1907 10.1273 29.3284 10.5747C30.5673 14.4464 28.8638 31.4822 30.2576 37.264C27.1086 37.5221 24.166 37.6254 22.3076 37.6254C23.8563 37.5221 25.0436 37.0575 25.7664 36.1283Z" fill="#E2D4BA"/>
<path d="M25.4566 9.80029C29.2251 14.0334 28.9154 32.1532 25.7664 36.1282C25.0437 37.0575 23.8563 37.5221 22.3076 37.6253C21.0686 37.6769 20.2943 37.6769 20.2943 37.6769C14.6157 37.3156 6.82058 33.8052 5.27188 31.0175C4.29103 29.2623 3.67155 24.9259 3.51668 20.3831C3.36181 14.5496 4.08454 8.5097 6.09785 7.52886C9.71149 5.82529 19.4167 7.01262 24.4758 9.07756C24.82 9.21522 25.1469 9.45613 25.4566 9.80029Z" fill="#F7EEDF"/>
<path d="M9.60823 4.63791C26.7988 3.14083 32.942 3.70869 32.0128 16.6145C31.2901 27.3522 30.6706 38.348 34.594 39.3805C33.4066 39.3288 32.3225 39.2772 31.4966 39.174C30.9287 39.1224 30.5673 38.3996 30.2576 37.2639C28.8638 31.4821 30.5673 14.4464 29.3284 10.5746C29.1907 10.1272 29.0014 9.73142 28.7605 9.38727C26.5923 5.77363 20.9138 5.82525 13.5832 6.03174C7.69816 6.54798 6.25271 7.42557 6.09784 7.52882C4.08452 8.50967 3.3618 14.5496 3.51667 20.383C3.1553 22.1382 2.69069 22.861 2.17446 22.861C0.419261 4.74115 6.71732 4.89602 9.60823 4.63791Z" fill="#C1441A"/>
<path d="M19.1586 0.0434622C31.445 -0.369525 40.7372 2.21164 45.0735 5.61879C49.3583 9.07755 46.9836 33.1341 45.0735 36.4896C44.1443 38.0899 41.8213 38.8127 39.2917 39.174C38.6722 22.8094 43.1635 9.49055 37.4333 5.2058C31.7031 0.92106 20.2943 0.3532 8.36929 1.79866C11.2602 0.714564 14.8738 0.198332 19.1586 0.0434622Z" fill="#FA783C"/>
<path d="M9.60824 4.63791C6.71733 4.89602 0.419273 4.74115 2.17447 22.861C1.09038 22.9126 -0.0969598 19.8152 0.00628705 15.6853C0.161157 7.83856 3.05207 3.81193 8.36928 1.79862C20.2943 0.353163 31.7031 0.921024 37.4333 5.20577C43.1635 9.49051 38.6722 22.8094 39.2917 39.174C37.6914 39.3805 36.0394 39.4321 34.594 39.3805C30.6706 38.348 31.2901 27.3522 32.0128 16.6145C32.942 3.70869 26.7988 3.14083 9.60824 4.63791Z" fill="#ED6239"/>
<path d="M27.6764 11.8653C25.1469 12.1751 22.5657 10.3166 22.0495 7.83869C24.579 7.47733 27.1602 9.33577 27.6764 11.8653C27.5216 11.091 26.9021 11.9686 27.6764 11.8653Z" fill="#EAE2D1"/>
<path d="M23.6498 10.8326C21.8946 12.02 19.2618 11.607 17.9712 9.90343C19.7264 8.71609 22.3592 9.18069 23.6498 10.8326C23.2368 10.3164 23.0819 11.194 23.6498 10.8326Z" fill="#EAE2D1"/>
<path d="M20.7589 7.11571C19.7264 9.49038 16.7839 10.781 14.3576 9.90338C15.3901 7.58033 18.3326 6.28973 20.7589 7.11571C20.4492 7.89006 19.9846 6.85759 20.7589 7.11571Z" fill="#EAE2D1"/>
<path d="M17.455 7.11589C16.3709 8.92271 13.7897 9.64544 11.9313 8.6646C13.0154 6.85778 15.5966 6.13505 17.455 7.11589C17.1453 7.68375 16.8872 6.80615 17.455 7.11589Z" fill="#EAE2D1"/>
<path d="M15.2352 6.34142C14.3576 8.7161 11.5183 10.1099 9.14362 9.38722C10.0212 7.06416 12.8089 5.67032 15.2352 6.34142C14.9254 7.11577 14.4608 6.13493 15.2352 6.34142Z" fill="#EAE2D1"/>
<path d="M11.2085 7.47729C9.71147 8.97437 7.07867 9.02599 5.52997 7.63216C7.02705 6.1867 9.65984 6.08346 11.2085 7.47729C10.7439 7.9419 10.7439 7.0643 11.2085 7.47729Z" fill="#EAE2D1"/>
<path d="M6.09782 6.13501C7.02705 8.35482 5.99458 11.2974 3.77477 12.3814C2.84555 10.11 3.92964 7.2191 6.09782 6.13501C6.40757 6.80611 5.42672 6.44475 6.09782 6.13501Z" fill="#EAE2D1"/>
<path d="M2.58745 10.678C4.85888 11.1426 6.56245 13.5689 6.25271 15.8919C3.92965 15.3757 2.22608 13.001 2.58745 10.678C3.25855 10.8328 2.4842 11.4007 2.58745 10.678Z" fill="#EAE2D1"/>
<path d="M3.46505 13.1558C5.42674 14.5496 5.9946 17.5437 4.70401 19.5571C2.74232 18.1632 2.22609 15.1691 3.46505 13.1558C4.08453 13.5687 3.10368 13.7752 3.46505 13.1558Z" fill="#EAE2D1"/>
<path d="M3.98127 16.3564C5.1686 18.2149 4.65237 20.9509 2.84555 22.2415C1.65821 20.3831 2.17445 17.647 3.98127 16.3564C4.34263 16.9243 3.41341 16.7694 3.98127 16.3564Z" fill="#EAE2D1"/>
<path d="M2.58745 20.8477C5.06537 21.5188 6.71732 24.2548 6.20109 26.7327C3.77479 26.0616 2.07121 23.3256 2.58745 20.8477C3.3618 21.0541 2.43258 21.622 2.58745 20.8477Z" fill="#EAE2D1"/>
<path d="M4.29103 24.4614C6.35596 25.339 7.49168 27.9202 6.76895 29.9851C4.70401 29.1075 3.5683 26.578 4.29103 24.4614C4.96213 24.7195 4.08453 25.1325 4.29103 24.4614Z" fill="#EAE2D1"/>
<path d="M3.92967 26.6812C5.94298 28.2299 6.45922 31.3789 5.06538 33.4955C3.05207 31.9467 2.53584 28.7977 3.92967 26.6812C4.54915 27.1458 3.46506 27.3523 3.92967 26.6812Z" fill="#EAE2D1"/>
<path d="M5.47835 30.5012C7.69816 30.7077 9.60822 32.7727 9.5566 34.9925C7.33679 34.8376 5.42672 32.7727 5.47835 30.5012C6.14945 30.5528 5.47835 31.2239 5.47835 30.5012Z" fill="#EAE2D1"/>
<path d="M8.67902 33.0309C11.0021 31.7403 14.2543 32.5146 15.6998 34.7344C13.4284 36.025 10.1761 35.2507 8.67902 33.0309C9.40174 32.6179 9.14363 33.702 8.67902 33.0309Z" fill="#EAE2D1"/>
<path d="M11.0021 34.9409C13.067 33.8568 15.9063 34.6311 17.0936 36.6444C15.0287 37.7285 12.1894 36.9025 11.0021 34.9409C11.6216 34.5795 11.3634 35.5603 11.0021 34.9409Z" fill="#EAE2D1"/>
<path d="M15.0803 36.6445C16.7839 35.0442 19.6748 35.0442 21.3267 36.5929C19.6748 38.1416 16.7839 38.1932 15.0803 36.6445C15.6481 37.1091 15.5965 36.1283 15.0803 36.6445Z" fill="#EAE2D1"/>
<path d="M17.0936 35.6119C18.7972 33.6502 22.1011 33.2889 24.166 34.8892C22.4625 36.8509 19.1586 37.1606 17.0936 35.6119C17.7131 36.0765 17.6099 34.9925 17.0936 35.6119Z" fill="#EAE2D1"/>
<path d="M21.843 38.3996C22.5141 36.1282 25.0953 34.5794 27.4183 35.0957C26.7472 37.4187 24.166 38.9158 21.843 38.3996C22.5657 38.5545 22.0495 37.6769 21.843 38.3996Z" fill="#EAE2D1"/>
<path d="M26.6956 37.2638C24.992 35.3021 25.0953 32.0498 26.9537 30.1914C28.6573 32.1531 28.5541 35.4054 26.6956 37.2638C27.3151 36.696 26.1794 36.6443 26.6956 37.2638Z" fill="#EAE2D1"/>
<path d="M27.728 33.7018C26.4375 32.1015 26.5923 29.5203 28.141 28.1265C29.4316 29.7268 29.2251 32.308 27.728 33.7018C28.1927 33.2888 27.3151 33.2372 27.728 33.7018Z" fill="#EAE2D1"/>
<path d="M27.6248 30.0881C26.3859 27.9199 27.057 24.8225 29.1735 23.4287C30.4641 25.5969 29.7414 28.6943 27.6248 30.0881C28.2959 29.6751 27.2635 29.417 27.6248 30.0881Z" fill="#EAE2D1"/>
<path d="M28.4508 24.7193C26.7472 23.2223 26.4375 20.2797 27.8313 18.4729C29.5865 19.97 29.8962 22.9125 28.4508 24.7193C28.9154 24.1515 27.9346 24.2547 28.4508 24.7193Z" fill="#EAE2D1"/>
<path d="M27.7281 19.712C26.0761 18.4214 25.6115 15.7886 26.7988 14.0334C28.5024 15.324 28.9154 17.9568 27.7281 19.712C28.0894 19.1442 27.2118 19.299 27.7281 19.712Z" fill="#EAE2D1"/>
<path d="M29.0187 15.4788C26.7472 15.3756 24.6823 13.3623 24.6307 11.0908C26.9021 11.1424 28.967 13.1558 29.0187 15.4788C29.0187 14.7561 28.3476 15.4272 29.0187 15.4788Z" fill="#EAE2D1"/>
<path d="M24.6823 10.936C22.2044 10.8844 20.0362 8.66458 19.9329 6.23828C22.4108 6.2899 24.579 8.50972 24.6823 10.936C24.6307 10.2133 23.9079 10.936 24.6823 10.936Z" fill="#EAE2D1"/>
<path d="M25.1469 38.1415C24.2177 35.6636 25.5082 32.6178 27.9345 31.5337C28.8121 34.0116 27.5216 37.0574 25.1469 38.1415C25.8696 37.7802 24.8371 37.3672 25.1469 38.1415Z" fill="#EAE2D1"/>
<path d="M29.8446 35.7153C27.8313 33.9601 27.4699 30.6046 29.0703 28.488C31.0836 30.1916 31.4449 33.5471 29.8446 35.7153C30.3608 35.0442 29.2251 35.1475 29.8446 35.7153Z" fill="#EAE2D1"/>
<path d="M28.5024 31.3273C26.1794 29.9851 25.1985 26.7845 26.4375 24.3582C28.7089 25.7004 29.6897 28.9526 28.5024 31.3273C28.8638 30.6046 27.7797 30.9143 28.5024 31.3273Z" fill="#EAE2D1"/>
<path d="M30.7222 26.6295C28.7089 25.9068 27.4183 23.5321 28.0378 21.4155C30.0511 22.1383 31.2901 24.5646 30.7222 26.6295C30.8771 26.01 30.1027 26.423 30.7222 26.6295Z" fill="#EAE2D1"/>
<path d="M31.1352 20.0219C29.0187 18.5764 28.2443 15.3242 29.5865 13.0527C31.8063 14.5498 32.4774 17.8021 31.1352 20.0219C31.5998 19.3508 30.5157 19.5573 31.1352 20.0219Z" fill="#EAE2D1"/>
<path d="M29.2252 17.8536C27.3667 16.2017 27.057 13.001 28.6057 11.0393C30.5157 12.7429 30.7739 15.8919 29.2252 17.8536C29.6898 17.2341 28.6573 17.3374 29.2252 17.8536Z" fill="#EAE2D1"/>
<path d="M27.8829 13.4656C25.7664 13.6205 23.6498 11.9169 23.3401 9.80031C25.5082 9.64544 27.6248 11.349 27.8829 13.4656C27.8313 12.8461 27.2118 13.5172 27.8829 13.4656Z" fill="#EAE2D1"/>
<path d="M26.7472 7.27079C25.0952 9.23248 21.9462 9.59384 19.8813 8.04514C21.5332 6.13507 24.7339 5.77371 26.7472 7.27079C26.231 7.89027 26.1277 6.80618 26.7472 7.27079Z" fill="#EAE2D1"/>
<path d="M22.7722 7.21912C20.7589 8.09672 18.1777 7.1675 17.1969 5.20581C19.1586 4.37983 21.7914 5.30905 22.7722 7.21912C22.4625 6.65126 22.1527 7.52886 22.7722 7.21912Z" fill="#EAE2D1"/>
<path d="M18.1261 10.0068C15.6998 10.3166 13.1702 8.45814 12.7056 6.03184C15.1836 5.7221 17.6615 7.58053 18.1261 10.0068C18.0228 9.28411 17.3517 10.1101 18.1261 10.0068Z" fill="#EAE2D1"/>
<path d="M15.2868 5.51555C13.8414 7.27075 10.9505 7.63211 9.09201 6.2899C10.5375 4.5347 13.4284 4.17334 15.2868 5.51555C14.8222 6.08341 14.719 5.10256 15.2868 5.51555Z" fill="#EAE2D1"/>
<path d="M9.55661 6.70287C8.11116 8.76781 5.01375 9.49053 2.79395 8.19995C4.2394 6.08339 7.38843 5.41229 9.55661 6.70287C9.14363 7.32235 8.88551 6.28989 9.55661 6.70287Z" fill="#EAE2D1"/>
<path d="M6.25272 10.1616C7.18194 8.09669 9.76311 7.0126 11.8797 7.78695C10.9504 9.85188 8.36928 10.936 6.25272 10.1616C6.92382 10.4197 6.51083 9.54215 6.25272 10.1616Z" fill="#EAE2D1"/>
<path d="M13.9446 6.1868C15.8547 4.99946 18.694 5.56732 19.9845 7.47739C18.0229 8.6131 15.2352 8.04524 13.9446 6.1868C14.5125 5.82544 14.306 6.75466 13.9446 6.1868Z" fill="#EAE2D1"/>
<path d="M16.7839 11.0909C17.5583 9.07762 20.0362 7.89029 22.1011 8.56139C21.3268 10.5747 18.8488 11.762 16.7839 11.0909C17.4034 11.2974 16.9904 10.4715 16.7839 11.0909Z" fill="#EAE2D1"/>
<path d="M19.5199 7.63215C21.9462 7.16754 24.5274 8.8195 25.1469 11.1942C22.7206 11.6072 20.1394 9.95521 19.5199 7.63215C20.2943 7.47728 19.7264 8.35488 19.5199 7.63215Z" fill="#EAE2D1"/>
<path d="M22.9787 7.68388C24.8371 6.54817 27.5216 7.06441 28.7605 8.8196C26.9537 9.95532 24.2693 9.43908 22.9787 7.68388C23.5466 7.32252 23.3917 8.25174 22.9787 7.68388Z" fill="#EAE2D1"/>
<path d="M26.2826 6.70288C28.6057 7.47723 30.0511 10.1617 29.38 12.4847C27.1086 11.7104 25.6631 9.02593 26.2826 6.70288C27.0053 6.961 26.1277 7.42561 26.2826 6.70288Z" fill="#EAE2D1"/>
<path d="M30.0511 11.9685C30.9803 14.2916 29.8962 17.2857 27.6248 18.4214C26.644 16.0984 27.7797 13.1042 30.0511 11.9685C30.3092 12.6912 29.3284 12.3299 30.0511 11.9685Z" fill="#EAE2D1"/>
<path d="M27.9345 17.5955C30.2576 18.1633 31.9095 20.7445 31.4449 23.0675C29.1219 22.4997 27.5216 19.9701 27.9345 17.5955C28.6573 17.802 27.8313 18.3182 27.9345 17.5955Z" fill="#EAE2D1"/>
<path d="M29.0703 20.0217C31.1352 21.0542 32.116 23.7386 31.2384 25.8552C29.1735 24.8227 28.1927 22.0867 29.0703 20.0217C29.7414 20.3315 28.8121 20.6412 29.0703 20.0217Z" fill="#EAE2D1"/>
<path d="M27.8829 24.668C29.9995 25.0293 31.5998 27.1975 31.3933 29.3141C29.2768 28.9527 27.6248 26.7845 27.8829 24.668C28.5024 24.7712 27.7797 25.2874 27.8829 24.668Z" fill="#EAE2D1"/>
<path d="M28.0895 27.0942C29.8446 28.9011 29.9479 32.0501 28.2443 33.9085C26.4891 32.1017 26.4375 28.9527 28.0895 27.0942C28.6573 27.6621 27.5732 27.6621 28.0895 27.0942Z" fill="#EAE2D1"/>
<path d="M24.2693 32.2048C26.5407 32.6694 28.2959 35.0441 28.0378 37.3672C25.7147 36.9542 23.9595 34.5279 24.2693 32.2048C24.9404 32.3597 24.166 32.9276 24.2693 32.2048Z" fill="#EAE2D1"/>
<path d="M30.7738 34.3215C29.7414 36.7994 26.644 38.1416 24.1144 37.2641C25.1469 34.7861 28.2443 33.4439 30.7738 34.3215C30.4641 35.0959 29.9995 34.0634 30.7738 34.3215Z" fill="#EAE2D1"/>
<path d="M25.2501 34.5795C23.2368 35.7668 20.3459 35.1474 19.0553 33.1857C21.0686 31.9983 23.9079 32.6694 25.2501 34.5795C24.8372 34.0116 24.6307 34.9925 25.2501 34.5795Z" fill="#EAE2D1"/>
<path d="M15.9579 32.308C15.6138 32.308 15.2868 32.2736 14.9771 32.2048C11.0021 31.4304 7.44006 27.6619 6.56246 23.4288C5.78811 22.0349 5.68486 20.5379 6.30434 19.144C5.94298 16.5629 7.49168 14.0849 10.8988 11.8651C11.656 11.3489 12.4819 11.0908 13.3768 11.0908C13.4112 11.0908 13.4456 11.0908 13.48 11.0908C14.3404 10.9531 15.1492 10.8843 15.9063 10.8843C18.7972 10.8843 21.1719 11.8651 22.9271 13.7236C25.4566 16.408 26.1277 20.4862 25.9729 23.1706C25.6631 27.3521 20.2427 32.308 15.9579 32.308Z" fill="#4B5E16"/>
<path style="mix-blend-mode:screen" d="M15.9579 32.308C15.6138 32.308 15.2868 32.2736 14.9771 32.2048C11.0021 31.4304 7.44006 27.6619 6.56246 23.4288C5.78811 22.0349 5.68486 20.5379 6.30434 19.144C5.94298 16.5629 7.49168 14.0849 10.8988 11.8651C11.656 11.3489 12.4819 11.0908 13.3768 11.0908C13.4112 11.0908 13.4456 11.0908 13.48 11.0908C14.3404 10.9531 15.1492 10.8843 15.9063 10.8843C18.7972 10.8843 21.1719 11.8651 22.9271 13.7236C25.4566 16.408 26.1277 20.4862 25.9729 23.1706C25.6631 27.3521 20.2427 32.308 15.9579 32.308Z" fill="url(#paint0_linear_1_440)"/>
<path d="M13.5832 12.2264C23.3401 10.5745 25.0953 19.144 24.8371 23.0674C24.579 26.9391 18.9004 31.7917 15.1319 31.069C11.415 30.3463 8.26601 26.7843 7.59491 23.0674C8.62738 24.7193 10.7956 26.1131 13.2219 26.9907C17.2485 28.4878 20.9138 26.1131 22.8238 23.0674C24.7339 19.97 21.0686 16.4079 16.3709 16.666C18.6939 15.7884 16.3709 12.3813 13.5832 12.2264Z" fill="#A4C93E"/>
<path style="mix-blend-mode:screen" d="M4.49753 29.572C1.65824 26.8359 5.37513 18.3697 12.8089 10.6262C20.2427 2.93429 28.554 -1.14396 31.3933 1.59208C34.2842 4.32812 30.5157 12.7944 23.082 20.5379C15.6482 28.2814 7.33682 32.308 4.49753 29.572Z" fill="url(#paint1_radial_1_440)"/>
<path d="M13.5832 12.2265C16.3709 12.3814 18.694 15.7885 16.3709 16.6661C15.0287 17.1307 15.5966 18.4213 14.719 22.035C13.7897 25.6486 10.1761 24.7194 8.16278 21.3122C7.74979 20.6239 7.49168 19.97 7.38843 19.3506C6.92382 16.821 8.62739 14.6528 11.4667 12.7944C12.1378 12.3298 12.8605 12.1749 13.5832 12.2265Z" fill="#FFF1E9"/>
<g style="mix-blend-mode:multiply">
<path fill-rule="evenodd" clip-rule="evenodd" d="M15.1319 19.9185C15.0631 20.2282 14.9943 20.5724 14.9254 20.951C14.4608 20.538 13.893 20.3831 13.2219 20.538C13.1874 20.538 13.153 20.538 13.1186 20.538C13.1702 20.3315 13.067 20.0217 12.8089 20.0217H12.7056C12.3959 20.0217 12.2926 20.3831 12.4475 20.5896C11.2085 20.8993 10.6407 22.3964 11.0537 23.687C11.1225 23.8591 11.2085 24.0139 11.3118 24.1516C10.331 23.8419 9.29848 23.0159 8.47251 21.8285C8.54134 21.8285 8.61017 21.8285 8.679 21.8285C8.93712 21.7253 9.04037 21.5704 9.24686 21.3639C9.35011 21.2607 9.3501 21.1058 9.3501 21.0026C9.3501 21.0542 9.40173 21.1058 9.50498 21.1058C9.71147 21.1058 9.76309 20.7961 9.5566 20.7961C9.62543 20.6928 9.65984 20.5552 9.65984 20.3831V20.2282C9.65984 19.4539 8.47251 19.4539 8.47251 20.2282V20.3831C8.47251 20.4175 8.47251 20.4347 8.47251 20.4347C8.43809 20.4691 8.40367 20.5035 8.36926 20.538C8.33484 20.5724 8.30043 20.6068 8.26601 20.6412C8.2316 20.6756 8.21439 20.71 8.21439 20.7445C8.11114 20.8133 8.04231 20.8993 8.0079 21.0026C7.69816 20.4175 7.49166 19.8669 7.38841 19.3506C7.25075 18.6279 7.28517 17.9396 7.49166 17.2857C7.66374 17.3889 7.85303 17.4578 8.05952 17.4922C8.05952 17.5954 8.05952 17.647 8.05952 17.6987C8.05952 17.8019 8.11114 17.9052 8.16276 17.9568C7.64653 18.2665 7.54329 19.1958 8.31764 19.4023C9.3501 19.712 10.1761 19.4022 10.7439 18.7828C10.9504 19.3506 11.7764 19.4539 12.1378 18.9893C12.241 18.886 12.2926 18.7828 12.3443 18.6795C12.4991 18.6279 12.654 18.5247 12.7572 18.3698C12.9637 18.1633 13.067 17.8535 12.9637 17.5954V17.5438C12.9293 17.5094 12.9121 17.475 12.9121 17.4406C12.9637 17.4406 13.067 17.3889 13.1702 17.2857C13.2047 17.2513 13.2563 17.1997 13.3251 17.1308C13.4284 17.0276 13.48 16.8211 13.4284 16.7178C13.566 16.7178 13.7037 16.7006 13.8413 16.6662C14.6673 16.563 15.0287 15.5821 15.1319 14.8594C15.2352 14.911 15.2868 14.9626 15.39 14.911C15.4589 14.911 15.5105 14.911 15.5449 14.911C15.6482 15.0143 15.803 15.1175 15.9579 15.2208C16.3193 15.4272 16.629 14.8594 16.2676 14.6529C16.1128 14.5496 16.0095 14.4464 15.9063 14.3431C15.9063 14.3431 15.9063 14.2915 15.8547 14.2399C15.7858 14.1367 15.6998 14.0506 15.5965 13.9818C15.5621 13.9818 15.5277 13.9818 15.4933 13.9818C15.7514 13.8269 16.0095 13.6204 16.216 13.3623C17.455 14.498 17.868 16.0983 16.3709 16.6662C16.1128 16.7178 15.9579 16.8727 15.803 17.0276C15.7514 16.9243 15.6998 16.8727 15.5965 16.8211C14.2027 16.0984 13.48 17.7503 13.893 18.8344C14.0995 19.4539 14.5641 19.8152 15.1319 19.9185ZM10.4858 20.0217C10.4858 20.0733 10.4858 20.0733 10.4858 20.0733V20.2282C10.4858 20.4863 10.8472 20.4863 10.8472 20.2282V20.0733C10.8472 20.0217 10.7956 19.9701 10.6923 19.9185C10.7267 19.9185 10.7439 19.9013 10.7439 19.8669C10.7784 19.8669 10.7956 19.8669 10.7956 19.8669C11.1053 19.8669 11.1053 19.4023 10.7956 19.4539C10.5374 19.4539 10.3826 19.5055 10.2793 19.7636C10.2277 19.9185 10.3826 20.0217 10.4858 20.0217ZM10.7956 20.6412C10.4858 20.6412 10.4342 21.0026 10.5891 21.2091C10.5891 21.2091 10.5891 21.2263 10.5891 21.2607C10.5891 21.3123 10.5891 21.3123 10.5891 21.4156C10.6407 21.4156 10.6923 21.4156 10.7439 21.4156C10.7956 21.3639 10.7956 21.3639 10.8472 21.3123C10.8816 21.2779 10.8988 21.2607 10.8988 21.2607C11.2085 21.1575 11.2085 20.6412 10.7956 20.6412Z" fill="#F5F2EB"/>
</g>
<g style="mix-blend-mode:multiply">
<path d="M13.5316 21.209C14.0479 21.1574 14.4092 21.3639 14.7706 21.7253C14.7362 21.8285 14.719 21.9318 14.719 22.035C14.5469 22.6201 14.3232 23.0847 14.0479 23.4288C13.6865 23.7386 13.2735 23.9967 12.8089 24.0483C12.3443 24.1516 12.0346 23.8418 11.8797 23.4288C11.8281 23.3256 11.8281 23.1707 11.8281 23.0158C11.9829 22.861 12.0862 22.6545 12.0862 22.3964C12.0862 22.2587 12.0346 22.1554 11.9313 22.0866C11.9657 22.0522 11.9829 22.0178 11.9829 21.9834C12.0862 21.9317 12.1378 21.8801 12.0862 21.7769C12.2238 21.6048 12.3787 21.4843 12.5508 21.4155C12.654 21.4671 12.7573 21.4671 12.8605 21.4155C12.9122 21.4155 12.9122 21.3639 12.9638 21.3639C13.0154 21.3639 13.067 21.3639 13.1186 21.3639C13.3251 21.4155 13.4284 21.3123 13.5316 21.209Z" fill="#F5F2EB"/>
</g>
<g style="mix-blend-mode:multiply">
<path d="M8.16278 17.1307C7.9907 17.0619 7.81862 16.9758 7.64655 16.8726C7.74979 16.5629 7.90466 16.2703 8.11116 15.995V16.0982C8.11116 16.6145 8.93713 16.6145 8.93713 16.0982V15.9434C8.93713 15.582 8.62739 15.4788 8.36927 15.582C8.6446 15.2034 8.95434 14.8249 9.2985 14.4463C9.40174 14.5495 9.47058 14.6356 9.50499 14.7044C9.40174 15.1174 9.55662 15.582 10.0212 15.6852C10.1245 16.2015 9.86635 16.7177 9.40174 17.0275C9.092 16.6145 8.4209 16.7177 8.16278 17.1307Z" fill="#F5F2EB"/>
</g>
<path d="M16.3709 16.6661C21.0686 16.408 24.7339 19.97 22.8238 23.0674C20.9138 26.1132 17.2485 28.4878 13.2219 26.9908C10.7956 26.1132 8.62738 24.7193 7.59491 23.0674C6.87219 21.9317 6.71732 20.6411 7.38842 19.3505C7.49167 19.97 7.74978 20.6239 8.16277 21.3122C10.1761 24.7193 13.7897 25.6486 14.7189 22.0349C15.5965 18.4213 15.0287 17.1307 16.3709 16.6661Z" fill="#CF3D12"/>
<path style="mix-blend-mode:multiply" d="M14.6157 18.1632C18.0228 15.995 22.1011 16.3047 23.753 18.9375C25.4566 21.5187 24.0628 25.3904 20.7073 27.5586C17.3517 29.7268 13.2735 29.3654 11.5699 26.7843C9.91797 24.1515 11.2602 20.3313 14.6157 18.1632Z" fill="url(#paint2_radial_1_440)"/>
<path style="mix-blend-mode:screen" d="M13.2219 12.175C16.5774 10.0068 20.5008 10.0584 21.9462 12.3299C23.3917 14.6013 21.843 18.2149 18.4875 20.3831C15.132 22.5513 11.2086 22.4481 9.76312 20.1766C8.31767 17.9568 9.81474 14.3432 13.2219 12.175Z" fill="url(#paint3_radial_1_440)"/>
<path style="mix-blend-mode:screen" d="M12.7572 23.945C15.8547 26.4746 17.6098 29.4688 16.5774 30.7077C15.5965 31.8951 12.2926 30.811 9.19523 28.2814C6.09782 25.7519 4.39425 22.7061 5.3751 21.5188C6.35594 20.3314 9.65984 21.4155 12.7572 23.945Z" fill="url(#paint4_radial_1_440)"/>
<path style="mix-blend-mode:screen" d="M15.4417 24.9776C19.4167 25.1841 22.6173 26.578 22.5141 28.1267C22.4625 29.727 19.1586 30.8111 15.1319 30.6046C11.1569 30.4497 7.95628 29.0043 8.05953 27.4556C8.11115 25.9069 11.4151 24.7711 15.4417 24.9776Z" fill="url(#paint5_radial_1_440)"/>
<path style="mix-blend-mode:screen" d="M17.7131 24.1516C21.2235 21.622 24.8371 20.6412 25.7147 21.9318C26.6439 23.1708 24.5274 26.2682 20.9654 28.7461C17.455 31.224 13.8413 32.2565 12.9637 30.9659C12.0345 29.6753 14.2027 26.6295 17.7131 24.1516Z" fill="url(#paint6_radial_1_440)"/>
<path style="mix-blend-mode:screen" d="M28.967 20.5379C29.2251 24.8743 27.5216 28.4879 25.0436 28.6428C22.6173 28.8493 20.3459 25.4938 20.0878 21.1574C19.7781 16.821 21.5333 13.2074 23.9596 13.0525C26.4375 12.8976 28.6573 16.2532 28.967 20.5379Z" fill="url(#paint7_radial_1_440)"/>
<path style="mix-blend-mode:screen" d="M22.0495 11.3489C26.231 12.5362 29.0187 15.4271 28.2959 17.8018C27.6248 20.1765 23.7014 21.1057 19.5199 19.8668C15.3901 18.6278 12.6024 15.7369 13.2735 13.3622C13.9962 10.9875 17.9196 10.1099 22.0495 11.3489Z" fill="url(#paint8_radial_1_440)"/>
<path d="M24.7339 31.3787C25.9213 32.8241 25.6631 35.1988 24.2693 36.4894C23.082 34.9923 23.3401 32.6176 24.7339 31.3787C25.0953 31.7916 24.3209 31.74 24.7339 31.3787Z" fill="#FFFDFA"/>
<path d="M26.7988 34.2697C24.579 32.6178 23.9596 29.1073 25.4566 26.7327C27.7281 28.4362 28.3476 31.895 26.7988 34.2697C27.3151 33.547 26.1277 33.7535 26.7988 34.2697Z" fill="#FFFDFA"/>
<path d="M25.7664 30.0881C24.3209 32.2563 21.1203 33.0307 18.8488 31.7401C20.2943 29.5719 23.495 28.7975 25.7664 30.0881C25.3018 30.7592 25.0437 29.6751 25.7664 30.0881Z" fill="#FFFDFA"/>
<path d="M27.8313 24.4612C28.1411 26.4745 26.6956 28.6427 24.7339 29.1073C24.3726 27.094 25.818 24.9258 27.8313 24.4612C27.9346 25.1323 27.2118 24.6161 27.8313 24.4612Z" fill="#FFFDFA"/>
<path d="M23.9079 33.2887C23.2885 35.9732 20.3975 37.8832 17.6615 37.4186C18.3326 34.7342 21.2235 32.8241 23.9079 33.2887C23.7531 34.1147 23.082 33.1339 23.9079 33.2887Z" fill="#FFFDFA"/>
<path d="M13.5832 8.76785C14.8738 7.3224 17.3517 7.06428 18.9004 8.30324C17.6098 9.7487 15.1319 9.95519 13.5832 8.76785C14.0478 9.12922 13.9962 8.30324 13.5832 8.76785Z" fill="#FFFDFA"/>
<path d="M18.9005 32.3596C19.1586 34.2181 17.8164 36.1797 16.0096 36.5411C15.6998 34.6827 17.042 32.7726 18.9005 32.3596C18.9521 32.9275 18.3326 32.4629 18.9005 32.3596Z" fill="#FFFDFA"/>
<path d="M18.0745 32.2048C16.6807 34.373 13.48 35.0957 11.2602 33.8051C12.7056 31.6369 15.8547 30.9142 18.0745 32.2048C17.6615 32.8759 17.4034 31.7918 18.0745 32.2048Z" fill="#FFFDFA"/>
<path d="M7.18195 29.6235C9.09201 29.5719 10.8988 31.1722 11.1053 33.0823C9.19526 33.1339 7.38844 31.5336 7.18195 29.6235C7.80143 29.6235 7.23357 30.243 7.18195 29.6235Z" fill="#FFFDFA"/>
<path d="M7.5433 31.5853C5.52998 31.9983 3.31018 30.5528 2.79395 28.5395C4.85888 28.1782 7.07869 29.572 7.5433 31.5853C7.38843 30.9658 6.92382 31.7402 7.5433 31.5853Z" fill="#FFFDFA"/>
<path d="M27.5216 23.5836C26.3859 21.9833 26.6956 19.5053 28.1927 18.2664C29.38 19.8667 29.0703 22.3446 27.5216 23.5836C27.9862 23.2222 27.1602 23.119 27.5216 23.5836Z" fill="#FFFDFA"/>
<path d="M20.604 8.9743C19.6232 10.7811 17.1453 11.5555 15.2868 10.6779C16.2677 8.87106 18.7456 8.0967 20.604 8.9743C20.2943 9.54216 20.0362 8.71618 20.604 8.9743Z" fill="#FFFDFA"/>
<path d="M28.7605 11.5555C26.6956 12.6396 23.8563 11.9169 22.669 9.90355C24.7339 8.81946 27.5216 9.5938 28.7605 11.5555C28.3992 10.936 28.1411 11.9169 28.7605 11.5555Z" fill="#FFFDFA"/>
<path d="M19.8297 9.23218C21.9462 9.54192 23.7014 11.6069 23.5466 13.775C21.43 13.5169 19.6748 11.4004 19.8297 9.23218C20.5008 9.33542 19.7781 9.90328 19.8297 9.23218Z" fill="#FFFDFA"/>
<path d="M26.3858 12.2781C28.1927 13.7752 28.6056 16.7177 27.2634 18.6278C25.4566 17.1307 25.0436 14.1881 26.3858 12.2781C26.9537 12.7427 25.9728 12.8976 26.3858 12.2781Z" fill="#FFFDFA"/>
<path d="M8.11117 27.7135C5.94298 28.1781 3.51668 26.681 2.94882 24.4612C5.16863 24.0482 7.54331 25.5453 8.11117 27.7135C7.95629 27.0424 7.44006 27.8684 8.11117 27.7135Z" fill="#FFFDFA"/>
<path d="M2.53584 24.4095C2.27773 22.4478 3.72318 20.4861 5.63325 20.1248C5.89137 22.0348 4.44591 23.9965 2.53584 24.4095C3.15533 24.2546 2.48422 23.79 2.53584 24.4095Z" fill="#FFFDFA"/>
<path d="M2.43256 16.0981C4.29101 16.6144 5.52997 18.6277 5.16861 20.4861C3.31016 20.0215 2.0712 17.9566 2.43256 16.0981C3.00042 16.253 2.32932 16.666 2.43256 16.0981Z" fill="#FFFDFA"/>
<path d="M6.56246 15.0658C6.04622 13.0525 7.23356 10.7295 9.19525 10.0583C9.76311 12.0717 8.52415 14.3947 6.56246 15.0658C7.18194 14.8593 6.40759 14.4463 6.56246 15.0658Z" fill="#FFFDFA"/>
<path d="M13.7381 7.11572C14.2027 9.12904 12.8605 11.4005 10.8988 11.9683C10.4342 9.95502 11.7764 7.68358 13.7381 7.11572C13.893 7.7352 13.1186 7.27059 13.7381 7.11572Z" fill="#FFFDFA"/>
<path d="M3.51669 9.33544C5.32351 7.52862 8.57579 7.477 10.4342 9.12895C8.62741 10.9358 5.42676 11.039 3.51669 9.33544C4.08455 9.85167 4.08455 8.76758 3.51669 9.33544Z" fill="#FFFDFA"/>
<path d="M10.8988 7.89014C11.4151 10.0583 10.0728 12.4846 7.95629 13.1557C7.44005 10.9875 8.78226 8.56124 10.8988 7.89014C11.0537 8.56124 10.2277 8.09663 10.8988 7.89014Z" fill="#FFFDFA"/>
<path d="M6.35597 10.4197C7.64655 12.846 6.76896 16.2015 4.4459 17.6986C3.10369 15.2723 4.03291 11.8651 6.35597 10.4197C6.76896 11.194 5.63324 10.8843 6.35597 10.4197Z" fill="#FFFDFA"/>
<path style="mix-blend-mode:screen" d="M20.3459 7.11585C11.828 5.92851 5.11699 3.65709 5.32349 2.05676C5.5816 0.404812 12.654 0.0434416 21.1719 1.17916C29.6897 2.3665 36.4524 4.63794 36.1943 6.23826C35.9878 7.89021 28.9154 8.25157 20.3459 7.11585Z" fill="url(#paint9_radial_1_440)"/>
<path style="mix-blend-mode:screen" d="M25.818 6.23844C21.2752 5.30922 17.8164 3.76051 18.0229 2.72804C18.1778 1.69557 22.0495 1.5407 26.5924 2.46992C31.0836 3.34752 34.594 4.89623 34.3875 5.9287C34.181 7.01279 30.3609 7.11604 25.818 6.23844Z" fill="url(#paint10_radial_1_440)"/>
<path style="mix-blend-mode:screen" d="M28.5541 21.8288C28.2959 11.7622 29.5865 3.55406 31.4966 3.50244C33.355 3.45082 35.0586 11.6073 35.3167 21.6739C35.5749 31.7405 34.2843 39.9486 32.4258 40.0002C30.5674 40.0002 28.8122 31.8953 28.5541 21.8288Z" fill="url(#paint11_radial_1_440)"/>
<path style="mix-blend-mode:screen" d="M30.1027 12.8979C29.9995 7.73555 30.8255 3.50243 31.9612 3.50243C33.0969 3.4508 34.1294 7.6323 34.2842 12.7946C34.4391 17.957 33.6131 22.1385 32.4774 22.1901C31.2901 22.1901 30.2576 18.0602 30.1027 12.8979Z" fill="url(#paint12_radial_1_440)"/>
<path style="mix-blend-mode:screen" d="M26.2826 9.07762C24.4242 5.7221 24.6307 2.00521 26.8505 0.766247C29.0703 -0.472715 32.3742 1.28248 34.2326 4.638C36.1427 7.99353 35.8846 11.762 33.6648 13.001C31.4966 14.1883 28.1927 12.4848 26.2826 9.07762Z" fill="url(#paint13_radial_1_440)"/>
<g style="mix-blend-mode:screen">
<path d="M39.9112 29.7785C39.808 31.6369 39.6531 33.4954 39.5498 35.3538C40.1177 35.0957 40.7372 34.8376 41.305 34.5279C42.0278 34.1837 42.7161 33.7707 43.37 33.2889C44.0411 32.7726 44.6606 32.2564 45.2284 31.6369C45.7963 31.0691 46.2609 30.398 46.6222 29.6236C46.2093 31.2756 45.1252 32.721 43.783 33.8051C43.1635 34.373 42.4408 34.8376 41.6664 35.2506C40.9953 35.6635 40.2726 35.9733 39.4982 36.283C39.4294 37.2467 39.3778 38.2103 39.3433 39.174H39.1885C39.0852 38.2103 38.9992 37.2295 38.9304 36.2314C37.6914 35.199 36.4008 34.1665 35.0586 33.2373C34.3875 32.7727 33.6648 32.308 32.942 31.9983C32.5807 31.7918 32.2193 31.6369 31.8063 31.6369C31.445 31.5853 30.9804 31.6886 30.7739 32.1015C30.8771 31.8951 30.9804 31.6886 31.1868 31.5853C31.3417 31.4304 31.5998 31.4304 31.8063 31.3788C32.2709 31.3788 32.6839 31.4821 33.0969 31.5853C33.9229 31.8434 34.6456 32.2048 35.42 32.6694C36.6589 33.3921 37.7946 34.2181 38.8787 35.0957C38.8099 33.3061 38.8099 31.4993 38.8787 29.6752C37.6398 28.746 36.4008 27.8684 35.1102 27.0941C34.4391 26.6811 33.7164 26.3197 32.942 26.01C32.5807 25.8551 32.1677 25.7519 31.8063 25.7519C31.3933 25.7519 31.032 25.9067 30.7739 26.2681C30.9287 25.8551 31.3417 25.597 31.7547 25.5454C32.2193 25.4421 32.6323 25.5454 33.0453 25.597C33.9229 25.8035 34.6972 26.1132 35.42 26.5262C36.6589 27.0941 37.7946 27.8684 38.9304 28.6428C38.9992 26.8187 39.1369 24.9947 39.3433 23.1707C38.0528 22.448 36.7622 21.7252 35.42 21.1057C34.6456 20.796 33.9229 20.4863 33.1485 20.383C32.7872 20.2798 32.3742 20.2798 32.0128 20.4863C31.7031 20.6411 31.5482 21.0541 31.4966 21.4155C31.445 21.0541 31.5482 20.5379 31.9096 20.2798C32.2709 20.0217 32.7356 19.9184 33.1485 19.9184C34.0261 19.97 34.8521 20.1765 35.6265 20.4863C36.9687 20.9509 38.2076 21.5704 39.4466 22.2931C39.6531 20.5379 39.8596 18.8343 40.0144 17.1308C38.7239 16.2015 37.33 15.3756 35.833 14.7561C35.1102 14.4463 34.3359 14.1882 33.5615 14.1366C33.1485 14.085 32.7356 14.1366 32.3742 14.2398C31.9612 14.3947 31.6515 14.7045 31.4966 15.0658C31.6515 14.7045 31.9096 14.3431 32.3226 14.1882C32.6839 13.9817 33.1485 13.9301 33.5615 13.9301C34.3875 13.9301 35.2135 14.1366 35.9878 14.3947C37.4333 14.8593 38.7755 15.4788 40.0661 16.2015C40.1005 15.7885 40.1349 15.3755 40.1693 14.9626C40.1693 13.6204 40.1693 12.2782 39.9628 10.9359C39.9284 10.8327 39.894 10.695 39.8596 10.5229C38.1044 9.90346 36.2976 9.3356 34.4907 8.92262C33.6131 8.71612 32.6839 8.56126 31.7547 8.50963C31.2901 8.50963 30.8255 8.50963 30.4125 8.6645C29.9995 8.81937 29.5865 9.12912 29.4833 9.59373C29.4833 9.12912 29.8446 8.6645 30.3092 8.40638C30.7222 8.19989 31.2385 8.04502 31.7547 7.9934C32.7355 7.94178 33.7164 8.04502 34.6456 8.19989C35.6265 8.35476 36.5557 8.56126 37.4849 8.87101C38.2076 9.0775 38.9476 9.31841 39.7047 9.59373C39.4466 8.76775 39.1368 7.9934 38.7239 7.27068C38.3625 6.70282 37.9495 6.2382 37.4849 5.82521C37.3817 5.72196 37.2268 5.67034 37.1235 5.56709L36.7622 5.3606C35.2135 5.41223 33.6131 5.46385 32.1161 5.67035C31.2901 5.73918 30.4641 5.87683 29.6381 6.08333C28.8122 6.2382 28.0378 6.44469 27.2635 6.85768C27.8829 6.2382 28.6573 5.82522 29.4833 5.51548C30.3092 5.20574 31.1352 4.99924 31.9612 4.84437C32.8216 4.70671 33.682 4.62067 34.5424 4.58625C34.8521 4.58625 35.1619 4.58625 35.4716 4.58625C34.4391 4.07002 33.355 3.65703 32.2193 3.34729C31.9096 3.24405 31.5482 3.1408 31.1868 3.03755C30.6018 3.07196 30.0339 3.10639 29.4833 3.1408C28.6057 3.24405 27.7281 3.29568 26.8505 3.45055C25.9729 3.60542 25.1469 3.8119 24.3726 4.12164C23.5982 4.43138 22.7722 4.94762 22.669 5.87684C22.5657 5.46385 22.7206 4.94762 23.0303 4.58625C23.2885 4.17326 23.7014 3.86353 24.1144 3.60541C24.9404 3.1408 25.818 2.88269 26.6956 2.67619C27.2118 2.57295 27.7109 2.48691 28.1927 2.41808C27.0226 2.246 25.8524 2.10833 24.6823 2.00508C23.7014 2.10833 22.7722 2.26319 21.843 2.46969C21.1203 2.62456 20.3976 2.88269 19.6748 3.19243C19.0037 3.55379 18.3842 3.96678 17.9712 4.6895C18.1261 3.86353 18.7456 3.19242 19.4167 2.72781C20.0362 2.31482 20.7073 2.00508 21.43 1.74696C20.5696 1.71255 19.7092 1.67814 18.8488 1.64373C18.0229 1.78139 17.1969 1.95347 16.3709 2.15996C15.5449 2.36645 14.719 2.62456 13.9962 2.98592C13.2735 3.34729 12.4992 3.81191 12.2927 4.6895C12.241 4.22489 12.3959 3.76028 12.654 3.39892C12.9638 3.03755 13.3251 2.72781 13.6865 2.46969C14.2027 2.10832 14.719 1.85022 15.2868 1.64373C14.7706 1.64373 14.2716 1.66092 13.7898 1.69534C12.6024 1.85021 11.4667 2.05671 10.3826 2.36645C9.40176 2.62457 8.47254 2.98592 7.69819 3.50216C6.92384 4.01839 6.35598 4.84437 6.45923 5.87684C6.25273 5.41223 6.25273 4.84437 6.4076 4.32813C6.56247 3.8119 6.92384 3.34729 7.33682 2.98592C7.9563 2.46969 8.67903 2.05671 9.40176 1.79859C9.0576 1.79859 8.71345 1.8158 8.36929 1.85022V1.69534C10.8472 1.21352 13.3423 0.869362 15.8547 0.662868C15.7514 0.525206 15.6138 0.404761 15.4417 0.301514C15.6482 0.353137 15.8547 0.404761 16.0096 0.559631C16.044 0.594046 16.0784 0.628453 16.1128 0.662868C17.4894 0.559621 18.8833 0.490793 20.2943 0.456378C20.1222 0.387546 19.9674 0.335929 19.8297 0.301514C20.1394 0.301514 20.4492 0.301504 20.7589 0.404751C20.7933 0.439167 20.845 0.456378 20.9138 0.456378C21.9463 0.490793 22.9959 0.525215 24.0628 0.559631C23.8219 0.4908 23.581 0.404761 23.3401 0.301514C23.9079 0.301514 24.4758 0.404761 25.0437 0.559631C25.1813 0.594046 25.3362 0.645663 25.5083 0.714495C27.5732 0.920988 29.5865 1.28236 31.5998 1.90184C31.5998 1.7986 31.5482 1.74697 31.5482 1.64373C31.3417 1.28236 31.0836 0.972609 30.7739 0.662868C31.1868 0.817738 31.5482 1.07587 31.9096 1.38561C32.0472 1.55769 32.1677 1.74696 32.2709 1.95345C32.3053 1.98787 32.3226 2.0395 32.3226 2.10833C32.4258 2.14275 32.5291 2.15996 32.6323 2.15996C33.9229 2.62457 35.2135 3.19243 36.4008 3.91515C36.6073 4.07002 36.8654 4.22489 37.1235 4.37976C37.158 4.31093 37.1924 4.2421 37.2268 4.17327C37.33 3.96678 37.4161 3.74307 37.4849 3.50216C37.6398 2.98592 37.5881 2.46969 37.33 1.95345C37.743 2.36644 37.8979 2.9343 37.8979 3.55378C37.8635 3.82911 37.8119 4.10444 37.743 4.37976C37.7086 4.51742 37.657 4.63788 37.5881 4.74113L37.6398 4.79274C37.7946 4.94761 37.9495 5.05087 38.0528 5.20574C38.6206 5.67035 39.0336 6.28982 39.3433 6.90931C39.808 7.7869 40.0145 8.66451 40.2209 9.59373C40.5307 9.38724 40.8232 9.14633 41.0985 8.87101C41.4771 8.49243 41.8385 8.09664 42.1826 7.68366C42.8021 6.80606 43.2667 5.7736 43.4216 4.6895C43.5248 5.82522 43.2151 6.96093 42.6472 7.9934C42.3375 8.45801 41.9761 8.92263 41.6148 9.38724C41.2018 9.80023 40.7888 10.11 40.3242 10.4713C40.3586 10.609 40.3758 10.7639 40.3758 10.9359C40.5307 12.2782 40.5823 13.6204 40.5823 14.9626C40.5823 15.3755 40.5823 15.7713 40.5823 16.1499C41.133 15.8402 41.6664 15.4788 42.1826 15.0658C42.8537 14.6012 43.4732 14.0333 43.9895 13.4139C45.0735 12.1749 45.9511 10.6778 46.2609 9.02587C46.106 10.6778 45.3833 12.3298 44.3508 13.672C43.8346 14.3603 43.2495 14.997 42.5956 15.582C41.9761 16.1499 41.305 16.6661 40.5307 17.1308C40.5307 18.8859 40.4963 20.6239 40.4274 22.3447C40.9437 22.1726 41.4427 21.9489 41.9245 21.6736C42.6472 21.3295 43.3356 20.9337 43.9895 20.4863C44.6606 20.0217 45.28 19.557 45.8479 18.9892C46.4674 18.4213 46.9836 17.8019 47.4482 17.1308C46.8287 18.6278 45.693 19.97 44.4024 21.0025C43.7313 21.5704 43.0602 21.9833 42.3375 22.3963C41.718 22.7577 41.0469 23.0158 40.3758 23.2739C40.2726 25.1324 40.1521 26.9908 40.0144 28.8493C41.219 28.333 42.3891 27.748 43.5248 27.0941C44.8671 26.3197 46.2093 25.4421 47.1901 24.1515C46.8287 24.8743 46.3125 25.5454 45.7447 26.1132C45.194 26.6983 44.5745 27.2145 43.8862 27.6619C42.6472 28.5395 41.305 29.2106 39.9112 29.7785Z" fill="#994F2E"/>
</g>
<defs>
<linearGradient id="paint0_linear_1_440" x1="0.212781" y1="-5.99657" x2="30.3092" y2="-5.37709" gradientUnits="userSpaceOnUse">
<stop offset="0.1" stop-color="#A9B55B"/>
<stop offset="1"/>
</linearGradient>
<radialGradient id="paint1_radial_1_440" cx="0" cy="0" r="1" gradientUnits="userSpaceOnUse" gradientTransform="translate(17.9712 15.582) scale(17.2422 17.2422)">
<stop offset="0.1" stop-color="#A9B55B"/>
<stop offset="0.2" stop-color="#6E763B"/>
<stop offset="0.3" stop-color="#4B5128"/>
<stop offset="0.5" stop-color="#33371B"/>
<stop offset="0.6" stop-color="#1E2010"/>
<stop offset="0.8" stop-color="#0A0B05"/>
<stop offset="1"/>
</radialGradient>
<radialGradient id="paint2_radial_1_440" cx="0" cy="0" r="1" gradientUnits="userSpaceOnUse" gradientTransform="translate(17.6615 22.8609) scale(4.95585)">
<stop stop-color="#E87C4F"/>
<stop offset="0.2" stop-color="#EB8B63"/>
<stop offset="0.5" stop-color="#F6CBBA"/>
<stop offset="0.6" stop-color="#F9E0D6"/>
<stop offset="0.8" stop-color="#FDF6F3"/>
<stop offset="1" stop-color="white"/>
</radialGradient>
<radialGradient id="paint3_radial_1_440" cx="0" cy="0" r="1" gradientUnits="userSpaceOnUse" gradientTransform="translate(15.8547 16.3049) scale(4.43961)">
<stop stop-color="#DF7548"/>
<stop offset="0.4" stop-color="#83452A"/>
<stop offset="0.6" stop-color="#4D2819"/>
<stop offset="0.8" stop-color="#1D0F09"/>
<stop offset="1"/>
</radialGradient>
<radialGradient id="paint4_radial_1_440" cx="0" cy="0" r="1" gradientUnits="userSpaceOnUse" gradientTransform="translate(11.0021 26.1132) scale(2.47792 2.47792)">
<stop stop-color="#DF7548"/>
<stop offset="0.4" stop-color="#83452A"/>
<stop offset="0.6" stop-color="#4D2819"/>
<stop offset="0.8" stop-color="#1D0F09"/>
<stop offset="1"/>
</radialGradient>
<radialGradient id="paint5_radial_1_440" cx="0" cy="0" r="1" gradientUnits="userSpaceOnUse" gradientTransform="translate(15.2868 27.8169) scale(2.63279 2.63279)">
<stop stop-color="#DF7548"/>
<stop offset="0.4" stop-color="#83452A"/>
<stop offset="0.6" stop-color="#4D2819"/>
<stop offset="0.8" stop-color="#1D0F09"/>
<stop offset="1"/>
</radialGradient>
<radialGradient id="paint6_radial_1_440" cx="0" cy="0" r="1" gradientUnits="userSpaceOnUse" gradientTransform="translate(19.3134 26.423) scale(2.47792)">
<stop stop-color="#DF7548"/>
<stop offset="0.4" stop-color="#83452A"/>
<stop offset="0.6" stop-color="#4D2819"/>
<stop offset="0.8" stop-color="#1D0F09"/>
<stop offset="1"/>
</radialGradient>
<radialGradient id="paint7_radial_1_440" cx="0" cy="0" r="1" gradientUnits="userSpaceOnUse" gradientTransform="translate(24.5274 20.8477) scale(4.1815 4.1815)">
<stop stop-color="#DF7548"/>
<stop offset="0.4" stop-color="#83452A"/>
<stop offset="0.6" stop-color="#4D2819"/>
<stop offset="0.8" stop-color="#1D0F09"/>
<stop offset="1"/>
</radialGradient>
<radialGradient id="paint8_radial_1_440" cx="0" cy="0" r="1" gradientUnits="userSpaceOnUse" gradientTransform="translate(20.8105 15.582) scale(3.87176)">
<stop stop-color="#DF7548"/>
<stop offset="0.4" stop-color="#83452A"/>
<stop offset="0.6" stop-color="#4D2819"/>
<stop offset="0.8" stop-color="#1D0F09"/>
<stop offset="1"/>
</radialGradient>
<radialGradient id="paint9_radial_1_440" cx="0" cy="0" r="1" gradientUnits="userSpaceOnUse" gradientTransform="translate(20.7589 4.12169) scale(2.63279)">
<stop stop-color="#DF7548"/>
<stop offset="0.4" stop-color="#83452A"/>
<stop offset="0.6" stop-color="#4D2819"/>
<stop offset="0.8" stop-color="#1D0F09"/>
<stop offset="1"/>
</radialGradient>
<radialGradient id="paint10_radial_1_440" cx="0" cy="0" r="1" gradientUnits="userSpaceOnUse" gradientTransform="translate(26.1794 4.32837) scale(1.70357 1.70358)">
<stop offset="0.1" stop-color="#B05D39"/>
<stop offset="0.3" stop-color="#83452A"/>
<stop offset="0.5" stop-color="#4D2819"/>
<stop offset="0.7" stop-color="#1D0F09"/>
<stop offset="1"/>
</radialGradient>
<radialGradient id="paint11_radial_1_440" cx="0" cy="0" r="1" gradientUnits="userSpaceOnUse" gradientTransform="translate(31.9612 21.7255) scale(3.20065)">
<stop stop-color="#DF7548"/>
<stop offset="0.4" stop-color="#83452A"/>
<stop offset="0.6" stop-color="#4D2819"/>
<stop offset="0.8" stop-color="#1D0F09"/>
<stop offset="1"/>
</radialGradient>
<radialGradient id="paint12_radial_1_440" cx="0" cy="0" r="1" gradientUnits="userSpaceOnUse" gradientTransform="translate(32.2193 12.8463) scale(1.96169)">
<stop stop-color="#DF7548"/>
<stop offset="0.4" stop-color="#83452A"/>
<stop offset="0.6" stop-color="#4D2819"/>
<stop offset="0.8" stop-color="#1D0F09"/>
<stop offset="1"/>
</radialGradient>
<radialGradient id="paint13_radial_1_440" cx="0" cy="0" r="1" gradientUnits="userSpaceOnUse" gradientTransform="translate(30.2576 6.85781) scale(4.07825 4.07825)">
<stop stop-color="#FF8652"/>
<stop offset="0.2" stop-color="#DF7548"/>
<stop offset="0.4" stop-color="#83452A"/>
<stop offset="0.6" stop-color="#4D2819"/>
<stop offset="0.8" stop-color="#1D0F09"/>
<stop offset="1"/>
</radialGradient>
</defs>
</svg>
