<svg width="67" height="40" viewBox="0 0 67 40" fill="none" xmlns="http://www.w3.org/2000/svg">
<path fill-rule="evenodd" clip-rule="evenodd" d="M33.6486 0C51.5635 0 66.1167 5.57447 66.1167 12.4681C66.1167 12.7801 66.0883 13.078 66.0316 13.3617C64.8401 19.8298 50.7976 24.9362 33.6486 24.9362C16.4571 24.9362 2.41457 19.8298 1.22308 13.3617C1.16634 13.078 1.13797 12.7801 1.13797 12.4681C1.13797 5.57447 15.6912 0 33.6486 0ZM63.9039 14.5532C64.3295 13.8156 64.5422 13.0638 64.5422 12.2979C64.5422 5.95745 50.6699 0.851064 33.6486 0.851064C16.5848 0.851064 2.755 5.95745 2.755 12.2979C2.755 13.7872 3.52096 15.1915 4.88266 16.5106C9.43585 20.7234 20.5848 23.7447 33.6486 23.7447C48.5848 23.7447 61.0954 19.7872 63.9039 14.5532Z" fill="#CEBBAA"/>
<path style="mix-blend-mode:screen" fill-rule="evenodd" clip-rule="evenodd" d="M33.6486 0C51.5635 0 66.1167 5.57447 66.1167 12.4681C66.1167 12.7801 66.0883 13.078 66.0316 13.3617C64.8401 19.8298 50.7976 24.9362 33.6486 24.9362C16.4571 24.9362 2.41457 19.8298 1.22308 13.3617C1.16634 13.078 1.13797 12.7801 1.13797 12.4681C1.13797 5.57447 15.6912 0 33.6486 0ZM63.9039 14.5532C64.3295 13.8156 64.5422 13.0638 64.5422 12.2979C64.5422 5.95745 50.6699 0.851064 33.6486 0.851064C16.5848 0.851064 2.755 5.95745 2.755 12.2979C2.755 13.7872 3.52096 15.1915 4.88266 16.5106C9.43585 20.7234 20.5848 23.7447 33.6486 23.7447C48.5848 23.7447 61.0954 19.7872 63.9039 14.5532Z" fill="url(#paint0_linear_1_1303)"/>
<path d="M33.6486 38.5532C39.4359 38.5532 44.7976 36.9788 49.3933 34.5532C47.6061 37.6596 41.2231 40 33.6486 40C26.2018 40 19.9465 37.7873 18.0316 34.766C22.5422 37.0639 27.7763 38.5532 33.6486 38.5532Z" fill="#5D251D"/>
<path d="M63.9039 14.5532C63.4358 13.7872 61.9465 12.8085 61.521 12.6383C59.9039 11.9575 58.2869 11.4043 56.6699 10.7234C55.8188 10.3404 55.0529 9.70214 54.2018 9.36171C53.2231 8.97873 51.8188 9.10639 50.7976 9.14895C49.521 9.23405 48.2444 9.31916 46.9678 9.57448C46.0316 9.74469 44.9678 10.1702 44.0316 10.0851C42.6699 9.95746 41.5635 8.68086 40.1593 8.34044C39.0954 8.12767 37.9465 8.08512 36.8826 7.95746C35.7337 7.8298 35.1805 7.48937 34.2443 6.93618C32.4997 5.9149 30.3295 5.10639 28.2869 5.23405C26.9252 5.27661 25.6486 5.74469 24.2444 5.78724C23.521 5.78724 22.7124 5.74469 21.9465 5.87235C19.4784 6.21278 16.6699 5.87235 14.2869 6.59576C12.6273 7.10639 11.138 8.72342 9.86137 9.8298C7.90393 11.5319 4.96777 13.6596 4.92521 16.5106H4.88266C3.52095 15.1915 2.755 13.7872 2.755 12.2979C2.755 5.95746 16.5848 0.851074 33.6486 0.851074C50.6699 0.851074 64.5422 5.95746 64.5422 12.2979C64.5422 13.0638 64.3295 13.8156 63.9039 14.5532Z" fill="#B39C82"/>
<path style="mix-blend-mode:multiply" d="M63.9039 14.5532C63.4358 13.7872 61.9465 12.8085 61.521 12.6383C59.9039 11.9575 58.2869 11.4043 56.6699 10.7234C55.8188 10.3404 55.0529 9.70214 54.2018 9.36171C53.2231 8.97873 51.8188 9.10639 50.7976 9.14895C49.521 9.23405 48.2444 9.31916 46.9678 9.57448C46.0316 9.74469 44.9678 10.1702 44.0316 10.0851C42.6699 9.95746 41.5635 8.68086 40.1593 8.34044C39.0954 8.12767 37.9465 8.08512 36.8826 7.95746C35.7337 7.8298 35.1805 7.48937 34.2443 6.93618C32.4997 5.9149 30.3295 5.10639 28.2869 5.23405C26.9252 5.27661 25.6486 5.74469 24.2444 5.78724C23.521 5.78724 22.7124 5.74469 21.9465 5.87235C19.4784 6.21278 16.6699 5.87235 14.2869 6.59576C12.6273 7.10639 11.138 8.72342 9.86137 9.8298C7.90393 11.5319 4.96777 13.6596 4.92521 16.5106H4.88266C3.52095 15.1915 2.755 13.7872 2.755 12.2979C2.755 5.95746 16.5848 0.851074 33.6486 0.851074C50.6699 0.851074 64.5422 5.95746 64.5422 12.2979C64.5422 13.0638 64.3295 13.8156 63.9039 14.5532Z" fill="url(#paint1_linear_1_1303)"/>
<path d="M33.6486 24.9363C50.7976 24.9363 64.8401 19.8299 66.0316 13.3618L66.1167 13.4044C66.1167 19.532 59.5635 29.1491 49.3933 34.5533C44.7976 36.9788 39.4358 38.5533 33.6486 38.5533C27.7763 38.5533 22.5422 37.0639 18.0316 34.7661C7.5635 29.4044 1.13797 19.6171 1.13797 13.4044L1.22308 13.3618C2.41457 19.8299 16.4571 24.9363 33.6486 24.9363Z" fill="#7D3939"/>
<path style="mix-blend-mode:screen" d="M17.8188 33.7873C14.7975 32.3831 6.54222 25.8299 4.32946 19.3618C6.49967 21.0214 11.8614 22.681 15.9039 23.7022C17.8188 29.3193 21.8614 33.9576 26.9678 36.681C23.6486 36.2129 20.5848 35.0639 17.8188 33.7873Z" fill="url(#paint2_linear_1_1303)"/>
<path style="mix-blend-mode:screen" d="M49.6061 33.5744C48.3295 34.1985 46.9819 34.7375 45.5635 35.1914C49.0954 31.5744 51.3082 27.9574 52.8401 23.3616C56.6273 22.3829 60.7124 20.4255 62.8401 18.8936C61.3507 26.3404 50.0316 33.3616 49.6061 33.5744Z" fill="url(#paint3_linear_1_1303)"/>
<path d="M61.521 12.6383C61.9465 12.8085 63.4358 13.7872 63.9039 14.5531C61.0954 19.7872 48.5848 23.7446 33.6486 23.7446C20.5848 23.7446 9.43585 20.7234 4.88266 16.5106H4.92521C4.96777 13.6595 7.90392 11.5319 9.86137 9.82974C11.138 8.72336 12.6273 7.10634 14.2869 6.5957C16.6699 5.8723 19.4784 6.21272 21.9465 5.8723C22.7124 5.74464 23.521 5.78719 24.2444 5.78719C25.6486 5.74464 26.9252 5.27655 28.2869 5.234C30.3295 5.10634 32.4997 5.91485 34.2443 6.93613C35.1805 7.48932 35.7337 7.82974 36.8826 7.9574C37.9465 8.08506 39.0954 8.12762 40.1592 8.34038C41.5635 8.68081 42.6699 9.9574 44.0316 10.0851C44.9677 10.1702 46.0316 9.74464 46.9678 9.57442C48.2444 9.3191 49.521 9.234 50.7975 9.14889C51.8188 9.10634 53.2231 8.97868 54.2018 9.36166C55.0529 9.70208 55.8188 10.3404 56.6699 10.7234C58.2869 11.4042 59.9039 11.9574 61.521 12.6383Z" fill="#E0D1B1"/>
<path d="M57.3082 11.1488C59.1805 10.0424 61.8614 10.5956 63.0954 12.4254C61.2231 13.5318 58.5422 12.9786 57.3082 11.1488C57.8614 10.8084 57.6912 11.702 57.3082 11.1488Z" fill="#EAE2D1"/>
<path d="M57.0529 8.38281C58.4146 9.5743 58.6273 11.8296 57.5209 13.2764C56.1592 12.0849 55.9465 9.78707 57.0529 8.38281C57.4784 8.72324 56.7124 8.80834 57.0529 8.38281Z" fill="#EAE2D1"/>
<path d="M51.6061 9.06366C53.138 7.74451 55.7337 7.82962 57.138 9.23387C55.6061 10.5956 53.0529 10.5105 51.6061 9.06366C52.1167 8.63813 52.0741 9.48919 51.6061 9.06366Z" fill="#EAE2D1"/>
<path d="M54.4146 10.4681C52.5422 10.5958 50.7124 9.06386 50.4571 7.19152C52.372 7.06386 54.2018 8.59578 54.4146 10.4681C54.3295 9.91493 53.8188 10.5107 54.4146 10.4681Z" fill="#EAE2D1"/>
<path d="M51.521 8C50.9678 9.82978 48.8826 11.0638 47.0103 10.6383C47.5635 8.80851 49.6486 7.57447 51.521 8C51.3507 8.55319 50.9678 7.87234 51.521 8Z" fill="#EAE2D1"/>
<path d="M48.4571 11.617C46.2869 11.5319 44.3295 9.53186 44.3295 7.31909C46.4997 7.4042 48.4571 9.44675 48.4571 11.617C48.4571 10.9361 47.7763 11.5744 48.4571 11.617Z" fill="#EAE2D1"/>
<path d="M48.2018 8.89369C46.7976 10.5533 44.0741 10.8511 42.3295 9.53199C43.7337 7.87242 46.4571 7.57454 48.2018 8.89369C47.7337 9.40433 47.6486 8.51071 48.2018 8.89369Z" fill="#EAE2D1"/>
<path d="M44.5848 12.2979C42.8827 10.9788 42.4146 8.34046 43.6061 6.55322C45.3082 7.87237 45.7337 10.5107 44.5848 12.2979C44.9252 11.7447 44.0316 11.8724 44.5848 12.2979Z" fill="#EAE2D1"/>
<path d="M45.3507 10.085C43.6061 10.936 41.2231 10.2552 40.2444 8.55306C41.989 7.65944 44.372 8.38284 45.3507 10.085C45.0529 9.57433 44.7976 10.3403 45.3507 10.085Z" fill="#EAE2D1"/>
<path d="M38.9252 10.851C38.3294 8.89352 39.4358 6.6382 41.3507 5.91479C41.9465 7.82969 40.7975 10.1276 38.9252 10.851C39.4784 10.5956 38.7124 10.2552 38.9252 10.851Z" fill="#EAE2D1"/>
<path d="M39.3082 5.06372C40.6273 6.8084 40.3295 9.57436 38.6699 10.9786C37.3507 9.23393 37.6486 6.46798 39.3082 5.06372C39.7337 5.61691 38.7976 5.48925 39.3082 5.06372Z" fill="#EAE2D1"/>
<path d="M38.0316 6.63821C37.0954 7.95736 35.138 8.38289 33.7763 7.53183C34.6699 6.25523 36.6699 5.8297 38.0316 6.63821C37.7337 7.06374 37.6061 6.38289 38.0316 6.63821Z" fill="#EAE2D1"/>
<path d="M30.8827 7.4043C31.6912 5.78728 33.8188 4.97877 35.4784 5.70217C34.7124 7.31919 32.5422 8.12771 30.8827 7.4043C31.3933 7.61707 31.138 6.93622 30.8827 7.4043Z" fill="#EAE2D1"/>
<path d="M31.4359 8.29776C30.0742 6.93606 30.0741 4.46798 31.3507 3.06372C32.7124 4.46798 32.7124 6.89351 31.4359 8.29776C31.8188 7.87223 31.0103 7.87223 31.4359 8.29776Z" fill="#EAE2D1"/>
<path d="M30.6273 7.19147C28.5848 6.63828 27.1805 4.38296 27.6061 2.29785C29.6486 2.85104 31.0529 5.10636 30.6273 7.19147C30.755 6.55317 29.989 7.02126 30.6273 7.19147Z" fill="#EAE2D1"/>
<path d="M23.6486 5.4892C24.7124 4.2126 26.7975 3.95729 28.1592 4.97856C27.0954 6.25516 25.0103 6.46792 23.6486 5.4892C24.0741 5.78707 23.989 5.10622 23.6486 5.4892Z" fill="#EAE2D1"/>
<path d="M22.6699 4.08497C24.2018 3.65944 25.989 4.55305 26.5422 6.04241C25.0529 6.5105 23.2231 5.57433 22.6699 4.08497C23.138 3.95731 22.8401 4.55305 22.6699 4.08497Z" fill="#EAE2D1"/>
<path d="M20.6273 7.23399C21.3507 5.23399 23.7337 3.99994 25.7763 4.55314C25.0529 6.55314 22.6699 7.78718 20.6273 7.23399C21.2656 7.4042 20.8401 6.63824 20.6273 7.23399Z" fill="#EAE2D1"/>
<path d="M21.0954 2.76587C22.4146 4.21268 22.3295 6.68076 20.9678 8.04247C19.6486 6.59566 19.7337 4.12757 21.0954 2.76587C21.521 3.1914 20.6699 3.1914 21.0954 2.76587Z" fill="#EAE2D1"/>
<path d="M17.6486 8.80838C16.2869 7.31902 16.3295 4.80838 17.6912 3.36157C19.0529 4.80838 19.0103 7.36157 17.6486 8.80838C18.0741 8.3403 17.2231 8.3403 17.6486 8.80838Z" fill="#EAE2D1"/>
<path d="M12.1167 5.91494C13.7763 5.10643 16.0316 5.78728 16.9678 7.36175C15.3082 8.21281 13.0529 7.53196 12.1167 5.91494C12.6273 5.65962 12.4146 6.42558 12.1167 5.91494Z" fill="#EAE2D1"/>
<path d="M11.6486 5.23389C13.5635 5.99984 14.6699 8.38282 14.0316 10.3403C12.1167 9.57431 11.0103 7.19133 11.6486 5.23389C12.2444 5.48921 11.4784 5.82963 11.6486 5.23389Z" fill="#EAE2D1"/>
<path d="M9.77627 6.76587C11.4358 7.65949 12.2018 9.87225 11.3933 11.5744C9.73372 10.6808 9.01032 8.468 9.77627 6.76587C10.2869 7.02119 9.56351 7.27651 9.77627 6.76587Z" fill="#EAE2D1"/>
<path d="M11.0954 10.8935C9.52096 11.5318 7.52095 10.8084 6.75499 9.27652C8.32946 8.63822 10.3295 9.36163 11.0954 10.8935C10.8401 10.4255 10.5848 11.0638 11.0954 10.8935Z" fill="#EAE2D1"/>
<path d="M7.52095 14.468C6.24435 13.4467 5.94648 11.4042 6.88265 10.0425C8.15924 11.0638 8.45712 13.1063 7.52095 14.468C7.81882 14.0425 7.13797 14.1276 7.52095 14.468Z" fill="#EAE2D1"/>
<path d="M7.90394 15.1489C6.24436 15.1064 4.79755 13.617 4.79755 12C6.41457 12.0426 7.86138 13.5319 7.90394 15.1489C7.86138 14.6383 7.3933 15.1489 7.90394 15.1489Z" fill="#EAE2D1"/>
<path d="M5.81882 17.0212C4.2018 16.2978 3.35074 14.2553 3.98903 12.5957C5.5635 13.3191 6.41456 15.3617 5.81882 17.0212C5.98903 16.5106 5.30818 16.8085 5.81882 17.0212Z" fill="#EAE2D1"/>
<path d="M61.138 15.4468C61.1805 13.6595 62.755 12 64.5422 11.8723C64.5422 13.7021 62.9678 15.3617 61.138 15.4468C61.6912 15.4468 61.138 14.8936 61.138 15.4468Z" fill="#EAE2D1"/>
<path d="M59.989 13.6595C60.2869 11.9149 62.0316 10.5532 63.7763 10.7234C63.521 12.4681 61.7337 13.8298 59.989 13.6595C60.5422 13.7021 60.0741 13.1064 59.989 13.6595Z" fill="#EAE2D1"/>
<path d="M58.372 14.9787C58.5422 12.851 60.5422 10.9787 62.6699 11.0212C62.5422 13.1489 60.5422 14.9787 58.372 14.9787C59.0529 14.9787 58.4571 14.2978 58.372 14.9787Z" fill="#EAE2D1"/>
<path d="M56.5848 9.31909C57.8188 10.8936 57.6061 13.4468 56.1167 14.8085C54.8827 13.234 55.0954 10.6808 56.5848 9.31909C56.9678 9.82973 56.1167 9.74462 56.5848 9.31909Z" fill="#EAE2D1"/>
<path d="M58.8826 18.2553C57.7337 16.8085 57.9039 14.5531 59.2656 13.3191C60.4146 14.7233 60.2018 17.0212 58.8826 18.2553C59.2656 17.8723 58.4997 17.7872 58.8826 18.2553Z" fill="#EAE2D1"/>
<path d="M55.0529 18.8937C53.989 17.4043 54.2869 15.1065 55.7337 13.9575C56.755 15.4469 56.4571 17.7448 55.0529 18.8937C55.4784 18.5107 54.7124 18.4256 55.0529 18.8937Z" fill="#EAE2D1"/>
<path d="M53.0103 17.3618C50.8401 17.3192 48.8827 15.4043 48.7975 13.2341C50.9678 13.2767 52.9252 15.2341 53.0103 17.3618C52.9678 16.7235 52.3295 17.3618 53.0103 17.3618Z" fill="#EAE2D1"/>
<path d="M53.0103 13.6597C54.5848 14.7661 55.0529 17.1916 54.0316 18.8512C52.4146 17.7022 51.9465 15.2767 53.0103 13.6597C53.4784 14.0001 52.6699 14.1703 53.0103 13.6597Z" fill="#EAE2D1"/>
<path d="M53.0528 20.9362C51.1805 20.6809 49.6486 18.766 49.7762 16.8511C51.6911 17.1489 53.2231 19.0213 53.0528 20.9362C53.0954 20.3404 52.4571 20.8511 53.0528 20.9362Z" fill="#EAE2D1"/>
<path d="M47.3082 17.1064C48.7124 15.8723 51.0954 15.9149 52.4146 17.234C51.0103 18.5106 48.6273 18.4255 47.3082 17.1064C47.7337 17.5319 47.7337 16.7234 47.3082 17.1064Z" fill="#EAE2D1"/>
<path d="M59.0529 16.1703C57.6061 17.1491 55.4359 16.7661 54.372 15.3618C55.8188 14.4257 58.0316 14.7661 59.0529 16.1703C58.755 15.7448 58.6273 16.4682 59.0529 16.1703Z" fill="#EAE2D1"/>
<path d="M55.8188 12.6384C55.0529 14.298 52.8827 15.1065 51.1805 14.4256C51.9891 12.7661 54.1592 11.9576 55.8188 12.6384C55.6061 13.149 55.3082 12.4256 55.8188 12.6384Z" fill="#EAE2D1"/>
<path d="M54.6699 9.53198C54.5422 11.3618 52.8826 12.9362 51.0529 12.9362C51.1805 11.149 52.8401 9.57454 54.6699 9.53198C54.6273 10.0852 54.0741 9.53198 54.6699 9.53198Z" fill="#EAE2D1"/>
<path d="M49.4784 12.7234C50.6273 11.4043 52.8401 11.1489 54.2869 12.2128C53.138 13.5745 50.8827 13.8298 49.4784 12.7234C49.9039 13.0638 49.8188 12.3404 49.4784 12.7234Z" fill="#EAE2D1"/>
<path d="M43.6912 9.23408C45.3933 7.91493 48.1167 8.2128 49.521 9.82982C47.8188 11.149 45.0954 10.8937 43.6912 9.23408C44.2018 8.8511 44.1167 9.74471 43.6912 9.23408Z" fill="#EAE2D1"/>
<path d="M50.6699 13.532C49.3082 14.5958 47.138 14.383 45.989 13.1064C47.3507 12.0426 49.521 12.2554 50.6699 13.532C50.3295 13.1064 50.2444 13.8298 50.6699 13.532Z" fill="#EAE2D1"/>
<path d="M42.372 8.34058C43.6912 9.23419 44.1167 11.1491 43.3507 12.5108C42.0316 11.6597 41.6061 9.70228 42.372 8.34058C42.7975 8.63845 42.1592 8.76611 42.372 8.34058Z" fill="#EAE2D1"/>
<path d="M44.8826 20.1704C45.5635 18.4683 47.6912 17.5321 49.4358 18.1278C48.755 19.83 46.6273 20.7661 44.8826 20.1704C45.4358 20.3832 45.0954 19.6598 44.8826 20.1704Z" fill="#EAE2D1"/>
<path d="M46.2869 20.9787C45.7337 22.4681 43.9891 23.3617 42.4571 22.8936C43.0103 21.4468 44.7976 20.5532 46.2869 20.9787C46.1167 21.4468 45.8188 20.8511 46.2869 20.9787Z" fill="#EAE2D1"/>
<path d="M44.7124 22.8938C43.1805 23.3619 41.3082 22.5108 40.755 20.9789C42.2869 20.5108 44.1167 21.4044 44.7124 22.8938C44.5422 22.4257 44.2444 23.064 44.7124 22.8938Z" fill="#EAE2D1"/>
<path d="M40.1592 19.4468C42.1167 18.9362 44.372 20.1702 45.0103 22.1277C43.0103 22.6383 40.7975 21.3617 40.1592 19.4468C40.755 19.2766 40.3295 20.0426 40.1592 19.4468Z" fill="#EAE2D1"/>
<path d="M42.3295 20.0427C40.5422 19.2342 39.6061 16.8938 40.2869 15.064C42.0741 15.8725 43.0103 18.2129 42.3295 20.0427C42.5422 19.4469 41.7763 19.7874 42.3295 20.0427Z" fill="#EAE2D1"/>
<path d="M48.4997 15.4043C49.989 16.9788 50.0316 19.7022 48.5848 21.3192C47.0954 19.7447 47.0529 17.0213 48.4997 15.4043C48.9678 15.9149 48.0316 15.9149 48.4997 15.4043Z" fill="#EAE2D1"/>
<path d="M53.6486 17.3191C52.372 18.9787 49.7763 19.3617 48.0741 18.2127C49.3507 16.5531 51.9465 16.1702 53.6486 17.3191C53.2231 17.8297 53.0954 16.9787 53.6486 17.3191Z" fill="#EAE2D1"/>
<path d="M46.8826 14.5106C48.4571 13.7021 50.5848 14.2978 51.4784 15.7872C49.9039 16.5957 47.8188 15.9999 46.8826 14.5106C47.3933 14.2553 47.1805 14.9361 46.8826 14.5106Z" fill="#EAE2D1"/>
<path d="M45.0954 11.3192C43.3082 11.5745 41.4784 10.2554 41.138 8.46813C42.9252 8.21281 44.755 9.57451 45.0954 11.3192C45.0103 10.766 44.5422 11.4043 45.0954 11.3192Z" fill="#EAE2D1"/>
<path d="M48.8401 8.68091C50.7976 9.14899 52.2444 11.2767 51.8614 13.2767C49.9039 12.8086 48.4997 10.6809 48.8401 8.68091C49.4359 8.80857 48.7124 9.27665 48.8401 8.68091Z" fill="#EAE2D1"/>
<path d="M41.6911 12.3831C43.2231 12.8511 44.2443 14.5958 43.9039 16.1703C42.372 15.7022 41.3507 13.9575 41.6911 12.3831C42.1592 12.5533 41.606 12.8937 41.6911 12.3831Z" fill="#EAE2D1"/>
<path d="M46.8401 8.80846C46.2018 10.8085 43.9039 12.1276 41.8614 11.6595C42.4997 9.65953 44.7975 8.34038 46.8401 8.80846C46.6273 9.44676 46.2018 8.6808 46.8401 8.80846Z" fill="#EAE2D1"/>
<path d="M46.3295 14.4256C44.1167 14.298 42.2444 12.298 42.2018 10.0852C44.4146 10.2129 46.3295 12.2554 46.3295 14.4256C46.3295 13.7448 45.6486 14.3831 46.3295 14.4256Z" fill="#EAE2D1"/>
<path d="M46.4146 17.5746C44.9678 16.8938 44.2444 14.9789 44.8401 13.4895C46.2869 14.1704 47.0103 16.0852 46.4146 17.5746C46.5848 17.1065 45.9465 17.3618 46.4146 17.5746Z" fill="#EAE2D1"/>
<path d="M40.8401 17.8299C41.7763 16.4682 43.8614 16.0001 45.2656 16.8512C44.3295 18.2129 42.2869 18.681 40.8401 17.8299C41.3082 18.0852 41.138 17.4044 40.8401 17.8299Z" fill="#EAE2D1"/>
<path d="M40.4571 18.0425C42.0741 17.1489 44.3295 17.7446 45.3507 19.2765C43.7337 20.2127 41.4784 19.617 40.4571 18.0425C40.9678 17.7872 40.7975 18.5531 40.4571 18.0425Z" fill="#EAE2D1"/>
<path d="M37.7763 15.7874C39.3082 16.7235 39.9039 18.8512 39.0954 20.4257C37.6061 19.532 36.9678 17.3618 37.7763 15.7874C38.2444 16.0852 37.521 16.298 37.7763 15.7874Z" fill="#EAE2D1"/>
<path d="M35.0103 14.2554C36.7976 15.532 37.3507 18.2554 36.1592 20.0852C34.372 18.8511 33.8614 16.1277 35.0103 14.2554C35.5635 14.6383 34.6273 14.8086 35.0103 14.2554Z" fill="#EAE2D1"/>
<path d="M33.6912 18.6384C32.9252 20.2555 30.7975 21.1491 29.0954 20.5108C29.8614 18.8512 31.989 18.0001 33.6912 18.6384C33.4358 19.1491 33.138 18.4257 33.6912 18.6384Z" fill="#EAE2D1"/>
<path d="M37.9465 22.5531C36.4571 23.6595 34.1167 23.3191 32.9678 21.9148C34.4571 20.8085 36.7975 21.1489 37.9465 22.5531C37.6061 22.1276 37.4784 22.8936 37.9465 22.5531Z" fill="#EAE2D1"/>
<path d="M36.372 19.3617C34.9678 20.4681 32.7124 20.2553 31.521 18.8936C32.9252 17.7873 35.1805 18.0426 36.372 19.3617C35.989 18.9362 35.9465 19.7021 36.372 19.3617Z" fill="#EAE2D1"/>
<path d="M36.8401 18.7234C38.4571 18.5106 40.1592 19.6596 40.4997 21.234C38.8826 21.4894 37.1805 20.3404 36.8401 18.7234C37.3507 18.6383 36.9678 19.234 36.8401 18.7234Z" fill="#EAE2D1"/>
<path d="M42.2869 15.8298C43.3933 17.3192 43.138 19.6171 41.6912 20.8086C40.5848 19.3192 40.8827 17.0213 42.2869 15.8298C42.6273 16.2979 41.8614 16.2128 42.2869 15.8298Z" fill="#EAE2D1"/>
<path d="M33.3507 14.2553C34.1592 12.2553 36.6699 11.0638 38.755 11.7446C37.9465 13.7872 35.4358 14.9361 33.3507 14.2553C33.989 14.468 33.6061 13.6595 33.3507 14.2553Z" fill="#EAE2D1"/>
<path d="M33.5635 7.82994C35.4358 7.78739 37.2231 9.36186 37.3933 11.2342C35.4784 11.3193 33.7337 9.70228 33.5635 7.82994C34.1167 7.82994 33.6061 8.42569 33.5635 7.82994Z" fill="#EAE2D1"/>
<path d="M47.1805 12.8937C45.138 13.6596 42.5848 12.5958 41.7337 10.5958C43.7763 9.82985 46.2869 10.8937 47.1805 12.8937C46.9252 12.2979 46.5422 13.149 47.1805 12.8937Z" fill="#EAE2D1"/>
<path d="M37.989 6.42552C40.1593 6.38296 42.2018 8.2553 42.3294 10.4255C40.1592 10.4255 38.1593 8.55318 37.989 6.42552C38.6699 6.42552 38.0742 7.06381 37.989 6.42552Z" fill="#EAE2D1"/>
<path d="M39.4358 3.87231C40.5422 5.36168 40.2869 7.74466 38.8401 8.9787C37.7337 7.44678 37.989 5.0638 39.4358 3.87231C39.7763 4.3404 38.9677 4.25529 39.4358 3.87231Z" fill="#EAE2D1"/>
<path d="M40.5848 9.06396C41.7337 10.3406 41.6911 12.5108 40.4997 13.7448C39.3507 12.4682 39.3933 10.298 40.5848 9.06396C40.9252 9.44694 40.2018 9.44694 40.5848 9.06396Z" fill="#EAE2D1"/>
<path d="M37.8614 6.17017C38.7975 7.70208 38.372 9.9574 36.8826 10.9787C35.9465 9.48931 36.372 7.234 37.8614 6.17017C38.1592 6.6808 37.3933 6.51059 37.8614 6.17017Z" fill="#EAE2D1"/>
<path d="M40.372 13.6171C39.2231 14.7235 37.1805 14.766 35.9465 13.7022C37.138 12.5533 39.1805 12.5107 40.372 13.6171C40.0316 13.9575 39.989 13.2767 40.372 13.6171Z" fill="#EAE2D1"/>
<path d="M34.5848 14.7234C32.9678 13.7872 32.2443 11.5319 33.0529 9.87231C34.6699 10.7659 35.3933 13.0213 34.5848 14.7234C34.8401 14.2127 34.0741 14.4255 34.5848 14.7234Z" fill="#EAE2D1"/>
<path d="M28.7975 10.0425C27.1805 9.78719 25.9039 8.21272 26.0316 6.5957C27.6486 6.80847 28.9252 8.42549 28.7975 10.0425C28.8401 9.53187 28.2869 9.95741 28.7975 10.0425Z" fill="#EAE2D1"/>
<path d="M29.3507 11.7874C31.3507 12.298 32.755 14.5108 32.372 16.5108C30.372 16.0427 28.9678 13.8299 29.3507 11.7874C29.9465 11.9576 29.2231 12.4257 29.3507 11.7874Z" fill="#EAE2D1"/>
<path d="M23.521 10.6809C25.0954 9.87236 27.2656 10.5107 28.1592 12.0426C26.5848 12.8511 24.4146 12.2128 23.521 10.6809C23.989 10.4681 23.7763 11.1915 23.521 10.6809Z" fill="#EAE2D1"/>
<path d="M31.2231 18.2129C31.4784 19.9576 30.2018 21.7448 28.4997 22.0852C28.2443 20.3831 29.5209 18.5533 31.2231 18.2129C31.3082 18.7235 30.7124 18.298 31.2231 18.2129Z" fill="#EAE2D1"/>
<path d="M24.372 12.0427C23.7763 13.8299 21.6912 14.9363 19.9039 14.4257C20.4997 12.681 22.5848 11.532 24.372 12.0427C24.2018 12.5959 23.8188 11.8725 24.372 12.0427Z" fill="#EAE2D1"/>
<path d="M23.8614 19.4894C25.6912 19.149 27.6912 20.4256 28.1167 22.2128C26.2869 22.5958 24.3295 21.3192 23.8614 19.4894C24.4146 19.4043 23.989 20.0426 23.8614 19.4894Z" fill="#EAE2D1"/>
<path d="M20.6273 14.2554C21.0103 16.2979 19.6061 18.5107 17.6061 19.0213C17.2231 16.9788 18.6273 14.8086 20.6273 14.2554C20.755 14.8937 19.989 14.4256 20.6273 14.2554Z" fill="#EAE2D1"/>
<path d="M19.3933 18.0852C20.9252 18.8937 21.6912 20.9788 20.9678 22.5533C19.4358 21.7873 18.6699 19.7022 19.3933 18.0852C19.8614 18.3405 19.1805 18.5958 19.3933 18.0852Z" fill="#EAE2D1"/>
<path d="M25.9039 22.6383C24.8401 21.149 25.1805 18.8511 26.6273 17.7021C27.6912 19.1915 27.3082 21.5319 25.9039 22.6383C26.3295 22.2979 25.5635 22.1702 25.9039 22.6383Z" fill="#EAE2D1"/>
<path d="M17.4784 13.8299C19.2231 12.8086 21.6912 13.3192 22.8401 14.9362C21.138 16.0001 18.6699 15.4469 17.4784 13.8299C18.0316 13.4894 17.8614 14.3405 17.4784 13.8299Z" fill="#EAE2D1"/>
<path d="M23.138 12C23.6912 13.5745 22.8401 15.5319 21.3507 16.1702C20.755 14.5957 21.6061 12.6809 23.138 12C23.3082 12.5106 22.6699 12.2128 23.138 12Z" fill="#EAE2D1"/>
<path d="M32.8827 14.9363C32.3295 16.8938 30.0741 18.2555 28.0316 17.7874C28.6273 15.8299 30.8827 14.4682 32.8827 14.9363C32.7124 15.5321 32.2444 14.7661 32.8827 14.9363Z" fill="#EAE2D1"/>
<path d="M30.4571 8.85107C31.138 10.766 30.0741 13.1489 28.1593 13.9575C27.4784 12 28.5422 9.61703 30.4571 8.85107C30.6699 9.44682 29.8614 9.06384 30.4571 8.85107Z" fill="#EAE2D1"/>
<path d="M32.3295 12.8938C30.8826 12.1704 30.1592 10.2555 30.7975 8.76611C32.2444 9.48952 32.9677 11.4044 32.3295 12.8938C32.4997 12.4257 31.8614 12.681 32.3295 12.8938Z" fill="#EAE2D1"/>
<path d="M32.2444 9.61701C30.6699 9.78722 29.0103 8.55318 28.755 6.93616C30.372 6.76595 31.989 8.04254 32.2444 9.61701C32.2018 9.14893 31.7763 9.70212 32.2444 9.61701Z" fill="#EAE2D1"/>
<path d="M26.8401 6.63834C26.1167 4.72345 27.0954 2.29791 28.9678 1.4043C29.7337 3.36174 28.755 5.78728 26.8401 6.63834C27.4359 6.38302 26.6273 6.0426 26.8401 6.63834Z" fill="#EAE2D1"/>
<path d="M28.1167 6.46813C26.755 7.57451 24.5848 7.4043 23.4359 6.17025C24.755 5.06387 26.9252 5.19153 28.1167 6.46813C27.7337 6.08515 27.6912 6.80855 28.1167 6.46813Z" fill="#EAE2D1"/>
<path d="M30.2869 12.0851C29.0103 11.0213 28.7124 8.93616 29.6486 7.57446C30.9678 8.63829 31.2656 10.7234 30.2869 12.0851C30.5848 11.6596 29.9039 11.7447 30.2869 12.0851Z" fill="#EAE2D1"/>
<path d="M24.3295 4.42559C24.1167 6.51069 22.1593 8.25537 20.0316 8.21282C20.2444 6.08516 22.2443 4.38303 24.3295 4.42559C24.2869 5.06388 23.6912 4.42559 24.3295 4.42559Z" fill="#EAE2D1"/>
<path d="M15.3507 6.04267C16.8401 4.59586 19.521 4.51075 21.0954 5.91501C19.5635 7.40437 16.9252 7.44692 15.3507 6.04267C15.8188 6.4682 15.8188 5.57458 15.3507 6.04267Z" fill="#EAE2D1"/>
<path d="M18.0316 6.76611C18.8401 8.17037 18.4146 10.2129 17.0529 11.1491C16.2018 9.74484 16.6273 7.70228 18.0316 6.76611C18.2869 7.19165 17.6061 7.02143 18.0316 6.76611Z" fill="#EAE2D1"/>
<path d="M16.2444 10.1703C18.3295 10.0001 20.372 11.6171 20.6699 13.7022C18.5848 13.8298 16.5422 12.2128 16.2444 10.1703C16.8826 10.1277 16.3295 10.8086 16.2444 10.1703Z" fill="#EAE2D1"/>
<path d="M19.6912 15.9575C20.8826 17.532 20.6273 20.0001 19.138 21.3192C17.9465 19.7448 18.2018 17.2341 19.6912 15.9575C20.0741 16.4256 19.2231 16.3405 19.6912 15.9575Z" fill="#EAE2D1"/>
<path d="M13.138 11.8298C14.6273 13.0213 14.9678 15.3617 13.9039 16.9362C12.4146 15.7873 12.0742 13.4043 13.138 11.8298C13.5635 12.2128 12.7976 12.3405 13.138 11.8298Z" fill="#EAE2D1"/>
<path d="M10.8401 12.8936C12.5848 13.234 13.8614 15.0212 13.6486 16.7659C11.9465 16.4255 10.6273 14.6382 10.8401 12.8936C11.3933 13.0212 10.7975 13.4467 10.8401 12.8936Z" fill="#EAE2D1"/>
<path d="M14.4997 20.298C12.6273 19.3618 11.7763 16.8512 12.6273 14.9363C14.4571 15.915 15.3082 18.3831 14.4997 20.298C14.755 19.7022 13.9039 20.0001 14.4997 20.298Z" fill="#EAE2D1"/>
<path d="M20.2869 16.1702C20.4571 17.8297 19.2231 19.5744 17.5209 19.8723C17.3507 18.2127 18.5848 16.468 20.2869 16.1702C20.3295 16.6808 19.7337 16.2553 20.2869 16.1702Z" fill="#EAE2D1"/>
<path d="M21.3933 18.9788C19.4784 18.4256 18.2018 16.2128 18.6699 14.2554C20.5848 14.8086 21.8614 17.0213 21.3933 18.9788C21.5635 18.383 20.7975 18.8086 21.3933 18.9788Z" fill="#EAE2D1"/>
<path d="M17.0529 13.2766C18.2444 11.8723 20.5422 11.6596 21.989 12.766C20.7975 14.1277 18.4997 14.383 17.0529 13.2766C17.521 13.617 17.4359 12.8511 17.0529 13.2766Z" fill="#EAE2D1"/>
<path d="M21.3082 9.27661C21.7337 10.8936 20.755 12.7234 19.1805 13.2341C18.755 11.6596 19.7337 9.8298 21.3082 9.27661C21.4359 9.78725 20.7976 9.44682 21.3082 9.27661Z" fill="#EAE2D1"/>
<path d="M24.2018 12.5531C22.2869 12.2553 20.755 10.3829 20.8827 8.46802C22.8401 8.72334 24.372 10.5957 24.2018 12.5531C24.2444 11.9148 23.6061 12.468 24.2018 12.5531Z" fill="#EAE2D1"/>
<path d="M23.9039 6.72336C23.1805 8.76592 20.7976 10.0425 18.7124 9.44677C19.3933 7.40422 21.8188 6.17017 23.9039 6.72336C23.6912 7.36166 23.2656 6.55315 23.9039 6.72336Z" fill="#EAE2D1"/>
<path d="M14.2444 13.4042C14.2869 11.2765 16.2018 9.4042 18.2869 9.31909C18.2444 11.4468 16.3295 13.3191 14.2444 13.4042C14.8827 13.3616 14.2444 12.7233 14.2444 13.4042Z" fill="#EAE2D1"/>
<path d="M14.755 9.44693C14.372 11.1065 12.5848 12.2554 10.9252 11.9576C11.3082 10.3405 13.0954 9.14906 14.755 9.44693C14.6273 9.95757 14.2444 9.36182 14.755 9.44693Z" fill="#EAE2D1"/>
<path d="M7.4784 14.1276C9.26564 13.8723 11.0954 15.1915 11.4784 16.9362C9.69117 17.1915 7.86138 15.8723 7.4784 14.1276C8.0316 14.0425 7.60606 14.6808 7.4784 14.1276Z" fill="#EAE2D1"/>
<path d="M19.9465 7.70215C21.3082 8.89364 21.5209 11.149 20.4146 12.5958C19.0529 11.4043 18.8401 9.14896 19.9465 7.70215C20.372 8.04257 19.6061 8.12768 19.9465 7.70215Z" fill="#EAE2D1"/>
<path d="M10.7124 14.8937C10.0741 13.4469 10.7124 11.5746 12.1167 10.8086C12.755 12.2554 12.1167 14.1703 10.7124 14.8937C11.138 14.6809 10.4997 14.4256 10.7124 14.8937Z" fill="#EAE2D1"/>
<path d="M18.5848 16.1278C18.2869 17.8725 16.4997 19.1916 14.755 18.9788C15.0529 17.2342 16.8401 15.915 18.5848 16.1278C18.4997 16.681 18.0741 16.0852 18.5848 16.1278Z" fill="#EAE2D1"/>
<path d="M47.3933 21.5317C45.5635 20.4254 44.8827 17.8296 45.9039 15.9573C47.6912 17.0637 48.372 19.6594 47.3933 21.5317C47.6912 20.9786 46.8401 21.1913 47.3933 21.5317Z" fill="#FFFDFA"/>
<path d="M47.3508 20.936C45.6061 20.7658 44.2018 19.1063 44.2869 17.3616C45.9891 17.5743 47.3933 19.2339 47.3508 20.936C47.3508 20.4254 46.7976 20.8935 47.3508 20.936Z" fill="#FFFDFA"/>
<path d="M38.2869 20.4254C38.6273 18.5957 40.4997 17.234 42.3294 17.4467C41.989 19.2765 40.1167 20.6382 38.2869 20.4254C38.8826 20.468 38.4146 19.8723 38.2869 20.4254Z" fill="#FFFDFA"/>
<path d="M36.6273 20.9786C34.6273 21.4041 32.3295 20.1276 31.7763 18.1276C33.7763 17.6595 36.0316 18.9786 36.6273 20.9786C36.4571 20.3403 35.989 21.1063 36.6273 20.9786Z" fill="#FFFDFA"/>
<path d="M39.0103 16.553C37.6486 17.1062 35.8614 16.4679 35.1805 15.1488C36.5848 14.553 38.3295 15.1913 39.0103 16.553C38.7975 16.1275 38.5848 16.7232 39.0103 16.553Z" fill="#FFFDFA"/>
<path d="M39.521 16.9361C38.5848 15.5744 38.8827 13.4893 40.1593 12.468C41.138 13.8297 40.8401 15.9148 39.521 16.9361C39.9465 16.6382 39.2231 16.5106 39.521 16.9361Z" fill="#FFFDFA"/>
<path d="M37.9465 9.53174C39.7763 10.5956 40.5848 13.1488 39.6486 15.0637C37.7763 13.9998 37.0103 11.4466 37.9465 9.53174C38.5422 9.87216 37.6486 10.1275 37.9465 9.53174Z" fill="#FFFDFA"/>
<path d="M38.2018 18.2552C36.6699 18.1701 35.3507 16.7658 35.3507 15.2339C36.8827 15.319 38.2018 16.7232 38.2018 18.2552C38.2018 17.7871 37.7337 18.2126 38.2018 18.2552Z" fill="#FFFDFA"/>
<path d="M30.4146 20.9361C30.9252 18.9787 33.138 17.617 35.138 18C34.6273 20 32.4146 21.3617 30.4146 20.9361C31.0103 21.0638 30.5848 20.3404 30.4146 20.9361Z" fill="#FFFDFA"/>
<path d="M30.4571 17.4042C29.9039 19.0637 27.9039 20.085 26.2444 19.6169C26.7975 17.9574 28.7976 16.9361 30.4571 17.4042C30.2869 17.9148 29.9465 17.2765 30.4571 17.4042Z" fill="#FFFDFA"/>
<path d="M30.2018 21.5743C28.9252 20.7658 28.4146 18.8934 29.138 17.5317C30.4571 18.3402 30.9252 20.2126 30.2018 21.5743C30.4571 21.1488 29.8188 21.319 30.2018 21.5743Z" fill="#FFFDFA"/>
<path d="M30.3295 16.9361C30.1167 15.2765 31.3933 13.5744 33.0529 13.3191C33.2231 14.9787 31.9465 16.6382 30.3295 16.9361C30.8401 16.851 30.2444 16.4255 30.3295 16.9361Z" fill="#FFFDFA"/>
<path d="M32.1167 8.63818C32.2443 10.7233 30.5848 12.7233 28.5422 13.0212C28.4146 10.9361 30.0741 8.93606 32.1167 8.63818C32.1592 9.27648 31.4784 8.72329 32.1167 8.63818Z" fill="#FFFDFA"/>
<path d="M28.3295 12.3829C26.8827 10.8509 26.8826 8.1701 28.372 6.63818C29.7763 8.1701 29.7763 10.8509 28.3295 12.3829C28.7975 11.9148 27.8614 11.8722 28.3295 12.3829Z" fill="#FFFDFA"/>
<path d="M26.6699 16.9786C24.755 16.1275 23.7337 13.7446 24.4571 11.7871C26.3295 12.6382 27.3507 15.0212 26.6699 16.9786C26.8827 16.3403 26.0741 16.7233 26.6699 16.9786Z" fill="#FFFDFA"/>
<path d="M25.4784 16.8083C25.9039 18.3403 25.0103 20.1275 23.521 20.6807C23.0529 19.1488 23.989 17.3615 25.4784 16.8083C25.6061 17.2764 25.0103 16.9786 25.4784 16.8083Z" fill="#FFFDFA"/>
<path d="M19.7337 15.4893C21.4358 16.2552 22.372 18.4254 21.7337 20.2127C19.989 19.4467 19.0529 17.2339 19.7337 15.4893C20.2444 15.702 19.5209 16.0424 19.7337 15.4893Z" fill="#FFFDFA"/>
<path d="M14.9678 15.4468C17.0103 15.234 19.0529 16.8085 19.3507 18.8085C17.3507 19.0213 15.3082 17.4468 14.9678 15.4468C15.6061 15.3617 15.0954 16.0425 14.9678 15.4468Z" fill="#FFFDFA"/>
<path d="M13.521 14.3827C15.0529 13.1061 17.6061 13.2338 18.9678 14.7232C17.4359 15.9998 14.9252 15.8296 13.521 14.3827C14.0316 13.9998 13.9465 14.8508 13.521 14.3827Z" fill="#FFFDFA"/>
<path d="M22.6273 11.617C22.1167 13.0212 20.4146 13.8723 19.0103 13.4042C19.5209 12 21.2231 11.1914 22.6273 11.617C22.4997 12.0425 22.2018 11.4893 22.6273 11.617Z" fill="#FFFDFA"/>
<path d="M18.8401 11.2339C17.3082 11.4467 15.7337 10.3403 15.4358 8.8084C16.9678 8.59564 18.5422 9.74457 18.8401 11.2339C18.755 10.7658 18.372 11.2765 18.8401 11.2339Z" fill="#FFFDFA"/>
<path d="M16.1167 17.1913C15.8614 15.7019 16.8401 14.0849 18.3295 13.7019C18.6273 15.1913 17.6061 16.8083 16.1167 17.1913C16.5848 17.0636 16.0316 16.7657 16.1167 17.1913Z" fill="#FFFDFA"/>
<path d="M13.4359 13.6595C11.989 15.1489 9.35074 15.234 7.77627 13.8723C9.22308 12.3829 11.8614 12.2978 13.4359 13.6595C12.9678 14.1276 12.9252 13.234 13.4359 13.6595Z" fill="#FFFDFA"/>
<path d="M19.138 7.87231C21.0103 8.89359 21.8614 11.4468 20.9678 13.3617C19.0954 12.383 18.2444 9.78721 19.138 7.87231C19.7337 8.17019 18.8827 8.46806 19.138 7.87231Z" fill="#FFFDFA"/>
<path d="M19.2231 8.46802C20.9678 8.55312 22.4997 10.1276 22.4997 11.8723C20.755 11.7872 19.2656 10.1701 19.2231 8.46802C19.7763 8.46802 19.2231 8.97866 19.2231 8.46802Z" fill="#FFFDFA"/>
<path d="M28.2869 8.46793C28.0741 10.2977 26.2869 11.7871 24.4146 11.6594C24.6699 9.82963 26.4571 8.38282 28.2869 8.46793C28.2018 9.06367 27.7337 8.42537 28.2869 8.46793Z" fill="#FFFDFA"/>
<path d="M29.9465 7.82978C31.9039 7.27659 34.2444 8.46808 34.9252 10.383C32.9678 10.9787 30.6273 9.78723 29.9465 7.82978C30.5422 7.65957 30.1593 8.46808 29.9465 7.82978Z" fill="#FFFDFA"/>
<path d="M27.8188 12.3829C29.138 11.7447 30.9252 12.2978 31.6912 13.5744C30.3295 14.2553 28.5422 13.7021 27.8188 12.3829C28.2018 12.1702 28.0316 12.8085 27.8188 12.3829Z" fill="#FFFDFA"/>
<path d="M27.2656 12C28.2869 13.3191 28.1167 15.4043 26.8826 16.5106C25.8188 15.234 25.989 13.1489 27.2656 12C27.5635 12.4255 26.8401 12.3404 27.2656 12Z" fill="#FFFDFA"/>
<path d="M29.2231 19.3616C27.3507 18.3829 26.4146 15.8722 27.2656 13.9148C29.138 14.851 30.0741 17.4042 29.2231 19.3616C29.521 18.7233 28.6699 19.0637 29.2231 19.3616Z" fill="#FFFDFA"/>
<path d="M28.4997 10.6382C30.0316 10.6382 31.4359 11.9573 31.521 13.4892C29.989 13.4892 28.6273 12.1701 28.4997 10.6382C28.9677 10.6382 28.5422 11.1063 28.4997 10.6382Z" fill="#FFFDFA"/>
<path d="M36.1167 7.5319C35.7337 9.5319 33.6061 11.0213 31.5635 10.7234C31.989 8.72339 34.1167 7.23403 36.1167 7.5319C36.0316 8.12765 35.521 7.4468 36.1167 7.5319Z" fill="#FFFDFA"/>
<path d="M36.2869 11.0637C36.755 9.36153 38.6699 8.21259 40.372 8.59557C39.9039 10.2977 37.989 11.4466 36.2869 11.0637C36.7976 11.1913 36.4146 10.5105 36.2869 11.0637Z" fill="#FFFDFA"/>
<path d="M36.2869 6.89355C37.6486 7.61696 38.2444 9.44675 37.6061 10.851C36.2444 10.1276 35.6486 8.29781 36.2869 6.89355C36.7125 7.10632 36.1167 7.31909 36.2869 6.89355Z" fill="#FFFDFA"/>
<path d="M36.4571 11.532C36.7124 13.149 35.5635 14.8937 33.9465 15.2767C33.6486 13.6596 34.8401 11.8724 36.4571 11.532C36.5422 12.0426 35.9465 11.6171 36.4571 11.532Z" fill="#FFFDFA"/>
<path d="M35.138 19.8722C34.8827 17.8297 36.4146 15.7446 38.4571 15.3616C38.7124 17.4041 37.1805 19.4892 35.138 19.8722C35.7763 19.7871 35.0529 19.2339 35.138 19.8722Z" fill="#FFFDFA"/>
<path d="M38.7124 15.9573C40.2018 17.4041 40.372 20.0849 39.0103 21.702C37.4784 20.2126 37.3507 17.5743 38.7124 15.9573C39.1805 16.4254 38.2869 16.4679 38.7124 15.9573Z" fill="#FFFDFA"/>
<path d="M40.1167 11.2766C42.0316 12 43.2231 14.3404 42.6273 16.2979C40.6699 15.617 39.521 13.2766 40.1167 11.2766C40.7125 11.4894 39.9465 11.9149 40.1167 11.2766Z" fill="#FFFDFA"/>
<path d="M41.3082 11.3617C40.755 9.87238 41.5635 8.00004 43.0529 7.4043C43.5635 8.89366 42.755 10.7234 41.3082 11.3617C41.7337 11.1915 41.138 10.8937 41.3082 11.3617Z" fill="#FFFDFA"/>
<path d="M47.0954 12.3829C45.3507 11.7021 44.2869 9.57442 44.8401 7.74463C46.6273 8.42548 47.6486 10.5957 47.0954 12.3829C47.2656 11.8297 46.5848 12.1702 47.0954 12.3829Z" fill="#FFFDFA"/>
<path d="M51.8614 12.1703C49.8614 12.4681 47.7337 11.0213 47.3082 9.02134C49.3082 8.72347 51.4358 10.1703 51.8614 12.1703C51.7337 11.532 51.2231 12.2554 51.8614 12.1703Z" fill="#FFFDFA"/>
<path d="M53.3507 13.1062C51.9039 14.4679 49.3507 14.4679 47.9039 13.1062C49.3507 11.7445 51.9039 11.7445 53.3507 13.1062C52.8827 13.5318 52.8827 12.6807 53.3507 13.1062Z" fill="#FFFDFA"/>
<path d="M44.4146 16.3829C44.8401 14.9786 46.4997 14.0425 47.9465 14.3829C47.5209 15.8297 45.8614 16.7233 44.4146 16.3829C44.8401 16.5105 44.5422 15.9573 44.4146 16.3829Z" fill="#FFFDFA"/>
<path d="M48.2444 16.5958C49.7337 16.2979 51.3933 17.3192 51.7763 18.766C50.2869 19.0638 48.6273 18.0426 48.2444 16.5958C48.7124 16.4681 48.372 17.0213 48.2444 16.5958Z" fill="#FFFDFA"/>
<path d="M50.5848 10.468C50.9678 11.9148 50.0742 13.5744 48.6273 14.085C48.2444 12.5957 49.1805 10.9361 50.5848 10.468C50.7124 10.8935 50.1592 10.5957 50.5848 10.468Z" fill="#FFFDFA"/>
<path d="M53.4784 13.8297C54.8826 12.2978 57.4784 12.0425 59.138 13.3191C57.7763 14.851 55.138 15.1063 53.4784 13.8297C53.989 14.2553 53.9039 13.3616 53.4784 13.8297Z" fill="#FFFDFA"/>
<path style="mix-blend-mode:screen" d="M0.0741337 12.1278C1.13796 5.70231 13.3507 2.38316 27.3933 4.72359C41.4358 7.02146 51.9465 14.1278 50.8827 20.5108C49.8188 26.9364 37.6061 30.2555 23.5635 27.9151C9.52095 25.6172 -0.989696 18.5108 0.0741337 12.1278Z" fill="url(#paint4_radial_1_1303)"/>
<path style="mix-blend-mode:multiply" d="M27.2656 14C26.4997 11.617 30.1167 8.21273 35.3933 6.46805C40.7124 4.72337 45.6061 5.27656 46.4146 7.7021C47.2231 10.0851 43.606 13.4893 38.2869 15.234C33.0103 16.9787 28.0741 16.4255 27.2656 14Z" fill="url(#paint5_radial_1_1303)"/>
<path style="mix-blend-mode:multiply" d="M24.1593 6.68087C25.4784 5.27661 28.3295 5.78725 30.5848 7.87236C32.8401 9.91491 33.6061 12.7234 32.3295 14.1702C31.0529 15.5745 28.1593 15.0213 25.9039 12.9362C23.6486 10.8936 22.8827 8.08513 24.1593 6.68087Z" fill="url(#paint6_radial_1_1303)"/>
<path style="mix-blend-mode:multiply" d="M29.4358 15.5319C29.6486 13.617 32.5848 12.4255 35.989 12.7659C39.3933 13.1489 41.989 15.0212 41.7763 16.8936C41.5635 18.8085 38.6699 20.0425 35.2231 19.6595C31.8188 19.2765 29.2231 17.4468 29.4358 15.5319Z" fill="url(#paint7_radial_1_1303)"/>
<path d="M33.3507 11.4893C34.2302 11.0071 35.1238 10.539 36.0316 10.0851C37.0245 9.60282 38.0599 9.14892 39.138 8.72339C38.0599 9.23403 37.0103 9.77303 35.989 10.3404C35.2231 10.8227 34.4571 11.3049 33.6912 11.7872C33.5209 11.9007 33.3507 12.0142 33.1805 12.1276C32.8826 12.3404 32.5422 12.5532 32.2869 12.7659C31.9181 13.0213 31.5493 13.2908 31.1805 13.5745C30.9252 13.7447 30.6699 13.9291 30.4146 14.1276C29.5635 14.851 28.6699 15.5745 27.9039 16.3404L26.372 16.0851C27.2656 15.3617 28.8401 14.3404 29.8188 13.7021C30.1025 13.5035 30.372 13.3191 30.6273 13.1489C31.0103 12.8936 31.4359 12.6383 31.8188 12.383C32.1593 12.1844 32.4855 11.9858 32.7976 11.7872C32.9961 11.7021 33.1805 11.6028 33.3507 11.4893Z" fill="#488C1C"/>
<path d="M30.3295 12.8937C26.0742 11.9149 25.1805 9.19154 26.4146 9.36176C26.4146 9.36176 24.7975 6.97878 25.6912 6.25537C26.5422 5.57452 27.138 6.55325 27.1805 6.68091C27.2231 6.51069 27.4359 5.06388 28.6273 4.80857C29.8188 4.55325 29.8614 7.02133 29.8614 7.02133C29.8614 7.02133 32.5422 5.3192 32.2869 8.42559C31.9465 9.10644 31.6912 10.0852 31.7337 11.4043L30.3295 12.8937Z" fill="#488C1C"/>
<path d="M34.372 13.2766C35.1805 13.4468 35.989 13.5319 36.6699 13.5745C36.6699 13.5745 36.6699 13.5745 36.7124 13.5745C40.5422 13.7447 37.2656 15.0638 37.2656 15.0638C37.2656 15.0638 41.4358 16.2553 40.1592 16.9362C38.8826 17.617 36.7975 16.9362 36.7975 16.9362C36.7975 16.9362 37.8614 17.9149 37.0954 18.2553C36.3294 18.5958 34.5422 17.149 34.5422 17.149C34.5848 18.6383 31.1805 16.3404 31.5209 13.8724L34.372 13.2766Z" fill="#488C1C"/>
<path d="M34.4571 7.95753C34.4571 7.95753 35.7763 6.68093 36.9678 6.38306L37.1805 6.76604C35.5209 8.46816 36.0316 10.0852 36.0316 10.0852C35.1238 10.5391 34.2302 11.0072 33.3507 11.4894C33.1805 11.6029 32.9961 11.7022 32.7975 11.7873C32.4855 11.9859 32.1592 12.1845 31.8188 12.3831C31.7621 12.0426 31.7337 11.7164 31.7337 11.4043C31.6912 10.0852 31.9465 9.10646 32.2869 8.42561C33.0529 6.89369 34.372 6.76604 34.4571 7.95753Z" fill="#63AA35"/>
<path d="M33.6912 11.7873C34.4571 11.305 35.2231 10.8227 35.989 10.3404C37.0103 9.77307 38.06 9.23407 39.138 8.72343C38.06 9.14896 37.0245 9.60286 36.0316 10.0851C36.0316 10.0851 35.521 8.46811 37.1805 6.76598L36.9678 6.383C37.5635 6.25534 38.1167 6.34045 38.4146 6.93619C38.4146 6.93619 41.8188 6.34045 42.4997 7.27662C42.9252 8.34045 40.6273 9.53194 40.6273 9.53194C44.4146 11.2766 37.4358 12.0426 37.4358 12.0426C38.4571 13.2341 37.8188 13.5745 36.7125 13.5745C36.6699 13.5745 36.6699 13.5745 36.6699 13.5745C35.989 13.5319 35.1805 13.4468 34.372 13.2766C33.2231 13.0639 32.2869 12.766 32.2869 12.766C32.5422 12.5532 32.8826 12.3404 33.1805 12.1277C33.3507 12.0142 33.5209 11.9007 33.6912 11.7873Z" fill="#63AA35"/>
<path d="M28.6273 4.80859C28.755 4.80859 28.9252 4.80859 29.0529 4.85115C29.2231 4.8937 29.3082 4.97881 29.3933 5.10647C29.5635 5.27668 29.6486 5.48944 29.7337 5.74476C29.8614 6.1703 29.9039 6.59583 29.9039 7.02136L29.8614 6.97881C30.1592 6.80859 30.4571 6.68093 30.8401 6.59583C31.1805 6.51072 31.6486 6.51072 31.9039 6.76604C32.2018 6.97881 32.2869 7.27668 32.3294 7.57455C32.372 7.87242 32.372 8.1703 32.3294 8.42561H32.2869C32.2444 8.12774 32.2018 7.87242 32.0741 7.57455C31.989 7.31923 31.8614 7.06391 31.6912 6.93625C31.5209 6.80859 31.2656 6.80859 30.9678 6.8937C30.6699 6.97881 30.372 7.10647 30.1167 7.23413L29.5209 7.57455V6.97881C29.4784 6.59583 29.4784 6.1703 29.3933 5.74476C29.3933 5.57455 29.3082 5.36179 29.2231 5.19157C29.138 4.97881 28.9678 4.85115 28.6273 4.85115V4.80859Z" fill="#5CB523"/>
<path d="M30.3295 12.8937C29.2231 12.6384 28.1167 12.2128 27.2231 11.5746C26.7976 11.2767 26.4146 10.8937 26.1593 10.4682C26.0316 10.2554 25.9039 10.0426 25.9039 9.78732C25.9039 9.70221 25.9465 9.57455 26.0316 9.48944C26.1167 9.36178 26.3295 9.36178 26.4571 9.36178L26.4146 9.40434C26.1876 9.03554 25.989 8.66675 25.8188 8.29796C25.6486 7.87242 25.4784 7.48944 25.4358 7.10647C25.4358 6.8937 25.4358 6.68093 25.521 6.51072C25.6061 6.29795 25.8188 6.1703 26.0316 6.04264C26.2869 5.95753 26.6273 6.00008 26.7976 6.1703C27.0103 6.29796 27.138 6.51072 27.2656 6.68093H27.2231C27.2656 6.29796 27.3933 5.91498 27.6061 5.57455C27.8188 5.23413 28.1167 4.93625 28.6273 4.80859V4.85115C28.1593 4.97881 27.9039 5.31923 27.6912 5.6171C27.521 5.95753 27.4358 6.34051 27.3933 6.72349L27.3507 7.19157L27.0954 6.72349C26.9678 6.55327 26.8401 6.38306 26.6699 6.29795C26.4997 6.1703 26.3295 6.1703 26.1593 6.21285C26.0741 6.2554 25.989 6.29796 25.9039 6.38306C25.8472 6.4398 25.8046 6.49654 25.7763 6.55327C25.7195 6.72349 25.7054 6.90788 25.7337 7.10647C25.7763 7.44689 25.9039 7.82987 26.0741 8.21285C26.2444 8.59583 26.4571 8.97881 26.6699 9.31923L26.8827 9.65966L26.4146 9.57455C26.3295 9.57455 26.2869 9.57455 26.2444 9.61711C26.2018 9.65966 26.2018 9.74476 26.2018 9.82987C26.2018 10.0001 26.2869 10.2128 26.372 10.3831C26.6273 10.766 26.9678 11.149 27.3933 11.4894C28.2018 12.1277 29.2656 12.5958 30.372 12.8937H30.3295Z" fill="#36661C"/>
<path d="M31.7763 11.4043C31.3224 11.9149 30.8543 12.4114 30.372 12.8937H30.3295C30.372 12.7234 30.4571 12.5958 30.5422 12.4256C30.6273 12.2979 30.755 12.1703 30.8401 12.0426C30.9678 11.9149 31.0954 11.7873 31.2656 11.7022C31.3933 11.5745 31.5635 11.4469 31.7337 11.4043H31.7763Z" fill="#5CB523"/>
<path d="M35.9465 10.1702C36.755 10.3404 37.5635 10.468 38.372 10.5531C39.138 10.5957 39.9465 10.5957 40.755 10.5106C39.989 10.6808 39.1805 10.7234 38.372 10.6808C37.5209 10.6808 36.7125 10.5957 35.8614 10.5106L35.9465 10.1702Z" fill="#488C1C"/>
<path d="M35.8614 10.2129C35.7763 9.91508 35.8188 9.6172 35.8614 9.27678C35.9181 8.99309 36.0032 8.7094 36.1167 8.42571C36.372 7.82997 36.755 7.31933 37.2231 6.8938C36.7975 7.36188 36.4997 7.91508 36.3295 8.46827C36.2444 8.75196 36.1876 9.03564 36.1592 9.31933C36.1592 9.6172 36.1592 9.91508 36.2443 10.1704L35.8614 10.2129Z" fill="#488C1C"/>
<path d="M33.7763 11.6597C33.989 11.7873 34.2444 11.8724 34.4997 11.9575C34.755 12.071 35.0103 12.1703 35.2656 12.2554C35.8046 12.3973 36.3578 12.5107 36.9252 12.5958C36.3578 12.5675 35.7905 12.4965 35.2231 12.3831C34.9394 12.3263 34.6699 12.2554 34.4146 12.1703C34.1167 12.1278 33.8614 12.0426 33.5635 11.915L33.7763 11.6597Z" fill="#488C1C"/>
<path d="M33.2231 11.5746C33.0812 10.9788 33.0529 10.3831 33.138 9.78736C33.1805 9.23417 33.3933 8.63842 33.8614 8.21289C33.4784 8.68098 33.3508 9.23417 33.3082 9.82991C33.3082 10.3831 33.4359 10.9788 33.6486 11.532L33.2231 11.5746Z" fill="#488C1C"/>
<path d="M31.5635 13.915C31.5209 14.3406 31.6486 14.7661 31.8188 15.1916C31.9891 15.5746 32.2018 15.9576 32.4997 16.3406C32.7976 16.681 33.1805 16.9789 33.5635 17.2342C33.7763 17.3618 34.0316 17.447 34.2018 17.447C34.2444 17.447 34.2869 17.447 34.3295 17.3618C34.3295 17.3193 34.372 17.2342 34.3295 17.1491V16.681L34.755 17.0214C35.0529 17.2767 35.3508 17.4895 35.6486 17.6597C35.9891 17.8725 36.3295 18.0427 36.6699 18.1278C36.8401 18.1704 36.9678 18.1704 37.0529 18.0853C37.1805 18.0427 37.2231 17.9576 37.1805 17.8299C37.138 17.5746 36.9252 17.2767 36.6699 17.064L36.2869 16.6384L36.8827 16.8512C37.3933 17.0214 37.989 17.1065 38.5422 17.1491C39.0954 17.1916 39.6912 17.1491 40.1593 16.9363V16.9789C39.6912 17.1916 39.0954 17.2767 38.5422 17.2767C37.9465 17.2342 37.3507 17.1491 36.7975 16.9789L36.8401 16.9363C37.0954 17.1916 37.3507 17.4895 37.4358 17.8299C37.4784 17.9576 37.3933 18.1704 37.2231 18.2555C37.0529 18.3406 36.7976 18.3831 36.6273 18.3406C36.2018 18.2129 35.8188 18.0427 35.5209 17.8299C35.1805 17.6172 34.8827 17.4044 34.5848 17.1491H34.6273C34.6273 17.2767 34.5848 17.3618 34.5422 17.4895C34.4997 17.5746 34.372 17.6597 34.2018 17.6597C33.9039 17.6597 33.6486 17.5321 33.4359 17.4044C32.9678 17.1065 32.6273 16.7661 32.3295 16.3831C31.7763 15.6597 31.4359 14.7661 31.521 13.915H31.5635Z" fill="#36661C"/>
<path d="M40.1592 16.9362C40.2869 16.8511 40.372 16.7234 40.3295 16.6383C40.2444 16.5106 40.1592 16.4255 39.989 16.383C39.7337 16.2128 39.4358 16.0851 39.138 16C38.7975 15.8723 38.4997 15.7447 38.1592 15.6596C37.8188 15.5319 37.4784 15.4468 37.1805 15.3617L36.4146 15.1064L37.0954 14.8511C37.3933 14.766 37.6486 14.5957 37.9039 14.4681C38.1593 14.3404 38.3295 14.1277 38.3295 14.0851C38.3295 14.0851 38.2444 14 38.1167 13.9574C37.9749 13.9007 37.833 13.8582 37.6912 13.8298C37.3507 13.7021 37.0103 13.6596 36.6699 13.5745C37.0529 13.5745 37.3933 13.617 37.7337 13.6596C37.9039 13.6879 38.06 13.7163 38.2018 13.7447C38.372 13.8298 38.5422 13.8723 38.6273 14.0425C38.6699 14.1702 38.5848 14.2979 38.4997 14.4255C38.3862 14.5106 38.2727 14.5957 38.1592 14.6808C37.8756 14.8511 37.5919 14.9929 37.3082 15.1064V15.0638C37.989 15.2766 38.6273 15.4894 39.2656 15.7872C39.5635 15.9149 39.9039 16.0425 40.1592 16.2553C40.2869 16.3404 40.4146 16.4681 40.4571 16.6383C40.4571 16.766 40.3295 16.8936 40.2018 16.9787L40.1592 16.9362Z" fill="#5CB523"/>
<path d="M34.4146 13.2766C34.2018 13.4043 33.989 13.4894 33.7763 13.5745C33.5635 13.6596 33.3082 13.7021 33.0529 13.7872C32.8401 13.8298 32.5848 13.8724 32.3295 13.9149C32.0741 13.9149 31.8188 13.9575 31.5635 13.9149C32.4997 13.688 33.45 13.4752 34.4146 13.2766Z" fill="#5CB523"/>
<path d="M27.9465 16.3831L27.138 16.298L26.372 16.1278V16.0853C26.5422 15.9576 26.7124 15.915 26.8401 15.8725C26.9678 15.8299 27.0954 15.8299 27.2231 15.8725C27.3933 15.8725 27.521 15.915 27.6061 16.0002C27.7337 16.0853 27.8614 16.1704 27.9465 16.3406V16.3831Z" fill="#36661C"/>
<path d="M31.4358 13.4895C31.6061 13.6597 31.8614 13.8725 32.1167 14.0427C32.372 14.2413 32.6415 14.4115 32.9252 14.5533C33.521 14.8512 34.1593 15.1491 34.7976 15.3618C36.0316 15.8299 37.3507 16.2129 38.6699 16.5108C37.3507 16.2555 35.989 15.9576 34.6699 15.5746C34.0316 15.3618 33.3507 15.1065 32.7124 14.8087C32.4004 14.6668 32.0883 14.5108 31.7763 14.3406C31.5209 14.1278 31.2231 13.9576 30.9678 13.6597L31.4358 13.4895Z" fill="#36661C"/>
<path d="M30.4571 13.3191C29.9039 12.8511 29.606 12.383 29.3082 11.8723C29.0529 11.3617 28.8826 10.8511 28.755 10.2979C28.5422 9.23403 28.5848 8.1702 28.755 7.14893C28.6699 8.1702 28.7124 9.23403 29.0529 10.2979C29.1805 10.7659 29.3933 11.2766 29.6912 11.7447C29.989 12.2128 30.372 12.6808 30.8401 13.0213L30.4571 13.3191Z" fill="#36661C"/>
<path d="M29.0103 10.9361C29.5209 10.4255 29.989 9.87231 30.372 9.27656C30.7692 8.70919 31.0954 8.09926 31.3507 7.44678C31.1522 8.09926 30.8685 8.72337 30.4997 9.31912C30.1592 9.94323 29.7479 10.5248 29.2656 11.0638L29.0103 10.9361Z" fill="#36661C"/>
<path d="M28.6699 9.57455C28.1309 9.20576 27.6486 8.78022 27.2231 8.29796C26.7975 7.87242 26.4571 7.36179 26.372 6.80859C26.4997 7.31923 26.8827 7.82987 27.3507 8.2554C27.8046 8.68093 28.3011 9.0781 28.8401 9.44689L28.6699 9.57455Z" fill="#36661C"/>
<path d="M29.521 12.0001C28.8968 11.7448 28.3578 11.447 27.9039 11.1065C27.3933 10.7661 27.0103 10.3406 26.755 9.91504C27.0529 10.3406 27.4784 10.7236 27.989 11.0214C28.4571 11.3618 29.0529 11.6172 29.6061 11.7874L29.521 12.0001Z" fill="#36661C"/>
<path d="M33.989 15.1065C34.528 14.9646 35.0812 14.837 35.6486 14.7235C36.2018 14.6384 36.755 14.5533 37.3082 14.5107C36.755 14.5533 36.2018 14.7235 35.6912 14.8512C35.1522 14.993 34.6132 15.149 34.0741 15.3193L33.989 15.1065Z" fill="#36661C"/>
<path d="M35.0529 15.4895C35.3507 16.2555 35.7763 17.0214 36.4571 17.7023C36.0883 17.3902 35.7621 17.0498 35.4784 16.681C35.2231 16.3122 34.9961 15.9434 34.7976 15.5746L35.0529 15.4895Z" fill="#36661C"/>
<path d="M33.0954 14.7659C33.0671 15.1347 33.0954 15.5177 33.1805 15.9149C33.2656 16.2979 33.4359 16.6808 33.7337 16.9787C33.3933 16.6808 33.1805 16.2979 33.0529 15.9149C32.911 15.5461 32.8259 15.1489 32.7976 14.7234L33.0954 14.7659Z" fill="#36661C"/>
<g style="mix-blend-mode:multiply">
<path d="M32.3295 8.63829C32.2727 8.75176 32.216 8.87942 32.1593 9.02127C31.9039 9.74467 31.8188 10.4681 31.8188 11.234L31.521 11.6596C31.4075 11.3191 31.3224 10.9787 31.2656 10.6383C31.1805 10.0425 31.1805 9.40425 31.3507 8.8085C31.4784 8.25531 31.6912 7.70212 32.2018 7.14893L32.3295 8.63829Z" fill="#A9C994"/>
</g>
<path d="M42.4997 7.31913C42.2869 7.06381 41.9465 7.02126 41.6061 6.9787C41.2657 6.93615 40.9252 6.93615 40.5848 6.9787C39.9039 7.02126 39.2231 7.10636 38.5848 7.23402L38.2869 7.31913L38.1167 7.06381C38.0316 6.93615 37.9465 6.80849 37.8188 6.76594C37.7337 6.72338 37.6486 6.68083 37.521 6.68083C37.2656 6.68083 36.8827 6.80849 36.5848 6.93615C36.2869 7.10636 35.989 7.31913 35.6912 7.53189C35.3933 7.74466 35.138 7.99998 34.8827 8.21275L34.0742 8.93615L33.989 7.95743C33.989 7.84395 33.9749 7.74466 33.9465 7.65955C33.904 7.57445 33.8614 7.53189 33.8614 7.53189C33.8614 7.53189 33.8188 7.53189 33.6912 7.57445C33.6061 7.60282 33.5068 7.65955 33.3933 7.74466C32.9678 8.08509 32.6699 8.59572 32.4571 9.06381C32.2444 9.57445 32.1167 10.1276 32.0316 10.7234C31.904 11.2766 31.9039 11.8298 31.8614 12.4255H31.8188C31.6486 11.2766 31.6486 10.0851 32.0316 8.9787C32.2444 8.42551 32.4997 7.87232 33.0103 7.48934C33.1522 7.37587 33.3082 7.27658 33.4784 7.19147C33.6486 7.14892 33.8614 7.10636 34.0316 7.19147C34.2444 7.23402 34.372 7.40424 34.4146 7.53189C34.4997 7.70211 34.5422 7.82977 34.5422 7.99998L34.4571 7.95743C35.0103 7.44679 35.6061 6.9787 36.2869 6.63828C36.6699 6.46807 37.0529 6.29785 37.521 6.29785C37.7337 6.29785 37.9465 6.38296 38.1167 6.51062C38.2869 6.63828 38.4146 6.80849 38.4997 6.9787L38.4571 6.93615C39.138 6.80849 39.8614 6.76594 40.5848 6.72338C40.9252 6.72338 41.3082 6.76594 41.6486 6.85104C41.989 6.8936 42.372 7.02126 42.5422 7.27658L42.4997 7.31913Z" fill="#7DC435"/>
<g style="mix-blend-mode:multiply">
<path d="M34.4571 13.2341C34.9678 13.3476 35.4926 13.4327 36.0316 13.4894C36.2585 13.5178 36.4855 13.532 36.7125 13.532C36.7125 13.532 37.6061 13.6171 37.8188 13.6597C38.0316 13.7022 38.372 13.7873 38.372 13.8724C38.372 14.0852 37.5635 14.2129 37.0103 14.1703C36.6273 14.1703 36.2869 14.1277 35.9465 14.0852C35.2656 13.915 34.6699 13.7873 34.0316 13.5746C33.9181 13.5178 33.8046 13.4753 33.6912 13.4469L34.4571 13.2341Z" fill="#C3DAB4"/>
</g>
<path d="M32.2869 12.7661C32.9252 12.8938 33.5635 13.0215 34.1593 13.1066C34.7976 13.1917 35.4358 13.3193 36.0316 13.3619C36.3436 13.3619 36.6415 13.3619 36.9252 13.3619C37.1805 13.3193 37.4784 13.2768 37.5635 13.1917C37.677 13.1066 37.6912 12.9647 37.6061 12.7661C37.521 12.5959 37.3507 12.3832 37.1805 12.213L36.8827 11.8725L37.3933 11.7874C37.9465 11.7449 38.4997 11.6172 39.0103 11.5321C39.5635 11.447 40.0741 11.3193 40.5848 11.1491C40.7975 11.064 41.0103 10.9789 41.2231 10.8513C41.3933 10.7661 41.5209 10.6385 41.4784 10.5108C41.4784 10.4257 41.3508 10.2555 41.1805 10.1278C41.0103 9.95763 40.755 9.82997 40.5422 9.70231L40.2018 9.5321L40.4997 9.40444C41.0103 9.14912 41.4358 8.85125 41.8614 8.55338C42.0741 8.38317 42.2444 8.1704 42.372 8.00019C42.4997 7.78742 42.5848 7.5321 42.4997 7.31934H42.5422C42.6273 7.5321 42.5848 7.78742 42.4997 8.04274C42.3578 8.24132 42.1876 8.4399 41.989 8.63848C41.6486 8.97891 41.1805 9.31934 40.6699 9.57465V9.5321C40.9252 9.65976 41.138 9.78742 41.3933 9.91508C41.5635 10.0853 41.8188 10.2981 41.8188 10.5108C41.8614 10.7661 41.6486 10.9364 41.4358 11.1066C41.2231 11.2342 40.9678 11.3193 40.7124 11.4044C39.6912 11.7874 38.5848 11.9576 37.4784 12.0853V12.0427C37.6486 12.2555 37.8188 12.4683 37.9465 12.681C38.0316 12.9364 38.0741 13.2342 37.8188 13.4044C37.5635 13.5747 37.2656 13.5747 36.9252 13.6172C36.6132 13.6172 36.3011 13.603 35.989 13.5747C34.755 13.4044 33.521 13.1491 32.2869 12.8087V12.7661Z" fill="#488C1C"/>
<g style="mix-blend-mode:multiply">
<path d="M32.2444 12.7659C32.5564 12.539 32.8685 12.3262 33.1805 12.1276C35.0954 10.851 37.0529 9.70211 39.138 8.72339H39.1805C38.7124 9.02126 38.2018 9.31913 37.7337 9.61701C37.2514 9.90069 36.7692 10.1986 36.2869 10.5106C35.3508 11.1064 34.4146 11.7021 33.4784 12.3404C33.2231 12.539 32.9536 12.7234 32.6699 12.8936L32.2444 12.7659Z" fill="#A9C994"/>
</g>
<path d="M39.1805 8.72339C37.0954 9.74467 35.0954 10.8936 33.2656 12.1702C32.3011 12.7943 31.3791 13.461 30.4997 14.1702C29.6061 14.851 28.755 15.5745 27.9465 16.383V16.3404C28.2869 15.9432 28.6699 15.5461 29.0954 15.1489C29.4926 14.7801 29.9039 14.4113 30.3295 14.0425C31.1805 13.3191 32.1167 12.6383 33.0529 12C34.0316 11.3617 34.9678 10.7659 35.989 10.2128C36.4997 9.92906 37.0245 9.65956 37.5635 9.40424C38.1025 9.17729 38.6273 8.95034 39.138 8.72339H39.1805Z" fill="#4D9E35"/>
<path d="M26.372 16.1276C27.3082 15.3617 28.372 14.6808 29.3933 13.9574C30.4146 13.2766 31.4358 12.5957 32.4997 12C34.6273 10.7234 36.8401 9.65956 39.138 8.72339H39.1805C38.6132 8.97871 38.06 9.24821 37.5209 9.5319C36.9819 9.81559 36.4429 10.0993 35.9039 10.383C34.7975 10.9362 33.7337 11.5319 32.6699 12.1702C31.6061 12.7659 30.5848 13.4468 29.5635 14.1276L27.989 15.1064C27.4359 15.4468 26.8827 15.7447 26.4146 16.1276H26.372Z" fill="#7DC435"/>
<path d="M29.0529 11.4042C29.0529 12.851 27.8614 14.0851 26.372 14.0851C24.8827 14.0851 23.6912 12.851 23.6912 11.4042C23.6912 9.91488 24.8827 8.72339 26.372 8.72339C27.8614 8.72339 29.0529 9.91488 29.0529 11.4042Z" fill="#CF3D12"/>
<path style="mix-blend-mode:screen" d="M24.4146 12.5957C23.9039 11.7872 23.9039 10.7659 24.4997 9.95744C25.2656 8.89361 26.755 8.68084 27.7763 9.4468C27.9465 9.58864 28.0883 9.73049 28.2018 9.87233C26.2869 9.48935 24.8401 10.9362 24.4146 12.5957Z" fill="url(#paint8_linear_1_1303)"/>
<path style="mix-blend-mode:screen" d="M28.7124 15.4042C26.6273 16.3829 24.4571 16.0851 23.8614 14.8085C23.2656 13.4893 24.4571 11.6595 26.5422 10.7234C28.6273 9.74465 30.7976 9.99997 31.3933 11.3191C31.989 12.5957 30.7975 14.4255 28.7124 15.4042Z" fill="url(#paint9_radial_1_1303)"/>
<path d="M35.8614 11.0212C35.8614 12.5105 34.6699 13.702 33.1805 13.702C31.6912 13.702 30.4997 12.5105 30.4997 11.0212C30.4997 9.53182 31.6912 8.34033 33.1805 8.34033C34.6699 8.34033 35.8614 9.53182 35.8614 11.0212Z" fill="#CF3D12"/>
<path style="mix-blend-mode:screen" d="M31.1805 12.2553C30.6699 11.4468 30.7125 10.3829 31.3082 9.57442C32.0742 8.55315 33.521 8.34038 34.5848 9.10634C34.755 9.21981 34.8969 9.36166 35.0103 9.53187C33.0954 9.14889 31.6486 10.5957 31.1805 12.2553Z" fill="url(#paint10_linear_1_1303)"/>
<path style="mix-blend-mode:screen" d="M35.5209 15.0212C33.4358 15.9999 31.2656 15.7446 30.6699 14.4254C30.0741 13.1488 31.2656 11.319 33.3507 10.3403C35.4358 9.36159 37.6061 9.61691 38.2018 10.9361C38.7975 12.2127 37.606 14.0424 35.5209 15.0212Z" fill="url(#paint11_radial_1_1303)"/>
<path d="M35.0103 14.4256C35.0103 16.0426 33.7337 17.3618 32.1167 17.3618C30.4997 17.3618 29.1805 16.0426 29.1805 14.4256C29.1805 12.8086 30.4997 11.532 32.1167 11.532C33.7337 11.532 35.0103 12.8086 35.0103 14.4256Z" fill="#CF3D12"/>
<path style="mix-blend-mode:screen" d="M29.9465 15.7448C29.3933 14.8938 29.3933 13.7448 30.0316 12.8512C30.8826 11.7448 32.4997 11.4895 33.606 12.3406C33.8046 12.4824 33.9607 12.6384 34.0741 12.8087C31.989 12.3831 30.4571 13.9576 29.9465 15.7448Z" fill="url(#paint12_linear_1_1303)"/>
<path style="mix-blend-mode:screen" d="M34.6699 18.8086C32.372 19.8724 29.989 19.5745 29.3507 18.1703C28.6699 16.766 29.989 14.766 32.2869 13.7022C34.5422 12.6384 36.9252 12.9362 37.6061 14.3405C38.2444 15.7448 36.9252 17.7448 34.6699 18.8086Z" fill="url(#paint13_radial_1_1303)"/>
<defs>
<linearGradient id="paint0_linear_1_1303" x1="-12.7344" y1="30.0426" x2="-12.3939" y2="-2.6383" gradientUnits="userSpaceOnUse">
<stop stop-color="white"/>
<stop offset="1"/>
</linearGradient>
<linearGradient id="paint1_linear_1_1303" x1="26.755" y1="-34.383" x2="65.7337" y2="-9.40425" gradientUnits="userSpaceOnUse">
<stop stop-color="#85726D"/>
<stop offset="1" stop-color="white"/>
</linearGradient>
<linearGradient id="paint2_linear_1_1303" x1="10.7975" y1="1.78735" x2="41.3933" y2="27.1491" gradientUnits="userSpaceOnUse">
<stop stop-color="white"/>
<stop offset="1"/>
</linearGradient>
<linearGradient id="paint3_linear_1_1303" x1="117.393" y1="5.82972" x2="52.755" y2="48.2978" gradientUnits="userSpaceOnUse">
<stop stop-color="white"/>
<stop offset="1"/>
</linearGradient>
<radialGradient id="paint4_radial_1_1303" cx="0" cy="0" r="1" gradientUnits="userSpaceOnUse" gradientTransform="translate(25.4784 16.3406) scale(24.766 24.766)">
<stop stop-color="white"/>
<stop offset="0.1" stop-color="#EFEFEF"/>
<stop offset="0.3" stop-color="#C3C3C3"/>
<stop offset="0.6" stop-color="#878787"/>
<stop offset="1"/>
</radialGradient>
<radialGradient id="paint5_radial_1_1303" cx="0" cy="0" r="1" gradientUnits="userSpaceOnUse" gradientTransform="translate(36.8401 10.851) scale(9.40426)">
<stop stop-color="#8C683E"/>
<stop offset="0.2" stop-color="#997953"/>
<stop offset="0.4" stop-color="#A98E6E"/>
<stop offset="0.6" stop-color="#D3C5B5"/>
<stop offset="0.7" stop-color="#E6DED5"/>
<stop offset="0.9" stop-color="#F5F1EE"/>
<stop offset="1" stop-color="white"/>
</radialGradient>
<radialGradient id="paint6_radial_1_1303" cx="0" cy="0" r="1" gradientUnits="userSpaceOnUse" gradientTransform="translate(28.2444 10.4256) scale(4.85106 4.85106)">
<stop stop-color="#8C683E"/>
<stop offset="0.2" stop-color="#997953"/>
<stop offset="0.4" stop-color="#A98E6E"/>
<stop offset="0.6" stop-color="#D3C5B5"/>
<stop offset="0.7" stop-color="#E6DED5"/>
<stop offset="0.9" stop-color="#F5F1EE"/>
<stop offset="1" stop-color="white"/>
</radialGradient>
<radialGradient id="paint7_radial_1_1303" cx="0" cy="0" r="1" gradientUnits="userSpaceOnUse" gradientTransform="translate(35.606 16.2127) scale(6.04255 6.04255)">
<stop stop-color="#8C683E"/>
<stop offset="0.2" stop-color="#997953"/>
<stop offset="0.4" stop-color="#A98E6E"/>
<stop offset="0.6" stop-color="#D3C5B5"/>
<stop offset="0.7" stop-color="#E6DED5"/>
<stop offset="0.9" stop-color="#F5F1EE"/>
<stop offset="1" stop-color="white"/>
</radialGradient>
<linearGradient id="paint8_linear_1_1303" x1="41.6061" y1="9.57446" x2="40.7976" y2="14.8936" gradientUnits="userSpaceOnUse">
<stop stop-color="white"/>
<stop offset="1"/>
</linearGradient>
<radialGradient id="paint9_radial_1_1303" cx="0" cy="0" r="1" gradientUnits="userSpaceOnUse" gradientTransform="translate(27.6486 13.0638) scale(2.29787 2.29787)">
<stop stop-color="#FF8957"/>
<stop offset="0.2" stop-color="#A05434"/>
<stop offset="0.3" stop-color="#713B25"/>
<stop offset="0.5" stop-color="#4A2718"/>
<stop offset="0.6" stop-color="#2E180F"/>
<stop offset="0.8" stop-color="#130A06"/>
<stop offset="1"/>
</radialGradient>
<linearGradient id="paint10_linear_1_1303" x1="48.372" y1="9.234" x2="47.6061" y2="14.5106" gradientUnits="userSpaceOnUse">
<stop stop-color="white"/>
<stop offset="1"/>
</linearGradient>
<radialGradient id="paint11_radial_1_1303" cx="0" cy="0" r="1" gradientUnits="userSpaceOnUse" gradientTransform="translate(34.4146 12.6807) scale(2.29787 2.29787)">
<stop stop-color="#FF8957"/>
<stop offset="0.2" stop-color="#A05434"/>
<stop offset="0.3" stop-color="#713B25"/>
<stop offset="0.5" stop-color="#4A2718"/>
<stop offset="0.6" stop-color="#2E180F"/>
<stop offset="0.8" stop-color="#130A06"/>
<stop offset="1"/>
</radialGradient>
<linearGradient id="paint12_linear_1_1303" x1="47.521" y1="12.298" x2="46.6273" y2="18.0853" gradientUnits="userSpaceOnUse">
<stop stop-color="white"/>
<stop offset="1"/>
</linearGradient>
<radialGradient id="paint13_radial_1_1303" cx="0" cy="0" r="1" gradientUnits="userSpaceOnUse" gradientTransform="translate(33.4784 16.2554) scale(2.51064 2.51064)">
<stop stop-color="#FF8957"/>
<stop offset="0.2" stop-color="#A05434"/>
<stop offset="0.3" stop-color="#713B25"/>
<stop offset="0.5" stop-color="#4A2718"/>
<stop offset="0.6" stop-color="#2E180F"/>
<stop offset="0.8" stop-color="#130A06"/>
<stop offset="1"/>
</radialGradient>
</defs>
</svg>
