<svg width="75" height="40" viewBox="0 0 75 40" fill="none" xmlns="http://www.w3.org/2000/svg">
<path d="M37.0027 9.65747C53.5577 9.95938 61.6088 14.941 62.9171 22.6902C64.2255 30.4897 55.0673 37.2325 37.6568 37.2325C20.2966 37.2325 9.07541 30.4897 13.0506 18.5137C14.7112 13.4314 25.2279 9.45619 37.0027 9.65747Z" fill="#E0D1B1"/>
<path d="M58.6904 25.5081C60.9044 27.0176 61.7095 30.3387 60.3006 32.6534C58.0865 31.1438 57.3317 27.8227 58.6904 25.5081C59.3948 25.9609 58.2878 26.2125 58.6904 25.5081Z" fill="#EAE2D1"/>
<path d="M59.7471 27.1687C61.6089 28.7789 61.9611 31.8987 60.4515 33.8612C58.5897 32.251 58.2375 29.1312 59.7471 27.1687C60.3006 27.6719 59.2942 27.7725 59.7471 27.1687Z" fill="#EAE2D1"/>
<path d="M60.7031 27.5712C60.4012 30.1878 57.8349 32.3515 55.2183 32.2005C55.5202 29.5839 58.0865 27.4202 60.7031 27.5712C60.6025 28.3763 59.898 27.5209 60.7031 27.5712Z" fill="#EAE2D1"/>
<path d="M56.5266 30.238C58.4891 31.496 59.2439 34.3642 58.1369 36.4273C56.1241 35.1693 55.4196 32.3011 56.5266 30.238C57.1305 30.6406 56.1744 30.8922 56.5266 30.238Z" fill="#EAE2D1"/>
<path d="M58.64 30.3892C57.3317 33.0561 53.8597 34.3141 51.1424 33.1567C52.4507 30.5401 55.9731 29.2822 58.64 30.3892C58.2375 31.2446 57.8349 30.0369 58.64 30.3892Z" fill="#EAE2D1"/>
<path d="M54.1113 30.6406C56.1744 32.1502 56.8285 35.3203 55.4699 37.484C53.3565 36.0248 52.7527 32.8044 54.1113 30.6406C54.7654 31.1438 53.7087 31.3451 54.1113 30.6406Z" fill="#EAE2D1"/>
<path d="M54.061 31.4458C56.0234 33.4586 56.1241 37.0313 54.2623 39.1447C52.2495 37.1319 52.1488 33.5592 54.061 31.4458C54.6648 32.0496 53.4571 32.1 54.061 31.4458Z" fill="#EAE2D1"/>
<path d="M55.7718 33.6598C54.6648 36.1254 51.545 37.4337 49.029 36.5279C50.136 34.0623 53.2559 32.754 55.7718 33.6598C55.4196 34.4145 54.9667 33.4082 55.7718 33.6598Z" fill="#EAE2D1"/>
<path d="M50.3877 29.9866C52.4004 31.949 52.5011 35.4714 50.6393 37.5848C48.6768 35.6223 48.5762 32.1 50.3877 29.9866C51.0418 30.5904 49.8341 30.6407 50.3877 29.9866Z" fill="#EAE2D1"/>
<path d="M47.8717 32.0999C50.5386 33.2572 52.0482 36.6286 51.0418 39.3962C48.3749 38.2388 46.9156 34.8674 47.8717 32.0999C48.7271 32.4521 47.5698 32.9553 47.8717 32.0999Z" fill="#EAE2D1"/>
<path d="M47.9723 31.7478C49.3813 33.7606 48.9787 36.8301 47.0666 38.3396C45.6576 36.3772 46.0602 33.3077 47.9723 31.7478C48.4252 32.402 47.3685 32.251 47.9723 31.7478Z" fill="#EAE2D1"/>
<path d="M44.3997 31.3955C46.664 32.8548 47.4692 36.1758 46.1609 38.5408C43.8462 37.0816 43.0411 33.7605 44.3997 31.3955C45.1041 31.8484 43.9971 32.1 44.3997 31.3955Z" fill="#EAE2D1"/>
<path d="M44.0977 32.0496C46.1608 34.0623 46.3621 37.7357 44.5003 39.9497C42.4372 37.9369 42.2359 34.2636 44.0977 32.0496C44.7519 32.7037 43.5442 32.754 44.0977 32.0496Z" fill="#EAE2D1"/>
<path d="M43.3429 31.647C44.3493 33.9113 43.2926 36.8299 41.0785 37.9369C40.1225 35.7228 41.1792 32.754 43.3429 31.647C43.6448 32.3514 42.6888 31.9992 43.3429 31.647Z" fill="#EAE2D1"/>
<path d="M39.7703 31.647C42.1856 32.8546 43.3932 36.0751 42.3365 38.5407C39.9212 37.3331 38.7639 34.1629 39.7703 31.647C40.525 32.0495 39.4683 32.4018 39.7703 31.647Z" fill="#EAE2D1"/>
<path d="M43.0913 33.7605C42.4372 36.6287 39.3677 38.7421 36.4995 38.2389C37.1537 35.421 40.1728 33.3076 43.0913 33.7605C42.8901 34.6663 42.1856 33.6095 43.0913 33.7605Z" fill="#EAE2D1"/>
<path d="M36.0466 32.905C38.5123 33.1566 40.5754 35.4713 40.4747 37.937C38.0091 37.6854 35.9963 35.3707 36.0466 32.905C36.8014 32.9553 36.0466 33.6598 36.0466 32.905Z" fill="#EAE2D1"/>
<path d="M40.6257 36.9809C38.462 38.893 34.839 38.7924 32.7759 36.7293C34.9396 34.8172 38.6129 34.9681 40.6257 36.9809C40.0219 36.3771 39.9716 37.5847 40.6257 36.9809Z" fill="#EAE2D1"/>
<path d="M37.9084 37.3332C35.5938 37.9371 32.9771 36.4778 32.2727 34.2134C34.5874 33.6096 37.204 35.1192 37.9084 37.3332C37.6569 36.6791 37.204 37.5345 37.9084 37.3332Z" fill="#EAE2D1"/>
<path d="M35.8957 36.9307C33.9332 38.3899 30.9141 38.0377 29.3542 36.1759C31.2663 34.7166 34.2855 35.0688 35.8957 36.9307C35.3925 36.3268 35.2918 37.3835 35.8957 36.9307Z" fill="#EAE2D1"/>
<path d="M33.3294 33.5088C33.6816 36.4776 31.4173 39.4968 28.4484 40C28.1465 37.0311 30.4109 34.012 33.3294 33.5088C33.4301 34.4145 32.4237 33.6597 33.3294 33.5088Z" fill="#EAE2D1"/>
<path d="M32.6249 33.8107C31.4172 36.2764 28.1968 37.4841 25.6305 36.4274C26.8382 33.9617 30.1089 32.754 32.6249 33.8107C32.2727 34.5655 31.8701 33.4585 32.6249 33.8107Z" fill="#EAE2D1"/>
<path d="M27.0395 31.7981C29.2032 33.358 29.807 36.7294 28.3477 38.9435C26.2343 37.3836 25.5802 34.0625 27.0395 31.7981C27.6936 32.3013 26.5866 32.5026 27.0395 31.7981Z" fill="#EAE2D1"/>
<path d="M30.0083 34.4147C29.1026 37.2829 25.8318 39.0944 22.9636 38.3899C23.8693 35.5217 27.1401 33.7102 30.0083 34.4147C29.7567 35.3204 29.1026 34.2134 30.0083 34.4147Z" fill="#EAE2D1"/>
<path d="M26.2343 31.2949C27.291 33.7606 26.184 36.9307 23.819 38.1887C22.712 35.723 23.8693 32.5529 26.2343 31.2949C26.5866 32.0497 25.4796 31.6975 26.2343 31.2949Z" fill="#EAE2D1"/>
<path d="M23.7184 29.4834C25.2783 31.7478 24.6745 35.2198 22.4604 36.8804C20.9508 34.5657 21.5547 31.1439 23.7184 29.4834C24.2216 30.1879 23.0642 29.9866 23.7184 29.4834Z" fill="#EAE2D1"/>
<path d="M24.9261 34.9683C22.2088 35.5218 19.1896 33.7606 18.4348 31.0434C21.1521 30.4395 24.1713 32.3013 24.9261 34.9683C24.7248 34.1128 24.1209 35.1192 24.9261 34.9683Z" fill="#EAE2D1"/>
<path d="M22.6113 29.0808C22.6113 31.8484 20.2967 34.3643 17.5291 34.5656C17.5291 31.8484 19.8438 29.2821 22.6113 29.0808C22.6113 29.9362 21.7559 29.1814 22.6113 29.0808Z" fill="#EAE2D1"/>
<path d="M21.0012 29.2317C20.2967 32.1502 17.1266 34.314 14.1074 33.8108C14.8119 30.8419 18.0323 28.7285 21.0012 29.2317C20.7999 30.1374 20.0954 29.0807 21.0012 29.2317Z" fill="#EAE2D1"/>
<path d="M19.4916 27.3197C19.0387 30.0369 16.2711 32.0497 13.5539 31.7478C14.0571 29.0808 16.8246 27.0177 19.4916 27.3197C19.3406 28.1751 18.6865 27.219 19.4916 27.3197Z" fill="#EAE2D1"/>
<path d="M19.089 28.4267C16.8749 30.0872 13.4029 29.7853 11.5914 27.7222C13.7551 26.0113 17.2272 26.3636 19.089 28.4267C18.4852 27.7725 18.3845 28.9299 19.089 28.4267Z" fill="#EAE2D1"/>
<path d="M16.3718 30.4394C14.0571 30.0871 12.1952 27.7725 12.3965 25.4578C14.7112 25.7597 16.573 28.0744 16.3718 30.4394C16.4221 29.6846 15.6673 30.3387 16.3718 30.4394Z" fill="#EAE2D1"/>
<path d="M17.7807 28.2254C14.8622 28.6279 11.8933 26.4642 11.3398 23.596C14.208 23.2438 17.1769 25.4075 17.7807 28.2254C17.5794 27.3699 16.8749 28.3763 17.7807 28.2254Z" fill="#EAE2D1"/>
<path d="M61.156 25.8605C59.5458 27.9739 56.2247 28.4268 54.0106 26.9172C55.6712 24.8541 58.9923 24.3509 61.156 25.8605C60.6528 26.5147 60.5018 25.4076 61.156 25.8605Z" fill="#EAE2D1"/>
<path d="M56.6272 22.0361C55.7718 24.9546 52.5011 26.9674 49.4819 26.3635C50.287 23.3947 53.6081 21.3819 56.6272 22.0361C56.3253 22.9418 55.6712 21.8348 56.6272 22.0361Z" fill="#EAE2D1"/>
<path d="M62.3133 31.4962C60.7031 33.8612 57.1808 34.6664 54.7151 33.2071C56.275 30.8421 59.8477 30.037 62.3133 31.4962C61.8101 32.2007 61.5082 31.0434 62.3133 31.4962Z" fill="#EAE2D1"/>
<path d="M54.7654 31.0938C57.6336 31.3957 60.049 34.1129 59.898 36.9811C57.0298 36.7295 54.6648 33.962 54.7654 31.0938C55.6712 31.1944 54.7654 31.9995 54.7654 31.0938Z" fill="#EAE2D1"/>
<path d="M53.8093 26.1623C51.6959 28.2758 47.922 28.3764 45.7079 26.4139C47.8213 24.3005 51.5953 24.1999 53.8093 26.1623C53.1552 26.8165 53.1552 25.5585 53.8093 26.1623Z" fill="#EAE2D1"/>
<path d="M52.9539 25.8604C52.1488 28.3261 49.2806 29.9363 46.7646 29.2821C47.5697 26.8165 50.438 25.2063 52.9539 25.8604C52.7023 26.6152 52.1488 25.6591 52.9539 25.8604Z" fill="#EAE2D1"/>
<path d="M46.513 29.6343C48.4252 31.1439 48.878 34.1127 47.4691 36.0752C45.6073 34.6159 45.2047 31.5967 46.513 29.6343C47.1169 30.1375 46.1105 30.2884 46.513 29.6343Z" fill="#EAE2D1"/>
<path d="M53.5074 25.6592C54.1113 28.1751 52.501 30.993 50.0354 31.7478C49.4316 29.2822 51.0418 26.4643 53.5074 25.6592C53.7087 26.4643 52.7527 25.9108 53.5074 25.6592Z" fill="#EAE2D1"/>
<path d="M48.8781 24.8037C49.029 27.1687 47.1169 29.4834 44.7519 29.8356C44.6009 27.4706 46.513 25.1056 48.8781 24.8037C48.9284 25.5585 48.1233 24.9043 48.8781 24.8037Z" fill="#EAE2D1"/>
<path d="M55.4196 22.5898C54.9164 25.1057 52.2998 26.9675 49.7335 26.6656C50.2367 24.1497 52.9036 22.2375 55.4196 22.5898C55.2686 23.3446 54.6145 22.4891 55.4196 22.5898Z" fill="#EAE2D1"/>
<path d="M51.7966 22.3884C50.136 24.854 46.5131 25.7094 43.9468 24.2502C45.6073 21.7845 49.2303 20.9291 51.7966 22.3884C51.2934 23.1432 50.9915 21.9355 51.7966 22.3884Z" fill="#EAE2D1"/>
<path d="M49.6328 21.2814C48.6265 23.6968 45.6576 25.0554 43.192 24.2503C44.148 21.835 47.1672 20.4763 49.6328 21.2814C49.3309 22.0362 48.8781 21.0298 49.6328 21.2814Z" fill="#EAE2D1"/>
<path d="M45.406 18.2622C47.0162 20.7782 46.3621 24.5018 43.9971 26.3133C42.3365 23.7973 42.9907 20.0737 45.406 18.2622C45.9092 19.0673 44.6512 18.8157 45.406 18.2622Z" fill="#EAE2D1"/>
<path d="M46.2111 21.6336C45.7079 24.4012 42.8397 26.5649 40.0219 26.2127C40.525 23.4451 43.3932 21.2814 46.2111 21.6336C46.0602 22.489 45.3557 21.533 46.2111 21.6336Z" fill="#EAE2D1"/>
<path d="M41.0282 20.124C41.1289 23.0425 38.7135 25.8604 35.795 26.2127C35.6944 23.2438 38.1097 20.4763 41.0282 20.124C41.0282 21.0298 40.1225 20.2247 41.0282 20.124Z" fill="#EAE2D1"/>
<path d="M39.1161 21.7341C40.6257 23.8475 40.1728 27.1183 38.16 28.7788C36.6505 26.6654 37.1033 23.3444 39.1161 21.7341C39.569 22.3883 38.5123 22.2373 39.1161 21.7341Z" fill="#EAE2D1"/>
<path d="M43.0913 27.3699C41.5314 29.3827 38.3613 29.9362 36.2479 28.5272C37.7575 26.5145 40.9276 25.961 43.0913 27.3699C42.5881 28.024 42.4372 26.917 43.0913 27.3699Z" fill="#EAE2D1"/>
<path d="M39.5187 28.4771C42.4372 29.3325 44.3996 32.6032 43.7455 35.5721C40.8269 34.767 38.8645 31.4459 39.5187 28.4771C40.4244 28.7286 39.3174 29.3828 39.5187 28.4771Z" fill="#EAE2D1"/>
<path d="M43.9468 32.3013C42.5378 34.7166 39.2167 35.723 36.7008 34.465C38.1097 32.0497 41.4811 31.0936 43.9468 32.3013C43.5442 33.0561 43.192 31.9491 43.9468 32.3013Z" fill="#EAE2D1"/>
<path d="M41.3805 30.993C39.9715 33.358 36.6001 34.3644 34.1345 33.1064C35.5434 30.6911 38.9148 29.735 41.3805 30.993C40.9276 31.6975 40.6257 30.5904 41.3805 30.993Z" fill="#EAE2D1"/>
<path d="M39.3677 34.163C37.053 35.0688 34.1848 33.9114 33.1281 31.6471C35.4428 30.7413 38.311 31.949 39.3677 34.163C39.0155 33.4586 38.6632 34.4146 39.3677 34.163Z" fill="#EAE2D1"/>
<path d="M38.6632 28.0242C41.6321 28.4267 44.0474 31.3453 43.8461 34.3644C40.827 33.9619 38.462 30.993 38.6632 28.0242C39.6193 28.1248 38.6129 28.9299 38.6632 28.0242Z" fill="#EAE2D1"/>
<path d="M45.8086 29.6345C43.3932 31.4963 39.569 31.144 37.5562 28.8294C39.9715 26.9675 43.7958 27.3701 45.8086 29.6345C45.2047 28.93 45.0538 30.2383 45.8086 29.6345Z" fill="#EAE2D1"/>
<path d="M34.9899 25.1056C33.7319 27.7222 30.3102 29.0305 27.6433 27.9234C28.8509 25.3572 32.2727 24.0489 34.9899 25.1056C34.5874 25.9107 34.1345 24.7533 34.9899 25.1056Z" fill="#EAE2D1"/>
<path d="M34.9899 20.9795C37.5562 22.5394 38.5123 26.1624 37.1536 28.8293C34.5874 27.2694 33.6313 23.6464 34.9899 20.9795C35.795 21.4827 34.5874 21.8349 34.9899 20.9795Z" fill="#EAE2D1"/>
<path d="M34.3358 19.9226C35.5937 21.8851 35.0905 24.8036 33.2287 26.2125C31.9204 24.2501 32.4739 21.3315 34.3358 19.9226C34.7383 20.5264 33.7319 20.3755 34.3358 19.9226Z" fill="#EAE2D1"/>
<path d="M44.1983 19.6208C44.4499 22.1368 42.4875 24.6528 40.0218 25.005C39.7702 22.4891 41.7327 20.0234 44.1983 19.6208C44.299 20.3756 43.4436 19.7215 44.1983 19.6208Z" fill="#EAE2D1"/>
<path d="M39.2167 16.501C40.7263 18.5138 40.4244 21.6335 38.5626 23.2438C37.053 21.2813 37.3549 18.1615 39.2167 16.501C39.6696 17.1551 38.6632 17.0545 39.2167 16.501Z" fill="#EAE2D1"/>
<path d="M34.3358 16.5513C37.2543 16.9538 39.6193 19.822 39.418 22.7405C36.4995 22.3883 34.1345 19.4698 34.3358 16.5513C35.2415 16.7022 34.2854 17.457 34.3358 16.5513Z" fill="#EAE2D1"/>
<path d="M34.688 15.092C36.1473 16.9539 35.8453 19.8724 34.1345 21.4323C32.6752 19.6208 32.9268 16.6519 34.688 15.092C35.1409 15.6456 34.1345 15.5952 34.688 15.092Z" fill="#EAE2D1"/>
<path d="M35.946 19.2183C37.5562 21.0298 37.4556 24.1496 35.7447 25.8604C34.1345 23.9986 34.2351 20.9291 35.946 19.2183C36.4492 19.7718 35.3924 19.7718 35.946 19.2183Z" fill="#EAE2D1"/>
<path d="M38.8142 23.747C37.6568 25.9107 34.7383 26.9674 32.474 25.961C33.6313 23.7973 36.5498 22.7909 38.8142 23.747C38.4619 24.4514 38.1097 23.445 38.8142 23.747Z" fill="#EAE2D1"/>
<path d="M38.1097 23.5959C38.6632 26.5648 36.6001 29.8355 33.6816 30.54C33.1281 27.5712 35.1912 24.3507 38.1097 23.5959C38.311 24.552 37.204 23.8475 38.1097 23.5959Z" fill="#EAE2D1"/>
<path d="M29.656 20.5266C29.1025 22.8413 26.5866 24.5018 24.2719 24.049C24.8254 21.7343 27.3414 20.124 29.656 20.5266C29.5051 21.2311 28.9516 20.426 29.656 20.5266Z" fill="#EAE2D1"/>
<path d="M31.4675 23.9482C32.1217 26.4139 30.6624 29.2821 28.2471 30.0872C27.5426 27.6216 29.0522 24.8037 31.4675 23.9482C31.6688 24.703 30.7128 24.1998 31.4675 23.9482Z" fill="#EAE2D1"/>
<path d="M25.6808 23.8477C27.8949 24.9044 29.0522 27.7222 28.1465 29.9866C25.9324 28.9802 24.8254 26.112 25.6808 23.8477C26.3853 24.1999 25.4292 24.5521 25.6808 23.8477Z" fill="#EAE2D1"/>
<path d="M34.2854 32.6033C32.6752 34.6161 29.4548 35.0689 27.3414 33.5594C28.9516 31.5466 32.172 31.0937 34.2854 32.6033C33.7822 33.2071 33.6313 32.1001 34.2854 32.6033Z" fill="#EAE2D1"/>
<path d="M24.9764 26.8165C23.4668 28.6783 20.4979 29.0809 18.5355 27.7223C20.0451 25.8604 23.0139 25.4579 24.9764 26.8165C24.4732 27.37 24.3725 26.414 24.9764 26.8165Z" fill="#EAE2D1"/>
<path d="M22.561 28.175C25.4292 28.6782 27.6433 31.5464 27.3414 34.465C24.4732 33.9618 22.3094 31.0433 22.561 28.175C23.4668 28.326 22.5107 29.0808 22.561 28.175Z" fill="#EAE2D1"/>
<path d="M28.1465 24.7031C30.1592 26.1121 30.7631 29.1312 29.4548 31.2446C27.4923 29.8357 26.8382 26.7662 28.1465 24.7031C28.7503 25.1057 27.7439 25.307 28.1465 24.7031Z" fill="#EAE2D1"/>
<path d="M17.6801 22.3884C20.0451 24.1999 20.6489 27.9236 18.9884 30.3892C16.6737 28.5777 16.0698 24.8541 17.6801 22.3884C18.4348 22.9419 17.1769 23.1432 17.6801 22.3884Z" fill="#EAE2D1"/>
<path d="M19.4412 21.3318C21.0514 23.1936 20.9508 26.3134 19.24 28.0243C17.5794 26.1624 17.7304 23.093 19.4412 21.3318C19.9444 21.9356 18.8877 21.8853 19.4412 21.3318Z" fill="#EAE2D1"/>
<path d="M23.9197 20.8284C26.4356 22.036 27.7439 25.3068 26.7375 27.8731C24.2216 26.7157 22.9133 23.445 23.9197 20.8284C24.6744 21.2309 23.5674 21.6335 23.9197 20.8284Z" fill="#EAE2D1"/>
<path d="M24.9763 18.5139C27.5426 20.0235 28.6496 23.6968 27.2407 26.3637C24.6744 24.8542 23.6177 21.1808 24.9763 18.5139C25.7814 18.9668 24.5235 19.319 24.9763 18.5139Z" fill="#EAE2D1"/>
<path d="M32.5746 16.9036C32.9268 19.8221 30.7631 22.8413 27.8446 23.3445C27.4923 20.4259 29.7064 17.4571 32.5746 16.9036C32.6752 17.8093 31.6688 17.0545 32.5746 16.9036Z" fill="#EAE2D1"/>
<path d="M24.5738 14.5889C26.4356 16.4004 26.6369 19.7214 24.926 21.7342C23.0139 19.8724 22.8629 16.5513 24.5738 14.5889C25.1776 15.1424 24.0706 15.1927 24.5738 14.5889Z" fill="#EAE2D1"/>
<path d="M27.6936 17.3565C26.4356 19.8724 23.1145 21.1807 20.4979 20.124C21.7056 17.5577 25.077 16.2998 27.6936 17.3565C27.291 18.1616 26.8382 17.0042 27.6936 17.3565Z" fill="#EAE2D1"/>
<path d="M24.2216 19.168C26.184 21.0801 26.3853 24.6025 24.5738 26.7159C22.561 24.8037 22.4101 21.2814 24.2216 19.168C24.8254 19.7215 23.6177 19.8221 24.2216 19.168Z" fill="#EAE2D1"/>
<path d="M21.303 17.8596C23.819 19.4195 24.8757 22.9922 23.5171 25.6591C20.9508 24.1495 19.8941 20.5265 21.303 17.8596C22.0578 18.3628 20.8502 18.715 21.303 17.8596Z" fill="#EAE2D1"/>
<path d="M19.5419 17.0042C21.2024 19.2182 20.7998 22.7406 18.6864 24.5017C17.0259 22.2877 17.3781 18.8156 19.5419 17.0042C20.045 17.6583 18.8374 17.5577 19.5419 17.0042Z" fill="#EAE2D1"/>
<path d="M25.9827 27.8732C23.2152 29.0808 19.6425 27.8732 18.2336 25.2062C20.9508 23.9482 24.5738 25.2062 25.9827 27.8732C25.5299 27.068 25.1273 28.2757 25.9827 27.8732Z" fill="#EAE2D1"/>
<path d="M18.4852 25.0554C21.4037 25.4077 23.7687 28.2759 23.6177 31.1944C20.6992 30.8421 18.3342 27.9739 18.4852 25.0554C19.3909 25.1561 18.4348 25.9612 18.4852 25.0554Z" fill="#EAE2D1"/>
<path d="M59.6967 32.8545C58.6903 35.7731 55.2686 37.6852 52.2495 36.8801C53.2558 33.9113 56.6775 32.0494 59.6967 32.8545C59.3948 33.7603 58.7406 32.603 59.6967 32.8545Z" fill="#FFFDFA"/>
<path d="M48.2742 28.6279C49.0793 30.691 48.0729 33.3579 46.0099 34.314C45.2047 32.2509 46.2614 29.584 48.2742 28.6279C48.5258 29.2821 47.6201 28.9298 48.2742 28.6279Z" fill="#FFFDFA"/>
<path d="M49.4316 31.2445C46.7646 30.1375 45.2047 26.8164 46.1608 24.0488C48.8277 25.1559 50.3373 28.5272 49.4316 31.2445C49.7335 30.3891 48.5761 30.8923 49.4316 31.2445Z" fill="#FFFDFA"/>
<path d="M50.136 26.7661C53.2558 26.4139 56.4763 28.8292 56.9795 31.9993C53.8597 32.3012 50.6392 29.8859 50.136 26.7661C51.0921 26.6655 50.287 27.7222 50.136 26.7661Z" fill="#FFFDFA"/>
<path d="M47.922 33.4584C49.0793 31.345 51.9979 30.3386 54.2119 31.3953C53.0546 33.5087 50.136 34.5151 47.922 33.4584C48.5761 33.8106 48.2742 32.8042 47.922 33.4584Z" fill="#FFFDFA"/>
<path d="M48.2239 32.9049C46.3118 34.1126 43.4939 33.6094 42.1353 31.7979C43.9971 30.5902 46.8653 31.0934 48.2239 32.9049C47.771 32.3011 47.6201 33.2572 48.2239 32.9049Z" fill="#FFFDFA"/>
<path d="M43.3932 32.5025C46.1105 31.2445 49.7335 32.3516 51.1928 34.9179C48.4755 36.2765 44.9028 35.1191 43.3932 32.5025C44.2487 32.1 43.8461 33.358 43.3932 32.5025Z" fill="#FFFDFA"/>
<path d="M44.8525 29.0807C43.5442 31.3451 40.4244 32.3012 38.0594 31.1438C39.3677 28.8794 42.5378 27.9234 44.8525 29.0807C44.4499 29.7852 44.148 28.7285 44.8525 29.0807Z" fill="#FFFDFA"/>
<path d="M42.4372 26.464C43.5945 24.1493 46.7143 23.0423 49.0793 24.099C47.8717 26.4137 44.8022 27.5207 42.4372 26.464C43.1417 26.8163 42.7894 25.7595 42.4372 26.464Z" fill="#FFFDFA"/>
<path d="M47.9723 26.8164C45.3557 26.6655 43.0913 24.3004 43.041 21.6838C45.6576 21.7845 47.9723 24.1998 47.9723 26.8164C47.9723 26.0113 47.1672 26.7661 47.9723 26.8164Z" fill="#FFFDFA"/>
<path d="M45.6576 29.6342C43.2423 30.6909 40.0722 29.5336 38.8645 27.1686C41.2798 26.1119 44.45 27.2692 45.6576 29.6342C45.3054 28.8794 44.9028 29.9361 45.6576 29.6342Z" fill="#FFFDFA"/>
<path d="M38.9651 32.4521C36.1472 33.1566 32.8765 31.3954 31.9707 28.6278C34.7886 27.873 38.0594 29.6845 38.9651 32.4521C38.6632 31.5967 38.0594 32.6534 38.9651 32.4521Z" fill="#FFFDFA"/>
<path d="M31.8701 36.5782C31.7695 33.9616 33.8829 31.5463 36.4492 31.2947C36.5498 33.861 34.4364 36.2763 31.8701 36.5782C32.6249 36.4776 31.8198 35.7731 31.8701 36.5782Z" fill="#FFFDFA"/>
<path d="M35.5938 35.2196C37.1033 32.7036 40.676 31.6973 43.2926 33.0559C41.783 35.5719 38.16 36.5782 35.5938 35.2196C36.3989 35.6222 36.0466 34.4145 35.5938 35.2196Z" fill="#FFFDFA"/>
<path d="M43.2423 24.0991C42.9907 26.6654 40.525 28.8291 37.9587 28.7285C38.16 26.1622 40.6257 23.9984 43.2423 24.0991C43.1416 24.9042 42.4372 24.0488 43.2423 24.0991Z" fill="#FFFDFA"/>
<path d="M37.7575 17.6582C39.7703 19.9226 39.7199 23.7468 37.5562 25.9106C35.5434 23.6462 35.6441 19.8219 37.7575 17.6582C38.4116 18.3627 37.1033 18.3627 37.7575 17.6582Z" fill="#FFFDFA"/>
<path d="M30.5618 26.3131C29.958 23.2939 31.9707 20.0231 34.9396 19.218C35.5434 22.2372 33.4803 25.5079 30.5618 26.3131C31.4676 26.0615 30.3605 25.357 30.5618 26.3131Z" fill="#FFFDFA"/>
<path d="M29.3541 24.6526C31.9204 24.401 34.4867 26.4138 34.8893 28.9298C32.323 29.1814 29.7567 27.1686 29.3541 24.6526C30.1593 24.6023 29.5051 25.4577 29.3541 24.6526Z" fill="#FFFDFA"/>
<path d="M32.7255 29.3324C30.6625 31.6471 26.7879 31.9993 24.3222 30.0872C26.3853 27.7725 30.3102 27.4203 32.7255 29.3324C32.1217 30.0369 31.9708 28.7286 32.7255 29.3324Z" fill="#FFFDFA"/>
<path d="M35.5434 37.2325C32.8765 38.2389 29.6057 36.8803 28.4484 34.314C31.1153 33.3076 34.3861 34.6663 35.5434 37.2325C35.1912 36.4274 34.7383 37.5345 35.5434 37.2325Z" fill="#FFFDFA"/>
<path d="M26.0834 34.012C26.7878 31.7477 29.3541 30.1878 31.7191 30.7413C31.0147 33.0056 28.4484 34.5655 26.0834 34.012C26.8382 34.2133 26.335 33.3076 26.0834 34.012Z" fill="#FFFDFA"/>
<path d="M21.7559 30.8923C22.0075 28.7285 24.1209 26.917 26.335 27.0177C26.0834 29.2317 23.97 31.0432 21.7559 30.8923C22.4604 30.9426 21.8566 30.2381 21.7559 30.8923Z" fill="#FFFDFA"/>
<path d="M28.0458 25.508C25.8821 26.3634 23.1649 25.357 22.1585 23.2436C24.3222 22.3882 27.0395 23.4449 28.0458 25.508C27.7439 24.8538 27.3917 25.8099 28.0458 25.508Z" fill="#FFFDFA"/>
<path d="M26.0834 19.822C27.4923 18.0105 30.3102 17.5577 32.172 18.866C30.7631 20.6271 27.9452 21.08 26.0834 19.822C26.6872 20.2246 26.5362 19.2685 26.0834 19.822Z" fill="#FFFDFA"/>
<path d="M28.5993 22.3882C31.2663 21.1302 34.7886 22.2372 36.2479 24.7532C33.581 26.0615 30.0586 24.9545 28.5993 22.3882C29.4548 21.9856 29.0522 23.1933 28.5993 22.3882Z" fill="#FFFDFA"/>
<path d="M22.8126 26.8163C22.3597 24.552 23.8693 21.9857 26.1337 21.3818C26.6369 23.6462 25.077 26.2125 22.8126 26.8163C23.5171 26.6151 22.712 26.1119 22.8126 26.8163Z" fill="#FFFDFA"/>
<path d="M23.7184 30.8418C26.184 28.98 30.0586 29.3322 32.0714 31.6469C29.6561 33.5087 25.7815 33.1565 23.7184 30.8418C24.4732 30.238 24.3725 31.5463 23.7184 30.8418Z" fill="#FFFDFA"/>
<path d="M16.573 26.0616C19.2399 25.2565 22.4101 26.8667 23.3661 29.4833C20.6489 30.2884 17.5291 28.6782 16.573 26.0616C17.3781 25.81 16.8749 26.8667 16.573 26.0616Z" fill="#FFFDFA"/>
<path d="M19.9444 24.3003C19.8941 26.8163 17.7304 29.1309 15.2144 29.2819C15.2144 26.7659 17.4284 24.4513 19.9444 24.3003C19.9444 25.0551 19.1393 24.3506 19.9444 24.3003Z" fill="#FFFDFA"/>
<path d="M21.1521 24.854C18.6864 25.1056 16.1705 23.2438 15.7679 20.7781C18.2336 20.5265 20.7495 22.4387 21.1521 24.854C21.0011 24.0992 20.3973 24.9546 21.1521 24.854Z" fill="#FFFDFA"/>
<path d="M22.9133 30.1877C20.7999 28.1749 20.5483 24.5519 22.4101 22.3379C24.5235 24.3003 24.7248 27.9233 22.9133 30.1877C23.4668 29.4832 22.2591 29.5335 22.9133 30.1877Z" fill="#FFFDFA"/>
<path d="M17.982 24.6526C19.8438 26.2628 20.196 29.3826 18.7368 31.3451C16.8246 29.7349 16.4724 26.615 17.982 24.6526C18.5355 25.1558 17.5291 25.2564 17.982 24.6526Z" fill="#FFFDFA"/>
<path style="mix-blend-mode:screen" d="M10.5347 24.401C11.692 20.2245 20.045 18.9666 29.2032 21.5329C38.311 24.0488 44.8022 29.5336 43.6448 33.6598C42.4875 37.8363 34.1345 39.0943 24.9763 36.528C15.8182 33.9617 9.37731 28.5272 10.5347 24.401Z" fill="url(#paint0_radial_1_136)"/>
<path style="mix-blend-mode:multiply" d="M0.973982 25.9609C0.118553 23.2437 6.76071 18.7149 15.8182 15.7964C24.8757 12.9282 32.8765 12.8276 33.7822 15.5448C34.6376 18.262 27.9955 22.7908 18.938 25.659C9.88052 28.5272 1.82941 28.6781 0.973982 25.9609Z" fill="url(#paint1_radial_1_136)"/>
<path style="mix-blend-mode:multiply" d="M15.1641 15.4442C15.3653 12.576 23.2152 10.8652 32.6752 11.5696C42.1352 12.2741 49.6329 15.1423 49.4316 18.0105C49.2303 20.8284 41.3805 22.5896 31.8701 21.8851C22.4101 21.1806 14.9125 18.2621 15.1641 15.4442Z" fill="url(#paint2_radial_1_136)"/>
<path style="mix-blend-mode:multiply" d="M27.7439 12.3748C28.6497 9.65757 36.7008 9.85884 45.7079 12.8277C54.7151 15.7965 61.3069 20.3756 60.4012 23.0928C59.5458 25.8101 51.4946 25.6088 42.4875 22.64C33.4803 19.6711 26.8885 15.0417 27.7439 12.3748Z" fill="url(#paint3_radial_1_136)"/>
<path style="mix-blend-mode:multiply" d="M35.1912 14.5385C36.4492 11.9219 44.3996 13.1799 52.9539 17.2558C61.5082 21.3316 67.4962 26.7158 66.2382 29.3324C65.0306 31.8987 57.0801 30.6407 48.4755 26.5648C39.9212 22.489 33.9835 17.1048 35.1912 14.5385Z" fill="url(#paint4_radial_1_136)"/>
<path d="M35.5434 8.29891C21.1017 8.29891 7.96838 15.3939 0.26952 24.3005C-2.49805 18.6144 16.5227 3.46826 35.5434 3.46826C52.4507 3.46826 58.64 11.1671 66.1879 17.7086C73.7358 24.2502 75.8995 23.9482 73.5849 25.9107C73.0817 26.3636 72.6791 26.9171 72.3772 27.4706C62.9674 21.6839 54.0609 8.29891 35.5434 8.29891Z" fill="#FA783C"/>
<path d="M72.3772 27.4705C71.2701 29.5839 70.9179 32.2005 68.5026 32.3012C62.6152 32.6031 52.6017 22.2876 43.2423 19.3691C33.8829 16.4002 22.561 17.0544 14.5602 23.445C6.50911 29.8355 2.48358 28.8291 0.269531 24.3004C7.96839 15.3939 21.1017 8.29883 35.5434 8.29883C54.0609 8.29883 62.9675 21.6838 72.3772 27.4705Z" fill="#ED6239"/>
<g style="mix-blend-mode:screen">
<path d="M72.3269 27.5712C71.5218 27.1183 70.6663 26.6151 69.8612 26.1119C69.2574 26.4139 68.7039 26.6151 68.1 26.8164C67.4627 27.0177 66.8253 27.1686 66.1879 27.2693C64.8796 27.5041 63.5881 27.5712 62.3133 27.4706H62.263C61.8605 27.4202 61.3573 27.4706 60.9044 27.6215C60.4515 27.7725 60.0993 28.175 59.9483 28.6279C59.9483 28.1247 60.3005 27.6215 60.7534 27.3196C61.2063 27.0177 61.7598 26.8667 62.3133 26.8667C63.5713 26.7661 64.779 26.6151 65.9866 26.3635C66.624 26.2294 67.2279 26.0784 67.7981 25.9107C68.2007 25.7765 68.5865 25.6423 68.9555 25.5081C67.1943 24.2501 65.5337 22.9418 63.8732 21.6335C63.7055 21.5329 63.5713 21.4322 63.4706 21.3316C62.7326 21.6 61.9946 21.818 61.2566 21.9858C60.3509 22.187 59.4451 22.338 58.4891 22.3883C56.6776 22.5896 54.8157 22.489 53.0042 22.0864C52.8533 22.0361 52.652 22.0361 52.5513 22.0864C52.4507 22.1367 52.4004 22.338 52.3501 22.4889C52.3501 22.8412 52.4507 23.2437 52.6017 23.596C52.4004 23.2941 52.1991 22.9418 52.1488 22.4889C52.1488 22.2877 52.1991 22.0361 52.4004 21.8851C52.6017 21.7341 52.8533 21.7342 53.1049 21.7342H53.0545C54.866 21.8348 56.6272 21.7342 58.3884 21.4826C59.2942 21.3819 60.1496 21.231 61.005 21.0297C61.5418 20.8955 62.0617 20.7613 62.5649 20.6271C60.6528 19.1175 58.6903 17.6583 56.7279 16.2493C55.0506 16.9874 53.3397 17.5744 51.5953 18.0105C50.5889 18.3124 49.5825 18.5137 48.5258 18.6647C48.2742 18.6647 47.9723 18.6647 47.771 18.715C47.5697 18.8156 47.3685 18.9163 47.2175 19.0672C46.8653 19.4195 46.9659 20.0233 47.1672 20.4762C46.8653 20.0736 46.664 19.4698 46.9659 18.9163C47.3181 18.4131 47.9723 18.2621 48.4252 18.1615C49.4316 17.8931 50.4212 17.5912 51.394 17.2557C52.8533 16.7525 54.3125 16.199 55.7718 15.5952C55.7382 15.5616 55.7047 15.5449 55.6712 15.5449C53.9267 14.4043 52.132 13.3644 50.287 12.4251C48.878 13.5992 47.3517 14.6224 45.7079 15.4946C44.8022 15.9474 43.8461 16.35 42.8397 16.6016C42.2862 16.7525 41.8333 16.8029 41.4308 17.0545C41.0282 17.3061 40.7263 17.7589 40.7263 18.2621C40.5753 17.7589 40.8269 17.2054 41.2798 16.8532C41.6824 16.5009 42.2359 16.2997 42.6385 16.1487C43.5945 15.7461 44.4499 15.2933 45.3557 14.7398C46.7143 13.9347 48.0729 12.9786 49.3309 11.9722C48.4923 11.5696 47.6201 11.2006 46.7143 10.8652C45.557 10.4626 44.3493 10.1104 43.1416 9.75815C42.5378 10.2613 41.9172 10.7478 41.2798 11.2174C40.5083 11.7877 39.7367 12.3244 38.9651 12.8276C38.16 13.3308 37.3046 13.7837 36.4995 14.2366C35.6441 14.6391 34.7886 15.0417 33.8326 15.243C33.4803 15.4442 33.0778 15.6958 32.8262 15.9977C32.5746 16.2997 32.4236 16.8029 32.6249 17.2054C32.3733 16.8532 32.3733 16.2997 32.6752 15.8971C32.9268 15.4945 33.279 15.1423 33.6816 14.941L33.7319 14.8907C34.5706 14.5553 35.3757 14.1359 36.1472 13.6327C36.9523 13.1799 37.7071 12.6263 38.4619 12.1232C39.6696 11.2677 40.8269 10.4123 41.934 9.45623C40.2567 9.12077 38.5626 8.88595 36.8517 8.75176C35.5434 8.65112 34.1848 8.65112 32.8262 8.65112C31.8198 10.2278 30.696 11.6703 29.4548 12.9786C28.1465 14.3875 26.7375 15.6455 25.1273 16.6016C25.0266 16.8028 24.926 17.1048 24.9763 17.3564C25.0266 17.6583 25.1776 17.9099 25.3789 18.1615C25.1776 17.9602 24.926 17.7086 24.8254 17.4067C24.7247 17.1048 24.7247 16.7525 24.8757 16.4506L24.926 16.4003C26.335 15.1926 27.593 13.834 28.8006 12.4251C29.807 11.2677 30.7127 10.0097 31.6185 8.70144C29.9412 8.83562 28.2974 9.07045 26.6872 9.40591C26.0498 9.57364 25.4292 9.74137 24.8254 9.9091C23.9196 11.5696 22.8629 13.0792 21.7056 14.5385C21.1353 15.2765 20.5147 15.9642 19.8437 16.6016C19.1896 17.2557 18.5354 17.8596 17.831 18.4634C17.6297 18.8659 17.4787 19.3188 17.4284 19.822C17.4284 20.0736 17.4284 20.2749 17.5291 20.5265C17.6297 20.7278 17.831 20.929 18.0826 20.9794C17.831 20.9794 17.5794 20.8284 17.4284 20.5768C17.2775 20.3252 17.2272 20.0736 17.2272 19.822C17.1768 19.2685 17.2775 18.7653 17.4284 18.2621V18.2118L17.4788 18.1615C18.1329 17.5073 18.7367 16.8532 19.3406 16.1487C19.8941 15.4442 20.4476 14.7398 21.0011 13.985C21.8733 12.8109 22.6784 11.5864 23.4164 10.3117C21.2527 11.0161 19.1393 11.9219 17.0762 12.8779C16.6736 13.0792 16.2711 13.2805 15.8685 13.4818C14.7615 15.3436 13.6041 17.1048 12.2958 18.8659C10.9372 20.6774 9.42765 22.4386 7.71679 23.9985C7.76711 24.2501 7.81742 24.5017 7.86774 24.7533C7.96838 25.0217 8.10256 25.2733 8.27029 25.5081C8.62253 26.0113 9.07541 26.4139 9.62892 26.7158C9.02509 26.5145 8.47159 26.1623 8.06903 25.6591C7.86776 25.4242 7.70002 25.1559 7.56584 24.854C7.41488 24.6024 7.31424 24.3004 7.2136 23.9482V23.8476L7.31424 23.7469C8.87414 22.0864 10.2327 20.1743 11.5411 18.3124C12.4468 17.0041 13.3358 15.6791 14.208 14.3372C9.17607 17.0041 4.49635 20.3252 0.319837 24.3508L0.219193 24.2501C2.28229 21.4826 4.79827 19.0169 7.56584 16.9035C9.32702 15.5449 11.1888 14.3372 13.1513 13.3308C12.0946 13.3811 11.0379 13.5321 9.98116 13.7837C9.07541 13.985 8.11933 14.3372 7.2639 14.6894C6.35816 15.092 5.50273 15.5952 4.74794 16.2493C5.40209 15.4442 6.20722 14.8907 7.06265 14.3372C7.91808 13.834 8.87414 13.4818 9.83021 13.1295C11.5411 12.576 13.3526 12.3747 15.1641 12.3244C15.6169 12.1231 16.1201 11.8716 16.573 11.6703C18.5858 10.8652 20.6992 10.2613 22.8126 9.75815C21.5546 9.45623 20.2966 9.25495 18.9883 9.20463C17.1768 9.20463 15.3653 9.35559 13.5538 9.75815C14.4093 9.35559 15.315 9.10399 16.2208 8.90271C17.1265 8.70144 18.0323 8.60079 18.9883 8.55047C20.8502 8.39951 22.712 8.65112 24.5235 9.20463L24.7751 9.30526C25.3789 9.17108 25.9827 9.0369 26.5866 8.90271C28.1297 8.63434 29.6728 8.4163 31.2159 8.24857C29.9747 7.74537 28.6832 7.34281 27.3413 7.04089C25.6305 6.68866 23.8693 6.43706 22.1081 6.33642C22.9635 6.18546 23.8693 6.13515 24.7751 6.13515C25.6808 6.13515 26.5865 6.20224 27.4923 6.33642C29.3038 6.58802 31.065 7.04089 32.7255 7.846L33.1784 8.04728C34.4196 7.94664 35.6608 7.89633 36.902 7.89633C38.3613 7.84601 39.8206 7.94664 41.2798 8.0976C40.2231 7.34281 39.0658 6.73898 37.8581 6.13515C36.0466 5.27972 34.0841 4.57524 32.1217 4.02173C33.1784 4.07205 34.1848 4.32364 35.1912 4.52492C36.1975 4.79329 37.1872 5.11199 38.16 5.481C39.9212 6.13515 41.6824 7.09122 43.1416 8.39952C45.3054 8.85239 47.4188 9.45622 49.4819 10.3117C49.0793 9.4059 48.5761 8.55048 47.9723 7.74537C47.0665 6.53771 45.9595 5.38036 44.7518 4.37397C45.4563 4.72621 46.1105 5.17908 46.7646 5.68228C47.402 6.18547 47.9891 6.73898 48.5258 7.34281C49.4315 8.3492 50.2367 9.55686 50.7399 10.8652C52.7526 11.7709 54.7151 12.8276 56.5266 14.0856C56.2582 13.2469 55.9563 12.4251 55.6208 11.62C55.0841 10.3117 54.4803 9.03689 53.8093 7.79568C54.3125 8.34919 54.7151 8.90272 55.1176 9.50655C55.5202 10.0601 55.9228 10.7142 56.275 11.318C56.8788 12.4754 57.382 13.6831 57.6839 14.941C59.4954 16.2493 61.156 17.6583 62.8165 19.0672C62.6488 18.4299 62.4643 17.7925 62.263 17.1551C62.0617 16.5513 61.8604 15.9474 61.6592 15.3436C61.4579 14.7398 61.156 14.1359 61.005 13.5321C61.3069 14.0856 61.6592 14.6391 61.9611 15.1926C62.3133 15.7461 62.5649 16.35 62.8668 16.9538C63.3197 18.0105 63.6719 19.0672 64.0242 20.1742C64.2255 20.342 64.4267 20.5265 64.628 20.7278C66.0872 21.9858 67.4962 23.2941 68.9051 24.552C68.7374 23.9147 68.6032 23.2773 68.5026 22.6399C68.3516 21.5832 68.251 20.5265 68.251 19.4195C68.5529 20.4594 68.8548 21.4826 69.1567 22.4889C69.4586 23.5457 69.7606 24.552 70.1631 25.5081L70.2638 25.7094C70.9682 26.3132 71.6895 26.8835 72.4275 27.4202L72.3269 27.5712Z" fill="#6E3921"/>
</g>
<path style="mix-blend-mode:screen" d="M26.8382 20.2244C17.5291 22.841 9.5786 23.4448 9.02509 21.5327C8.47157 19.5702 15.5163 15.8969 24.8254 13.23C34.1345 10.5631 42.0849 10.0095 42.6385 11.9217C43.192 13.8338 36.0969 17.5575 26.8382 20.2244Z" fill="url(#paint5_radial_1_136)"/>
<path style="mix-blend-mode:screen" d="M37.8077 18.9664C29.9579 18.1612 23.668 16.2994 23.819 14.8402C23.9699 13.3306 30.4611 12.7771 38.3613 13.5319C46.2111 14.2867 52.4507 16.1485 52.3501 17.6581C52.1991 19.1173 45.7079 19.7211 37.8077 18.9664Z" fill="url(#paint6_radial_1_136)"/>
<path style="mix-blend-mode:screen" d="M47.2678 22.0359C40.2734 18.3626 35.1408 14.2867 35.8453 12.9784C36.5498 11.6198 42.7894 13.5319 49.8341 17.2052C56.8285 20.8785 61.9611 24.9041 61.2566 26.2627C60.5521 27.571 54.3125 25.6589 47.2678 22.0359Z" fill="url(#paint7_radial_1_136)"/>
<path style="mix-blend-mode:screen" d="M57.382 28.2252C50.6392 24.099 45.8086 19.6709 46.5633 18.4129C47.3685 17.1549 53.4571 19.4193 60.1999 23.5958C66.993 27.722 71.7733 32.0998 71.0185 33.3578C70.2134 34.6661 64.1248 32.3514 57.382 28.2252Z" fill="url(#paint8_radial_1_136)"/>
<path style="mix-blend-mode:screen" d="M20.347 9.70769C10.9373 11.9721 3.03713 12.5759 2.63458 11.016C2.28234 9.4561 9.57865 6.38661 18.9884 4.12224C28.3478 1.85787 36.2982 1.25403 36.6505 2.81393C37.0027 4.32352 29.7064 7.44332 20.347 9.70769Z" fill="url(#paint9_radial_1_136)"/>
<path style="mix-blend-mode:screen" d="M45.0538 7.79568C35.6441 5.63195 28.3478 2.61279 28.7 1.05289C29.0522 -0.50701 36.9524 -0.00381052 46.3621 2.15992C55.7718 4.37398 63.1185 7.39313 62.7662 8.90272C62.414 10.4626 54.4635 9.95942 45.0538 7.79568Z" fill="url(#paint10_radial_1_136)"/>
<path style="mix-blend-mode:screen" d="M56.0737 12.1734C47.922 6.94018 42.0346 1.65665 42.8901 0.298023C43.7455 -1.01028 51.0418 2.10952 59.1432 7.29241C67.2949 12.5256 73.1823 17.8092 72.3269 19.1678C71.4715 20.5264 64.1751 17.3563 56.0737 12.1734Z" fill="url(#paint11_radial_1_136)"/>
<path d="M36.5498 7.14159C37.3885 6.67194 38.2607 6.21906 39.1664 5.78296C40.1728 5.27977 41.1959 4.81012 42.2359 4.37402C41.1959 4.91076 40.1728 5.46427 39.1664 6.03456C38.3948 6.47066 37.6233 6.94031 36.8517 7.44351C36.684 7.54415 36.5163 7.66155 36.3485 7.79573C36.0466 7.99701 35.7447 8.21507 35.4428 8.4499C35.0738 8.68472 34.7215 8.93632 34.3861 9.20469C34.1177 9.40596 33.8661 9.60723 33.6313 9.80851C32.7255 10.513 31.8701 11.2175 31.1153 11.9723L29.5554 11.7207C30.4612 10.9659 32.0714 10.0098 33.0274 9.35564C33.2958 9.15436 33.5642 8.96985 33.8326 8.80212C34.2016 8.53375 34.5874 8.28215 34.9899 8.04733C35.3254 7.84605 35.6608 7.64479 35.9963 7.44351C36.164 7.34287 36.3485 7.24223 36.5498 7.14159Z" fill="#488C1C"/>
<path d="M33.5306 8.5504C29.3038 7.59433 28.398 4.87709 29.656 5.07837C29.656 5.07837 28.0458 2.66305 28.9012 1.95858C29.7567 1.25411 30.3605 2.26049 30.4108 2.36113C30.4611 2.21017 30.6624 0.750902 31.8198 0.549625C33.0274 0.298028 33.0274 2.71337 33.0274 2.71337C33.0274 2.71337 35.6943 1.05282 35.4428 4.1223C35.0905 4.77645 34.8389 5.78284 34.8893 7.04082L33.5306 8.5504Z" fill="#488C1C"/>
<path d="M37.5562 8.90259C38.311 9.05355 39.1664 9.20451 39.8205 9.20451C43.6448 9.40578 40.4244 10.7141 40.4244 10.7141C40.4244 10.7141 44.5506 11.9217 43.2926 12.5759C41.9843 13.23 39.9212 12.5759 39.9212 12.5759C39.9212 12.5759 41.0282 13.532 40.2231 13.8842C39.4683 14.2364 37.7071 12.7772 37.7071 12.7772C37.7574 14.2364 34.386 11.9721 34.688 9.55673L37.5562 8.90259Z" fill="#488C1C"/>
<path d="M37.6065 3.66952C37.6065 3.66952 38.9651 2.36122 40.1225 2.10962L40.3237 2.46186C38.6632 4.17272 39.1664 5.78293 39.1664 5.78293C38.2607 6.21903 37.3884 6.67191 36.5498 7.14156C36.3485 7.2422 36.164 7.34284 35.9963 7.44348C35.6608 7.64475 35.3254 7.84602 34.9899 8.0473C34.9564 7.67829 34.9228 7.34283 34.8893 7.04091C34.8389 5.78293 35.0905 4.77655 35.4428 4.12239C36.2479 2.61281 37.5059 2.46186 37.6065 3.66952Z" fill="#63AA35"/>
<path d="M36.8517 7.4433C37.6233 6.94011 38.3948 6.47045 39.1664 6.03435C40.1728 5.46406 41.1959 4.91055 42.2359 4.37381C41.1959 4.80992 40.1728 5.27956 39.1664 5.78275C39.1664 5.78275 38.6632 4.17254 40.3237 2.46168L40.1225 2.10944C40.676 1.95848 41.2295 2.05913 41.5817 2.66296C41.5817 2.66296 44.9531 2.00881 45.6073 2.96488C46.0098 4.02159 43.7454 5.22925 43.7454 5.22925C47.4691 6.94011 40.5753 7.6949 40.5753 7.6949C41.5817 8.90256 40.9779 9.20448 39.8205 9.20448C39.1664 9.20448 38.311 9.05352 37.5562 8.90256C36.3988 8.70128 35.4427 8.44969 35.4427 8.44969C35.7447 8.21486 36.0466 7.9968 36.3485 7.79553C36.5163 7.66134 36.684 7.54394 36.8517 7.4433Z" fill="#63AA35"/>
<path d="M31.8198 0.549702C31.9707 0.499383 32.1217 0.499383 32.2726 0.549702C32.3733 0.600022 32.5242 0.700661 32.5746 0.801299C32.7758 1.00258 32.8261 1.20386 32.9268 1.40514C33.0274 1.85801 33.0778 2.31089 33.1281 2.71344H33.0274C33.3293 2.51217 33.6313 2.3612 33.9835 2.31088C34.3357 2.21024 34.7886 2.21025 35.0905 2.46185C35.3925 2.66313 35.4428 3.01535 35.4931 3.26695C35.5434 3.56886 35.5434 3.87078 35.4931 4.12238C35.3924 3.82046 35.3924 3.56886 35.2415 3.26695C35.1912 3.01535 35.0402 2.76376 34.8389 2.6128C34.688 2.51216 34.4364 2.51216 34.1345 2.6128C33.8829 2.66312 33.581 2.81408 33.3294 2.91472L32.6752 3.26695V2.71344C32.6752 2.31089 32.6752 1.85802 32.6249 1.45546C32.5746 1.25418 32.5242 1.0529 32.4236 0.901944C32.3229 0.700667 32.1217 0.549702 31.8701 0.549702H31.8198Z" fill="#5CB523"/>
<path d="M33.5306 8.55058C32.4236 8.29899 31.3166 7.89644 30.4612 7.24229C30.0083 6.94037 29.6057 6.53781 29.3541 6.13526C29.2535 5.93398 29.1528 5.68239 29.1528 5.48111C29.1528 5.38047 29.1528 5.22951 29.2535 5.17919C29.3541 5.07855 29.5051 5.02823 29.656 5.07855C29.4212 4.70954 29.2032 4.34054 29.0019 3.97153C28.8509 3.56898 28.7 3.16641 28.6496 2.76385C28.6496 2.56258 28.6496 2.36131 28.7503 2.21035C28.8509 2.00908 29.0522 1.85811 29.2535 1.75747C29.5051 1.65683 29.807 1.70715 30.0083 1.85811C30.2095 2.02584 30.3605 2.21035 30.4612 2.41163H30.4108C30.4779 2.00907 30.6121 1.64006 30.8134 1.3046C31.0147 0.95236 31.3166 0.650443 31.8198 0.549805H31.8701C31.3669 0.700763 31.065 1.00268 30.914 1.35492C30.7631 1.65683 30.6624 2.05939 30.6121 2.41163L30.5618 2.8645L30.3102 2.41163C30.2096 2.26067 30.0586 2.1097 29.8573 2.00906C29.6896 1.87488 29.5219 1.84134 29.3541 1.90843C29.3038 1.95875 29.2535 2.00907 29.1528 2.05939C29.0857 2.12648 29.0354 2.19357 29.0019 2.26066C28.9348 2.42839 28.918 2.59612 28.9516 2.76385C29.0019 3.16641 29.1025 3.51865 29.3038 3.92121C29.4716 4.29022 29.6728 4.65922 29.9076 5.02823L30.1089 5.33015L29.656 5.27982C29.5554 5.2295 29.5051 5.27982 29.4548 5.27982C29.4548 5.33014 29.4044 5.38047 29.4044 5.48111C29.4044 5.68239 29.5051 5.88366 29.6057 6.08494C29.8573 6.43717 30.1592 6.83973 30.5618 7.14165C31.4172 7.74548 32.4236 8.24867 33.5306 8.55058Z" fill="#36661C"/>
<path d="M34.9396 7.09134C34.5035 7.59453 34.0338 8.08095 33.5306 8.5506C33.5809 8.39964 33.6313 8.24868 33.7319 8.09773C33.8326 7.94677 33.9332 7.84613 34.0338 7.69518C34.1848 7.59454 34.2854 7.44357 34.4364 7.34293C34.5706 7.2423 34.7383 7.14165 34.9396 7.04102V7.09134Z" fill="#5CB523"/>
<path d="M39.1161 5.88354C39.8709 6.0345 40.676 6.13515 41.4811 6.23579C42.2862 6.28611 43.0913 6.2861 43.8461 6.18546C43.0913 6.33642 42.2862 6.38674 41.4811 6.38674C40.676 6.35319 39.8541 6.2861 39.0154 6.18546L39.1161 5.88354Z" fill="#488C1C"/>
<path d="M39.0154 5.88358C38.9651 5.58167 38.9651 5.27976 39.0154 4.97784C39.0658 4.67592 39.1664 4.374 39.267 4.07208C39.5186 3.51857 39.9212 3.01537 40.3741 2.5625C39.9715 3.06569 39.6193 3.56889 39.4683 4.17273C39.3677 4.4411 39.3174 4.72623 39.3174 5.02815C39.3174 5.27974 39.3174 5.58166 39.418 5.83326L39.0154 5.88358Z" fill="#488C1C"/>
<path d="M36.9523 7.29248C37.1536 7.44344 37.4052 7.54408 37.6568 7.64472C37.8916 7.74536 38.1432 7.82923 38.4116 7.89632C38.9484 8.06405 39.5019 8.18147 40.0721 8.24856C39.5019 8.21501 38.9316 8.14791 38.3613 8.04727C38.0929 7.98018 37.8246 7.91309 37.5562 7.846C37.2543 7.79568 37.0027 7.69504 36.7511 7.5944L36.9523 7.29248Z" fill="#488C1C"/>
<path d="M36.3988 7.24225C36.2647 6.63842 36.2311 6.05136 36.2982 5.48108C36.3485 4.92756 36.5498 4.32372 37.0027 3.87085C36.6504 4.37404 36.4995 4.92756 36.4995 5.48108C36.4995 6.08491 36.6001 6.63842 36.8014 7.19193L36.3988 7.24225Z" fill="#488C1C"/>
<path d="M34.7383 9.55688C34.7383 10.0098 34.7886 10.4123 34.9899 10.8149C35.1576 11.2174 35.3924 11.6032 35.6943 11.9722C35.9963 12.2741 36.3485 12.6264 36.7511 12.878C36.9523 12.9786 37.2039 13.0792 37.3549 13.0792C37.4052 13.0792 37.4555 13.0793 37.4555 13.0289C37.5058 12.9283 37.5059 12.878 37.5059 12.7773V12.3245L37.9084 12.6767C38.2103 12.878 38.5122 13.0793 38.8141 13.2805C39.1161 13.4818 39.4683 13.6831 39.8205 13.7334C39.9715 13.7837 40.0721 13.7837 40.2231 13.7334C40.3237 13.6663 40.3573 13.5657 40.3237 13.4315C40.2734 13.1799 40.0721 12.9283 39.8205 12.6767L39.418 12.2741L40.0218 12.4754C40.525 12.6264 41.1288 12.727 41.6824 12.7773C42.2359 12.8277 42.7894 12.7773 43.2926 12.576C42.8397 12.8276 42.2359 12.9283 41.6824 12.878C41.0785 12.8444 40.5082 12.7606 39.9715 12.6264V12.576C40.2231 12.8276 40.4747 13.1296 40.5753 13.4315C40.5753 13.5824 40.525 13.7837 40.3741 13.8844C40.1728 13.985 39.9715 13.985 39.7702 13.9347C39.3174 13.834 38.9651 13.6328 38.6632 13.4818C38.3277 13.247 38.009 13.0122 37.7071 12.7773H37.7575C37.791 12.878 37.7742 12.9786 37.7071 13.0792C37.6568 13.1799 37.5059 13.2805 37.3549 13.2805C37.053 13.2805 36.8014 13.1296 36.6001 13.0289C36.1472 12.727 35.795 12.3748 35.4931 12.0225C34.9396 11.2678 34.5873 10.4123 34.7383 9.55688Z" fill="#36661C"/>
<path d="M43.2926 12.576C43.3932 12.4753 43.4939 12.3244 43.4436 12.2741C43.3932 12.1734 43.2423 12.0728 43.1416 12.0225C42.8901 11.8715 42.5378 11.7206 42.2359 11.6199C41.934 11.5193 41.6321 11.3683 41.2798 11.2677C40.9779 11.167 40.6257 11.1167 40.3237 11.0161L39.569 10.7645L40.2734 10.5129C40.525 10.4123 40.827 10.2613 41.0282 10.1103C41.2798 10.0097 41.4811 9.75811 41.4811 9.75811C41.4811 9.70779 41.3805 9.65746 41.2798 9.60714C41.1456 9.54005 40.9947 9.48973 40.8269 9.45619C40.525 9.35555 40.1728 9.30523 39.8206 9.25491V9.20459C40.1728 9.25491 40.525 9.2549 40.8269 9.30522C40.9947 9.33877 41.1624 9.37232 41.3301 9.40586C41.4811 9.45618 41.6824 9.55682 41.7327 9.65746C41.8333 9.80842 41.7327 9.95937 41.6321 10.06C41.5314 10.1606 41.3805 10.2613 41.2798 10.3116C41.0115 10.4793 40.7263 10.6303 40.4244 10.7645V10.7142C41.0953 10.9154 41.7495 11.1503 42.3869 11.4186C42.6888 11.5696 42.9907 11.7206 43.2926 11.8715C43.3932 11.9721 43.5442 12.1231 43.5442 12.2238C43.5945 12.3747 43.4436 12.5257 43.2926 12.576Z" fill="#5CB523"/>
<path d="M37.5562 8.95312C37.3549 9.05376 37.1536 9.15441 36.9523 9.25504C36.7007 9.30536 36.4492 9.35568 36.2479 9.406C35.9963 9.45632 35.7447 9.50663 35.4931 9.55695C35.2918 9.55695 34.9899 9.60727 34.7383 9.55695C35.6776 9.32212 36.6169 9.12086 37.5562 8.95312Z" fill="#5CB523"/>
<path d="M31.1153 12.0226L30.3605 11.922L29.6057 11.771V11.7207C29.7567 11.6201 29.9076 11.5697 30.0586 11.5194C30.2096 11.4691 30.3102 11.4691 30.4611 11.5194C30.5618 11.5194 30.7128 11.5697 30.8134 11.6201C30.9643 11.7207 31.065 11.8213 31.1656 11.9723L31.1153 12.0226Z" fill="#36661C"/>
<path d="M34.6377 9.1543C34.7886 9.30525 35.0402 9.55685 35.2918 9.70781C35.5602 9.87554 35.8286 10.0433 36.0969 10.211C36.7008 10.5129 37.3213 10.7813 37.9587 11.0161C39.2167 11.469 40.525 11.8212 41.8333 12.1231C40.4747 11.9219 39.1664 11.6199 37.8581 11.2174C37.1872 11.0161 36.533 10.7645 35.8956 10.4626C35.5937 10.3284 35.2918 10.1607 34.9899 9.95941C34.688 9.80845 34.3861 9.60717 34.1345 9.30525L34.6377 9.1543Z" fill="#36661C"/>
<path d="M33.6816 8.95318C33.128 8.55062 32.7758 8.04742 32.5242 7.54423C32.2726 7.04103 32.0714 6.48753 31.9707 5.98434C31.7191 4.92763 31.7694 3.87092 31.9707 2.81421C31.8701 3.87092 31.9204 4.92763 32.2223 5.93402C32.3733 6.43721 32.6249 6.9404 32.8765 7.4436C33.1784 7.89647 33.5809 8.34934 34.0338 8.65126L33.6816 8.95318Z" fill="#36661C"/>
<path d="M32.2223 6.63829C32.7255 6.08478 33.1784 5.53127 33.581 4.97776C33.95 4.40747 34.2686 3.80364 34.537 3.16626C34.3357 3.80364 34.0506 4.42423 33.6816 5.02807C33.3461 5.6319 32.9268 6.2022 32.4236 6.73894L32.2223 6.63829Z" fill="#36661C"/>
<path d="M31.8701 5.27977C31.3333 4.87722 30.8637 4.45789 30.4611 4.02179C30.0083 3.56891 29.7064 3.0154 29.6057 2.51221C29.7064 3.0154 30.1089 3.5186 30.5618 3.92116C30.9979 4.35726 31.4843 4.75981 32.021 5.12882L31.8701 5.27977Z" fill="#36661C"/>
<path d="M32.6752 7.64464C32.1049 7.40982 31.5849 7.12467 31.1153 6.7892C30.6121 6.43697 30.2096 6.03442 29.958 5.58154C30.2599 6.03442 30.7127 6.38666 31.1656 6.68858C31.6688 7.04081 32.2223 7.29241 32.7758 7.44337L32.6752 7.64464Z" fill="#36661C"/>
<path d="M37.1536 10.7645C37.7071 10.6135 38.2103 10.5129 38.8142 10.3619C39.3174 10.2613 39.9212 10.1606 40.4747 10.1606C39.9212 10.211 39.3677 10.3619 38.8142 10.4626C38.2774 10.6303 37.7575 10.798 37.2543 10.9658L37.1536 10.7645Z" fill="#36661C"/>
<path d="M38.2103 11.1167C38.5122 11.9218 38.9651 12.6766 39.569 13.3307C39.2335 13.0288 38.9316 12.6934 38.6632 12.3244C38.3948 11.9554 38.16 11.5696 37.9587 11.167L38.2103 11.1167Z" fill="#36661C"/>
<path d="M36.2479 10.4124C36.2143 10.7814 36.2479 11.1504 36.3485 11.5194C36.4492 11.922 36.6001 12.2742 36.902 12.6264C36.5498 12.3245 36.3485 11.922 36.1976 11.5697C36.0634 11.1672 35.9963 10.7646 35.9963 10.3621L36.2479 10.4124Z" fill="#36661C"/>
<g style="mix-blend-mode:multiply">
<path d="M35.4931 4.32376C35.426 4.4244 35.3757 4.54182 35.3421 4.676C35.0905 5.38047 34.9899 6.13526 34.9899 6.89005L34.688 7.34292C34.5873 7.00746 34.5035 6.672 34.4364 6.33654C34.386 5.7327 34.3861 5.07856 34.4867 4.47473C34.6377 3.92121 34.8389 3.3677 35.3421 2.8645L35.4931 4.32376Z" fill="#A9C994"/>
</g>
<path d="M45.6073 3.01542C45.406 2.76382 45.0537 2.71351 44.7015 2.66319C44.3996 2.61287 44.0474 2.61287 43.6951 2.66319C43.041 2.71351 42.3365 2.81416 41.6823 2.96511L41.4308 3.01542L41.2798 2.76382C41.1792 2.62964 41.0785 2.52901 40.9779 2.46192C40.8772 2.4116 40.7766 2.36127 40.676 2.36127C40.374 2.36127 40.0218 2.51224 39.7199 2.66319C39.418 2.83093 39.1328 3.01543 38.8645 3.21671C38.5626 3.46831 38.3109 3.66958 38.0593 3.92118L37.2543 4.62565L37.1536 3.66958C37.1536 3.5354 37.1368 3.43475 37.1033 3.36766C37.053 3.26702 37.0027 3.21671 37.0027 3.21671C37.053 3.21671 36.9523 3.2167 36.8517 3.26702C36.7511 3.30056 36.6504 3.35089 36.5498 3.41798C36.1472 3.77022 35.8453 4.27341 35.644 4.7766C35.3924 5.27979 35.2918 5.83331 35.1911 6.38683C35.0905 6.94034 35.0905 7.49384 35.0402 8.04736H34.9899C34.8389 6.94033 34.8389 5.783 35.2415 4.67597C35.3924 4.12246 35.6943 3.56894 36.1975 3.16639C36.2982 3.06575 36.4491 2.98188 36.6504 2.91479C36.8014 2.86447 37.0026 2.81415 37.2039 2.86447C37.4052 2.96511 37.5059 3.11607 37.6065 3.21671C37.6736 3.38444 37.7071 3.5354 37.7071 3.66958L37.6065 3.61926C38.16 3.16638 38.7638 2.66319 39.4683 2.31095C39.8205 2.15999 40.1728 2.00903 40.676 2.00903C40.8772 2.00903 41.0785 2.10968 41.2798 2.21032C41.4308 2.36128 41.5314 2.51224 41.632 2.66319H41.5817C42.2862 2.51224 42.9907 2.46192 43.6951 2.46192C44.0474 2.46192 44.3996 2.46191 44.7518 2.51223C45.1041 2.61287 45.4563 2.71352 45.6576 2.96511L45.6073 3.01542Z" fill="#7DC435"/>
<g style="mix-blend-mode:multiply">
<path d="M37.6065 8.90283C38.1097 9.00347 38.6297 9.08734 39.1664 9.15443C39.3677 9.15443 39.6193 9.15443 39.8205 9.15443C39.8205 9.15443 40.7263 9.25506 40.9779 9.30538C41.1792 9.3557 41.5314 9.45635 41.5314 9.50667C41.5314 9.70795 40.676 9.85889 40.1728 9.80857C39.7702 9.80857 39.418 9.75826 39.1161 9.70795C38.4116 9.60731 37.8078 9.40603 37.2039 9.20475C37.0697 9.17121 36.9524 9.12088 36.8517 9.05378L37.6065 8.90283Z" fill="#C3DAB4"/>
</g>
<path d="M35.4931 8.44988C36.0969 8.55052 36.7175 8.65116 37.3549 8.7518C37.9587 8.85244 38.5626 8.95308 39.1664 9.0034C39.4683 9.03694 39.7535 9.03694 40.0218 9.0034C40.3237 9.0034 40.5753 8.95307 40.7263 8.85243C40.8269 8.78534 40.8269 8.65116 40.7263 8.44988C40.6256 8.2486 40.4747 8.04732 40.3237 7.84604L40.0218 7.54412L40.525 7.44349C41.0785 7.39318 41.6321 7.29254 42.1352 7.1919C42.672 7.09126 43.1919 6.97384 43.6951 6.83966C43.93 6.73902 44.148 6.63838 44.3493 6.53774C44.5002 6.4371 44.6009 6.28615 44.6009 6.18551C44.6009 6.08487 44.4499 5.9339 44.299 5.78295C44.0977 5.63199 43.8964 5.53136 43.6448 5.3804L43.2926 5.22945L43.6448 5.07848C44.0977 4.82688 44.5506 4.52497 44.9531 4.22306C45.1544 4.05533 45.3221 3.87082 45.4563 3.66954C45.6073 3.46826 45.6576 3.21666 45.6073 3.01538H45.6576C45.7582 3.21666 45.7079 3.51859 45.557 3.71986C45.4563 3.92114 45.3054 4.12241 45.1041 4.32369C44.7518 4.67592 44.299 4.97785 43.7958 5.22945C44.0306 5.33008 44.2654 5.46426 44.5002 5.63199C44.7015 5.78295 44.9028 5.93391 44.9531 6.18551C44.9531 6.43711 44.7519 6.63839 44.5506 6.73903C44.3493 6.88998 44.0977 6.99061 43.8461 7.09125C42.8397 7.44349 41.7327 7.59446 40.5753 7.74541L40.6257 7.69509C40.8269 7.89637 40.9779 8.14796 41.0785 8.34924C41.1792 8.60083 41.1792 8.85243 40.9276 9.05371C40.7263 9.20466 40.3741 9.255 40.0721 9.255C39.7702 9.255 39.4683 9.23822 39.1664 9.20467C37.9084 9.05371 36.7007 8.80212 35.4427 8.44988H35.4931Z" fill="#488C1C"/>
<g style="mix-blend-mode:multiply">
<path d="M35.3925 8.44987C35.7279 8.21504 36.0466 7.99698 36.3485 7.79571C38.2104 6.53772 40.2231 5.38038 42.2862 4.42432C41.8333 4.72623 41.3302 5.02814 40.8773 5.27974C40.4244 5.58165 39.9212 5.88358 39.4683 6.18549C38.5122 6.78933 37.5562 7.39316 36.6504 7.99699C36.3821 8.19827 36.1137 8.38276 35.8453 8.5505L35.3925 8.44987Z" fill="#A9C994"/>
</g>
<path d="M42.2862 4.42432C40.2231 5.4307 38.2606 6.53772 36.3988 7.79571C35.4931 8.44986 34.537 9.10401 33.6816 9.80848C32.7758 10.513 31.9204 11.2174 31.1656 11.9722H31.1153C31.4843 11.5697 31.8701 11.1839 32.2726 10.8149C32.6752 10.4123 33.0945 10.0433 33.5306 9.70785C34.386 8.95306 35.2918 8.29891 36.2479 7.64475C37.1536 7.04092 38.16 6.43709 39.1664 5.88358C39.6696 5.61521 40.1728 5.34683 40.676 5.07846C41.2127 4.84364 41.7495 4.62559 42.2862 4.42432Z" fill="#4D9E35"/>
<path d="M29.6057 11.7709C30.5115 10.9658 31.5682 10.3117 32.5746 9.60721C33.6313 8.95305 34.6376 8.24859 35.6943 7.64475C37.8078 6.43709 39.9715 5.33007 42.2862 4.42432C41.7495 4.69269 41.2127 4.96106 40.676 5.22943C40.1057 5.4978 39.5522 5.76616 39.0154 6.03453C37.9587 6.58804 36.902 7.19187 35.8453 7.79571C34.7886 8.44986 33.7822 9.10402 32.7758 9.75817L31.1656 10.7646C30.6289 11.0665 30.1089 11.4019 29.6057 11.7709Z" fill="#7DC435"/>
<path d="M39.1664 6.38677C39.1664 7.94667 37.9084 9.20465 36.3485 9.20465C34.7383 9.20465 33.4803 7.94667 33.4803 6.38677C33.4803 4.77655 34.7383 3.51855 36.3485 3.51855C37.9084 3.51855 39.1664 4.77655 39.1664 6.38677Z" fill="#CF3D12"/>
<path style="mix-blend-mode:screen" d="M34.2351 7.64477C33.6816 6.83966 33.6816 5.68232 34.2854 4.82689C35.1408 3.71986 36.7007 3.51858 37.8078 4.32369C37.9755 4.45788 38.1265 4.60883 38.2607 4.77656C36.2479 4.37401 34.688 5.8836 34.2351 7.64477Z" fill="url(#paint12_linear_1_136)"/>
<path style="mix-blend-mode:screen" d="M38.8142 10.6639C36.6001 11.6702 34.2854 11.3683 33.6313 10.0097C32.9771 8.65109 34.2854 6.68863 36.4995 5.63192C38.7135 4.62553 41.0282 4.87712 41.6824 6.28607C42.3365 7.64469 41.0282 9.60715 38.8142 10.6639Z" fill="url(#paint13_radial_1_136)"/>
<defs>
<radialGradient id="paint0_radial_1_136" cx="0" cy="0" r="1" gradientUnits="userSpaceOnUse" gradientTransform="translate(27.0897 29.0304) scale(16.2029 16.2028)">
<stop stop-color="white"/>
<stop offset="0.1" stop-color="#EFEFEF"/>
<stop offset="0.3" stop-color="#C3C3C3"/>
<stop offset="0.6" stop-color="#878787"/>
<stop offset="1"/>
</radialGradient>
<radialGradient id="paint1_radial_1_136" cx="0" cy="0" r="1" gradientUnits="userSpaceOnUse" gradientTransform="translate(17.3781 20.7277) scale(16.4041 16.4041)">
<stop stop-color="#AB7761"/>
<stop offset="0.1" stop-color="#B1816C"/>
<stop offset="0.2" stop-color="#B78B78"/>
<stop offset="0.5" stop-color="#D4BBB0"/>
<stop offset="0.7" stop-color="#E8DBD5"/>
<stop offset="0.9" stop-color="#F8F4F2"/>
<stop offset="1" stop-color="white"/>
</radialGradient>
<radialGradient id="paint2_radial_1_136" cx="0" cy="0" r="1" gradientUnits="userSpaceOnUse" gradientTransform="translate(32.2727 16.7022) scale(16.9576 16.9576)">
<stop stop-color="#AB7761"/>
<stop offset="0.1" stop-color="#B1816C"/>
<stop offset="0.2" stop-color="#B78B78"/>
<stop offset="0.5" stop-color="#D4BBB0"/>
<stop offset="0.7" stop-color="#E8DBD5"/>
<stop offset="0.9" stop-color="#F8F4F2"/>
<stop offset="1" stop-color="white"/>
</radialGradient>
<radialGradient id="paint3_radial_1_136" cx="0" cy="0" r="1" gradientUnits="userSpaceOnUse" gradientTransform="translate(44.0977 17.759) scale(16.3538)">
<stop stop-color="#AB7761"/>
<stop offset="0.1" stop-color="#B1816C"/>
<stop offset="0.2" stop-color="#B78B78"/>
<stop offset="0.5" stop-color="#D4BBB0"/>
<stop offset="0.7" stop-color="#E8DBD5"/>
<stop offset="0.9" stop-color="#F8F4F2"/>
<stop offset="1" stop-color="white"/>
</radialGradient>
<radialGradient id="paint4_radial_1_136" cx="0" cy="0" r="1" gradientUnits="userSpaceOnUse" gradientTransform="translate(50.7399 21.8851) scale(16.1022 16.1022)">
<stop stop-color="#AB7761"/>
<stop offset="0.1" stop-color="#B1816C"/>
<stop offset="0.2" stop-color="#B78B78"/>
<stop offset="0.5" stop-color="#D4BBB0"/>
<stop offset="0.7" stop-color="#E8DBD5"/>
<stop offset="0.9" stop-color="#F8F4F2"/>
<stop offset="1" stop-color="white"/>
</radialGradient>
<radialGradient id="paint5_radial_1_136" cx="0" cy="0" r="1" gradientUnits="userSpaceOnUse" gradientTransform="translate(25.8318 16.702) scale(3.22044 3.22044)">
<stop stop-color="#DF7548"/>
<stop offset="0.4" stop-color="#83452A"/>
<stop offset="0.6" stop-color="#4D2819"/>
<stop offset="0.8" stop-color="#1D0F09"/>
<stop offset="1"/>
</radialGradient>
<radialGradient id="paint6_radial_1_136" cx="0" cy="0" r="1" gradientUnits="userSpaceOnUse" gradientTransform="translate(38.1097 16.2491) scale(2.36501 2.36501)">
<stop stop-color="#DF7548"/>
<stop offset="0.4" stop-color="#83452A"/>
<stop offset="0.6" stop-color="#4D2819"/>
<stop offset="0.8" stop-color="#1D0F09"/>
<stop offset="1"/>
</radialGradient>
<radialGradient id="paint7_radial_1_136" cx="0" cy="0" r="1" gradientUnits="userSpaceOnUse" gradientTransform="translate(48.5258 19.6205) scale(2.41533)">
<stop stop-color="#DF7548"/>
<stop offset="0.4" stop-color="#83452A"/>
<stop offset="0.6" stop-color="#4D2819"/>
<stop offset="0.8" stop-color="#1D0F09"/>
<stop offset="1"/>
</radialGradient>
<radialGradient id="paint8_radial_1_136" cx="0" cy="0" r="1" gradientUnits="userSpaceOnUse" gradientTransform="translate(58.7909 25.9105) scale(2.41533 2.41533)">
<stop stop-color="#DF7548"/>
<stop offset="0.4" stop-color="#83452A"/>
<stop offset="0.6" stop-color="#4D2819"/>
<stop offset="0.8" stop-color="#1D0F09"/>
<stop offset="1"/>
</radialGradient>
<radialGradient id="paint9_radial_1_136" cx="0" cy="0" r="1" gradientUnits="userSpaceOnUse" gradientTransform="translate(19.6425 6.88981) scale(2.51597 2.51597)">
<stop stop-color="#FF8652"/>
<stop offset="0.2" stop-color="#DF7548"/>
<stop offset="0.4" stop-color="#83452A"/>
<stop offset="0.6" stop-color="#4D2819"/>
<stop offset="0.8" stop-color="#1D0F09"/>
<stop offset="1"/>
</radialGradient>
<radialGradient id="paint10_radial_1_136" cx="0" cy="0" r="1" gradientUnits="userSpaceOnUse" gradientTransform="translate(45.708 4.9778) scale(2.51597)">
<stop stop-color="#FF8652"/>
<stop offset="0.2" stop-color="#DF7548"/>
<stop offset="0.4" stop-color="#83452A"/>
<stop offset="0.6" stop-color="#4D2819"/>
<stop offset="0.8" stop-color="#1D0F09"/>
<stop offset="1"/>
</radialGradient>
<radialGradient id="paint11_radial_1_136" cx="0" cy="0" r="1" gradientUnits="userSpaceOnUse" gradientTransform="translate(57.5833 9.70775) scale(2.61661)">
<stop stop-color="#FF8652"/>
<stop offset="0.2" stop-color="#DF7548"/>
<stop offset="0.4" stop-color="#83452A"/>
<stop offset="0.6" stop-color="#4D2819"/>
<stop offset="0.8" stop-color="#1D0F09"/>
<stop offset="1"/>
</radialGradient>
<linearGradient id="paint12_linear_1_136" x1="54.061" y1="4.67593" x2="53.2055" y2="10.3117" gradientUnits="userSpaceOnUse">
<stop stop-color="white"/>
<stop offset="1"/>
</linearGradient>
<radialGradient id="paint13_radial_1_136" cx="0" cy="0" r="1" gradientUnits="userSpaceOnUse" gradientTransform="translate(37.6568 8.14789) scale(2.41533 2.41533)">
<stop stop-color="#FF8957"/>
<stop offset="0.2" stop-color="#A05434"/>
<stop offset="0.3" stop-color="#713B25"/>
<stop offset="0.5" stop-color="#4A2718"/>
<stop offset="0.6" stop-color="#2E180F"/>
<stop offset="0.8" stop-color="#130A06"/>
<stop offset="1"/>
</radialGradient>
</defs>
</svg>
