<svg width="28" height="25" viewBox="0 0 28 25" fill="none" xmlns="http://www.w3.org/2000/svg">
<path d="M4.87271 13.3215C4.87123 13.3135 4.86989 13.3055 4.86868 13.2973L3.17408 3.12972C3.00665 2.12517 2.13751 1.38889 1.11909 1.38889H0.694444C0.310913 1.38889 0 1.07798 0 0.694444C0 0.310913 0.310913 0 0.694444 0H1.11909C2.77439 0 4.19309 1.16707 4.52119 2.77778H27.0833C27.5447 2.77778 27.8778 3.21938 27.7511 3.663L24.9733 13.3852C24.8881 13.6833 24.6156 13.8889 24.3056 13.8889H6.37532L6.54814 14.9258C6.71557 15.9304 7.58472 16.6667 8.60313 16.6667H24.3056C24.6891 16.6667 25 16.9776 25 17.3611C25 17.7446 24.6891 18.0556 24.3056 18.0556H8.60313C6.90577 18.0556 5.4572 16.8284 5.17815 15.1542L4.87271 13.3215V13.3215ZM4.75495 4.16667L6.14384 12.5H23.7817L26.1627 4.16667H4.75495ZM8.33333 25C6.79921 25 5.55556 23.7563 5.55556 22.2222C5.55556 20.6881 6.79921 19.4444 8.33333 19.4444C9.86746 19.4444 11.1111 20.6881 11.1111 22.2222C11.1111 23.7563 9.86746 25 8.33333 25ZM8.33333 23.6111C9.1004 23.6111 9.72222 22.9893 9.72222 22.2222C9.72222 21.4552 9.1004 20.8333 8.33333 20.8333C7.56627 20.8333 6.94444 21.4552 6.94444 22.2222C6.94444 22.9893 7.56627 23.6111 8.33333 23.6111ZM20.8333 25C19.2992 25 18.0556 23.7563 18.0556 22.2222C18.0556 20.6881 19.2992 19.4444 20.8333 19.4444C22.3675 19.4444 23.6111 20.6881 23.6111 22.2222C23.6111 23.7563 22.3675 25 20.8333 25ZM20.8333 23.6111C21.6004 23.6111 22.2222 22.9893 22.2222 22.2222C22.2222 21.4552 21.6004 20.8333 20.8333 20.8333C20.0663 20.8333 19.4444 21.4552 19.4444 22.2222C19.4444 22.9893 20.0663 23.6111 20.8333 23.6111Z" fill="white"/>
</svg>
