<svg width="28" height="25" viewBox="0 0 28 25" fill="none" xmlns="http://www.w3.org/2000/svg">
<path d="M13.9409 25C13.7796 25 13.6253 24.9352 13.5122 24.8206L3.50815 14.6667C1.24715 12.4056 0 9.71302 0 7.08755C0 2.8484 2.81632 0 7.00837 0C10.6119 0 12.04 1.60074 13.9409 3.83504C15.8419 1.60097 17.2695 0 20.8732 0C25.0657 0 27.8826 2.8484 27.8826 7.08755C27.8826 9.71302 26.6359 12.4059 24.3722 14.6698L14.3694 24.8207C14.2562 24.9355 14.1019 25 13.9409 25ZM7.00837 1.20355C3.48218 1.20355 1.20355 3.5132 1.20355 7.08755C1.20355 9.39141 2.32528 11.7819 4.36244 13.8189L13.9409 23.5411L23.5182 13.8221C25.5575 11.7823 26.679 9.39173 26.679 7.08764C26.679 3.51329 24.3999 1.20364 20.8732 1.20364C17.7586 1.20364 16.6265 2.53476 14.7508 4.74022L14.398 5.15427C14.2836 5.28812 14.1166 5.36489 13.9409 5.36489C13.7652 5.36489 13.5979 5.28812 13.4838 5.15427L13.1333 4.74286C11.2567 2.53567 10.1239 1.20355 7.00837 1.20355Z" fill="white"/>
</svg>
