<svg width="15" height="12" viewBox="0 0 15 12" fill="none" xmlns="http://www.w3.org/2000/svg">
<path d="M0.750007 6.75005L12.4396 6.75005L8.46983 10.7198C8.17695 11.0127 8.17695 11.4875 8.46983 11.7803C8.7627 12.0732 9.23765 12.0732 9.53052 11.7803L14.7806 6.5303C15.0734 6.23742 15.0734 5.76248 14.7806 5.46979L9.53052 0.219746C9.38408 0.073307 9.19208 -5.72205e-06 9.00008 -5.72205e-06C8.80827 -5.72205e-06 8.61627 0.073307 8.46983 0.219746C8.17695 0.512623 8.17695 0.987566 8.46983 1.28026L12.4396 5.25004L0.750007 5.25004C0.336003 5.25004 0 5.58585 0 6.00004C0 6.41424 0.335816 6.75005 0.750007 6.75005Z" fill="white"/>
</svg>
