<svg width="12" height="16" viewBox="0 0 12 16" fill="none" xmlns="http://www.w3.org/2000/svg">
<path d="M5.68682 3.79126C4.29798 3.79126 3.17188 4.91736 3.17188 6.30621C3.17188 7.69505 4.29798 8.82115 5.68682 8.82115C7.07567 8.82115 8.20177 7.69505 8.20177 6.30621C8.20177 4.91736 7.07567 3.79126 5.68682 3.79126ZM5.68682 7.69505C4.9267 7.69505 4.29798 7.0757 4.29798 6.30621C4.29798 5.53672 4.91733 4.91736 5.68682 4.91736C6.45631 4.91736 7.07567 5.53672 7.07567 6.30621C7.07567 7.0757 6.44694 7.69505 5.68682 7.69505Z" fill="#E85806"/>
<path d="M9.86275 1.87685C9.10263 1.02286 7.72316 0 5.51789 0C1.89559 0 0 2.94664 0 5.85572C0 9.66568 5.20821 15.5496 5.43343 15.8029C5.53667 15.9249 5.68681 16 5.84635 16H5.85572C6.01526 16 6.15603 15.9249 6.26864 15.8123C6.32494 15.756 7.55428 14.4235 8.80236 12.556C10.5103 10.0035 11.3736 7.74191 11.3736 5.84632C11.3736 4.40117 10.8199 2.95601 9.86275 1.87685ZM5.8651 14.5548C4.64516 13.0909 1.13547 8.65219 1.13547 5.84635C1.13547 3.57537 2.51495 1.1261 5.52727 1.1261C8.59589 1.1261 10.2475 3.55659 10.2475 5.84635C10.2475 9.14957 7.02872 13.1942 5.8651 14.5548Z" fill="#E85806"/>
</svg>
