<svg width="94" height="50" viewBox="0 0 94 50" fill="none" xmlns="http://www.w3.org/2000/svg">
<path d="M5.15219 21.3154C5.15219 21.3154 4.91677 36.6653 16.4778 39.3462C28.0389 42.0187 44.5691 47.4567 49.656 48.4377C58.3499 50.1038 75.7966 52.0151 80.4042 44.9956C89.0224 31.8869 79.37 15.8351 63.3022 12.7144C47.2345 9.59364 18.0333 11.5134 11.3741 15.5052C4.71497 19.4971 5.15219 21.3154 5.15219 21.3154Z" fill="url(#paint0_linear_1_14)"/>
<path opacity="0.6" d="M58.9132 38.7288C60.0483 39.0925 60.1996 40.9784 59.2495 42.949C58.2994 44.9195 56.6094 46.2304 55.4743 45.8667C54.3392 45.5031 54.1879 43.6171 55.138 41.6466C56.0881 39.676 57.7781 38.3652 58.9132 38.7288Z" fill="#B0BEC5"/>
<path opacity="0.6" d="M71.8616 41.4519C72.3998 42.5175 71.1638 43.9468 69.0954 44.6487C67.027 45.3507 64.9166 45.0462 64.3785 43.9806C63.8404 42.915 65.0763 41.4857 67.1447 40.7838C69.2131 40.0903 71.3235 40.3863 71.8616 41.4519Z" fill="#B0BEC5"/>
<path opacity="0.2" d="M43.4256 36.902C43.0977 35.811 44.5019 34.1196 46.5618 33.1385C48.6218 32.1491 50.5641 32.2421 50.892 33.3331C51.2199 34.4241 49.8157 36.1155 47.7558 37.0965C45.6958 38.086 43.762 37.993 43.4256 36.902Z" fill="#720A0A"/>
<path opacity="0.2" d="M40.0456 37.883C40.3063 38.9993 38.8264 40.6316 36.7328 41.5196C34.6392 42.4076 32.7306 42.2215 32.47 41.1052C32.2093 39.9888 33.6891 38.3566 35.7827 37.4686C37.8679 36.5721 39.7765 36.7582 40.0456 37.883Z" fill="#720A0A"/>
<path opacity="0.6" d="M50.5052 39.2447C50.7658 40.361 49.286 41.9933 47.1924 42.8813C45.0988 43.7693 43.1902 43.5832 42.9295 42.4669C42.6689 41.3505 44.1487 39.7183 46.2423 38.8303C48.3275 37.9423 50.2361 38.1283 50.5052 39.2447Z" fill="#B0BEC5"/>
<path opacity="0.2" d="M29.3085 34.5679C30.183 35.2783 29.6701 37.2404 28.1482 38.9488C26.6348 40.6571 24.6925 41.4605 23.8097 40.7501C22.9352 40.0397 23.4481 38.0777 24.97 36.3693C26.4834 34.6694 28.4257 33.8575 29.3085 34.5679Z" fill="#720A0A"/>
<path opacity="0.2" d="M13.493 23.3112C14.3674 24.0217 13.8545 25.9837 12.3327 27.6921C10.8108 29.4005 8.87696 30.2039 7.99412 29.4935C7.11127 28.7831 7.63257 26.821 9.15443 25.1126C10.6679 23.4043 12.6101 22.6008 13.493 23.3112Z" fill="#720A0A"/>
<path opacity="0.2" d="M18.7564 32.9524C18.6135 34.1703 16.7469 35.3712 14.586 35.6418C12.4252 35.9125 10.8024 35.1429 10.9453 33.9335C11.0883 32.7241 12.9549 31.5147 15.1157 31.2441C17.2766 30.9734 18.9078 31.7346 18.7564 32.9524Z" fill="#720A0A"/>
<path opacity="0.2" d="M24.9532 21.3153C25.5669 22.2541 24.558 24.1231 22.6998 25.5016C20.8416 26.8802 18.8405 27.2269 18.2351 26.2882C17.6297 25.3494 18.6303 23.4804 20.4885 22.1018C22.3467 20.7233 24.3394 20.3766 24.9532 21.3153Z" fill="#720A0A"/>
<path opacity="0.2" d="M35.7155 23.0745C36.8842 22.3472 38.6499 23.0407 39.6504 24.6222C40.651 26.2037 40.5164 28.0728 39.3393 28.8001C38.1706 29.5274 36.4049 28.8339 35.4044 27.2524C34.4038 25.6709 34.5383 23.8019 35.7155 23.0745Z" fill="#720A0A"/>
<path opacity="0.2" d="M21.6992 31.7854C21.489 30.6437 23.0277 29.0622 25.1381 28.2418C27.2485 27.4215 29.1319 27.6837 29.3505 28.8254C29.5607 29.9671 28.0221 31.5486 25.9116 32.369C23.8012 33.1809 21.9094 32.9187 21.6992 31.7854Z" fill="#720A0A"/>
<path opacity="0.2" d="M42.6689 29.8994C42.383 31.1172 40.4239 32.149 38.3051 32.1913C36.1779 32.242 34.6897 31.2863 34.9755 30.0685C35.2614 28.8507 37.2205 27.8189 39.3393 27.7766C41.4581 27.7258 42.9548 28.6815 42.6689 29.8994Z" fill="#720A0A"/>
<path d="M94 41.2154C94 41.2154 87.0633 33.8745 82.5314 25.3919C77.9995 16.9177 58.0303 -6.09443 24.0955 3.31847C11.8365 6.71828 6.89261 11.0061 3.97502 14.0845C2.08321 16.0889 0.779966 18.3301 0.258667 20.2499C10.5165 14.685 21.077 17.0023 29.9559 21.3155C47.823 29.9841 64.9922 40.6403 85.3397 44.2853C91.528 43.4058 94 41.2154 94 41.2154Z" fill="url(#paint1_linear_1_14)"/>
<path d="M0.258683 20.2499C-0.548489 23.2015 0.485701 25.3835 4.0339 24.7745C9.8943 23.7681 13.7452 19.8609 22.3803 22.5756C31.0153 25.2904 53.4228 40.4204 68.305 43.3805C75.7713 44.8689 81.329 44.8436 85.3397 44.2769C50.3454 34.8386 49.3533 28.7748 30.7967 20.0385C20.9172 15.3955 5.99297 15.8183 0.258683 20.2499Z" fill="#CB2027"/>
<g opacity="0.6">
<path opacity="0.6" d="M11.3657 22.6008C11.5591 22.5839 12.7026 22.1103 12.2402 21.5775C9.80182 18.8119 10.1129 15.8942 11.8029 13.3063C11.5002 12.875 11.2396 12.3844 11.0126 11.8347C8.34723 15.4798 7.7923 22.9898 11.3657 22.6008Z" fill="#A31E22"/>
<path opacity="0.6" d="M29.6869 1.17031C30.2586 0.62059 29.586 -0.445023 28.9049 0.214641C26.5675 2.45581 23.7592 3.75823 20.9425 5.02681C22.1449 4.93378 23.3556 4.84075 24.5664 4.75618C26.3489 3.83434 28.0221 2.76873 29.6869 1.17031Z" fill="#A31E22"/>
<path opacity="0.6" d="M20.1101 6.80276C21.6992 6.10081 23.1622 5.47497 24.5663 4.7561C23.3556 4.84913 22.1448 4.93371 20.9425 5.02674C17.3186 6.65899 13.7031 8.24894 11.0882 11.7164C11.063 11.7502 11.0378 11.7925 11.0126 11.8264C11.2312 12.3761 11.4918 12.8751 11.8029 13.2979C13.5686 10.5916 16.8562 8.24049 20.1101 6.80276Z" fill="#A31E22"/>
<path opacity="0.6" d="M35.9592 9.49215C40.5921 7.6231 44.7877 5.86399 48.7647 2.87013C47.9912 2.82784 47.226 2.80247 46.4441 2.7771C43.804 4.59541 41.0041 5.98239 37.994 7.15795C35.6482 8.07133 32.7053 7.98676 30.5697 9.51752C28.6695 10.8791 27.8203 13.5009 27.0972 15.4291C27.6017 15.5983 28.1145 15.7674 28.6274 15.9281C28.7451 15.6236 28.8629 15.3192 29.0142 15.0147C30.5024 11.9532 32.9576 10.71 35.9592 9.49215Z" fill="#A31E22"/>
<path opacity="0.6" d="M26.4666 25.1719C26.5843 25.9669 28.123 26.0091 27.98 25.0366C27.5428 22.085 27.4167 19.0404 28.6358 15.945C28.123 15.7843 27.6101 15.6152 27.1056 15.446C25.9116 18.6513 26.0378 22.2795 26.4666 25.1719Z" fill="#A31E22"/>
<path opacity="0.6" d="M50.9256 1.11955C51.6234 0.493717 50.4463 -0.419665 49.7316 0.214628C48.6638 1.16184 47.5708 2.00756 46.4441 2.77717C47.2176 2.79409 47.9912 2.82792 48.7647 2.8702C49.4878 2.32894 50.2109 1.75385 50.9256 1.11955Z" fill="#A31E22"/>
<path opacity="0.6" d="M36.4889 32.775C36.077 33.1641 36.2872 34.6356 36.6403 34.2973C38.4985 32.5382 39.911 30.7199 40.2726 28.3519C40.4071 27.4808 40.3146 26.6689 40.2726 25.8316C39.9615 25.7809 39.6588 25.764 39.3813 25.8232C39.4486 28.0728 39.3309 30.0856 36.4889 32.775Z" fill="#A31E22"/>
<path opacity="0.6" d="M62.9238 6.91272C63.3274 6.51523 63.1172 5.05213 62.7725 5.39042C61.6794 6.45603 60.5191 7.2341 59.3168 7.84303C59.9053 8.02063 60.4939 8.21514 61.0741 8.41811C61.6962 7.97834 62.3184 7.49627 62.9238 6.91272Z" fill="#A31E22"/>
<path opacity="0.6" d="M39.5074 21.8312C39.2468 23.3281 39.3393 24.6052 39.3813 25.823C39.6588 25.7554 39.9615 25.7807 40.2726 25.8315C40.2726 25.7977 40.2726 25.7638 40.2642 25.73C40.2053 24.2669 40.2642 22.8884 40.5416 21.5775C40.2221 21.5521 39.9026 21.5183 39.5831 21.4929C39.5663 21.6029 39.5327 21.7213 39.5074 21.8312Z" fill="#A31E22"/>
<path opacity="0.6" d="M44.5187 15.1924C49.4794 11.006 55.8023 12.004 61.0657 8.4181C60.4855 8.21513 59.9054 8.02062 59.3084 7.84302C54.4065 10.3294 46.9654 10.2364 42.4923 14.0253C39.9531 16.1734 40.1885 18.5245 39.5831 21.493C39.9026 21.5268 40.2221 21.5522 40.5416 21.5776C41.0293 19.2687 42.1728 17.1713 44.5187 15.1924Z" fill="#A31E22"/>
<g opacity="0.6">
<path opacity="0.6" d="M54.7176 30.4241C55.2641 30.4241 55.7938 30.4326 56.3151 30.4749C55.777 28.8341 56.0293 27.1681 57.1475 25.3413C56.5338 25.3751 55.9284 25.409 55.323 25.4428C54.4401 27.2526 54.2215 28.8849 54.7176 30.4241Z" fill="#A31E22"/>
<path opacity="0.6" d="M57.9043 24.2502C60.1828 21.324 63.4536 20.9604 66.5814 19.8863C68.5909 19.2013 70.4154 18.3048 72.1307 17.1969C71.6766 16.8417 71.2142 16.5034 70.7434 16.1736C68.2714 17.6621 65.6817 18.6769 62.68 19.6326C59.7288 20.5798 57.6352 21.527 55.8947 24.394C55.6761 24.7577 55.4912 25.1044 55.323 25.4512C55.9284 25.4173 56.5338 25.392 57.1475 25.3497C57.3662 24.986 57.61 24.6224 57.9043 24.2502Z" fill="#A31E22"/>
<path opacity="0.6" d="M76.9064 13.3319C77.3941 12.8499 76.1581 11.8519 75.6284 12.3678C74.0057 13.9578 72.3997 15.1671 70.7349 16.1736C71.2058 16.5034 71.6682 16.8417 72.1223 17.1969C73.8039 16.1143 75.3678 14.8288 76.9064 13.3319Z" fill="#A31E22"/>
<path opacity="0.8" d="M57.5595 33.1642C57.4502 32.5468 57.1055 32.1832 56.8196 31.6673C56.601 31.2698 56.4413 30.8723 56.3151 30.4748C55.8022 30.4325 55.2641 30.4241 54.7176 30.4241C54.8521 30.8469 55.0287 31.2698 55.2725 31.6842C57.1475 34.8472 53.3555 36.6993 53.8432 39.8793C53.9272 40.4205 55.3987 41.0548 55.2894 40.319C54.9278 37.9595 57.9883 35.6506 57.5595 33.1642Z" fill="#A31E22"/>
</g>
<path opacity="0.6" d="M68.3386 33.7561C68.1957 38.0693 72.3072 40.099 67.6996 44.8012C67.3128 45.1987 68.4563 46.239 68.8599 45.833C71.5589 43.076 71.7355 40.801 70.777 37.824C70.1716 35.955 69.9277 34.5341 70.4911 32.8681C69.8689 32.6989 69.2467 32.5382 68.6329 32.4114C68.4647 32.8512 68.3554 33.2994 68.3386 33.7561Z" fill="#A31E22"/>
<path opacity="0.6" d="M84.8015 20.3599C84.5493 19.937 83.2208 19.4719 83.7421 20.3345C86.3486 24.6393 80.5134 24.2925 77.7052 24.9099C75.0062 25.5019 73.2573 26.2292 71.3907 28.4281C70.3061 29.7051 69.1542 31.0245 68.6329 32.4199C69.2467 32.5468 69.8689 32.7075 70.4911 32.8766C70.6928 32.2592 71.0039 31.6165 71.4496 30.8892C72.6267 29.0032 73.9552 27.6416 76.0235 26.7959C80.2276 25.0621 88.4002 26.3138 84.8015 20.3599Z" fill="#A31E22"/>
</g>
<g opacity="0.2">
<path d="M39.7261 3.35236C62.9407 3.35236 76.8896 19.9286 80.3033 26.3222C83.4647 32.2423 87.7024 37.5619 90.1659 40.4374C88.9804 40.9194 87.282 41.4353 84.9866 41.7567C83.6245 41.9512 82.2035 42.0442 80.648 42.0442H80.4883H80.4799C79.6307 42.0442 78.8319 42.4755 78.3694 43.1944C78.3442 43.2367 78.3106 43.2874 78.2854 43.3382C76.629 45.8162 71.87 47.1778 64.8745 47.1778C58.9216 47.1778 53.0781 46.2306 50.1268 45.6639C47.9071 45.2411 43.1734 43.8541 37.6829 42.2472C30.9649 40.2851 23.3556 38.0524 17.0412 36.5893C13.5771 35.7859 9.17964 32.9696 7.91844 24.098C7.81754 23.3791 7.41395 22.7448 6.81698 22.3473C6.39658 22.0682 5.90891 21.9245 5.42125 21.9245C5.21105 21.9245 4.99244 21.9498 4.79064 22.009C4.31979 22.1274 3.95825 22.212 3.61352 22.2712C3.36128 22.3135 3.12585 22.3389 2.92406 22.3389C2.73908 22.3389 2.62137 22.3219 2.5541 22.305C2.53729 22.2289 2.52047 22.0851 2.52888 21.8906C2.52888 21.8483 2.52888 21.7976 2.52888 21.7553C2.52047 21.4424 2.57933 21.0534 2.68863 20.6559C3.11744 19.0744 4.28616 17.1799 5.79961 15.5731C8.67516 12.5369 13.4257 8.64659 24.7682 5.5005C29.8634 4.07122 34.8999 3.35236 39.7261 3.35236ZM39.7261 0.815186C34.8999 0.815186 29.6869 1.48331 24.0955 3.03944C11.8366 6.43925 6.89265 10.7271 3.97506 13.8055C2.08325 15.8099 0.780006 18.051 0.258707 19.9708C0.0821384 20.622 -0.00194218 21.231 0.00646587 21.7807C-0.0692066 23.599 0.830455 24.8676 2.92406 24.8676C3.26038 24.8676 3.63033 24.8337 4.03392 24.7661C4.50477 24.6815 4.96721 24.58 5.42125 24.4616C6.08548 29.1469 8.4061 37.1982 16.4778 39.0673C28.0389 41.7398 44.5691 47.1778 49.656 48.1588C53.5993 48.9115 59.342 49.7234 64.8745 49.7234C71.5337 49.7234 77.8902 48.5563 80.4042 44.7252C80.4294 44.6829 80.4546 44.6406 80.4799 44.5983C80.5387 44.5983 80.5976 44.5983 80.648 44.5983C82.3801 44.5983 83.9272 44.4884 85.3313 44.2854C91.5196 43.4058 93.9916 41.2239 93.9916 41.2239C93.9916 41.2239 93.9327 41.1647 93.8487 41.0716C93.9412 41.004 93.9916 40.9617 93.9916 40.9617C93.9916 40.9617 87.055 33.6208 82.523 25.1382C78.7394 18.0341 64.1935 0.815186 39.7261 0.815186Z" fill="#434343"/>
</g>
<defs>
<linearGradient id="paint0_linear_1_14" x1="43.4781" y1="12.7431" x2="52.1659" y2="47.6188" gradientUnits="userSpaceOnUse">
<stop offset="0.1001" stop-color="#F5F5F5"/>
<stop offset="1" stop-color="#D0D8DC"/>
</linearGradient>
<linearGradient id="paint1_linear_1_14" x1="17.5772" y1="5.42293" x2="79.3999" y2="50.4156" gradientUnits="userSpaceOnUse">
<stop offset="0.2588" stop-color="#FF8A00"/>
<stop offset="1" stop-color="#FF5C00"/>
</linearGradient>
</defs>
</svg>
