<svg width="12" height="14" viewBox="0 0 12 14" fill="none" xmlns="http://www.w3.org/2000/svg">
<path d="M6 7C6.69223 7 7.36892 6.79473 7.9445 6.41014C8.52007 6.02556 8.96867 5.47893 9.23358 4.83939C9.49849 4.19985 9.5678 3.49612 9.43275 2.81719C9.2977 2.13825 8.96436 1.51461 8.47487 1.02513C7.98539 0.535644 7.36175 0.202301 6.68282 0.0672531C6.00388 -0.0677952 5.30015 0.00151649 4.66061 0.266423C4.02107 0.53133 3.47444 0.979934 3.08986 1.55551C2.70527 2.13108 2.5 2.80777 2.5 3.5C2.5 4.42826 2.86875 5.3185 3.52513 5.97487C4.1815 6.63125 5.07174 7 6 7ZM6 1C6.49445 1 6.9778 1.14662 7.38893 1.42133C7.80005 1.69603 8.12048 2.08648 8.3097 2.54329C8.49892 3.00011 8.54843 3.50277 8.45196 3.98773C8.3555 4.47268 8.1174 4.91814 7.76777 5.26777C7.41814 5.6174 6.97268 5.8555 6.48773 5.95196C6.00277 6.04843 5.50011 5.99892 5.04329 5.8097C4.58648 5.62048 4.19603 5.30005 3.92133 4.88893C3.64662 4.4778 3.5 3.99445 3.5 3.5C3.5 2.83696 3.76339 2.20108 4.23223 1.73223C4.70107 1.26339 5.33696 1 6 1Z" fill="white"/>
<path d="M6.5 8H5.5C4.04131 8 2.64236 8.57946 1.61091 9.61091C0.579463 10.6424 0 12.0413 0 13.5C0 13.6326 0.0526785 13.7598 0.146447 13.8536C0.240215 13.9473 0.367392 14 0.5 14H11.5C11.6326 14 11.7598 13.9473 11.8536 13.8536C11.9473 13.7598 12 13.6326 12 13.5C12 12.0413 11.4205 10.6424 10.3891 9.61091C9.35764 8.57946 7.95869 8 6.5 8ZM1.03 13C1.15295 11.9003 1.67676 10.8845 2.50134 10.1466C3.32592 9.40873 4.39347 9.00053 5.5 9H6.5C7.60653 9.00053 8.67408 9.40873 9.49866 10.1466C10.3232 10.8845 10.8471 11.9003 10.97 13H1.03Z" fill="white"/>
</svg>
