<svg width="19" height="19" viewBox="0 0 19 19" fill="none" xmlns="http://www.w3.org/2000/svg">
<path d="M14.264 7.34551C14.1872 6.73322 13.9953 6.25244 13.6547 5.82656C13.2123 5.27818 12.647 4.94986 11.81 4.75505C11.2646 4.62521 11.0442 4.64012 10.847 4.81691C10.6632 4.98253 10.6274 5.31453 10.7677 5.52961C10.8665 5.68567 10.9805 5.74152 11.2973 5.80254C11.7192 5.87873 12.0108 5.97758 12.2761 6.12634C12.839 6.44531 13.1012 6.94435 13.1293 7.75235C13.1424 8.13169 13.1759 8.2483 13.3109 8.38286C13.5612 8.62879 14.0067 8.58101 14.1957 8.28665C14.265 8.17572 14.2756 8.12743 14.2829 7.86987C14.2878 7.71038 14.2808 7.47297 14.264 7.34551Z" fill="#7F4DA0"/>
<path d="M16.4691 8.03616C16.3579 6.16021 15.61 4.65094 14.2715 3.58906C13.5174 2.99233 12.6058 2.58206 11.6066 2.38255C11.2405 2.31114 10.5667 2.25335 10.451 2.28641C10.3419 2.31708 10.1876 2.43291 10.1189 2.53777C10.0461 2.65141 10.0297 2.90516 10.0918 3.05192C10.1919 3.29728 10.3782 3.38399 10.8999 3.4288C11.7043 3.49783 12.5338 3.77502 13.1606 4.18547C13.8762 4.65275 14.4451 5.29191 14.8131 6.04296C15.1311 6.68831 15.3266 7.61828 15.3212 8.45107C15.3194 8.75222 15.3669 8.92235 15.4903 9.04671C15.6766 9.2379 15.9483 9.27974 16.1881 9.15273C16.4538 9.01565 16.5159 8.77501 16.4691 8.03616Z" fill="#7F4DA0"/>
<path d="M18.9092 15.2604C18.8718 15.1531 18.7845 14.9878 18.7222 14.8928C18.3294 14.3109 16.2189 12.6905 15.1652 12.1606C14.5636 11.8574 14.1178 11.7564 13.7874 11.8512C13.432 11.9493 13.2449 12.1116 12.6495 12.8375C12.4095 13.1286 12.1632 13.4012 12.0977 13.444C11.9356 13.5543 11.6176 13.6432 11.3932 13.6432C10.8726 13.6401 9.92805 13.3093 9.20166 12.8743C8.63744 12.5374 7.91422 11.934 7.35927 11.3367C6.70463 10.6353 6.25887 10.0165 5.90657 9.31815C5.45147 8.42073 5.33609 7.87242 5.52623 7.47113C5.57302 7.37008 5.63542 7.2629 5.66339 7.22919C5.69149 7.19859 5.98456 6.96272 6.30869 6.70542C6.94471 6.20922 7.04758 6.0959 7.16598 5.75589C7.31564 5.32399 7.27517 4.88293 7.04442 4.43884C6.86672 4.10186 6.40228 3.36675 6.06557 2.89199C5.61982 2.26716 4.51 0.931711 4.2886 0.750921C3.88964 0.432409 3.3784 0.377268 2.81411 0.591697C2.21876 0.81833 1.10269 1.70052 0.625707 2.31617C0.195509 2.87365 0.0303364 3.26874 0.00537323 3.78941C-0.0164309 4.21827 0.0209647 4.3959 0.251655 4.94421C2.0566 9.24461 4.75002 12.6783 8.4504 15.4044C10.3832 16.8286 12.3876 17.913 14.467 18.6543C15.6796 19.0861 16.2064 19.1075 16.8268 18.7523C17.0887 18.5991 17.737 17.9467 18.0987 17.4719C18.6972 16.6816 18.9186 16.3172 18.9809 16.0262C19.0246 15.827 18.9903 15.4809 18.9092 15.2604Z" fill="#7F4DA0"/>
<path d="M18.7139 8.46689C18.674 7.40578 18.4919 6.53541 18.1121 5.56496C17.7373 4.61045 17.3578 3.9875 16.6413 3.14502C15.9638 2.3551 15.4376 1.90403 14.6031 1.40202C13.4388 0.702493 12.0218 0.239556 10.4338 0.0448711C9.89232 -0.0231703 9.76978 -0.0183084 9.60366 0.0904495C9.2817 0.296492 9.28598 0.810321 9.60893 1.01326C9.71587 1.07783 9.81071 1.10139 10.2439 1.15699C10.9089 1.2448 11.3365 1.32757 11.8438 1.46342C13.8334 1.99695 15.3633 3.08762 16.3862 4.70666C17.2422 6.05606 17.5975 7.40565 17.5471 9.12929C17.5295 9.71195 17.5423 9.81448 17.6331 9.95453C17.8069 10.2154 18.2655 10.2671 18.5007 10.0505C18.6471 9.91856 18.6746 9.81952 18.7035 9.3208C18.7173 9.06059 18.7202 8.67654 18.7139 8.46689Z" fill="#7F4DA0"/>
</svg>
