<svg width="19" height="19" viewBox="0 0 19 19" fill="none" xmlns="http://www.w3.org/2000/svg">
<path fill-rule="evenodd" clip-rule="evenodd" d="M9.53981 18.8367H9.5359C7.95257 18.8362 6.39682 18.4408 5.01501 17.6907L0 19L1.3421 14.1212C0.514209 12.6934 0.0786197 11.0738 0.0792826 9.41437C0.0814039 4.22335 4.32527 0 9.53967 0C12.0704 0.00108854 14.4457 0.981607 16.2318 2.76121C18.0179 4.54074 19.001 6.90617 19 9.42183C18.9979 14.6117 14.7557 18.8346 9.53981 18.8367ZM5.24742 15.9863L5.53452 16.1559C6.74179 16.8689 8.12565 17.2461 9.53662 17.2467H9.53981C13.8736 17.2467 17.401 13.7361 17.4027 9.4213C17.4035 7.33031 16.5865 5.36427 15.1019 3.88511C13.6173 2.40595 11.6431 1.59093 9.54286 1.5902C5.20566 1.5902 1.67832 5.10038 1.6766 9.41497C1.676 10.8936 2.0917 12.3336 2.87876 13.5795L3.06576 13.8755L2.27141 16.7632L5.24742 15.9863ZM13.9821 11.4488C14.1469 11.5281 14.2583 11.5817 14.3058 11.6607C14.3649 11.7588 14.3649 12.2298 14.168 12.7793C13.9709 13.3289 13.0266 13.8304 12.5724 13.8979C12.1652 13.9585 11.6498 13.9838 11.0836 13.8047C10.7402 13.6963 10.3 13.5516 9.73602 13.3092C7.52003 12.3569 6.02241 10.2194 5.73936 9.81535C5.71954 9.78705 5.70568 9.76726 5.69793 9.75697L5.69607 9.75446C5.57098 9.58834 4.73275 8.47532 4.73275 7.32345C4.73275 6.23979 5.26757 5.67183 5.51377 5.41039C5.53068 5.39251 5.54619 5.37602 5.56004 5.36091C5.77674 5.12539 6.03282 5.06647 6.19039 5.06647C6.34796 5.06647 6.50573 5.06792 6.64348 5.07485C6.66045 5.07571 6.67815 5.07558 6.69638 5.07545C6.83413 5.07465 7.00589 5.07367 7.17532 5.47867C7.24048 5.63449 7.33588 5.8656 7.43644 6.1093C7.63981 6.60211 7.8646 7.14664 7.90411 7.22541C7.96324 7.34317 8.00262 7.48053 7.9238 7.63754C7.912 7.66109 7.90106 7.68333 7.89059 7.70457C7.83139 7.82484 7.7879 7.91324 7.68741 8.03001C7.64797 8.07586 7.60713 8.12534 7.5663 8.17482C7.48496 8.27338 7.40369 8.37195 7.33289 8.44214C7.2145 8.55944 7.09133 8.6867 7.22922 8.92222C7.3671 9.15774 7.84153 9.9281 8.5442 10.5519C9.29964 11.2225 9.95617 11.5059 10.2889 11.6495C10.3539 11.6776 10.4065 11.7003 10.4452 11.7196C10.6814 11.8373 10.8193 11.8176 10.9573 11.6607C11.0952 11.5036 11.5482 10.9737 11.7057 10.7382C11.8633 10.5028 12.0209 10.542 12.2375 10.6205C12.4543 10.6991 13.6164 11.2681 13.8528 11.3859C13.8989 11.4088 13.9421 11.4296 13.9821 11.4488Z" fill="#25D366"/>
</svg>
